<?xml version="1.0" encoding="UTF-8" standalone="no"?>
<!DOCTYPE svg PUBLIC "-//W3C//DTD SVG 1.1//EN"
 "http://www.w3.org/Graphics/SVG/1.1/DTD/svg11.dtd">
<!-- Generated by graphviz version 2.36.0 (20140111.2315)
 -->
<!-- Title: circle.h Pages: 1 -->
<svg width="142pt" height="140pt"
 viewBox="0.00 0.00 142.00 140.00" xmlns="http://www.w3.org/2000/svg" xmlns:xlink="http://www.w3.org/1999/xlink">
<g id="graph0" class="graph" transform="scale(1 1) rotate(0) translate(4 136)">
<title>circle.h</title>
<polygon fill="white" stroke="none" points="-4,4 -4,-136 138,-136 138,4 -4,4"/>
<!-- Node1 -->
<g id="node1" class="node"><title>Node1</title>
<polygon fill="#bfbfbf" stroke="black" points="47,-112.5 47,-131.5 95,-131.5 95,-112.5 47,-112.5"/>
<text text-anchor="middle" x="71" y="-119.5" font-family="Helvetica,sans-Serif" font-size="10.00">circle.h</text>
</g>
<!-- Node2 -->
<g id="node2" class="node"><title>Node2</title>
<polygon fill="white" stroke="#bfbfbf" points="0,-0.5 0,-19.5 54,-19.5 54,-0.5 0,-0.5"/>
<text text-anchor="middle" x="27" y="-7.5" font-family="Helvetica,sans-Serif" font-size="10.00">iostream</text>
</g>
<!-- Node1&#45;&gt;Node2 -->
<g id="edge1" class="edge"><title>Node1&#45;&gt;Node2</title>
<path fill="none" stroke="midnightblue" d="M61.8985,-112.277C53.6865,-103.824 42.0028,-90.2252 36,-76 29.8337,-61.3874 27.7125,-43.4448 27.0603,-30.1157"/>
<polygon fill="midnightblue" stroke="midnightblue" points="30.551,-29.6983 26.8007,-19.7894 23.5533,-29.8743 30.551,-29.6983"/>
</g>
<!-- Node3 -->
<g id="node3" class="node"><title>Node3</title>
<polygon fill="white" stroke="#bfbfbf" points="93.5,-0.5 93.5,-19.5 134.5,-19.5 134.5,-0.5 93.5,-0.5"/>
<text text-anchor="middle" x="114" y="-7.5" font-family="Helvetica,sans-Serif" font-size="10.00">string</text>
</g>
<!-- Node1&#45;&gt;Node3 -->
<g id="edge2" class="edge"><title>Node1&#45;&gt;Node3</title>
<path fill="none" stroke="midnightblue" d="M79.8374,-112.226C87.8119,-103.737 99.1599,-90.1146 105,-76 111.064,-61.3446 113.194,-43.4058 113.876,-30.089"/>
<polygon fill="midnightblue" stroke="midnightblue" points="117.383,-29.8688 114.164,-19.7748 110.386,-29.673 117.383,-29.8688"/>
</g>
<!-- Node4 -->
<g id="node4" class="node"><title>Node4</title>
<g id="a_node4"><a xlink:href="shape_8h.html" target="_top" xlink:title="shape.h">
<polygon fill="white" stroke="black" points="45.5,-56.5 45.5,-75.5 96.5,-75.5 96.5,-56.5 45.5,-56.5"/>
<text text-anchor="middle" x="71" y="-63.5" font-family="Helvetica,sans-Serif" font-size="10.00">shape.h</text>
</a>
</g>
</g>
<!-- Node1&#45;&gt;Node4 -->
<g id="edge3" class="edge"><title>Node1&#45;&gt;Node4</title>
<path fill="none" stroke="midnightblue" d="M71,-112.083C71,-105.006 71,-94.8611 71,-85.9865"/>
<polygon fill="midnightblue" stroke="midnightblue" points="74.5001,-85.751 71,-75.7511 67.5001,-85.7511 74.5001,-85.751"/>
</g>
<!-- Node4&#45;&gt;Node2 -->
<g id="edge4" class="edge"><title>Node4&#45;&gt;Node2</title>
<path fill="none" stroke="midnightblue" d="M63.7343,-56.083C57.4552,-48.3768 48.2124,-37.0333 40.5692,-27.6531"/>
<polygon fill="midnightblue" stroke="midnightblue" points="43.1606,-25.2926 34.1305,-19.7511 37.7339,-29.7143 43.1606,-25.2926"/>
</g>
<!-- Node4&#45;&gt;Node3 -->
<g id="edge5" class="edge"><title>Node4&#45;&gt;Node3</title>
<path fill="none" stroke="midnightblue" d="M78.1006,-56.083C84.237,-48.3768 93.2697,-37.0333 100.739,-27.6531"/>
<polygon fill="midnightblue" stroke="midnightblue" points="103.54,-29.7542 107.032,-19.7511 98.0643,-25.3936 103.54,-29.7542"/>
</g>
</g>
</svg>
