<?xml version="1.0" encoding="UTF-8" standalone="no"?>
<!DOCTYPE svg PUBLIC "-//W3C//DTD SVG 1.1//EN"
 "http://www.w3.org/Graphics/SVG/1.1/DTD/svg11.dtd">
<!-- Generated by graphviz version 2.36.0 (20140111.2315)
 -->
<!-- Title: ShapeFactory Pages: 1 -->
<svg width="149pt" height="456pt"
 viewBox="0.00 0.00 149.00 456.00" xmlns="http://www.w3.org/2000/svg" xmlns:xlink="http://www.w3.org/1999/xlink">
<g id="graph0" class="graph" transform="scale(1 1) rotate(0) translate(4 452)">
<title>ShapeFactory</title>
<polygon fill="white" stroke="none" points="-4,4 -4,-452 145,-452 145,4 -4,4"/>
<!-- Node1 -->
<g id="node1" class="node"><title>Node1</title>
<polygon fill="#bfbfbf" stroke="black" points="17,-1 17,-91 111,-91 111,-1 17,-1"/>
<text text-anchor="middle" x="64" y="-79" font-family="Helvetica,sans-Serif" font-size="10.00">ShapeFactory</text>
<polyline fill="none" stroke="black" points="17,-72 111,-72 "/>
<text text-anchor="middle" x="64" y="-60" font-family="Helvetica,sans-Serif" font-size="10.00"> </text>
<polyline fill="none" stroke="black" points="17,-53 111,-53 "/>
<text text-anchor="start" x="25" y="-41" font-family="Helvetica,sans-Serif" font-size="10.00">+ createShape()</text>
<text text-anchor="start" x="25" y="-30" font-family="Helvetica,sans-Serif" font-size="10.00">+ isKnown()</text>
<text text-anchor="start" x="25" y="-19" font-family="Helvetica,sans-Serif" font-size="10.00">+ listKnown()</text>
<text text-anchor="start" x="25" y="-8" font-family="Helvetica,sans-Serif" font-size="10.00">+ numberKnown()</text>
</g>
<!-- Node2 -->
<g id="node2" class="node"><title>Node2</title>
<g id="a_node2"><a xlink:href="structShapeFactory_1_1ShapePair.html" target="_top" xlink:title="{ShapeFactory::ShapePair\n|+ _name\l|+ ShapePair()\l+ ShapePair()\l+ ~ShapePair()\l}">
<polygon fill="white" stroke="black" points="0,-140.5 0,-219.5 128,-219.5 128,-140.5 0,-140.5"/>
<text text-anchor="middle" x="64" y="-207.5" font-family="Helvetica,sans-Serif" font-size="10.00">ShapeFactory::ShapePair</text>
<polyline fill="none" stroke="black" points="0,-200.5 128,-200.5 "/>
<text text-anchor="start" x="8" y="-188.5" font-family="Helvetica,sans-Serif" font-size="10.00">+ _name</text>
<polyline fill="none" stroke="black" points="0,-181.5 128,-181.5 "/>
<text text-anchor="start" x="8" y="-169.5" font-family="Helvetica,sans-Serif" font-size="10.00">+ ShapePair()</text>
<text text-anchor="start" x="8" y="-158.5" font-family="Helvetica,sans-Serif" font-size="10.00">+ ShapePair()</text>
<text text-anchor="start" x="8" y="-147.5" font-family="Helvetica,sans-Serif" font-size="10.00">+ ~ShapePair()</text>
</a>
</g>
</g>
<!-- Node2&#45;&gt;Node1 -->
<g id="edge1" class="edge"><title>Node2&#45;&gt;Node1</title>
<path fill="none" stroke="#404040" d="M64,-140.465C64,-128.937 64,-116.047 64,-103.612"/>
<polygon fill="none" stroke="#404040" points="64.0001,-103.395 60,-97.3946 64,-91.3945 68,-97.3945 64.0001,-103.395"/>
<text text-anchor="middle" x="102.5" y="-113.5" font-family="Helvetica,sans-Serif" font-size="10.00"> &#45;_known_shapes</text>
</g>
<!-- Node3 -->
<g id="node3" class="node"><title>Node3</title>
<g id="a_node3"><a xlink:href="classShape.html" target="_top" xlink:title="{Shape\n|# _name\l# WIDTH_LABEL\l# WIDTH_VALUE\l|+ Shape()\l+ Shape()\l+ ~Shape()\l+ name()\l+ area()\l+ perimeter()\l+ clone()\l+ display()\l+ read()\l# name()\l}">
<polygon fill="white" stroke="black" points="15.5,-269 15.5,-447 112.5,-447 112.5,-269 15.5,-269"/>
<text text-anchor="middle" x="64" y="-435" font-family="Helvetica,sans-Serif" font-size="10.00">Shape</text>
<polyline fill="none" stroke="black" points="15.5,-428 112.5,-428 "/>
<text text-anchor="start" x="23.5" y="-416" font-family="Helvetica,sans-Serif" font-size="10.00"># _name</text>
<text text-anchor="start" x="23.5" y="-405" font-family="Helvetica,sans-Serif" font-size="10.00"># WIDTH_LABEL</text>
<text text-anchor="start" x="23.5" y="-394" font-family="Helvetica,sans-Serif" font-size="10.00"># WIDTH_VALUE</text>
<polyline fill="none" stroke="black" points="15.5,-387 112.5,-387 "/>
<text text-anchor="start" x="23.5" y="-375" font-family="Helvetica,sans-Serif" font-size="10.00">+ Shape()</text>
<text text-anchor="start" x="23.5" y="-364" font-family="Helvetica,sans-Serif" font-size="10.00">+ Shape()</text>
<text text-anchor="start" x="23.5" y="-353" font-family="Helvetica,sans-Serif" font-size="10.00">+ ~Shape()</text>
<text text-anchor="start" x="23.5" y="-342" font-family="Helvetica,sans-Serif" font-size="10.00">+ name()</text>
<text text-anchor="start" x="23.5" y="-331" font-family="Helvetica,sans-Serif" font-size="10.00">+ area()</text>
<text text-anchor="start" x="23.5" y="-320" font-family="Helvetica,sans-Serif" font-size="10.00">+ perimeter()</text>
<text text-anchor="start" x="23.5" y="-309" font-family="Helvetica,sans-Serif" font-size="10.00">+ clone()</text>
<text text-anchor="start" x="23.5" y="-298" font-family="Helvetica,sans-Serif" font-size="10.00">+ display()</text>
<text text-anchor="start" x="23.5" y="-287" font-family="Helvetica,sans-Serif" font-size="10.00">+ read()</text>
<text text-anchor="start" x="23.5" y="-276" font-family="Helvetica,sans-Serif" font-size="10.00"># name()</text>
</a>
</g>
</g>
<!-- Node3&#45;&gt;Node2 -->
<g id="edge2" class="edge"><title>Node3&#45;&gt;Node2</title>
<path fill="none" stroke="#404040" d="M64,-268.742C64,-256.145 64,-243.554 64,-232.004"/>
<polygon fill="none" stroke="#404040" points="64.0001,-231.927 60,-225.927 64,-219.927 68,-225.927 64.0001,-231.927"/>
<text text-anchor="middle" x="84.5" y="-241.5" font-family="Helvetica,sans-Serif" font-size="10.00"> +_model</text>
</g>
</g>
</svg>
