<?xml version="1.0" encoding="UTF-8" standalone="no"?>
<!DOCTYPE svg PUBLIC "-//W3C//DTD SVG 1.1//EN"
 "http://www.w3.org/Graphics/SVG/1.1/DTD/svg11.dtd">
<!-- Generated by graphviz version 2.36.0 (20140111.2315)
 -->
<!-- Title: Triangle::display Pages: 1 -->
<svg width="348pt" height="213pt"
 viewBox="0.00 0.00 348.00 213.00" xmlns="http://www.w3.org/2000/svg" xmlns:xlink="http://www.w3.org/1999/xlink">
<g id="graph0" class="graph" transform="scale(1 1) rotate(0) translate(4 209)">
<title>Triangle::display</title>
<polygon fill="white" stroke="none" points="-4,4 -4,-209 344,-209 344,4 -4,4"/>
<!-- Node1 -->
<g id="node1" class="node"><title>Node1</title>
<polygon fill="#bfbfbf" stroke="black" points="0,-90.5 0,-109.5 88,-109.5 88,-90.5 0,-90.5"/>
<text text-anchor="middle" x="44" y="-97.5" font-family="Helvetica,sans-Serif" font-size="10.00">Triangle::display</text>
</g>
<!-- Node2 -->
<g id="node2" class="node"><title>Node2</title>
<g id="a_node2"><a xlink:href="classShape.html#a614686977967fae752625a7d89bbdce9" target="_top" xlink:title="Shape::display">
<polygon fill="white" stroke="black" points="124.5,-185.5 124.5,-204.5 205.5,-204.5 205.5,-185.5 124.5,-185.5"/>
<text text-anchor="middle" x="165" y="-192.5" font-family="Helvetica,sans-Serif" font-size="10.00">Shape::display</text>
</a>
</g>
</g>
<!-- Node1&#45;&gt;Node2 -->
<g id="edge1" class="edge"><title>Node1&#45;&gt;Node2</title>
<path fill="none" stroke="midnightblue" d="M54.6949,-109.842C69.0919,-124.188 97.3024,-151.277 124,-171 128.287,-174.167 133.013,-177.292 137.67,-180.187"/>
<polygon fill="midnightblue" stroke="midnightblue" points="136.028,-183.283 146.404,-185.421 139.626,-177.279 136.028,-183.283"/>
</g>
<!-- Node4 -->
<g id="node4" class="node"><title>Node4</title>
<g id="a_node4"><a xlink:href="classTriangle.html#abbcfdb4dc6d1a68b8ea513c95617e1bf" target="_top" xlink:title="Triangle::sideA">
<polygon fill="white" stroke="black" points="250,-128.5 250,-147.5 332,-147.5 332,-128.5 250,-128.5"/>
<text text-anchor="middle" x="291" y="-135.5" font-family="Helvetica,sans-Serif" font-size="10.00">Triangle::sideA</text>
</a>
</g>
</g>
<!-- Node1&#45;&gt;Node4 -->
<g id="edge3" class="edge"><title>Node1&#45;&gt;Node4</title>
<path fill="none" stroke="midnightblue" d="M88.0088,-107.878C99.6744,-109.945 112.311,-112.12 124,-114 162.654,-120.218 206.493,-126.524 239.41,-131.111"/>
<polygon fill="midnightblue" stroke="midnightblue" points="239.307,-134.63 249.693,-132.538 240.269,-127.697 239.307,-134.63"/>
</g>
<!-- Node5 -->
<g id="node5" class="node"><title>Node5</title>
<g id="a_node5"><a xlink:href="classTriangle.html#a7dcb91647c0245980970998bcaaf34cf" target="_top" xlink:title="Triangle::sideB">
<polygon fill="white" stroke="black" points="250,-85.5 250,-104.5 332,-104.5 332,-85.5 250,-85.5"/>
<text text-anchor="middle" x="291" y="-92.5" font-family="Helvetica,sans-Serif" font-size="10.00">Triangle::sideB</text>
</a>
</g>
</g>
<!-- Node1&#45;&gt;Node5 -->
<g id="edge4" class="edge"><title>Node1&#45;&gt;Node5</title>
<path fill="none" stroke="midnightblue" d="M88.0612,-100.694C120.493,-101.049 166.047,-101.188 206,-100 216.957,-99.6742 228.706,-99.1099 239.843,-98.4748"/>
<polygon fill="midnightblue" stroke="midnightblue" points="240.085,-101.967 249.858,-97.8765 239.667,-94.9792 240.085,-101.967"/>
</g>
<!-- Node6 -->
<g id="node6" class="node"><title>Node6</title>
<g id="a_node6"><a xlink:href="classTriangle.html#a49ea69d999bd5dc233ced7df5bd887a6" target="_top" xlink:title="Triangle::sideC">
<polygon fill="white" stroke="black" points="249.5,-38.5 249.5,-57.5 332.5,-57.5 332.5,-38.5 249.5,-38.5"/>
<text text-anchor="middle" x="291" y="-45.5" font-family="Helvetica,sans-Serif" font-size="10.00">Triangle::sideC</text>
</a>
</g>
</g>
<!-- Node1&#45;&gt;Node6 -->
<g id="edge5" class="edge"><title>Node1&#45;&gt;Node6</title>
<path fill="none" stroke="midnightblue" d="M60.6682,-90.3389C76.1452,-81.319 100.8,-68.3269 124,-62 161.641,-51.7348 205.707,-48.4006 238.974,-47.5433"/>
<polygon fill="midnightblue" stroke="midnightblue" points="239.442,-51.0351 249.374,-47.3463 239.309,-44.0364 239.442,-51.0351"/>
</g>
<!-- Node7 -->
<g id="node7" class="node"><title>Node7</title>
<g id="a_node7"><a xlink:href="classTriangle.html#a864f7a8224290b17d06e462712a83732" target="_top" xlink:title="Triangle::perimeter">
<polygon fill="white" stroke="black" points="242,-0.5 242,-19.5 340,-19.5 340,-0.5 242,-0.5"/>
<text text-anchor="middle" x="291" y="-7.5" font-family="Helvetica,sans-Serif" font-size="10.00">Triangle::perimeter</text>
</a>
</g>
</g>
<!-- Node1&#45;&gt;Node7 -->
<g id="edge6" class="edge"><title>Node1&#45;&gt;Node7</title>
<path fill="none" stroke="midnightblue" d="M55.6592,-90.4508C70.0953,-78.0444 97.1548,-56.6036 124,-45 158.154,-30.2375 199.023,-21.5218 231.663,-16.4798"/>
<polygon fill="midnightblue" stroke="midnightblue" points="232.567,-19.8847 241.952,-14.9689 231.55,-12.959 232.567,-19.8847"/>
</g>
<!-- Node8 -->
<g id="node8" class="node"><title>Node8</title>
<g id="a_node8"><a xlink:href="classTriangle.html#aa74ed09360f28cdbf3aad374d97311e7" target="_top" xlink:title="Triangle::area">
<polygon fill="white" stroke="black" points="127,-71.5 127,-90.5 203,-90.5 203,-71.5 127,-71.5"/>
<text text-anchor="middle" x="165" y="-78.5" font-family="Helvetica,sans-Serif" font-size="10.00">Triangle::area</text>
</a>
</g>
</g>
<!-- Node1&#45;&gt;Node8 -->
<g id="edge7" class="edge"><title>Node1&#45;&gt;Node8</title>
<path fill="none" stroke="midnightblue" d="M88.2984,-93.0868C97.5709,-91.6063 107.412,-90.0351 116.822,-88.5325"/>
<polygon fill="midnightblue" stroke="midnightblue" points="117.495,-91.9696 126.818,-86.9366 116.391,-85.0571 117.495,-91.9696"/>
</g>
<!-- Node3 -->
<g id="node3" class="node"><title>Node3</title>
<g id="a_node3"><a xlink:href="classShape.html#ab0219a5934793fa9e4c9f8ff7426be88" target="_top" xlink:title="Shape::name">
<polygon fill="white" stroke="black" points="254,-185.5 254,-204.5 328,-204.5 328,-185.5 254,-185.5"/>
<text text-anchor="middle" x="291" y="-192.5" font-family="Helvetica,sans-Serif" font-size="10.00">Shape::name</text>
</a>
</g>
</g>
<!-- Node2&#45;&gt;Node3 -->
<g id="edge2" class="edge"><title>Node2&#45;&gt;Node3</title>
<path fill="none" stroke="midnightblue" d="M205.575,-195C217.647,-195 231.029,-195 243.514,-195"/>
<polygon fill="midnightblue" stroke="midnightblue" points="243.742,-198.5 253.742,-195 243.742,-191.5 243.742,-198.5"/>
</g>
<!-- Node8&#45;&gt;Node4 -->
<g id="edge9" class="edge"><title>Node8&#45;&gt;Node4</title>
<path fill="none" stroke="midnightblue" d="M186.755,-90.5405C206.783,-99.7472 237.321,-113.785 259.995,-124.207"/>
<polygon fill="midnightblue" stroke="midnightblue" points="258.63,-127.432 269.177,-128.428 261.553,-121.072 258.63,-127.432"/>
</g>
<!-- Node8&#45;&gt;Node5 -->
<g id="edge10" class="edge"><title>Node8&#45;&gt;Node5</title>
<path fill="none" stroke="midnightblue" d="M203.204,-85.2005C214.685,-86.4967 227.524,-87.9463 239.733,-89.3247"/>
<polygon fill="midnightblue" stroke="midnightblue" points="239.467,-92.8169 249.797,-90.4609 240.253,-85.8611 239.467,-92.8169"/>
</g>
<!-- Node8&#45;&gt;Node6 -->
<g id="edge11" class="edge"><title>Node8&#45;&gt;Node6</title>
<path fill="none" stroke="midnightblue" d="M201.866,-71.455C215.104,-67.932 230.288,-63.8911 244.281,-60.1672"/>
<polygon fill="midnightblue" stroke="midnightblue" points="245.451,-63.4776 254.215,-57.5235 243.651,-56.7131 245.451,-63.4776"/>
</g>
<!-- Node8&#45;&gt;Node7 -->
<g id="edge8" class="edge"><title>Node8&#45;&gt;Node7</title>
<path fill="none" stroke="midnightblue" d="M178.1,-71.4581C192.662,-60.2799 218.141,-41.6794 242,-29 245.695,-27.0364 249.639,-25.157 253.618,-23.3965"/>
<polygon fill="midnightblue" stroke="midnightblue" points="254.995,-26.6142 262.865,-19.5207 252.289,-20.1584 254.995,-26.6142"/>
</g>
</g>
</svg>
