<?xml version="1.0" encoding="UTF-8" standalone="no"?>
<!DOCTYPE svg PUBLIC "-//W3C//DTD SVG 1.1//EN"
 "http://www.w3.org/Graphics/SVG/1.1/DTD/svg11.dtd">
<!-- Generated by graphviz version 2.36.0 (20140111.2315)
 -->
<!-- Title: EquilateralTriangle::display Pages: 1 -->
<svg width="374pt" height="141pt"
 viewBox="0.00 0.00 374.00 140.58" xmlns="http://www.w3.org/2000/svg" xmlns:xlink="http://www.w3.org/1999/xlink">
<g id="graph0" class="graph" transform="scale(1 1) rotate(0) translate(4 136.577)">
<title>EquilateralTriangle::display</title>
<polygon fill="white" stroke="none" points="-4,4 -4,-136.577 370,-136.577 370,4 -4,4"/>
<!-- Node1 -->
<g id="node1" class="node"><title>Node1</title>
<polygon fill="#bfbfbf" stroke="black" points="0.5,-66 0.5,-96 97.5,-96 97.5,-66 0.5,-66"/>
<text text-anchor="start" x="8.5" y="-84" font-family="Helvetica,sans-Serif" font-size="10.00">EquilateralTriangle</text>
<text text-anchor="middle" x="49" y="-73" font-family="Helvetica,sans-Serif" font-size="10.00">::display</text>
</g>
<!-- Node2 -->
<g id="node2" class="node"><title>Node2</title>
<g id="a_node2"><a xlink:href="classEquilateralTriangle.html#aae64ee91451823677b74b04508c72b5a" target="_top" xlink:title="EquilateralTriangle\l::side">
<polygon fill="white" stroke="black" points="268.5,-88 268.5,-118 365.5,-118 365.5,-88 268.5,-88"/>
<text text-anchor="start" x="276.5" y="-106" font-family="Helvetica,sans-Serif" font-size="10.00">EquilateralTriangle</text>
<text text-anchor="middle" x="317" y="-95" font-family="Helvetica,sans-Serif" font-size="10.00">::side</text>
</a>
</g>
</g>
<!-- Node1&#45;&gt;Node2 -->
<g id="edge1" class="edge"><title>Node1&#45;&gt;Node2</title>
<path fill="none" stroke="midnightblue" d="M70.5088,-96.0741C86.7971,-107.06 110.644,-121.024 134,-127 176.334,-137.832 225.528,-130.177 262.09,-120.73"/>
<polygon fill="midnightblue" stroke="midnightblue" points="263.314,-124.025 272.051,-118.032 261.484,-117.268 263.314,-124.025"/>
</g>
<!-- Node3 -->
<g id="node3" class="node"><title>Node3</title>
<g id="a_node3"><a xlink:href="classEquilateralTriangle.html#aeb9166557fb87fc187e534337191cc4f" target="_top" xlink:title="EquilateralTriangle\l::height">
<polygon fill="white" stroke="black" points="134.5,-88 134.5,-118 231.5,-118 231.5,-88 134.5,-88"/>
<text text-anchor="start" x="142.5" y="-106" font-family="Helvetica,sans-Serif" font-size="10.00">EquilateralTriangle</text>
<text text-anchor="middle" x="183" y="-95" font-family="Helvetica,sans-Serif" font-size="10.00">::height</text>
</a>
</g>
</g>
<!-- Node1&#45;&gt;Node3 -->
<g id="edge2" class="edge"><title>Node1&#45;&gt;Node3</title>
<path fill="none" stroke="midnightblue" d="M97.655,-88.9425C106.347,-90.3912 115.5,-91.9167 124.443,-93.4072"/>
<polygon fill="midnightblue" stroke="midnightblue" points="123.976,-96.8775 134.415,-95.0692 125.126,-89.9727 123.976,-96.8775"/>
</g>
<!-- Node4 -->
<g id="node4" class="node"><title>Node4</title>
<g id="a_node4"><a xlink:href="classTriangle.html#a864f7a8224290b17d06e462712a83732" target="_top" xlink:title="Triangle::perimeter">
<polygon fill="white" stroke="black" points="134,-49.5 134,-68.5 232,-68.5 232,-49.5 134,-49.5"/>
<text text-anchor="middle" x="183" y="-56.5" font-family="Helvetica,sans-Serif" font-size="10.00">Triangle::perimeter</text>
</a>
</g>
</g>
<!-- Node1&#45;&gt;Node4 -->
<g id="edge4" class="edge"><title>Node1&#45;&gt;Node4</title>
<path fill="none" stroke="midnightblue" d="M97.655,-73.0575C106.147,-71.6421 115.08,-70.1533 123.827,-68.6955"/>
<polygon fill="midnightblue" stroke="midnightblue" points="124.683,-72.1012 133.972,-67.0047 123.532,-65.1964 124.683,-72.1012"/>
</g>
<!-- Node5 -->
<g id="node5" class="node"><title>Node5</title>
<g id="a_node5"><a xlink:href="classEquilateralTriangle.html#acd770baf66a470218191c25c89246d0c" target="_top" xlink:title="EquilateralTriangle\l::area">
<polygon fill="white" stroke="black" points="134.5,-0 134.5,-30 231.5,-30 231.5,-0 134.5,-0"/>
<text text-anchor="start" x="142.5" y="-18" font-family="Helvetica,sans-Serif" font-size="10.00">EquilateralTriangle</text>
<text text-anchor="middle" x="183" y="-7" font-family="Helvetica,sans-Serif" font-size="10.00">::area</text>
</a>
</g>
</g>
<!-- Node1&#45;&gt;Node5 -->
<g id="edge5" class="edge"><title>Node1&#45;&gt;Node5</title>
<path fill="none" stroke="midnightblue" d="M80.2835,-65.8583C98.8133,-56.5933 122.718,-44.6409 142.697,-34.6513"/>
<polygon fill="midnightblue" stroke="midnightblue" points="144.478,-37.674 151.857,-30.0713 141.348,-31.413 144.478,-37.674"/>
</g>
<!-- Node3&#45;&gt;Node2 -->
<g id="edge3" class="edge"><title>Node3&#45;&gt;Node2</title>
<path fill="none" stroke="midnightblue" d="M231.655,-103C240.254,-103 249.303,-103 258.155,-103"/>
<polygon fill="midnightblue" stroke="midnightblue" points="258.415,-106.5 268.415,-103 258.415,-99.5001 258.415,-106.5"/>
</g>
<!-- Node5&#45;&gt;Node2 -->
<g id="edge6" class="edge"><title>Node5&#45;&gt;Node2</title>
<path fill="none" stroke="midnightblue" d="M214.636,-30.0017C220.497,-33.138 226.513,-36.5461 232,-40 252.1,-52.653 273.498,-68.745 289.667,-81.4982"/>
<polygon fill="midnightblue" stroke="midnightblue" points="287.609,-84.3334 297.611,-87.8271 291.97,-78.8585 287.609,-84.3334"/>
</g>
</g>
</svg>
