<?xml version="1.0" encoding="UTF-8" standalone="no"?>
<!DOCTYPE svg PUBLIC "-//W3C//DTD SVG 1.1//EN"
 "http://www.w3.org/Graphics/SVG/1.1/DTD/svg11.dtd">
<!-- Generated by graphviz version 2.36.0 (20140111.2315)
 -->
<!-- Title: utilities::printHeading Pages: 1 -->
<svg width="286pt" height="77pt"
 viewBox="0.00 0.00 286.00 77.00" xmlns="http://www.w3.org/2000/svg" xmlns:xlink="http://www.w3.org/1999/xlink">
<g id="graph0" class="graph" transform="scale(1 1) rotate(0) translate(4 73)">
<title>utilities::printHeading</title>
<polygon fill="white" stroke="none" points="-4,4 -4,-73 282,-73 282,4 -4,4"/>
<!-- Node1 -->
<g id="node1" class="node"><title>Node1</title>
<polygon fill="#bfbfbf" stroke="black" points="0,-27.5 0,-46.5 108,-46.5 108,-27.5 0,-27.5"/>
<text text-anchor="middle" x="54" y="-34.5" font-family="Helvetica,sans-Serif" font-size="10.00">utilities::printHeading</text>
</g>
<!-- Node2 -->
<g id="node2" class="node"><title>Node2</title>
<g id="a_node2"><a xlink:href="namespaceutilities.html#a2ca4bf55e15b157fc1255112ecf60b4b" target="_top" xlink:title="utilities::printHorizontalLine">
<polygon fill="white" stroke="black" points="144,-49.5 144,-68.5 278,-68.5 278,-49.5 144,-49.5"/>
<text text-anchor="middle" x="211" y="-56.5" font-family="Helvetica,sans-Serif" font-size="10.00">utilities::printHorizontalLine</text>
</a>
</g>
</g>
<!-- Node1&#45;&gt;Node2 -->
<g id="edge1" class="edge"><title>Node1&#45;&gt;Node2</title>
<path fill="none" stroke="midnightblue" d="M108.342,-44.5712C116.587,-45.7415 125.238,-46.9693 133.866,-48.1939"/>
<polygon fill="midnightblue" stroke="midnightblue" points="133.566,-51.6863 143.959,-49.6264 134.55,-44.7558 133.566,-51.6863"/>
</g>
<!-- Node3 -->
<g id="node3" class="node"><title>Node3</title>
<g id="a_node3"><a xlink:href="namespaceutilities.html#a0364030fce3431e2ec985b20e571ce9a" target="_top" xlink:title="utilities::printCentered\lTitle">
<polygon fill="white" stroke="black" points="155,-0 155,-30 267,-30 267,-0 155,-0"/>
<text text-anchor="start" x="163" y="-18" font-family="Helvetica,sans-Serif" font-size="10.00">utilities::printCentered</text>
<text text-anchor="middle" x="211" y="-7" font-family="Helvetica,sans-Serif" font-size="10.00">Title</text>
</a>
</g>
</g>
<!-- Node1&#45;&gt;Node3 -->
<g id="edge2" class="edge"><title>Node1&#45;&gt;Node3</title>
<path fill="none" stroke="midnightblue" d="M108.342,-29.4288C120.109,-27.7587 132.702,-25.9713 144.877,-24.2433"/>
<polygon fill="midnightblue" stroke="midnightblue" points="145.569,-27.6802 154.978,-22.8096 144.585,-20.7497 145.569,-27.6802"/>
</g>
</g>
</svg>
