<?xml version="1.0" encoding="UTF-8" standalone="no"?>
<!DOCTYPE svg PUBLIC "-//W3C//DTD SVG 1.1//EN"
 "http://www.w3.org/Graphics/SVG/1.1/DTD/svg11.dtd">
<!-- Generated by graphviz version 2.36.0 (20140111.2315)
 -->
<!-- Title: main Pages: 1 -->
<svg width="402pt" height="209pt"
 viewBox="0.00 0.00 402.00 208.90" xmlns="http://www.w3.org/2000/svg" xmlns:xlink="http://www.w3.org/1999/xlink">
<g id="graph0" class="graph" transform="scale(1 1) rotate(0) translate(4 204.903)">
<title>main</title>
<polygon fill="white" stroke="none" points="-4,4 -4,-204.903 398,-204.903 398,4 -4,4"/>
<!-- Node1 -->
<g id="node1" class="node"><title>Node1</title>
<polygon fill="#bfbfbf" stroke="black" points="0,-95.5 0,-114.5 38,-114.5 38,-95.5 0,-95.5"/>
<text text-anchor="middle" x="19" y="-102.5" font-family="Helvetica,sans-Serif" font-size="10.00">main</text>
</g>
<!-- Node2 -->
<g id="node2" class="node"><title>Node2</title>
<g id="a_node2"><a xlink:href="namespaceutilities.html#a5a4a24938bfeb46f18a7d7ecf96e7b6b" target="_top" xlink:title="utilities::printProjectHeading">
<polygon fill="white" stroke="black" points="77.5,-152.5 77.5,-171.5 216.5,-171.5 216.5,-152.5 77.5,-152.5"/>
<text text-anchor="middle" x="147" y="-159.5" font-family="Helvetica,sans-Serif" font-size="10.00">utilities::printProjectHeading</text>
</a>
</g>
</g>
<!-- Node1&#45;&gt;Node2 -->
<g id="edge1" class="edge"><title>Node1&#45;&gt;Node2</title>
<path fill="none" stroke="midnightblue" d="M31.2639,-114.743C41.7044,-123.313 57.9947,-135.551 74,-143 79.0545,-145.353 84.4493,-147.452 89.9263,-149.316"/>
<polygon fill="midnightblue" stroke="midnightblue" points="89.2285,-152.765 99.8178,-152.422 91.3258,-146.087 89.2285,-152.765"/>
</g>
<!-- Node3 -->
<g id="node3" class="node"><title>Node3</title>
<g id="a_node3"><a xlink:href="namespaceutilities.html#a2ca4bf55e15b157fc1255112ecf60b4b" target="_top" xlink:title="utilities::printHorizontalLine">
<polygon fill="white" stroke="black" points="258,-158.5 258,-177.5 392,-177.5 392,-158.5 258,-158.5"/>
<text text-anchor="middle" x="325" y="-165.5" font-family="Helvetica,sans-Serif" font-size="10.00">utilities::printHorizontalLine</text>
</a>
</g>
</g>
<!-- Node1&#45;&gt;Node3 -->
<g id="edge8" class="edge"><title>Node1&#45;&gt;Node3</title>
<path fill="none" stroke="midnightblue" d="M23.4679,-114.737C30.1639,-131.862 46.6728,-166.894 74,-181 142.972,-216.603 237.383,-196.204 288.17,-180.612"/>
<polygon fill="midnightblue" stroke="midnightblue" points="289.255,-183.94 297.725,-177.576 287.135,-177.269 289.255,-183.94"/>
</g>
<!-- Node5 -->
<g id="node5" class="node"><title>Node5</title>
<g id="a_node5"><a xlink:href="namespaceutilities.html#a00ebb5fe3065cdb7f3a0cd6cc1c716e0" target="_top" xlink:title="utilities::printHeading">
<polygon fill="white" stroke="black" points="93,-114.5 93,-133.5 201,-133.5 201,-114.5 93,-114.5"/>
<text text-anchor="middle" x="147" y="-121.5" font-family="Helvetica,sans-Serif" font-size="10.00">utilities::printHeading</text>
</a>
</g>
</g>
<!-- Node1&#45;&gt;Node5 -->
<g id="edge4" class="edge"><title>Node1&#45;&gt;Node5</title>
<path fill="none" stroke="midnightblue" d="M38.0527,-107.722C49.9429,-109.515 66.2901,-111.98 82.6672,-114.45"/>
<polygon fill="midnightblue" stroke="midnightblue" points="82.4185,-117.952 92.8286,-115.982 83.4623,-111.03 82.4185,-117.952"/>
</g>
<!-- Node6 -->
<g id="node6" class="node"><title>Node6</title>
<g id="a_node6"><a xlink:href="classShapeFactory.html#a8618cdfc6a7320bee3bf96e95e92eaff" target="_top" xlink:title="ShapeFactory::listKnown">
<polygon fill="white" stroke="black" points="84,-76.5 84,-95.5 210,-95.5 210,-76.5 84,-76.5"/>
<text text-anchor="middle" x="147" y="-83.5" font-family="Helvetica,sans-Serif" font-size="10.00">ShapeFactory::listKnown</text>
</a>
</g>
</g>
<!-- Node1&#45;&gt;Node6 -->
<g id="edge7" class="edge"><title>Node1&#45;&gt;Node6</title>
<path fill="none" stroke="midnightblue" d="M38.0527,-102.278C47.759,-100.814 60.4354,-98.9026 73.6736,-96.9064"/>
<polygon fill="midnightblue" stroke="midnightblue" points="74.5003,-100.321 83.8666,-95.3693 73.4565,-93.3996 74.5003,-100.321"/>
</g>
<!-- Node7 -->
<g id="node7" class="node"><title>Node7</title>
<g id="a_node7"><a xlink:href="classShapeFactory.html#a914d40208527df461c103f4045b62e42" target="_top" xlink:title="ShapeFactory::numberKnown">
<polygon fill="white" stroke="black" points="74,-38.5 74,-57.5 220,-57.5 220,-38.5 74,-38.5"/>
<text text-anchor="middle" x="147" y="-45.5" font-family="Helvetica,sans-Serif" font-size="10.00">ShapeFactory::numberKnown</text>
</a>
</g>
</g>
<!-- Node1&#45;&gt;Node7 -->
<g id="edge9" class="edge"><title>Node1&#45;&gt;Node7</title>
<path fill="none" stroke="midnightblue" d="M31.2639,-95.2572C41.7044,-86.6875 57.9947,-74.4493 74,-67 79.0545,-64.6475 84.4493,-62.5484 89.9263,-60.6841"/>
<polygon fill="midnightblue" stroke="midnightblue" points="91.3258,-63.9132 99.8178,-57.5779 89.2285,-57.2348 91.3258,-63.9132"/>
</g>
<!-- Node8 -->
<g id="node8" class="node"><title>Node8</title>
<g id="a_node8"><a xlink:href="runShapes_8cpp.html#a0223e658d108bc16bce442b4c24ad7e5" target="_top" xlink:title="readShapes">
<polygon fill="white" stroke="black" points="113,-0.5 113,-19.5 181,-19.5 181,-0.5 113,-0.5"/>
<text text-anchor="middle" x="147" y="-7.5" font-family="Helvetica,sans-Serif" font-size="10.00">readShapes</text>
</a>
</g>
</g>
<!-- Node1&#45;&gt;Node8 -->
<g id="edge10" class="edge"><title>Node1&#45;&gt;Node8</title>
<path fill="none" stroke="midnightblue" d="M24.1103,-95.428C31.5859,-79.1887 48.9807,-46.3203 74,-29 82.5301,-23.0948 92.7875,-19.0248 102.851,-16.2197"/>
<polygon fill="midnightblue" stroke="midnightblue" points="103.884,-19.5709 112.779,-13.8152 102.236,-12.7676 103.884,-19.5709"/>
</g>
<!-- Node2&#45;&gt;Node3 -->
<g id="edge2" class="edge"><title>Node2&#45;&gt;Node3</title>
<path fill="none" stroke="midnightblue" d="M216.55,-164.337C226.757,-164.685 237.331,-165.045 247.686,-165.398"/>
<polygon fill="midnightblue" stroke="midnightblue" points="247.832,-168.905 257.946,-165.748 248.071,-161.909 247.832,-168.905"/>
</g>
<!-- Node4 -->
<g id="node4" class="node"><title>Node4</title>
<g id="a_node4"><a xlink:href="namespaceutilities.html#a0364030fce3431e2ec985b20e571ce9a" target="_top" xlink:title="utilities::printCentered\lTitle">
<polygon fill="white" stroke="black" points="269,-109 269,-139 381,-139 381,-109 269,-109"/>
<text text-anchor="start" x="277" y="-127" font-family="Helvetica,sans-Serif" font-size="10.00">utilities::printCentered</text>
<text text-anchor="middle" x="325" y="-116" font-family="Helvetica,sans-Serif" font-size="10.00">Title</text>
</a>
</g>
</g>
<!-- Node2&#45;&gt;Node4 -->
<g id="edge3" class="edge"><title>Node2&#45;&gt;Node4</title>
<path fill="none" stroke="midnightblue" d="M192.412,-152.411C212.547,-148.064 236.754,-142.837 258.885,-138.059"/>
<polygon fill="midnightblue" stroke="midnightblue" points="259.85,-141.431 268.886,-135.9 258.372,-134.589 259.85,-141.431"/>
</g>
<!-- Node5&#45;&gt;Node3 -->
<g id="edge5" class="edge"><title>Node5&#45;&gt;Node3</title>
<path fill="none" stroke="midnightblue" d="M186.189,-133.547C212.482,-140.12 247.619,-148.905 275.833,-155.958"/>
<polygon fill="midnightblue" stroke="midnightblue" points="275.335,-159.441 285.885,-158.471 277.033,-152.65 275.335,-159.441"/>
</g>
<!-- Node5&#45;&gt;Node4 -->
<g id="edge6" class="edge"><title>Node5&#45;&gt;Node4</title>
<path fill="none" stroke="midnightblue" d="M201.283,-124C219.379,-124 239.807,-124 258.73,-124"/>
<polygon fill="midnightblue" stroke="midnightblue" points="258.764,-127.5 268.764,-124 258.764,-120.5 258.764,-127.5"/>
</g>
<!-- Node9 -->
<g id="node9" class="node"><title>Node9</title>
<g id="a_node9"><a xlink:href="classShapeCollection.html#a9cc32d77abe0e9016fd0d6fed7668bb1" target="_top" xlink:title="ShapeCollection::addShape">
<polygon fill="white" stroke="black" points="256.5,-0.5 256.5,-19.5 393.5,-19.5 393.5,-0.5 256.5,-0.5"/>
<text text-anchor="middle" x="325" y="-7.5" font-family="Helvetica,sans-Serif" font-size="10.00">ShapeCollection::addShape</text>
</a>
</g>
</g>
<!-- Node8&#45;&gt;Node9 -->
<g id="edge11" class="edge"><title>Node8&#45;&gt;Node9</title>
<path fill="none" stroke="midnightblue" d="M181.104,-10C199.58,-10 223.431,-10 246.334,-10"/>
<polygon fill="midnightblue" stroke="midnightblue" points="246.42,-13.5001 256.42,-10 246.42,-6.5001 246.42,-13.5001"/>
</g>
</g>
</svg>
