<?xml version="1.0" encoding="UTF-8" standalone="no"?>
<!DOCTYPE svg PUBLIC "-//W3C//DTD SVG 1.1//EN"
 "http://www.w3.org/Graphics/SVG/1.1/DTD/svg11.dtd">
<!-- Generated by graphviz version 2.36.0 (20140111.2315)
 -->
<!-- Title: runShapes.cpp Pages: 1 -->
<!--zoomable 308 -->
<svg id="main" version="1.1" xmlns="http://www.w3.org/2000/svg" xmlns:xlink="http://www.w3.org/1999/xlink" xml:space="preserve" onload="init(evt)">
<style type="text/css"><![CDATA[
.edge:hover path { stroke: red; }
.edge:hover polygon { stroke: red; fill: red; }
]]></style>
<script type="text/javascript"><![CDATA[
var edges = document.getElementsByTagName('g');
if (edges && edges.length) {
  for (var i=0;i<edges.length;i++) {
    if (edges[i].id.substr(0,4)=='edge') {
      edges[i].setAttribute('class','edge');
    }
  }
}
]]></script>
        <defs>
                <circle id="rim" cx="0" cy="0" r="7"/>
                <circle id="rim2" cx="0" cy="0" r="3.5"/>
                <g id="zoomPlus">
                        <use xlink:href="#rim" fill="#404040">
                                <set attributeName="fill" to="#808080" begin="zoomplus.mouseover" end="zoomplus.mouseout"/>
                        </use>
                        <path d="M-4,0h8M0,-4v8" fill="none" stroke="white" stroke-width="1.5" pointer-events="none"/>
                </g>
                <g id="zoomMin">
                        <use xlink:href="#rim" fill="#404040">
                                <set attributeName="fill" to="#808080" begin="zoomminus.mouseover" end="zoomminus.mouseout"/>
                        </use>
                        <path d="M-4,0h8" fill="none" stroke="white" stroke-width="1.5" pointer-events="none"/>
                </g>
                <g id="dirArrow">
                        <path fill="none" stroke="white" stroke-width="1.5" d="M0,-3.0v7 M-2.5,-0.5L0,-3.0L2.5,-0.5"/>
                </g>
               <g id="resetDef">
                       <use xlink:href="#rim2" fill="#404040">
                               <set attributeName="fill" to="#808080" begin="reset.mouseover" end="reset.mouseout"/>
                       </use>
               </g>
        </defs>

<script type="text/javascript">
var viewWidth = 1057;
var viewHeight = 308;
var sectionId = 'dynsection-0';
</script>
<script xlink:href="svgpan.js"/>
<svg id="graph" class="graph">
<g id="viewport">
<title>runShapes.cpp</title>
<polygon fill="white" stroke="none" points="-4,4 -4,-304 1053,-304 1053,4 -4,4"/>
<!-- Node1 -->
<g id="node1" class="node"><title>Node1</title>
<polygon fill="#bfbfbf" stroke="black" points="423,-280.5 423,-299.5 505,-299.5 505,-280.5 423,-280.5"/>
<text text-anchor="middle" x="464" y="-287.5" font-family="Helvetica,sans-Serif" font-size="10.00">runShapes.cpp</text>
</g>
<!-- Node2 -->
<g id="node2" class="node"><title>Node2</title>
<polygon fill="white" stroke="#bfbfbf" points="738,-0.5 738,-19.5 792,-19.5 792,-0.5 738,-0.5"/>
<text text-anchor="middle" x="765" y="-7.5" font-family="Helvetica,sans-Serif" font-size="10.00">iostream</text>
</g>
<!-- Node1&#45;&gt;Node2 -->
<g id="edge1" class="edge"><title>Node1&#45;&gt;Node2</title>
<path fill="none" stroke="midnightblue" d="M505.316,-287.918C618.469,-283.844 925,-264.881 925,-179 925,-179 925,-179 925,-121 925,-61.6448 849.306,-31.9007 802.045,-19.1139"/>
<polygon fill="midnightblue" stroke="midnightblue" points="802.698,-15.6682 792.142,-16.5682 800.955,-22.4478 802.698,-15.6682"/>
</g>
<!-- Node3 -->
<g id="node3" class="node"><title>Node3</title>
<polygon fill="white" stroke="#bfbfbf" points="0,-168.5 0,-187.5 50,-187.5 50,-168.5 0,-168.5"/>
<text text-anchor="middle" x="25" y="-175.5" font-family="Helvetica,sans-Serif" font-size="10.00">iomanip</text>
</g>
<!-- Node1&#45;&gt;Node3 -->
<g id="edge2" class="edge"><title>Node1&#45;&gt;Node3</title>
<path fill="none" stroke="midnightblue" d="M422.67,-286.261C364.899,-281.636 257.179,-270.092 169,-244 125.239,-231.051 77.5337,-207.477 49.4967,-192.559"/>
<polygon fill="midnightblue" stroke="midnightblue" points="50.9018,-189.34 40.4386,-187.675 47.5795,-195.502 50.9018,-189.34"/>
</g>
<!-- Node4 -->
<g id="node4" class="node"><title>Node4</title>
<polygon fill="white" stroke="#bfbfbf" points="68,-168.5 68,-187.5 118,-187.5 118,-168.5 68,-168.5"/>
<text text-anchor="middle" x="93" y="-175.5" font-family="Helvetica,sans-Serif" font-size="10.00">fstream</text>
</g>
<!-- Node1&#45;&gt;Node4 -->
<g id="edge3" class="edge"><title>Node1&#45;&gt;Node4</title>
<path fill="none" stroke="midnightblue" d="M422.748,-285.17C373.285,-279.731 288.372,-267.681 219,-244 180.75,-230.943 139.73,-207.894 115.23,-193.043"/>
<polygon fill="midnightblue" stroke="midnightblue" points="116.743,-189.864 106.392,-187.604 113.074,-195.826 116.743,-189.864"/>
</g>
<!-- Node5 -->
<g id="node5" class="node"><title>Node5</title>
<g id="a_node5"><a xlink:href="utilities_8h.html" target="_top" xlink:title="utilities.h">
<polygon fill="white" stroke="black" points="228,-224.5 228,-243.5 284,-243.5 284,-224.5 228,-224.5"/>
<text text-anchor="middle" x="256" y="-231.5" font-family="Helvetica,sans-Serif" font-size="10.00">utilities.h</text>
</a>
</g>
</g>
<!-- Node1&#45;&gt;Node5 -->
<g id="edge4" class="edge"><title>Node1&#45;&gt;Node5</title>
<path fill="none" stroke="midnightblue" d="M431.042,-280.444C393.738,-270.759 333.075,-255.01 293.859,-244.829"/>
<polygon fill="midnightblue" stroke="midnightblue" points="294.693,-241.429 284.135,-242.304 292.934,-248.205 294.693,-241.429"/>
</g>
<!-- Node10 -->
<g id="node10" class="node"><title>Node10</title>
<g id="a_node10"><a xlink:href="shapeFactory_8h.html" target="_top" xlink:title="shapeFactory.h">
<polygon fill="white" stroke="black" points="622,-224.5 622,-243.5 706,-243.5 706,-224.5 622,-224.5"/>
<text text-anchor="middle" x="664" y="-231.5" font-family="Helvetica,sans-Serif" font-size="10.00">shapeFactory.h</text>
</a>
</g>
</g>
<!-- Node1&#45;&gt;Node10 -->
<g id="edge12" class="edge"><title>Node1&#45;&gt;Node10</title>
<path fill="none" stroke="midnightblue" d="M495.691,-280.444C530.068,-271.162 585.077,-256.309 622.789,-246.127"/>
<polygon fill="midnightblue" stroke="midnightblue" points="623.716,-249.502 632.458,-243.516 621.891,-242.744 623.716,-249.502"/>
</g>
<!-- Node17 -->
<g id="node17" class="node"><title>Node17</title>
<g id="a_node17"><a xlink:href="ShapeCollection_8h.html" target="_top" xlink:title="ShapeCollection.h">
<polygon fill="white" stroke="black" points="953,-112.5 953,-131.5 1049,-131.5 1049,-112.5 953,-112.5"/>
<text text-anchor="middle" x="1001" y="-119.5" font-family="Helvetica,sans-Serif" font-size="10.00">ShapeCollection.h</text>
</a>
</g>
</g>
<!-- Node1&#45;&gt;Node17 -->
<g id="edge40" class="edge"><title>Node1&#45;&gt;Node17</title>
<path fill="none" stroke="midnightblue" d="M505.251,-287.346C614.154,-282.667 903.478,-268.087 939,-244 974.543,-219.899 990.881,-168.941 997.359,-141.473"/>
<polygon fill="midnightblue" stroke="midnightblue" points="1000.8,-142.102 999.5,-131.588 993.962,-140.621 1000.8,-142.102"/>
</g>
<!-- Node5&#45;&gt;Node2 -->
<g id="edge5" class="edge"><title>Node5&#45;&gt;Node2</title>
<path fill="none" stroke="midnightblue" d="M260.827,-224.426C277.92,-194.978 338.879,-97.5027 419,-56 472.169,-28.4585 649.571,-16.6179 727.613,-12.6533"/>
<polygon fill="midnightblue" stroke="midnightblue" points="728.127,-16.1324 737.943,-12.1453 727.783,-9.14084 728.127,-16.1324"/>
</g>
<!-- Node5&#45;&gt;Node3 -->
<g id="edge8" class="edge"><title>Node5&#45;&gt;Node3</title>
<path fill="none" stroke="midnightblue" d="M227.873,-226.892C191.452,-218.915 125.771,-204.296 60.3031,-188.26"/>
<polygon fill="midnightblue" stroke="midnightblue" points="60.7731,-184.772 50.2264,-185.78 59.1002,-191.569 60.7731,-184.772"/>
</g>
<!-- Node5&#45;&gt;Node4 -->
<g id="edge6" class="edge"><title>Node5&#45;&gt;Node4</title>
<path fill="none" stroke="midnightblue" d="M230.172,-224.444C202.589,-215.306 158.71,-200.769 128.028,-190.604"/>
<polygon fill="midnightblue" stroke="midnightblue" points="128.765,-187.161 118.171,-187.339 126.563,-193.806 128.765,-187.161"/>
</g>
<!-- Node6 -->
<g id="node6" class="node"><title>Node6</title>
<polygon fill="white" stroke="#bfbfbf" points="200,-168.5 200,-187.5 252,-187.5 252,-168.5 200,-168.5"/>
<text text-anchor="middle" x="226" y="-175.5" font-family="Helvetica,sans-Serif" font-size="10.00">sstream</text>
</g>
<!-- Node5&#45;&gt;Node6 -->
<g id="edge7" class="edge"><title>Node5&#45;&gt;Node6</title>
<path fill="none" stroke="midnightblue" d="M251.046,-224.083C246.896,-216.613 240.847,-205.724 235.733,-196.52"/>
<polygon fill="midnightblue" stroke="midnightblue" points="238.778,-194.793 230.862,-187.751 232.659,-198.192 238.778,-194.793"/>
</g>
<!-- Node7 -->
<g id="node7" class="node"><title>Node7</title>
<polygon fill="white" stroke="#bfbfbf" points="530.5,-0.5 530.5,-19.5 571.5,-19.5 571.5,-0.5 530.5,-0.5"/>
<text text-anchor="middle" x="551" y="-7.5" font-family="Helvetica,sans-Serif" font-size="10.00">string</text>
</g>
<!-- Node5&#45;&gt;Node7 -->
<g id="edge9" class="edge"><title>Node5&#45;&gt;Node7</title>
<path fill="none" stroke="midnightblue" d="M257.109,-224.455C261.451,-192.352 278.327,-79.5878 304,-56 335.123,-27.4049 460.837,-16.3097 519.969,-12.6104"/>
<polygon fill="midnightblue" stroke="midnightblue" points="520.422,-16.0897 530.197,-12.0032 520.007,-9.10201 520.422,-16.0897"/>
</g>
<!-- Node8 -->
<g id="node8" class="node"><title>Node8</title>
<polygon fill="white" stroke="#bfbfbf" points="136.5,-168.5 136.5,-187.5 181.5,-187.5 181.5,-168.5 136.5,-168.5"/>
<text text-anchor="middle" x="159" y="-175.5" font-family="Helvetica,sans-Serif" font-size="10.00">cstdlib</text>
</g>
<!-- Node5&#45;&gt;Node8 -->
<g id="edge10" class="edge"><title>Node5&#45;&gt;Node8</title>
<path fill="none" stroke="midnightblue" d="M240.415,-224.324C225.001,-215.743 201.188,-202.486 183.29,-192.522"/>
<polygon fill="midnightblue" stroke="midnightblue" points="184.986,-189.461 174.546,-187.655 181.581,-195.577 184.986,-189.461"/>
</g>
<!-- Node9 -->
<g id="node9" class="node"><title>Node9</title>
<polygon fill="white" stroke="#bfbfbf" points="441,-56.5 441,-75.5 485,-75.5 485,-56.5 441,-56.5"/>
<text text-anchor="middle" x="463" y="-63.5" font-family="Helvetica,sans-Serif" font-size="10.00">cmath</text>
</g>
<!-- Node5&#45;&gt;Node9 -->
<g id="edge11" class="edge"><title>Node5&#45;&gt;Node9</title>
<path fill="none" stroke="midnightblue" d="M272.645,-224.467C288.482,-216.047 312.693,-202.38 332,-188 377.286,-154.271 424.536,-107.187 447.966,-82.8958"/>
<polygon fill="midnightblue" stroke="midnightblue" points="450.577,-85.2293 454.962,-75.5841 445.519,-80.3901 450.577,-85.2293"/>
</g>
<!-- Node10&#45;&gt;Node2 -->
<g id="edge13" class="edge"><title>Node10&#45;&gt;Node2</title>
<path fill="none" stroke="midnightblue" d="M706.163,-224.426C752.141,-212.536 823.27,-186.078 854,-132 877.436,-90.7591 822.634,-47.0358 788.945,-25.1791"/>
<polygon fill="midnightblue" stroke="midnightblue" points="790.415,-21.9693 780.085,-19.6144 786.692,-27.8971 790.415,-21.9693"/>
</g>
<!-- Node11 -->
<g id="node11" class="node"><title>Node11</title>
<g id="a_node11"><a xlink:href="shape_8h.html" target="_top" xlink:title="shape.h">
<polygon fill="white" stroke="black" points="693.5,-56.5 693.5,-75.5 744.5,-75.5 744.5,-56.5 693.5,-56.5"/>
<text text-anchor="middle" x="719" y="-63.5" font-family="Helvetica,sans-Serif" font-size="10.00">shape.h</text>
</a>
</g>
</g>
<!-- Node10&#45;&gt;Node11 -->
<g id="edge14" class="edge"><title>Node10&#45;&gt;Node11</title>
<path fill="none" stroke="midnightblue" d="M666.957,-224.075C675.652,-197.832 701.259,-120.545 712.998,-85.1165"/>
<polygon fill="midnightblue" stroke="midnightblue" points="716.338,-86.1615 716.161,-75.5681 709.694,-83.9598 716.338,-86.1615"/>
</g>
<!-- Node12 -->
<g id="node12" class="node"><title>Node12</title>
<g id="a_node12"><a xlink:href="triangle_8h.html" target="_top" xlink:title="triangle.h">
<polygon fill="white" stroke="black" points="536,-112.5 536,-131.5 592,-131.5 592,-112.5 536,-112.5"/>
<text text-anchor="middle" x="564" y="-119.5" font-family="Helvetica,sans-Serif" font-size="10.00">triangle.h</text>
</a>
</g>
</g>
<!-- Node10&#45;&gt;Node12 -->
<g id="edge17" class="edge"><title>Node10&#45;&gt;Node12</title>
<path fill="none" stroke="midnightblue" d="M637.05,-224.484C618.979,-217.445 596.008,-205.699 582,-188 571.449,-174.669 567.076,-155.552 565.267,-141.5"/>
<polygon fill="midnightblue" stroke="midnightblue" points="568.749,-141.138 564.298,-131.524 561.782,-141.815 568.749,-141.138"/>
</g>
<!-- Node13 -->
<g id="node13" class="node"><title>Node13</title>
<g id="a_node13"><a xlink:href="rightTriangle_8h.html" target="_top" xlink:title="rightTriangle.h">
<polygon fill="white" stroke="black" points="591,-168.5 591,-187.5 669,-187.5 669,-168.5 591,-168.5"/>
<text text-anchor="middle" x="630" y="-175.5" font-family="Helvetica,sans-Serif" font-size="10.00">rightTriangle.h</text>
</a>
</g>
</g>
<!-- Node10&#45;&gt;Node13 -->
<g id="edge22" class="edge"><title>Node10&#45;&gt;Node13</title>
<path fill="none" stroke="midnightblue" d="M658.386,-224.083C653.633,-216.534 646.682,-205.495 640.848,-196.23"/>
<polygon fill="midnightblue" stroke="midnightblue" points="643.8,-194.349 635.51,-187.751 637.876,-198.078 643.8,-194.349"/>
</g>
<!-- Node14 -->
<g id="node14" class="node"><title>Node14</title>
<g id="a_node14"><a xlink:href="equilateralTriangle_8h.html" target="_top" xlink:title="equilateralTriangle.h">
<polygon fill="white" stroke="black" points="422,-168.5 422,-187.5 526,-187.5 526,-168.5 422,-168.5"/>
<text text-anchor="middle" x="474" y="-175.5" font-family="Helvetica,sans-Serif" font-size="10.00">equilateralTriangle.h</text>
</a>
</g>
</g>
<!-- Node10&#45;&gt;Node14 -->
<g id="edge27" class="edge"><title>Node10&#45;&gt;Node14</title>
<path fill="none" stroke="midnightblue" d="M633.894,-224.444C601.374,-215.201 549.421,-200.436 513.609,-190.257"/>
<polygon fill="midnightblue" stroke="midnightblue" points="514.541,-186.884 503.965,-187.516 512.627,-193.617 514.541,-186.884"/>
</g>
<!-- Node15 -->
<g id="node15" class="node"><title>Node15</title>
<g id="a_node15"><a xlink:href="square_8h.html" target="_top" xlink:title="square.h">
<polygon fill="white" stroke="black" points="791,-112.5 791,-131.5 845,-131.5 845,-112.5 791,-112.5"/>
<text text-anchor="middle" x="818" y="-119.5" font-family="Helvetica,sans-Serif" font-size="10.00">square.h</text>
</a>
</g>
</g>
<!-- Node10&#45;&gt;Node15 -->
<g id="edge32" class="edge"><title>Node10&#45;&gt;Node15</title>
<path fill="none" stroke="midnightblue" d="M677.457,-224.448C691.297,-215.571 713.396,-201.167 732,-188 755.416,-171.427 781.623,-151.398 798.883,-137.992"/>
<polygon fill="midnightblue" stroke="midnightblue" points="801.298,-140.548 807.032,-131.639 796.994,-135.028 801.298,-140.548"/>
</g>
<!-- Node16 -->
<g id="node16" class="node"><title>Node16</title>
<g id="a_node16"><a xlink:href="circle_8h.html" target="_top" xlink:title="circle.h">
<polygon fill="white" stroke="black" points="725,-112.5 725,-131.5 773,-131.5 773,-112.5 725,-112.5"/>
<text text-anchor="middle" x="749" y="-119.5" font-family="Helvetica,sans-Serif" font-size="10.00">circle.h</text>
</a>
</g>
</g>
<!-- Node10&#45;&gt;Node16 -->
<g id="edge36" class="edge"><title>Node10&#45;&gt;Node16</title>
<path fill="none" stroke="midnightblue" d="M674.528,-224.425C684.631,-215.869 699.943,-202.012 711,-188 722.615,-173.281 733.144,-154.65 740.157,-141.112"/>
<polygon fill="midnightblue" stroke="midnightblue" points="743.424,-142.407 744.795,-131.901 737.172,-139.259 743.424,-142.407"/>
</g>
<!-- Node11&#45;&gt;Node2 -->
<g id="edge15" class="edge"><title>Node11&#45;&gt;Node2</title>
<path fill="none" stroke="midnightblue" d="M726.596,-56.083C733.227,-48.2982 743.021,-36.8015 751.058,-27.3665"/>
<polygon fill="midnightblue" stroke="midnightblue" points="753.725,-29.6332 757.545,-19.7511 748.396,-25.0939 753.725,-29.6332"/>
</g>
<!-- Node11&#45;&gt;Node7 -->
<g id="edge16" class="edge"><title>Node11&#45;&gt;Node7</title>
<path fill="none" stroke="midnightblue" d="M693.484,-56.7986C663.418,-47.1343 613.506,-31.0911 581.446,-20.7862"/>
<polygon fill="midnightblue" stroke="midnightblue" points="582.303,-17.3855 571.712,-17.6574 580.161,-24.0497 582.303,-17.3855"/>
</g>
<!-- Node12&#45;&gt;Node2 -->
<g id="edge18" class="edge"><title>Node12&#45;&gt;Node2</title>
<path fill="none" stroke="midnightblue" d="M573.585,-112.478C589.014,-99.0852 620.703,-72.8997 651,-56 675.604,-42.2758 705.253,-30.7103 728.147,-22.7419"/>
<polygon fill="midnightblue" stroke="midnightblue" points="729.49,-25.982 737.828,-19.4454 727.234,-19.3556 729.49,-25.982"/>
</g>
<!-- Node12&#45;&gt;Node7 -->
<g id="edge19" class="edge"><title>Node12&#45;&gt;Node7</title>
<path fill="none" stroke="midnightblue" d="M556.849,-112.364C550.227,-103.763 540.843,-89.8728 537,-76 532.672,-60.3751 537.307,-42.3295 542.373,-29.2227"/>
<polygon fill="midnightblue" stroke="midnightblue" points="545.642,-30.4808 546.365,-19.9107 539.208,-27.7226 545.642,-30.4808"/>
</g>
<!-- Node12&#45;&gt;Node9 -->
<g id="edge20" class="edge"><title>Node12&#45;&gt;Node9</title>
<path fill="none" stroke="midnightblue" d="M547.773,-112.324C531.649,-103.703 506.7,-90.3643 488.036,-80.3855"/>
<polygon fill="midnightblue" stroke="midnightblue" points="489.656,-77.283 479.187,-75.6545 486.356,-83.456 489.656,-77.283"/>
</g>
<!-- Node12&#45;&gt;Node11 -->
<g id="edge21" class="edge"><title>Node12&#45;&gt;Node11</title>
<path fill="none" stroke="midnightblue" d="M588.56,-112.444C614.523,-103.399 655.668,-89.064 684.797,-78.9158"/>
<polygon fill="midnightblue" stroke="midnightblue" points="686.263,-82.1116 694.555,-75.5164 683.96,-75.5013 686.263,-82.1116"/>
</g>
<!-- Node13&#45;&gt;Node2 -->
<g id="edge23" class="edge"><title>Node13&#45;&gt;Node2</title>
<path fill="none" stroke="midnightblue" d="M631.855,-168.334C636.83,-146.893 652.297,-90.6002 684,-56 696.87,-41.9541 715.166,-31.2737 731.114,-23.8508"/>
<polygon fill="midnightblue" stroke="midnightblue" points="732.925,-26.8778 740.67,-19.6489 730.107,-20.4698 732.925,-26.8778"/>
</g>
<!-- Node13&#45;&gt;Node7 -->
<g id="edge24" class="edge"><title>Node13&#45;&gt;Node7</title>
<path fill="none" stroke="midnightblue" d="M625.978,-168.143C620.271,-155.61 609.464,-131.996 600,-112 586.155,-82.7479 569.655,-48.949 559.769,-28.8097"/>
<polygon fill="midnightblue" stroke="midnightblue" points="562.804,-27.0499 555.251,-19.6197 556.522,-30.1381 562.804,-27.0499"/>
</g>
<!-- Node13&#45;&gt;Node9 -->
<g id="edge25" class="edge"><title>Node13&#45;&gt;Node9</title>
<path fill="none" stroke="midnightblue" d="M603.177,-168.47C581.503,-160.85 550.795,-148.367 527,-132 507.118,-118.324 488.23,-97.9003 476.197,-83.6064"/>
<polygon fill="midnightblue" stroke="midnightblue" points="478.69,-81.1269 469.643,-75.6138 473.277,-85.5657 478.69,-81.1269"/>
</g>
<!-- Node13&#45;&gt;Node12 -->
<g id="edge26" class="edge"><title>Node13&#45;&gt;Node12</title>
<path fill="none" stroke="midnightblue" d="M619.396,-168.324C609.544,-160.263 594.649,-148.077 582.785,-138.369"/>
<polygon fill="midnightblue" stroke="midnightblue" points="584.753,-135.457 574.797,-131.834 580.32,-140.875 584.753,-135.457"/>
</g>
<!-- Node14&#45;&gt;Node2 -->
<g id="edge28" class="edge"><title>Node14&#45;&gt;Node2</title>
<path fill="none" stroke="midnightblue" d="M465.81,-168.279C446.543,-146.712 402.149,-90.1564 432,-56 451.259,-33.9634 644.931,-18.8245 727.753,-13.3096"/>
<polygon fill="midnightblue" stroke="midnightblue" points="728,-16.8011 737.75,-12.655 727.542,-9.81602 728,-16.8011"/>
</g>
<!-- Node14&#45;&gt;Node7 -->
<g id="edge29" class="edge"><title>Node14&#45;&gt;Node7</title>
<path fill="none" stroke="midnightblue" d="M459.164,-168.445C446.572,-160.485 428.868,-147.533 418,-132 398.04,-103.472 378.166,-83.896 399,-56 426.834,-18.7318 484.17,-11.0589 519.92,-10.1474"/>
<polygon fill="midnightblue" stroke="midnightblue" points="520.296,-13.6443 530.265,-10.0563 520.234,-6.64458 520.296,-13.6443"/>
</g>
<!-- Node14&#45;&gt;Node9 -->
<g id="edge30" class="edge"><title>Node14&#45;&gt;Node9</title>
<path fill="none" stroke="midnightblue" d="M473.137,-168.368C471.362,-150.617 467.267,-109.666 464.86,-85.5974"/>
<polygon fill="midnightblue" stroke="midnightblue" points="468.337,-85.1935 463.859,-75.5914 461.372,-85.8901 468.337,-85.1935"/>
</g>
<!-- Node14&#45;&gt;Node12 -->
<g id="edge31" class="edge"><title>Node14&#45;&gt;Node12</title>
<path fill="none" stroke="midnightblue" d="M488.46,-168.324C502.5,-159.9 524.048,-146.971 540.543,-137.074"/>
<polygon fill="midnightblue" stroke="midnightblue" points="542.802,-139.801 549.576,-131.655 539.2,-133.798 542.802,-139.801"/>
</g>
<!-- Node15&#45;&gt;Node2 -->
<g id="edge33" class="edge"><title>Node15&#45;&gt;Node2</title>
<path fill="none" stroke="midnightblue" d="M813.841,-112.368C805.172,-94.376 785.02,-52.5503 773.493,-28.6267"/>
<polygon fill="midnightblue" stroke="midnightblue" points="776.633,-27.081 769.14,-19.5914 770.327,-30.1195 776.633,-27.081"/>
</g>
<!-- Node15&#45;&gt;Node7 -->
<g id="edge34" class="edge"><title>Node15&#45;&gt;Node7</title>
<path fill="none" stroke="midnightblue" d="M811.914,-112.284C801.541,-98.1284 779.017,-70.2909 753,-56 697.641,-25.5922 623.061,-15.7265 581.76,-12.5293"/>
<polygon fill="midnightblue" stroke="midnightblue" points="581.74,-9.01965 571.523,-11.822 581.258,-16.003 581.74,-9.01965"/>
</g>
<!-- Node15&#45;&gt;Node11 -->
<g id="edge35" class="edge"><title>Node15&#45;&gt;Node11</title>
<path fill="none" stroke="midnightblue" d="M802.094,-112.324C786.362,-103.743 762.058,-90.486 743.791,-80.5224"/>
<polygon fill="midnightblue" stroke="midnightblue" points="745.322,-77.3704 734.867,-75.6545 741.97,-83.5157 745.322,-77.3704"/>
</g>
<!-- Node16&#45;&gt;Node2 -->
<g id="edge37" class="edge"><title>Node16&#45;&gt;Node2</title>
<path fill="none" stroke="midnightblue" d="M750.255,-112.368C752.838,-94.617 758.794,-53.6664 762.295,-29.5974"/>
<polygon fill="midnightblue" stroke="midnightblue" points="765.774,-29.9911 763.75,-19.5914 758.847,-28.9835 765.774,-29.9911"/>
</g>
<!-- Node16&#45;&gt;Node7 -->
<g id="edge38" class="edge"><title>Node16&#45;&gt;Node7</title>
<path fill="none" stroke="midnightblue" d="M733.463,-112.368C699.125,-93.2916 616.56,-47.4223 575.31,-24.5054"/>
<polygon fill="midnightblue" stroke="midnightblue" points="576.906,-21.3883 566.465,-19.5914 573.506,-27.5075 576.906,-21.3883"/>
</g>
<!-- Node16&#45;&gt;Node11 -->
<g id="edge39" class="edge"><title>Node16&#45;&gt;Node11</title>
<path fill="none" stroke="midnightblue" d="M744.046,-112.083C739.896,-104.613 733.847,-93.7244 728.733,-84.5199"/>
<polygon fill="midnightblue" stroke="midnightblue" points="731.778,-82.7929 723.862,-75.7511 725.659,-86.1924 731.778,-82.7929"/>
</g>
<!-- Node17&#45;&gt;Node2 -->
<g id="edge41" class="edge"><title>Node17&#45;&gt;Node2</title>
<path fill="none" stroke="midnightblue" d="M995.239,-112.373C985.408,-98.3467 964.012,-70.6901 939,-56 896.146,-30.8311 839.262,-19.5616 802.394,-14.6386"/>
<polygon fill="midnightblue" stroke="midnightblue" points="802.45,-11.1187 792.095,-13.359 801.587,-18.0653 802.45,-11.1187"/>
</g>
<!-- Node17&#45;&gt;Node11 -->
<g id="edge43" class="edge"><title>Node17&#45;&gt;Node11</title>
<path fill="none" stroke="midnightblue" d="M956.316,-112.444C900.378,-101.732 805.697,-83.6015 754.467,-73.7915"/>
<polygon fill="midnightblue" stroke="midnightblue" points="755.004,-70.3308 744.524,-71.8876 753.687,-77.2059 755.004,-70.3308"/>
</g>
<!-- Node18 -->
<g id="node18" class="node"><title>Node18</title>
<polygon fill="white" stroke="#bfbfbf" points="991,-56.5 991,-75.5 1035,-75.5 1035,-56.5 991,-56.5"/>
<text text-anchor="middle" x="1013" y="-63.5" font-family="Helvetica,sans-Serif" font-size="10.00">vector</text>
</g>
<!-- Node17&#45;&gt;Node18 -->
<g id="edge42" class="edge"><title>Node17&#45;&gt;Node18</title>
<path fill="none" stroke="midnightblue" d="M1002.98,-112.083C1004.57,-104.927 1006.86,-94.6353 1008.85,-85.6911"/>
<polygon fill="midnightblue" stroke="midnightblue" points="1012.3,-86.2722 1011.06,-75.7511 1005.47,-84.7537 1012.3,-86.2722"/>
</g>
</g>
</svg>
        <g id="navigator" transform="translate(0 0)" fill="#404254">
                <rect fill="#f2f5e9" fill-opacity="0.5" stroke="#606060" stroke-width=".5" x="0" y="0" width="60" height="60"/>
                <use id="zoomplus" xlink:href="#zoomPlus" x="17" y="9" onmousedown="handleZoom(evt,'in')"/>
                <use id="zoomminus" xlink:href="#zoomMin" x="42" y="9" onmousedown="handleZoom(evt,'out')"/>
                <use id="reset" xlink:href="#resetDef" x="30" y="36" onmousedown="handleReset()"/>
                <g id="arrowUp" xlink:href="#dirArrow" transform="translate(30 24)" onmousedown="handlePan(0,-1)">
                  <use xlink:href="#rim" fill="#404040">
                        <set attributeName="fill" to="#808080" begin="arrowUp.mouseover" end="arrowUp.mouseout"/>
                  </use>
                  <path fill="none" stroke="white" stroke-width="1.5" d="M0,-3.0v7 M-2.5,-0.5L0,-3.0L2.5,-0.5"/>
                </g>
                <g id="arrowRight" xlink:href="#dirArrow" transform="rotate(90) translate(36 -43)" onmousedown="handlePan(1,0)">
                  <use xlink:href="#rim" fill="#404040">
                        <set attributeName="fill" to="#808080" begin="arrowRight.mouseover" end="arrowRight.mouseout"/>
                  </use>
                  <path fill="none" stroke="white" stroke-width="1.5" d="M0,-3.0v7 M-2.5,-0.5L0,-3.0L2.5,-0.5"/>
                </g>
                <g id="arrowDown" xlink:href="#dirArrow" transform="rotate(180) translate(-30 -48)" onmousedown="handlePan(0,1)">
                  <use xlink:href="#rim" fill="#404040">
                        <set attributeName="fill" to="#808080" begin="arrowDown.mouseover" end="arrowDown.mouseout"/>
                  </use>
                  <path fill="none" stroke="white" stroke-width="1.5" d="M0,-3.0v7 M-2.5,-0.5L0,-3.0L2.5,-0.5"/>
                </g>
                <g id="arrowLeft" xlink:href="#dirArrow" transform="rotate(270) translate(-36 17)" onmousedown="handlePan(-1,0)">
                  <use xlink:href="#rim" fill="#404040">
                        <set attributeName="fill" to="#808080" begin="arrowLeft.mouseover" end="arrowLeft.mouseout"/>
                  </use>
                  <path fill="none" stroke="white" stroke-width="1.5" d="M0,-3.0v7 M-2.5,-0.5L0,-3.0L2.5,-0.5"/>
                </g>
        </g>
        <svg viewBox="0 0 15 15" width="100%" height="30px" preserveAspectRatio="xMaxYMin meet">
         <g id="arrow_out" transform="scale(0.3 0.3)">
          <a xlink:href="runShapes_8cpp__incl_org.svg" target="_base">
           <rect id="button" ry="5" rx="5" y="6" x="6" height="38" width="38"
                fill="#f2f5e9" fill-opacity="0.5" stroke="#606060" stroke-width="1.0"/>
           <path id="arrow"
             d="M 11.500037,31.436501 C 11.940474,20.09759 22.043105,11.32322 32.158766,21.979434 L 37.068811,17.246167 C 37.068811,17.246167 37.088388,32 37.088388,32 L 22.160133,31.978069 C 22.160133,31.978069 26.997745,27.140456 26.997745,27.140456 C 18.528582,18.264221 13.291696,25.230495 11.500037,31.436501 z"
             style="fill:#404040;"/>
          </a>
         </g>
        </svg>
</svg>
