<?xml version="1.0" encoding="UTF-8" standalone="no"?>
<!DOCTYPE svg PUBLIC "-//W3C//DTD SVG 1.1//EN"
 "http://www.w3.org/Graphics/SVG/1.1/DTD/svg11.dtd">
<!-- Generated by graphviz version 2.36.0 (20140111.2315)
 -->
<!-- Title: square.h Pages: 1 -->
<svg width="227pt" height="140pt"
 viewBox="0.00 0.00 227.00 140.00" xmlns="http://www.w3.org/2000/svg" xmlns:xlink="http://www.w3.org/1999/xlink">
<g id="graph0" class="graph" transform="scale(1 1) rotate(0) translate(4 136)">
<title>square.h</title>
<polygon fill="white" stroke="none" points="-4,4 -4,-136 223,-136 223,4 -4,4"/>
<!-- Node1 -->
<g id="node1" class="node"><title>Node1</title>
<polygon fill="#bfbfbf" stroke="black" points="113,-112.5 113,-131.5 167,-131.5 167,-112.5 113,-112.5"/>
<text text-anchor="middle" x="140" y="-119.5" font-family="Helvetica,sans-Serif" font-size="10.00">square.h</text>
</g>
<!-- Node2 -->
<g id="node2" class="node"><title>Node2</title>
<g id="a_node2"><a xlink:href="shapeFactory_8h.html" target="_top" xlink:title="shapeFactory.h">
<polygon fill="white" stroke="black" points="52,-56.5 52,-75.5 136,-75.5 136,-56.5 52,-56.5"/>
<text text-anchor="middle" x="94" y="-63.5" font-family="Helvetica,sans-Serif" font-size="10.00">shapeFactory.h</text>
</a>
</g>
</g>
<!-- Node1&#45;&gt;Node2 -->
<g id="edge1" class="edge"><title>Node1&#45;&gt;Node2</title>
<path fill="none" stroke="midnightblue" d="M125.886,-104.431C117.824,-94.9673 108.041,-83.4827 101.455,-75.7511"/>
<polygon fill="midnightblue" stroke="midnightblue" points="123.255,-106.74 132.404,-112.083 128.584,-102.201 123.255,-106.74"/>
</g>
<!-- Node5 -->
<g id="node5" class="node"><title>Node5</title>
<g id="a_node5"><a xlink:href="square_8cpp.html" target="_top" xlink:title="square.cpp">
<polygon fill="white" stroke="black" points="154.5,-56.5 154.5,-75.5 219.5,-75.5 219.5,-56.5 154.5,-56.5"/>
<text text-anchor="middle" x="187" y="-63.5" font-family="Helvetica,sans-Serif" font-size="10.00">square.cpp</text>
</a>
</g>
</g>
<!-- Node1&#45;&gt;Node5 -->
<g id="edge4" class="edge"><title>Node1&#45;&gt;Node5</title>
<path fill="none" stroke="midnightblue" d="M154.421,-104.431C162.658,-94.9673 172.654,-83.4827 179.383,-75.7511"/>
<polygon fill="midnightblue" stroke="midnightblue" points="151.686,-102.242 147.761,-112.083 156.966,-106.838 151.686,-102.242"/>
</g>
<!-- Node3 -->
<g id="node3" class="node"><title>Node3</title>
<g id="a_node3"><a xlink:href="runShapes_8cpp.html" target="_top" xlink:title="runShapes.cpp">
<polygon fill="white" stroke="black" points="0,-0.5 0,-19.5 82,-19.5 82,-0.5 0,-0.5"/>
<text text-anchor="middle" x="41" y="-7.5" font-family="Helvetica,sans-Serif" font-size="10.00">runShapes.cpp</text>
</a>
</g>
</g>
<!-- Node2&#45;&gt;Node3 -->
<g id="edge2" class="edge"><title>Node2&#45;&gt;Node3</title>
<path fill="none" stroke="midnightblue" d="M78.0191,-48.7175C68.6775,-39.1997 57.2541,-27.5608 49.589,-19.7511"/>
<polygon fill="midnightblue" stroke="midnightblue" points="75.7455,-51.3978 85.2481,-56.083 80.7413,-46.4945 75.7455,-51.3978"/>
</g>
<!-- Node4 -->
<g id="node4" class="node"><title>Node4</title>
<g id="a_node4"><a xlink:href="shapeFactory_8cpp.html" target="_top" xlink:title="shapeFactory.cpp">
<polygon fill="white" stroke="black" points="100.5,-0.5 100.5,-19.5 195.5,-19.5 195.5,-0.5 100.5,-0.5"/>
<text text-anchor="middle" x="148" y="-7.5" font-family="Helvetica,sans-Serif" font-size="10.00">shapeFactory.cpp</text>
</a>
</g>
</g>
<!-- Node2&#45;&gt;Node4 -->
<g id="edge3" class="edge"><title>Node2&#45;&gt;Node4</title>
<path fill="none" stroke="midnightblue" d="M109.998,-49.0024C119.567,-39.4329 131.361,-27.6389 139.249,-19.7511"/>
<polygon fill="midnightblue" stroke="midnightblue" points="107.513,-46.537 102.917,-56.083 112.463,-51.4868 107.513,-46.537"/>
</g>
</g>
</svg>
