<?xml version="1.0" encoding="UTF-8" standalone="no"?>
<!DOCTYPE svg PUBLIC "-//W3C//DTD SVG 1.1//EN"
 "http://www.w3.org/Graphics/SVG/1.1/DTD/svg11.dtd">
<!-- Generated by graphviz version 2.36.0 (20140111.2315)
 -->
<!-- Title: ShapeFactory::ShapePair Pages: 1 -->
<svg width="136pt" height="316pt"
 viewBox="0.00 0.00 136.00 316.00" xmlns="http://www.w3.org/2000/svg" xmlns:xlink="http://www.w3.org/1999/xlink">
<g id="graph0" class="graph" transform="scale(1 1) rotate(0) translate(4 312)">
<title>ShapeFactory::ShapePair</title>
<polygon fill="white" stroke="none" points="-4,4 -4,-312 132,-312 132,4 -4,4"/>
<!-- Node1 -->
<g id="node1" class="node"><title>Node1</title>
<polygon fill="#bfbfbf" stroke="black" points="0,-0.5 0,-79.5 128,-79.5 128,-0.5 0,-0.5"/>
<text text-anchor="middle" x="64" y="-67.5" font-family="Helvetica,sans-Serif" font-size="10.00">ShapeFactory::ShapePair</text>
<polyline fill="none" stroke="black" points="0,-60.5 128,-60.5 "/>
<text text-anchor="start" x="8" y="-48.5" font-family="Helvetica,sans-Serif" font-size="10.00">+ _name</text>
<polyline fill="none" stroke="black" points="0,-41.5 128,-41.5 "/>
<text text-anchor="start" x="8" y="-29.5" font-family="Helvetica,sans-Serif" font-size="10.00">+ ShapePair()</text>
<text text-anchor="start" x="8" y="-18.5" font-family="Helvetica,sans-Serif" font-size="10.00">+ ShapePair()</text>
<text text-anchor="start" x="8" y="-7.5" font-family="Helvetica,sans-Serif" font-size="10.00">+ ~ShapePair()</text>
</g>
<!-- Node2 -->
<g id="node2" class="node"><title>Node2</title>
<g id="a_node2"><a xlink:href="classShape.html" target="_top" xlink:title="{Shape\n|# _name\l# WIDTH_LABEL\l# WIDTH_VALUE\l|+ Shape()\l+ Shape()\l+ ~Shape()\l+ name()\l+ area()\l+ perimeter()\l+ clone()\l+ display()\l+ read()\l# name()\l}">
<polygon fill="white" stroke="black" points="15.5,-129 15.5,-307 112.5,-307 112.5,-129 15.5,-129"/>
<text text-anchor="middle" x="64" y="-295" font-family="Helvetica,sans-Serif" font-size="10.00">Shape</text>
<polyline fill="none" stroke="black" points="15.5,-288 112.5,-288 "/>
<text text-anchor="start" x="23.5" y="-276" font-family="Helvetica,sans-Serif" font-size="10.00"># _name</text>
<text text-anchor="start" x="23.5" y="-265" font-family="Helvetica,sans-Serif" font-size="10.00"># WIDTH_LABEL</text>
<text text-anchor="start" x="23.5" y="-254" font-family="Helvetica,sans-Serif" font-size="10.00"># WIDTH_VALUE</text>
<polyline fill="none" stroke="black" points="15.5,-247 112.5,-247 "/>
<text text-anchor="start" x="23.5" y="-235" font-family="Helvetica,sans-Serif" font-size="10.00">+ Shape()</text>
<text text-anchor="start" x="23.5" y="-224" font-family="Helvetica,sans-Serif" font-size="10.00">+ Shape()</text>
<text text-anchor="start" x="23.5" y="-213" font-family="Helvetica,sans-Serif" font-size="10.00">+ ~Shape()</text>
<text text-anchor="start" x="23.5" y="-202" font-family="Helvetica,sans-Serif" font-size="10.00">+ name()</text>
<text text-anchor="start" x="23.5" y="-191" font-family="Helvetica,sans-Serif" font-size="10.00">+ area()</text>
<text text-anchor="start" x="23.5" y="-180" font-family="Helvetica,sans-Serif" font-size="10.00">+ perimeter()</text>
<text text-anchor="start" x="23.5" y="-169" font-family="Helvetica,sans-Serif" font-size="10.00">+ clone()</text>
<text text-anchor="start" x="23.5" y="-158" font-family="Helvetica,sans-Serif" font-size="10.00">+ display()</text>
<text text-anchor="start" x="23.5" y="-147" font-family="Helvetica,sans-Serif" font-size="10.00">+ read()</text>
<text text-anchor="start" x="23.5" y="-136" font-family="Helvetica,sans-Serif" font-size="10.00"># name()</text>
</a>
</g>
</g>
<!-- Node2&#45;&gt;Node1 -->
<g id="edge1" class="edge"><title>Node2&#45;&gt;Node1</title>
<path fill="none" stroke="#404040" d="M64,-128.742C64,-116.145 64,-103.554 64,-92.0038"/>
<polygon fill="none" stroke="#404040" points="64.0001,-91.927 60,-85.9271 64,-79.927 68,-85.927 64.0001,-91.927"/>
<text text-anchor="middle" x="84.5" y="-101.5" font-family="Helvetica,sans-Serif" font-size="10.00"> +_model</text>
</g>
</g>
</svg>
