<?xml version="1.0" encoding="UTF-8" standalone="no"?>
<!DOCTYPE svg PUBLIC "-//W3C//DTD SVG 1.1//EN"
 "http://www.w3.org/Graphics/SVG/1.1/DTD/svg11.dtd">
<!-- Generated by graphviz version 2.36.0 (20140111.2315)
 -->
<!-- Title: House Pages: 1 -->
<svg width="219pt" height="758pt"
 viewBox="0.00 0.00 219.00 758.00" xmlns="http://www.w3.org/2000/svg" xmlns:xlink="http://www.w3.org/1999/xlink">
<g id="graph0" class="graph" transform="scale(1 1) rotate(0) translate(4 754)">
<title>House</title>
<polygon fill="white" stroke="none" points="-4,4 -4,-754 215,-754 215,4 -4,4"/>
<!-- Node1 -->
<g id="node1" class="node"><title>Node1</title>
<polygon fill="#bfbfbf" stroke="black" points="72.5,-0.5 72.5,-189.5 151.5,-189.5 151.5,-0.5 72.5,-0.5"/>
<text text-anchor="middle" x="112" y="-177.5" font-family="Helvetica,sans-Serif" font-size="10.00">House</text>
<polyline fill="none" stroke="black" points="72.5,-170.5 151.5,-170.5 "/>
<text text-anchor="start" x="80.5" y="-158.5" font-family="Helvetica,sans-Serif" font-size="10.00">&#45; name</text>
<text text-anchor="start" x="80.5" y="-147.5" font-family="Helvetica,sans-Serif" font-size="10.00">&#45; currentSize</text>
<polyline fill="none" stroke="black" points="72.5,-140.5 151.5,-140.5 "/>
<text text-anchor="start" x="80.5" y="-128.5" font-family="Helvetica,sans-Serif" font-size="10.00">+ House()</text>
<text text-anchor="start" x="80.5" y="-117.5" font-family="Helvetica,sans-Serif" font-size="10.00">+ House()</text>
<text text-anchor="start" x="80.5" y="-106.5" font-family="Helvetica,sans-Serif" font-size="10.00">+ addRoom()</text>
<text text-anchor="start" x="80.5" y="-95.5" font-family="Helvetica,sans-Serif" font-size="10.00">+ setName()</text>
<text text-anchor="start" x="80.5" y="-84.5" font-family="Helvetica,sans-Serif" font-size="10.00">+ getName()</text>
<text text-anchor="start" x="80.5" y="-73.5" font-family="Helvetica,sans-Serif" font-size="10.00">+ begin()</text>
<text text-anchor="start" x="80.5" y="-62.5" font-family="Helvetica,sans-Serif" font-size="10.00">+ begin()</text>
<text text-anchor="start" x="80.5" y="-51.5" font-family="Helvetica,sans-Serif" font-size="10.00">+ end()</text>
<text text-anchor="start" x="80.5" y="-40.5" font-family="Helvetica,sans-Serif" font-size="10.00">+ end()</text>
<text text-anchor="start" x="80.5" y="-29.5" font-family="Helvetica,sans-Serif" font-size="10.00">+ size()</text>
<text text-anchor="start" x="80.5" y="-18.5" font-family="Helvetica,sans-Serif" font-size="10.00">+ display()</text>
<text text-anchor="start" x="80.5" y="-7.5" font-family="Helvetica,sans-Serif" font-size="10.00">+ operator==()</text>
</g>
<!-- Node2 -->
<g id="node2" class="node"><title>Node2</title>
<g id="a_node2"><a xlink:href="structHouse_1_1Node.html" target="_top" xlink:title="{House::Node\n||+ Node()\l}">
<polygon fill="white" stroke="black" points="75,-248.5 75,-305.5 149,-305.5 149,-248.5 75,-248.5"/>
<text text-anchor="middle" x="112" y="-293.5" font-family="Helvetica,sans-Serif" font-size="10.00">House::Node</text>
<polyline fill="none" stroke="black" points="75,-286.5 149,-286.5 "/>
<text text-anchor="middle" x="112" y="-274.5" font-family="Helvetica,sans-Serif" font-size="10.00"> </text>
<polyline fill="none" stroke="black" points="75,-267.5 149,-267.5 "/>
<text text-anchor="start" x="83" y="-255.5" font-family="Helvetica,sans-Serif" font-size="10.00">+ Node()</text>
</a>
</g>
</g>
<!-- Node2&#45;&gt;Node1 -->
<g id="edge1" class="edge"><title>Node2&#45;&gt;Node1</title>
<path fill="none" stroke="#404040" d="M112,-248.269C112,-235.414 112,-219.234 112,-202.255"/>
<polygon fill="none" stroke="#404040" points="112,-201.787 108,-195.787 112,-189.787 116,-195.787 112,-201.787"/>
<text text-anchor="middle" x="126" y="-222" font-family="Helvetica,sans-Serif" font-size="10.00"> &#45;head</text>
<text text-anchor="middle" x="126" y="-211" font-family="Helvetica,sans-Serif" font-size="10.00">&#45;tail</text>
</g>
<!-- Node2&#45;&gt;Node2 -->
<g id="edge2" class="edge"><title>Node2&#45;&gt;Node2</title>
<path fill="none" stroke="#404040" d="M149.015,-286.69C159.21,-286.222 167,-282.992 167,-277 167,-273.723 164.67,-271.272 160.891,-269.647"/>
<polygon fill="none" stroke="#404040" points="160.789,-269.627 154.13,-272.393 149.015,-267.31 155.675,-264.544 160.789,-269.627"/>
<text text-anchor="middle" x="181" y="-274.5" font-family="Helvetica,sans-Serif" font-size="10.00"> +next</text>
</g>
<!-- Node3 -->
<g id="node3" class="node"><title>Node3</title>
<g id="a_node3"><a xlink:href="classRoom.html" target="_top" xlink:title="{Room\n|+ UNITS\l&#45; name\l|+ Room()\l+ Room()\l+ Room()\l+ Room()\l+ getDimensions()\l+ setDimensions()\l+ getFlooring()\l+ setFlooring()\l+ setName()\l+ getName()\l+ area()\l+ flooringCost()\l+ display()\l+ operator==()\l+ operator\&lt;()\l}">
<polygon fill="white" stroke="black" points="63.5,-355 63.5,-577 160.5,-577 160.5,-355 63.5,-355"/>
<text text-anchor="middle" x="112" y="-565" font-family="Helvetica,sans-Serif" font-size="10.00">Room</text>
<polyline fill="none" stroke="black" points="63.5,-558 160.5,-558 "/>
<text text-anchor="start" x="71.5" y="-546" font-family="Helvetica,sans-Serif" font-size="10.00">+ UNITS</text>
<text text-anchor="start" x="71.5" y="-535" font-family="Helvetica,sans-Serif" font-size="10.00">&#45; name</text>
<polyline fill="none" stroke="black" points="63.5,-528 160.5,-528 "/>
<text text-anchor="start" x="71.5" y="-516" font-family="Helvetica,sans-Serif" font-size="10.00">+ Room()</text>
<text text-anchor="start" x="71.5" y="-505" font-family="Helvetica,sans-Serif" font-size="10.00">+ Room()</text>
<text text-anchor="start" x="71.5" y="-494" font-family="Helvetica,sans-Serif" font-size="10.00">+ Room()</text>
<text text-anchor="start" x="71.5" y="-483" font-family="Helvetica,sans-Serif" font-size="10.00">+ Room()</text>
<text text-anchor="start" x="71.5" y="-472" font-family="Helvetica,sans-Serif" font-size="10.00">+ getDimensions()</text>
<text text-anchor="start" x="71.5" y="-461" font-family="Helvetica,sans-Serif" font-size="10.00">+ setDimensions()</text>
<text text-anchor="start" x="71.5" y="-450" font-family="Helvetica,sans-Serif" font-size="10.00">+ getFlooring()</text>
<text text-anchor="start" x="71.5" y="-439" font-family="Helvetica,sans-Serif" font-size="10.00">+ setFlooring()</text>
<text text-anchor="start" x="71.5" y="-428" font-family="Helvetica,sans-Serif" font-size="10.00">+ setName()</text>
<text text-anchor="start" x="71.5" y="-417" font-family="Helvetica,sans-Serif" font-size="10.00">+ getName()</text>
<text text-anchor="start" x="71.5" y="-406" font-family="Helvetica,sans-Serif" font-size="10.00">+ area()</text>
<text text-anchor="start" x="71.5" y="-395" font-family="Helvetica,sans-Serif" font-size="10.00">+ flooringCost()</text>
<text text-anchor="start" x="71.5" y="-384" font-family="Helvetica,sans-Serif" font-size="10.00">+ display()</text>
<text text-anchor="start" x="71.5" y="-373" font-family="Helvetica,sans-Serif" font-size="10.00">+ operator==()</text>
<text text-anchor="start" x="71.5" y="-362" font-family="Helvetica,sans-Serif" font-size="10.00">+ operator&lt;()</text>
</a>
</g>
</g>
<!-- Node3&#45;&gt;Node2 -->
<g id="edge3" class="edge"><title>Node3&#45;&gt;Node2</title>
<path fill="none" stroke="#404040" d="M112,-354.87C112,-341.762 112,-329.105 112,-317.975"/>
<polygon fill="none" stroke="#404040" points="112,-317.673 108,-311.673 112,-305.673 116,-311.673 112,-317.673"/>
<text text-anchor="middle" x="126" y="-327.5" font-family="Helvetica,sans-Serif" font-size="10.00"> +data</text>
</g>
<!-- Node4 -->
<g id="node4" class="node"><title>Node4</title>
<g id="a_node4"><a xlink:href="classRoom_1_1DimensionSet.html" target="_top" xlink:title="{Room::DimensionSet\n|&#45; length\l&#45; width\l|+ DimensionSet()\l+ DimensionSet()\l+ setLength()\l+ getLength()\l+ setWidth()\l+ getWidth()\l}">
<polygon fill="white" stroke="black" points="0,-626.5 0,-749.5 110,-749.5 110,-626.5 0,-626.5"/>
<text text-anchor="middle" x="55" y="-737.5" font-family="Helvetica,sans-Serif" font-size="10.00">Room::DimensionSet</text>
<polyline fill="none" stroke="black" points="0,-730.5 110,-730.5 "/>
<text text-anchor="start" x="8" y="-718.5" font-family="Helvetica,sans-Serif" font-size="10.00">&#45; length</text>
<text text-anchor="start" x="8" y="-707.5" font-family="Helvetica,sans-Serif" font-size="10.00">&#45; width</text>
<polyline fill="none" stroke="black" points="0,-700.5 110,-700.5 "/>
<text text-anchor="start" x="8" y="-688.5" font-family="Helvetica,sans-Serif" font-size="10.00">+ DimensionSet()</text>
<text text-anchor="start" x="8" y="-677.5" font-family="Helvetica,sans-Serif" font-size="10.00">+ DimensionSet()</text>
<text text-anchor="start" x="8" y="-666.5" font-family="Helvetica,sans-Serif" font-size="10.00">+ setLength()</text>
<text text-anchor="start" x="8" y="-655.5" font-family="Helvetica,sans-Serif" font-size="10.00">+ getLength()</text>
<text text-anchor="start" x="8" y="-644.5" font-family="Helvetica,sans-Serif" font-size="10.00">+ setWidth()</text>
<text text-anchor="start" x="8" y="-633.5" font-family="Helvetica,sans-Serif" font-size="10.00">+ getWidth()</text>
</a>
</g>
</g>
<!-- Node4&#45;&gt;Node3 -->
<g id="edge4" class="edge"><title>Node4&#45;&gt;Node3</title>
<path fill="none" stroke="#404040" d="M70.7264,-626.302C73.7539,-614.617 77.0239,-601.996 80.3518,-589.151"/>
<polygon fill="none" stroke="#404040" points="80.4093,-588.929 78.0421,-582.117 83.4191,-577.312 85.7864,-584.124 80.4093,-588.929"/>
<text text-anchor="middle" x="107" y="-599.5" font-family="Helvetica,sans-Serif" font-size="10.00"> &#45;dimensions</text>
</g>
<!-- Node5 -->
<g id="node5" class="node"><title>Node5</title>
<g id="a_node5"><a xlink:href="structRoom_1_1Flooring.html" target="_top" xlink:title="{Room::Flooring\n|+ type\l+ unitCost\l|+ Flooring()\l+ Flooring()\l}">
<polygon fill="white" stroke="black" points="128.5,-648.5 128.5,-727.5 211.5,-727.5 211.5,-648.5 128.5,-648.5"/>
<text text-anchor="middle" x="170" y="-715.5" font-family="Helvetica,sans-Serif" font-size="10.00">Room::Flooring</text>
<polyline fill="none" stroke="black" points="128.5,-708.5 211.5,-708.5 "/>
<text text-anchor="start" x="136.5" y="-696.5" font-family="Helvetica,sans-Serif" font-size="10.00">+ type</text>
<text text-anchor="start" x="136.5" y="-685.5" font-family="Helvetica,sans-Serif" font-size="10.00">+ unitCost</text>
<polyline fill="none" stroke="black" points="128.5,-678.5 211.5,-678.5 "/>
<text text-anchor="start" x="136.5" y="-666.5" font-family="Helvetica,sans-Serif" font-size="10.00">+ Flooring()</text>
<text text-anchor="start" x="136.5" y="-655.5" font-family="Helvetica,sans-Serif" font-size="10.00">+ Flooring()</text>
</a>
</g>
</g>
<!-- Node5&#45;&gt;Node3 -->
<g id="edge5" class="edge"><title>Node5&#45;&gt;Node3</title>
<path fill="none" stroke="#404040" d="M159.831,-648.427C155.369,-631.505 149.861,-610.609 144.187,-589.089"/>
<polygon fill="none" stroke="#404040" points="144.176,-589.048 138.779,-584.266 141.117,-577.444 146.515,-582.226 144.176,-589.048"/>
<text text-anchor="middle" x="167" y="-599.5" font-family="Helvetica,sans-Serif" font-size="10.00"> &#45;flooring</text>
</g>
</g>
</svg>
