<?xml version="1.0" encoding="UTF-8" standalone="no"?>
<!DOCTYPE svg PUBLIC "-//W3C//DTD SVG 1.1//EN"
 "http://www.w3.org/Graphics/SVG/1.1/DTD/svg11.dtd">
<!-- Generated by graphviz version 2.36.0 (20140111.2315)
 -->
<!-- Title: main Pages: 1 -->
<svg width="298pt" height="66pt"
 viewBox="0.00 0.00 298.00 66.00" xmlns="http://www.w3.org/2000/svg" xmlns:xlink="http://www.w3.org/1999/xlink">
<g id="graph0" class="graph" transform="scale(1 1) rotate(0) translate(4 62)">
<title>main</title>
<polygon fill="white" stroke="none" points="-4,4 -4,-62 294,-62 294,4 -4,4"/>
<!-- Node1 -->
<g id="node1" class="node"><title>Node1</title>
<polygon fill="#bfbfbf" stroke="black" points="0,-19.5 0,-38.5 38,-38.5 38,-19.5 0,-19.5"/>
<text text-anchor="middle" x="19" y="-26.5" font-family="Helvetica,sans-Serif" font-size="10.00">main</text>
</g>
<!-- Node2 -->
<g id="node2" class="node"><title>Node2</title>
<g id="a_node2"><a xlink:href="updateRoom_8cpp.html#a056ead85c5cd7993253ccf383ee43ed7" target="_top" xlink:title="buildHouse">
<polygon fill="white" stroke="black" points="84.5,-38.5 84.5,-57.5 149.5,-57.5 149.5,-38.5 84.5,-38.5"/>
<text text-anchor="middle" x="117" y="-45.5" font-family="Helvetica,sans-Serif" font-size="10.00">buildHouse</text>
</a>
</g>
</g>
<!-- Node1&#45;&gt;Node2 -->
<g id="edge1" class="edge"><title>Node1&#45;&gt;Node2</title>
<path fill="none" stroke="midnightblue" d="M38.0569,-32.5738C48.3426,-34.6095 61.6826,-37.2497 74.4103,-39.7687"/>
<polygon fill="midnightblue" stroke="midnightblue" points="73.9271,-43.2409 84.4164,-41.7491 75.2863,-36.3741 73.9271,-43.2409"/>
</g>
<!-- Node4 -->
<g id="node4" class="node"><title>Node4</title>
<g id="a_node4"><a xlink:href="updateRoom_8cpp.html#a6ef976e945581e079acdeddc8f189b41" target="_top" xlink:title="upgradeFlooring">
<polygon fill="white" stroke="black" points="74,-0.5 74,-19.5 160,-19.5 160,-0.5 74,-0.5"/>
<text text-anchor="middle" x="117" y="-7.5" font-family="Helvetica,sans-Serif" font-size="10.00">upgradeFlooring</text>
</a>
</g>
</g>
<!-- Node1&#45;&gt;Node4 -->
<g id="edge3" class="edge"><title>Node1&#45;&gt;Node4</title>
<path fill="none" stroke="midnightblue" d="M38.0569,-25.4262C45.4758,-23.9579 54.4838,-22.1751 63.7049,-20.3501"/>
<polygon fill="midnightblue" stroke="midnightblue" points="64.5991,-23.7411 73.7293,-18.3661 63.24,-16.8743 64.5991,-23.7411"/>
</g>
<!-- Node3 -->
<g id="node3" class="node"><title>Node3</title>
<g id="a_node3"><a xlink:href="classHouse.html#a13cbcc156df50cd85dfe7a8fde385df4" target="_top" xlink:title="House::addRoom">
<polygon fill="white" stroke="black" points="196.5,-38.5 196.5,-57.5 289.5,-57.5 289.5,-38.5 196.5,-38.5"/>
<text text-anchor="middle" x="243" y="-45.5" font-family="Helvetica,sans-Serif" font-size="10.00">House::addRoom</text>
</a>
</g>
</g>
<!-- Node2&#45;&gt;Node3 -->
<g id="edge2" class="edge"><title>Node2&#45;&gt;Node3</title>
<path fill="none" stroke="midnightblue" d="M149.611,-48C160.711,-48 173.537,-48 186.032,-48"/>
<polygon fill="midnightblue" stroke="midnightblue" points="186.406,-51.5001 196.406,-48 186.406,-44.5001 186.406,-51.5001"/>
</g>
<!-- Node5 -->
<g id="node5" class="node"><title>Node5</title>
<g id="a_node5"><a xlink:href="classHouse.html#a4b4c400732f391db0ff7347c1f4fdb70" target="_top" xlink:title="House::setName">
<polygon fill="white" stroke="black" points="197.5,-0.5 197.5,-19.5 288.5,-19.5 288.5,-0.5 197.5,-0.5"/>
<text text-anchor="middle" x="243" y="-7.5" font-family="Helvetica,sans-Serif" font-size="10.00">House::setName</text>
</a>
</g>
</g>
<!-- Node4&#45;&gt;Node5 -->
<g id="edge4" class="edge"><title>Node4&#45;&gt;Node5</title>
<path fill="none" stroke="midnightblue" d="M160.327,-10C168.993,-10 178.231,-10 187.26,-10"/>
<polygon fill="midnightblue" stroke="midnightblue" points="187.325,-13.5001 197.325,-10 187.325,-6.5001 187.325,-13.5001"/>
</g>
</g>
</svg>
