<?xml version="1.0" encoding="UTF-8" standalone="no"?>
<!DOCTYPE svg PUBLIC "-//W3C//DTD SVG 1.1//EN"
 "http://www.w3.org/Graphics/SVG/1.1/DTD/svg11.dtd">
<!-- Generated by graphviz version 2.36.0 (20140111.2315)
 -->
<!-- Title: pointerReview.cpp Pages: 1 -->
<svg width="255pt" height="84pt"
 viewBox="0.00 0.00 255.00 84.00" xmlns="http://www.w3.org/2000/svg" xmlns:xlink="http://www.w3.org/1999/xlink">
<g id="graph0" class="graph" transform="scale(1 1) rotate(0) translate(4 80)">
<title>pointerReview.cpp</title>
<polygon fill="white" stroke="none" points="-4,4 -4,-80 251,-80 251,4 -4,4"/>
<!-- Node1 -->
<g id="node1" class="node"><title>Node1</title>
<polygon fill="#bfbfbf" stroke="black" points="69,-56.5 69,-75.5 167,-75.5 167,-56.5 69,-56.5"/>
<text text-anchor="middle" x="118" y="-63.5" font-family="Helvetica,sans-Serif" font-size="10.00">pointerReview.cpp</text>
</g>
<!-- Node2 -->
<g id="node2" class="node"><title>Node2</title>
<polygon fill="white" stroke="#bfbfbf" points="-0.5,-0.5 -0.5,-19.5 44.5,-19.5 44.5,-0.5 -0.5,-0.5"/>
<text text-anchor="middle" x="22" y="-7.5" font-family="Helvetica,sans-Serif" font-size="10.00">cstdlib</text>
</g>
<!-- Node1&#45;&gt;Node2 -->
<g id="edge1" class="edge"><title>Node1&#45;&gt;Node2</title>
<path fill="none" stroke="midnightblue" d="M102.576,-56.324C87.4605,-47.8215 64.1846,-34.7288 46.5288,-24.7975"/>
<polygon fill="midnightblue" stroke="midnightblue" points="47.8175,-21.5066 37.3858,-19.6545 44.3856,-27.6077 47.8175,-21.5066"/>
</g>
<!-- Node3 -->
<g id="node3" class="node"><title>Node3</title>
<polygon fill="white" stroke="#bfbfbf" points="63,-0.5 63,-19.5 107,-19.5 107,-0.5 63,-0.5"/>
<text text-anchor="middle" x="85" y="-7.5" font-family="Helvetica,sans-Serif" font-size="10.00">cmath</text>
</g>
<!-- Node1&#45;&gt;Node3 -->
<g id="edge2" class="edge"><title>Node1&#45;&gt;Node3</title>
<path fill="none" stroke="midnightblue" d="M112.551,-56.083C107.986,-48.6127 101.332,-37.7244 95.7066,-28.5199"/>
<polygon fill="midnightblue" stroke="midnightblue" points="98.5489,-26.4588 90.3479,-19.7511 92.5759,-30.109 98.5489,-26.4588"/>
</g>
<!-- Node4 -->
<g id="node4" class="node"><title>Node4</title>
<polygon fill="white" stroke="#bfbfbf" points="125,-0.5 125,-19.5 179,-19.5 179,-0.5 125,-0.5"/>
<text text-anchor="middle" x="152" y="-7.5" font-family="Helvetica,sans-Serif" font-size="10.00">iostream</text>
</g>
<!-- Node1&#45;&gt;Node4 -->
<g id="edge3" class="edge"><title>Node1&#45;&gt;Node4</title>
<path fill="none" stroke="midnightblue" d="M123.614,-56.083C128.367,-48.5341 135.318,-37.4948 141.152,-28.2298"/>
<polygon fill="midnightblue" stroke="midnightblue" points="144.124,-30.0783 146.49,-19.7511 138.2,-26.3486 144.124,-30.0783"/>
</g>
<!-- Node5 -->
<g id="node5" class="node"><title>Node5</title>
<polygon fill="white" stroke="#bfbfbf" points="197,-0.5 197,-19.5 247,-19.5 247,-0.5 197,-0.5"/>
<text text-anchor="middle" x="222" y="-7.5" font-family="Helvetica,sans-Serif" font-size="10.00">iomanip</text>
</g>
<!-- Node1&#45;&gt;Node5 -->
<g id="edge4" class="edge"><title>Node1&#45;&gt;Node5</title>
<path fill="none" stroke="midnightblue" d="M134.709,-56.324C151.312,-47.7034 177.002,-34.3643 196.22,-24.3855"/>
<polygon fill="midnightblue" stroke="midnightblue" points="198.07,-27.3689 205.332,-19.6545 194.844,-21.1565 198.07,-27.3689"/>
</g>
</g>
</svg>
