<?xml version="1.0" encoding="UTF-8" standalone="no"?>
<!DOCTYPE svg PUBLIC "-//W3C//DTD SVG 1.1//EN"
 "http://www.w3.org/Graphics/SVG/1.1/DTD/svg11.dtd">
<!-- Generated by graphviz version 2.36.0 (20140111.2315)
 -->
<!-- Title: listDriver.cpp Pages: 1 -->
<svg width="453pt" height="140pt"
 viewBox="0.00 0.00 453.00 140.00" xmlns="http://www.w3.org/2000/svg" xmlns:xlink="http://www.w3.org/1999/xlink">
<g id="graph0" class="graph" transform="scale(1 1) rotate(0) translate(4 136)">
<title>listDriver.cpp</title>
<polygon fill="white" stroke="none" points="-4,4 -4,-136 449,-136 449,4 -4,4"/>
<!-- Node1 -->
<g id="node1" class="node"><title>Node1</title>
<polygon fill="#bfbfbf" stroke="black" points="136,-112.5 136,-131.5 210,-131.5 210,-112.5 136,-112.5"/>
<text text-anchor="middle" x="173" y="-119.5" font-family="Helvetica,sans-Serif" font-size="10.00">listDriver.cpp</text>
</g>
<!-- Node2 -->
<g id="node2" class="node"><title>Node2</title>
<polygon fill="white" stroke="#bfbfbf" points="0,-0.5 0,-19.5 54,-19.5 54,-0.5 0,-0.5"/>
<text text-anchor="middle" x="27" y="-7.5" font-family="Helvetica,sans-Serif" font-size="10.00">iostream</text>
</g>
<!-- Node1&#45;&gt;Node2 -->
<g id="edge1" class="edge"><title>Node1&#45;&gt;Node2</title>
<path fill="none" stroke="midnightblue" d="M135.697,-120.07C102.889,-117.079 56.6318,-107.134 32,-76 21.8045,-63.113 21.5653,-43.9364 23.2685,-29.7494"/>
<polygon fill="midnightblue" stroke="midnightblue" points="26.7593,-30.087 24.8978,-19.657 19.8487,-28.9713 26.7593,-30.087"/>
</g>
<!-- Node3 -->
<g id="node3" class="node"><title>Node3</title>
<polygon fill="white" stroke="#bfbfbf" points="72,-0.5 72,-19.5 122,-19.5 122,-0.5 72,-0.5"/>
<text text-anchor="middle" x="97" y="-7.5" font-family="Helvetica,sans-Serif" font-size="10.00">iomanip</text>
</g>
<!-- Node1&#45;&gt;Node3 -->
<g id="edge2" class="edge"><title>Node1&#45;&gt;Node3</title>
<path fill="none" stroke="midnightblue" d="M167.036,-112.368C154.494,-94.2153 125.19,-51.8015 108.739,-27.9902"/>
<polygon fill="midnightblue" stroke="midnightblue" points="111.5,-25.8292 102.936,-19.5914 105.741,-29.8083 111.5,-25.8292"/>
</g>
<!-- Node4 -->
<g id="node4" class="node"><title>Node4</title>
<polygon fill="white" stroke="#bfbfbf" points="313.5,-56.5 313.5,-75.5 354.5,-75.5 354.5,-56.5 313.5,-56.5"/>
<text text-anchor="middle" x="334" y="-63.5" font-family="Helvetica,sans-Serif" font-size="10.00">ctime</text>
</g>
<!-- Node1&#45;&gt;Node4 -->
<g id="edge3" class="edge"><title>Node1&#45;&gt;Node4</title>
<path fill="none" stroke="midnightblue" d="M198.511,-112.444C227.03,-102.878 273.187,-87.3969 303.567,-77.2075"/>
<polygon fill="midnightblue" stroke="midnightblue" points="304.848,-80.4693 313.216,-73.971 302.622,-73.8327 304.848,-80.4693"/>
</g>
<!-- Node5 -->
<g id="node5" class="node"><title>Node5</title>
<polygon fill="white" stroke="#bfbfbf" points="140.5,-0.5 140.5,-19.5 185.5,-19.5 185.5,-0.5 140.5,-0.5"/>
<text text-anchor="middle" x="163" y="-7.5" font-family="Helvetica,sans-Serif" font-size="10.00">cstdlib</text>
</g>
<!-- Node1&#45;&gt;Node5 -->
<g id="edge4" class="edge"><title>Node1&#45;&gt;Node5</title>
<path fill="none" stroke="midnightblue" d="M172.215,-112.368C170.602,-94.617 166.879,-53.6664 164.691,-29.5974"/>
<polygon fill="midnightblue" stroke="midnightblue" points="168.172,-29.2334 163.781,-19.5914 161.201,-29.8673 168.172,-29.2334"/>
</g>
<!-- Node6 -->
<g id="node6" class="node"><title>Node6</title>
<polygon fill="white" stroke="#bfbfbf" points="404.5,-0.5 404.5,-19.5 445.5,-19.5 445.5,-0.5 404.5,-0.5"/>
<text text-anchor="middle" x="425" y="-7.5" font-family="Helvetica,sans-Serif" font-size="10.00">string</text>
</g>
<!-- Node1&#45;&gt;Node6 -->
<g id="edge5" class="edge"><title>Node1&#45;&gt;Node6</title>
<path fill="none" stroke="midnightblue" d="M190.659,-112.419C209.197,-103.398 239.181,-88.7691 265,-76 282.816,-67.1888 286.781,-63.9449 305,-56 335.115,-42.8679 370.412,-29.914 394.894,-21.3015"/>
<polygon fill="midnightblue" stroke="midnightblue" points="396.067,-24.5992 404.356,-17.9998 393.761,-17.99 396.067,-24.5992"/>
</g>
<!-- Node7 -->
<g id="node7" class="node"><title>Node7</title>
<g id="a_node7"><a xlink:href="utilities_8h.html" target="_top" xlink:title="utilities.h">
<polygon fill="white" stroke="black" points="201,-56.5 201,-75.5 257,-75.5 257,-56.5 201,-56.5"/>
<text text-anchor="middle" x="229" y="-63.5" font-family="Helvetica,sans-Serif" font-size="10.00">utilities.h</text>
</a>
</g>
</g>
<!-- Node1&#45;&gt;Node7 -->
<g id="edge6" class="edge"><title>Node1&#45;&gt;Node7</title>
<path fill="none" stroke="midnightblue" d="M181.997,-112.324C190.194,-104.42 202.506,-92.5482 212.472,-82.9377"/>
<polygon fill="midnightblue" stroke="midnightblue" points="215.07,-85.2947 219.839,-75.8339 210.211,-80.2558 215.07,-85.2947"/>
</g>
<!-- Node11 -->
<g id="node11" class="node"><title>Node11</title>
<g id="a_node11"><a xlink:href="linkedList_8h.html" target="_top" xlink:title="linkedList.h">
<polygon fill="white" stroke="black" points="41,-56.5 41,-75.5 107,-75.5 107,-56.5 41,-56.5"/>
<text text-anchor="middle" x="74" y="-63.5" font-family="Helvetica,sans-Serif" font-size="10.00">linkedList.h</text>
</a>
</g>
</g>
<!-- Node1&#45;&gt;Node11 -->
<g id="edge14" class="edge"><title>Node1&#45;&gt;Node11</title>
<path fill="none" stroke="midnightblue" d="M157.094,-112.324C141.362,-103.743 117.058,-90.486 98.7911,-80.5224"/>
<polygon fill="midnightblue" stroke="midnightblue" points="100.322,-77.3704 89.8666,-75.6545 96.9696,-83.5157 100.322,-77.3704"/>
</g>
<!-- Node7&#45;&gt;Node2 -->
<g id="edge7" class="edge"><title>Node7&#45;&gt;Node2</title>
<path fill="none" stroke="midnightblue" d="M200.913,-57.4915C165.211,-47.9475 103.483,-31.446 63.9818,-20.8862"/>
<polygon fill="midnightblue" stroke="midnightblue" points="64.768,-17.4735 54.2033,-18.2722 62.9601,-24.2361 64.768,-17.4735"/>
</g>
<!-- Node7&#45;&gt;Node3 -->
<g id="edge10" class="edge"><title>Node7&#45;&gt;Node3</title>
<path fill="none" stroke="midnightblue" d="M208.084,-56.4435C186.264,-47.5171 151.85,-33.4387 127.108,-23.3168"/>
<polygon fill="midnightblue" stroke="midnightblue" points="128.399,-20.0634 117.818,-19.5164 125.748,-26.5422 128.399,-20.0634"/>
</g>
<!-- Node7&#45;&gt;Node5 -->
<g id="edge12" class="edge"><title>Node7&#45;&gt;Node5</title>
<path fill="none" stroke="midnightblue" d="M218.396,-56.324C208.544,-48.2631 193.649,-36.0765 181.785,-26.3695"/>
<polygon fill="midnightblue" stroke="midnightblue" points="183.753,-23.4575 173.797,-19.8339 179.32,-28.8752 183.753,-23.4575"/>
</g>
<!-- Node7&#45;&gt;Node6 -->
<g id="edge11" class="edge"><title>Node7&#45;&gt;Node6</title>
<path fill="none" stroke="midnightblue" d="M257.066,-57.4952C289.929,-48.6727 345.984,-33.5168 394,-20 394.209,-19.9412 394.419,-19.882 394.629,-19.8226"/>
<polygon fill="midnightblue" stroke="midnightblue" points="395.682,-23.162 404.336,-17.0499 393.76,-16.4312 395.682,-23.162"/>
</g>
<!-- Node8 -->
<g id="node8" class="node"><title>Node8</title>
<polygon fill="white" stroke="#bfbfbf" points="204,-0.5 204,-19.5 254,-19.5 254,-0.5 204,-0.5"/>
<text text-anchor="middle" x="229" y="-7.5" font-family="Helvetica,sans-Serif" font-size="10.00">fstream</text>
</g>
<!-- Node7&#45;&gt;Node8 -->
<g id="edge8" class="edge"><title>Node7&#45;&gt;Node8</title>
<path fill="none" stroke="midnightblue" d="M229,-56.083C229,-49.0059 229,-38.8611 229,-29.9865"/>
<polygon fill="midnightblue" stroke="midnightblue" points="232.5,-29.751 229,-19.7511 225.5,-29.7511 232.5,-29.751"/>
</g>
<!-- Node9 -->
<g id="node9" class="node"><title>Node9</title>
<polygon fill="white" stroke="#bfbfbf" points="272,-0.5 272,-19.5 324,-19.5 324,-0.5 272,-0.5"/>
<text text-anchor="middle" x="298" y="-7.5" font-family="Helvetica,sans-Serif" font-size="10.00">sstream</text>
</g>
<!-- Node7&#45;&gt;Node9 -->
<g id="edge9" class="edge"><title>Node7&#45;&gt;Node9</title>
<path fill="none" stroke="midnightblue" d="M240.086,-56.324C250.486,-48.1849 266.261,-35.8395 278.722,-26.0874"/>
<polygon fill="midnightblue" stroke="midnightblue" points="280.994,-28.7533 286.712,-19.8339 276.68,-23.2407 280.994,-28.7533"/>
</g>
<!-- Node10 -->
<g id="node10" class="node"><title>Node10</title>
<polygon fill="white" stroke="#bfbfbf" points="342,-0.5 342,-19.5 386,-19.5 386,-0.5 342,-0.5"/>
<text text-anchor="middle" x="364" y="-7.5" font-family="Helvetica,sans-Serif" font-size="10.00">cmath</text>
</g>
<!-- Node7&#45;&gt;Node10 -->
<g id="edge13" class="edge"><title>Node7&#45;&gt;Node10</title>
<path fill="none" stroke="midnightblue" d="M250.391,-56.4435C272.707,-47.5171 307.903,-33.4387 333.208,-23.3168"/>
<polygon fill="midnightblue" stroke="midnightblue" points="334.724,-26.4801 342.709,-19.5164 332.124,-19.9807 334.724,-26.4801"/>
</g>
<!-- Node11&#45;&gt;Node2 -->
<g id="edge15" class="edge"><title>Node11&#45;&gt;Node2</title>
<path fill="none" stroke="midnightblue" d="M66.2389,-56.083C59.4632,-48.2982 49.4568,-36.8015 41.2449,-27.3665"/>
<polygon fill="midnightblue" stroke="midnightblue" points="43.822,-24.9963 34.6167,-19.7511 38.5419,-29.592 43.822,-24.9963"/>
</g>
<!-- Node11&#45;&gt;Node3 -->
<g id="edge16" class="edge"><title>Node11&#45;&gt;Node3</title>
<path fill="none" stroke="midnightblue" d="M77.798,-56.083C80.9128,-48.77 85.4228,-38.1814 89.2893,-29.1034"/>
<polygon fill="midnightblue" stroke="midnightblue" points="92.5741,-30.3229 93.2727,-19.7511 86.1339,-27.5798 92.5741,-30.3229"/>
</g>
</g>
</svg>
