<?xml version="1.0" encoding="UTF-8" standalone="no"?>
<!DOCTYPE svg PUBLIC "-//W3C//DTD SVG 1.1//EN"
 "http://www.w3.org/Graphics/SVG/1.1/DTD/svg11.dtd">
<!-- Generated by graphviz version 2.36.0 (20140111.2315)
 -->
<!-- Title: main Pages: 1 -->
<svg width="392pt" height="142pt"
 viewBox="0.00 0.00 392.00 142.00" xmlns="http://www.w3.org/2000/svg" xmlns:xlink="http://www.w3.org/1999/xlink">
<g id="graph0" class="graph" transform="scale(1 1) rotate(0) translate(4 138)">
<title>main</title>
<polygon fill="white" stroke="none" points="-4,4 -4,-138 388,-138 388,4 -4,4"/>
<!-- Node1 -->
<g id="node1" class="node"><title>Node1</title>
<polygon fill="#bfbfbf" stroke="black" points="0,-57.5 0,-76.5 38,-76.5 38,-57.5 0,-57.5"/>
<text text-anchor="middle" x="19" y="-64.5" font-family="Helvetica,sans-Serif" font-size="10.00">main</text>
</g>
<!-- Node2 -->
<g id="node2" class="node"><title>Node2</title>
<g id="a_node2"><a xlink:href="namespaceutilities.html#a5a4a24938bfeb46f18a7d7ecf96e7b6b" target="_top" xlink:title="utilities::printProjectHeading">
<polygon fill="white" stroke="black" points="74.5,-76.5 74.5,-95.5 213.5,-95.5 213.5,-76.5 74.5,-76.5"/>
<text text-anchor="middle" x="144" y="-83.5" font-family="Helvetica,sans-Serif" font-size="10.00">utilities::printProjectHeading</text>
</a>
</g>
</g>
<!-- Node1&#45;&gt;Node2 -->
<g id="edge1" class="edge"><title>Node1&#45;&gt;Node2</title>
<path fill="none" stroke="midnightblue" d="M38.1491,-69.8035C47.324,-71.2208 59.1179,-73.0426 71.4665,-74.9501"/>
<polygon fill="midnightblue" stroke="midnightblue" points="71.0322,-78.4245 81.4493,-76.4922 72.1009,-71.5065 71.0322,-78.4245"/>
</g>
<!-- Node3 -->
<g id="node3" class="node"><title>Node3</title>
<g id="a_node3"><a xlink:href="namespaceutilities.html#a2ca4bf55e15b157fc1255112ecf60b4b" target="_top" xlink:title="utilities::printHorizontalLine">
<polygon fill="white" stroke="black" points="250,-114.5 250,-133.5 384,-133.5 384,-114.5 250,-114.5"/>
<text text-anchor="middle" x="317" y="-121.5" font-family="Helvetica,sans-Serif" font-size="10.00">utilities::printHorizontalLine</text>
</a>
</g>
</g>
<!-- Node1&#45;&gt;Node3 -->
<g id="edge6" class="edge"><title>Node1&#45;&gt;Node3</title>
<path fill="none" stroke="midnightblue" d="M30.19,-76.7438C40.3837,-85.825 56.9596,-98.8611 74,-105 127.118,-124.136 190.916,-128.447 239.669,-128.208"/>
<polygon fill="midnightblue" stroke="midnightblue" points="239.875,-131.706 249.834,-128.092 239.795,-124.707 239.875,-131.706"/>
</g>
<!-- Node5 -->
<g id="node5" class="node"><title>Node5</title>
<g id="a_node5"><a xlink:href="classLinkedList.html#aac24d4dd7407efda97de9d3c550fa1b8" target="_top" xlink:title="LinkedList::appendNode">
<polygon fill="white" stroke="black" points="83,-38.5 83,-57.5 205,-57.5 205,-38.5 83,-38.5"/>
<text text-anchor="middle" x="144" y="-45.5" font-family="Helvetica,sans-Serif" font-size="10.00">LinkedList::appendNode</text>
</a>
</g>
</g>
<!-- Node1&#45;&gt;Node5 -->
<g id="edge4" class="edge"><title>Node1&#45;&gt;Node5</title>
<path fill="none" stroke="midnightblue" d="M38.1491,-64.1965C47.6811,-62.7241 60.0399,-60.815 72.9108,-58.8268"/>
<polygon fill="midnightblue" stroke="midnightblue" points="73.4662,-62.2826 82.8146,-57.2969 72.3975,-55.3646 73.4662,-62.2826"/>
</g>
<!-- Node6 -->
<g id="node6" class="node"><title>Node6</title>
<g id="a_node6"><a xlink:href="listDriver_8cpp.html#a93f8912e6534165aa205d15c1133181e" target="_top" xlink:title="randomInt">
<polygon fill="white" stroke="black" points="114,-0.5 114,-19.5 174,-19.5 174,-0.5 114,-0.5"/>
<text text-anchor="middle" x="144" y="-7.5" font-family="Helvetica,sans-Serif" font-size="10.00">randomInt</text>
</a>
</g>
</g>
<!-- Node1&#45;&gt;Node6 -->
<g id="edge5" class="edge"><title>Node1&#45;&gt;Node6</title>
<path fill="none" stroke="midnightblue" d="M31.283,-57.2979C41.7363,-48.7556 58.0348,-36.5348 74,-29 83.3544,-24.5852 93.9217,-21.0325 103.924,-18.248"/>
<polygon fill="midnightblue" stroke="midnightblue" points="104.873,-21.6178 113.672,-15.7161 103.113,-14.8426 104.873,-21.6178"/>
</g>
<!-- Node2&#45;&gt;Node3 -->
<g id="edge2" class="edge"><title>Node2&#45;&gt;Node3</title>
<path fill="none" stroke="midnightblue" d="M188.151,-95.589C210.919,-100.649 239.048,-106.9 263.119,-112.249"/>
<polygon fill="midnightblue" stroke="midnightblue" points="262.639,-115.727 273.16,-114.48 264.157,-108.894 262.639,-115.727"/>
</g>
<!-- Node4 -->
<g id="node4" class="node"><title>Node4</title>
<g id="a_node4"><a xlink:href="namespaceutilities.html#a0364030fce3431e2ec985b20e571ce9a" target="_top" xlink:title="utilities::printCentered\lTitle">
<polygon fill="white" stroke="black" points="261,-65 261,-95 373,-95 373,-65 261,-65"/>
<text text-anchor="start" x="269" y="-83" font-family="Helvetica,sans-Serif" font-size="10.00">utilities::printCentered</text>
<text text-anchor="middle" x="317" y="-72" font-family="Helvetica,sans-Serif" font-size="10.00">Title</text>
</a>
</g>
</g>
<!-- Node2&#45;&gt;Node4 -->
<g id="edge3" class="edge"><title>Node2&#45;&gt;Node4</title>
<path fill="none" stroke="midnightblue" d="M213.567,-83.5941C225.835,-83.1637 238.587,-82.7162 250.759,-82.2892"/>
<polygon fill="midnightblue" stroke="midnightblue" points="250.951,-85.7847 260.822,-81.9361 250.706,-78.789 250.951,-85.7847"/>
</g>
</g>
</svg>
