<?xml version="1.0" encoding="UTF-8" standalone="no"?>
<!DOCTYPE svg PUBLIC "-//W3C//DTD SVG 1.1//EN"
 "http://www.w3.org/Graphics/SVG/1.1/DTD/svg11.dtd">
<!-- Generated by graphviz version 2.36.0 (20140111.2315)
 -->
<!-- Title: House Pages: 1 -->
<svg width="219pt" height="792pt"
 viewBox="0.00 0.00 219.00 792.00" xmlns="http://www.w3.org/2000/svg" xmlns:xlink="http://www.w3.org/1999/xlink">
<g id="graph0" class="graph" transform="scale(1 1) rotate(0) translate(4 788)">
<title>House</title>
<polygon fill="white" stroke="none" points="-4,4 -4,-788 215,-788 215,4 -4,4"/>
<!-- Node1 -->
<g id="node1" class="node"><title>Node1</title>
<polygon fill="#bfbfbf" stroke="black" points="72.5,-1 72.5,-223 151.5,-223 151.5,-1 72.5,-1"/>
<text text-anchor="middle" x="112" y="-211" font-family="Helvetica,sans-Serif" font-size="10.00">House</text>
<polyline fill="none" stroke="black" points="72.5,-204 151.5,-204 "/>
<text text-anchor="start" x="80.5" y="-192" font-family="Helvetica,sans-Serif" font-size="10.00">&#45; name</text>
<text text-anchor="start" x="80.5" y="-181" font-family="Helvetica,sans-Serif" font-size="10.00">&#45; currentSize</text>
<polyline fill="none" stroke="black" points="72.5,-174 151.5,-174 "/>
<text text-anchor="start" x="80.5" y="-162" font-family="Helvetica,sans-Serif" font-size="10.00">+ House()</text>
<text text-anchor="start" x="80.5" y="-151" font-family="Helvetica,sans-Serif" font-size="10.00">+ House()</text>
<text text-anchor="start" x="80.5" y="-140" font-family="Helvetica,sans-Serif" font-size="10.00">+ House()</text>
<text text-anchor="start" x="80.5" y="-129" font-family="Helvetica,sans-Serif" font-size="10.00">+ ~House()</text>
<text text-anchor="start" x="80.5" y="-118" font-family="Helvetica,sans-Serif" font-size="10.00">+ addRoom()</text>
<text text-anchor="start" x="80.5" y="-107" font-family="Helvetica,sans-Serif" font-size="10.00">+ setName()</text>
<text text-anchor="start" x="80.5" y="-96" font-family="Helvetica,sans-Serif" font-size="10.00">+ getName()</text>
<text text-anchor="start" x="80.5" y="-85" font-family="Helvetica,sans-Serif" font-size="10.00">+ begin()</text>
<text text-anchor="start" x="80.5" y="-74" font-family="Helvetica,sans-Serif" font-size="10.00">+ begin()</text>
<text text-anchor="start" x="80.5" y="-63" font-family="Helvetica,sans-Serif" font-size="10.00">+ end()</text>
<text text-anchor="start" x="80.5" y="-52" font-family="Helvetica,sans-Serif" font-size="10.00">+ end()</text>
<text text-anchor="start" x="80.5" y="-41" font-family="Helvetica,sans-Serif" font-size="10.00">+ size()</text>
<text text-anchor="start" x="80.5" y="-30" font-family="Helvetica,sans-Serif" font-size="10.00">+ display()</text>
<text text-anchor="start" x="80.5" y="-19" font-family="Helvetica,sans-Serif" font-size="10.00">+ operator=()</text>
<text text-anchor="start" x="80.5" y="-8" font-family="Helvetica,sans-Serif" font-size="10.00">+ operator==()</text>
</g>
<!-- Node2 -->
<g id="node2" class="node"><title>Node2</title>
<g id="a_node2"><a xlink:href="structHouse_1_1Node.html" target="_top" xlink:title="{House::Node\n||+ Node()\l}">
<polygon fill="white" stroke="black" points="75,-282.5 75,-339.5 149,-339.5 149,-282.5 75,-282.5"/>
<text text-anchor="middle" x="112" y="-327.5" font-family="Helvetica,sans-Serif" font-size="10.00">House::Node</text>
<polyline fill="none" stroke="black" points="75,-320.5 149,-320.5 "/>
<text text-anchor="middle" x="112" y="-308.5" font-family="Helvetica,sans-Serif" font-size="10.00"> </text>
<polyline fill="none" stroke="black" points="75,-301.5 149,-301.5 "/>
<text text-anchor="start" x="83" y="-289.5" font-family="Helvetica,sans-Serif" font-size="10.00">+ Node()</text>
</a>
</g>
</g>
<!-- Node2&#45;&gt;Node1 -->
<g id="edge1" class="edge"><title>Node2&#45;&gt;Node1</title>
<path fill="none" stroke="#404040" d="M112,-282.193C112,-269.266 112,-252.907 112,-235.482"/>
<polygon fill="none" stroke="#404040" points="112,-235.277 108,-229.277 112,-223.277 116,-229.277 112,-235.277"/>
<text text-anchor="middle" x="126" y="-256" font-family="Helvetica,sans-Serif" font-size="10.00"> &#45;head</text>
<text text-anchor="middle" x="126" y="-245" font-family="Helvetica,sans-Serif" font-size="10.00">&#45;tail</text>
</g>
<!-- Node2&#45;&gt;Node2 -->
<g id="edge2" class="edge"><title>Node2&#45;&gt;Node2</title>
<path fill="none" stroke="#404040" d="M149.015,-320.69C159.21,-320.222 167,-316.992 167,-311 167,-307.723 164.67,-305.272 160.891,-303.647"/>
<polygon fill="none" stroke="#404040" points="160.789,-303.627 154.13,-306.393 149.015,-301.31 155.675,-298.544 160.789,-303.627"/>
<text text-anchor="middle" x="181" y="-308.5" font-family="Helvetica,sans-Serif" font-size="10.00"> +next</text>
</g>
<!-- Node3 -->
<g id="node3" class="node"><title>Node3</title>
<g id="a_node3"><a xlink:href="classRoom.html" target="_top" xlink:title="{Room\n|+ UNITS\l&#45; name\l|+ Room()\l+ Room()\l+ Room()\l+ Room()\l+ getDimensions()\l+ setDimensions()\l+ getFlooring()\l+ setFlooring()\l+ setName()\l+ getName()\l+ area()\l+ flooringCost()\l+ display()\l+ operator==()\l+ operator\&lt;()\l}">
<polygon fill="white" stroke="black" points="63.5,-389 63.5,-611 160.5,-611 160.5,-389 63.5,-389"/>
<text text-anchor="middle" x="112" y="-599" font-family="Helvetica,sans-Serif" font-size="10.00">Room</text>
<polyline fill="none" stroke="black" points="63.5,-592 160.5,-592 "/>
<text text-anchor="start" x="71.5" y="-580" font-family="Helvetica,sans-Serif" font-size="10.00">+ UNITS</text>
<text text-anchor="start" x="71.5" y="-569" font-family="Helvetica,sans-Serif" font-size="10.00">&#45; name</text>
<polyline fill="none" stroke="black" points="63.5,-562 160.5,-562 "/>
<text text-anchor="start" x="71.5" y="-550" font-family="Helvetica,sans-Serif" font-size="10.00">+ Room()</text>
<text text-anchor="start" x="71.5" y="-539" font-family="Helvetica,sans-Serif" font-size="10.00">+ Room()</text>
<text text-anchor="start" x="71.5" y="-528" font-family="Helvetica,sans-Serif" font-size="10.00">+ Room()</text>
<text text-anchor="start" x="71.5" y="-517" font-family="Helvetica,sans-Serif" font-size="10.00">+ Room()</text>
<text text-anchor="start" x="71.5" y="-506" font-family="Helvetica,sans-Serif" font-size="10.00">+ getDimensions()</text>
<text text-anchor="start" x="71.5" y="-495" font-family="Helvetica,sans-Serif" font-size="10.00">+ setDimensions()</text>
<text text-anchor="start" x="71.5" y="-484" font-family="Helvetica,sans-Serif" font-size="10.00">+ getFlooring()</text>
<text text-anchor="start" x="71.5" y="-473" font-family="Helvetica,sans-Serif" font-size="10.00">+ setFlooring()</text>
<text text-anchor="start" x="71.5" y="-462" font-family="Helvetica,sans-Serif" font-size="10.00">+ setName()</text>
<text text-anchor="start" x="71.5" y="-451" font-family="Helvetica,sans-Serif" font-size="10.00">+ getName()</text>
<text text-anchor="start" x="71.5" y="-440" font-family="Helvetica,sans-Serif" font-size="10.00">+ area()</text>
<text text-anchor="start" x="71.5" y="-429" font-family="Helvetica,sans-Serif" font-size="10.00">+ flooringCost()</text>
<text text-anchor="start" x="71.5" y="-418" font-family="Helvetica,sans-Serif" font-size="10.00">+ display()</text>
<text text-anchor="start" x="71.5" y="-407" font-family="Helvetica,sans-Serif" font-size="10.00">+ operator==()</text>
<text text-anchor="start" x="71.5" y="-396" font-family="Helvetica,sans-Serif" font-size="10.00">+ operator&lt;()</text>
</a>
</g>
</g>
<!-- Node3&#45;&gt;Node2 -->
<g id="edge3" class="edge"><title>Node3&#45;&gt;Node2</title>
<path fill="none" stroke="#404040" d="M112,-388.87C112,-375.762 112,-363.105 112,-351.975"/>
<polygon fill="none" stroke="#404040" points="112,-351.673 108,-345.673 112,-339.673 116,-345.673 112,-351.673"/>
<text text-anchor="middle" x="126" y="-361.5" font-family="Helvetica,sans-Serif" font-size="10.00"> +data</text>
</g>
<!-- Node4 -->
<g id="node4" class="node"><title>Node4</title>
<g id="a_node4"><a xlink:href="classRoom_1_1DimensionSet.html" target="_top" xlink:title="{Room::DimensionSet\n|&#45; length\l&#45; width\l|+ DimensionSet()\l+ DimensionSet()\l+ setLength()\l+ getLength()\l+ setWidth()\l+ getWidth()\l}">
<polygon fill="white" stroke="black" points="0,-660.5 0,-783.5 110,-783.5 110,-660.5 0,-660.5"/>
<text text-anchor="middle" x="55" y="-771.5" font-family="Helvetica,sans-Serif" font-size="10.00">Room::DimensionSet</text>
<polyline fill="none" stroke="black" points="0,-764.5 110,-764.5 "/>
<text text-anchor="start" x="8" y="-752.5" font-family="Helvetica,sans-Serif" font-size="10.00">&#45; length</text>
<text text-anchor="start" x="8" y="-741.5" font-family="Helvetica,sans-Serif" font-size="10.00">&#45; width</text>
<polyline fill="none" stroke="black" points="0,-734.5 110,-734.5 "/>
<text text-anchor="start" x="8" y="-722.5" font-family="Helvetica,sans-Serif" font-size="10.00">+ DimensionSet()</text>
<text text-anchor="start" x="8" y="-711.5" font-family="Helvetica,sans-Serif" font-size="10.00">+ DimensionSet()</text>
<text text-anchor="start" x="8" y="-700.5" font-family="Helvetica,sans-Serif" font-size="10.00">+ setLength()</text>
<text text-anchor="start" x="8" y="-689.5" font-family="Helvetica,sans-Serif" font-size="10.00">+ getLength()</text>
<text text-anchor="start" x="8" y="-678.5" font-family="Helvetica,sans-Serif" font-size="10.00">+ setWidth()</text>
<text text-anchor="start" x="8" y="-667.5" font-family="Helvetica,sans-Serif" font-size="10.00">+ getWidth()</text>
</a>
</g>
</g>
<!-- Node4&#45;&gt;Node3 -->
<g id="edge4" class="edge"><title>Node4&#45;&gt;Node3</title>
<path fill="none" stroke="#404040" d="M70.7264,-660.302C73.7539,-648.617 77.0239,-635.996 80.3518,-623.151"/>
<polygon fill="none" stroke="#404040" points="80.4093,-622.929 78.0421,-616.117 83.4191,-611.312 85.7864,-618.124 80.4093,-622.929"/>
<text text-anchor="middle" x="107" y="-633.5" font-family="Helvetica,sans-Serif" font-size="10.00"> &#45;dimensions</text>
</g>
<!-- Node5 -->
<g id="node5" class="node"><title>Node5</title>
<g id="a_node5"><a xlink:href="structRoom_1_1Flooring.html" target="_top" xlink:title="{Room::Flooring\n|+ type\l+ unitCost\l|+ Flooring()\l+ Flooring()\l}">
<polygon fill="white" stroke="black" points="128.5,-682.5 128.5,-761.5 211.5,-761.5 211.5,-682.5 128.5,-682.5"/>
<text text-anchor="middle" x="170" y="-749.5" font-family="Helvetica,sans-Serif" font-size="10.00">Room::Flooring</text>
<polyline fill="none" stroke="black" points="128.5,-742.5 211.5,-742.5 "/>
<text text-anchor="start" x="136.5" y="-730.5" font-family="Helvetica,sans-Serif" font-size="10.00">+ type</text>
<text text-anchor="start" x="136.5" y="-719.5" font-family="Helvetica,sans-Serif" font-size="10.00">+ unitCost</text>
<polyline fill="none" stroke="black" points="128.5,-712.5 211.5,-712.5 "/>
<text text-anchor="start" x="136.5" y="-700.5" font-family="Helvetica,sans-Serif" font-size="10.00">+ Flooring()</text>
<text text-anchor="start" x="136.5" y="-689.5" font-family="Helvetica,sans-Serif" font-size="10.00">+ Flooring()</text>
</a>
</g>
</g>
<!-- Node5&#45;&gt;Node3 -->
<g id="edge5" class="edge"><title>Node5&#45;&gt;Node3</title>
<path fill="none" stroke="#404040" d="M159.831,-682.427C155.369,-665.505 149.861,-644.609 144.187,-623.089"/>
<polygon fill="none" stroke="#404040" points="144.176,-623.048 138.779,-618.266 141.117,-611.444 146.515,-616.226 144.176,-623.048"/>
<text text-anchor="middle" x="167" y="-633.5" font-family="Helvetica,sans-Serif" font-size="10.00"> &#45;flooring</text>
</g>
</g>
</svg>
