<?xml version="1.0" encoding="UTF-8" standalone="no"?>
<!DOCTYPE svg PUBLIC "-//W3C//DTD SVG 1.1//EN"
 "http://www.w3.org/Graphics/SVG/1.1/DTD/svg11.dtd">
<!-- Generated by graphviz version 2.36.0 (20140111.2315)
 -->
<!-- Title: Circle Pages: 1 -->
<svg width="104pt" height="402pt"
 viewBox="0.00 0.00 104.00 402.00" xmlns="http://www.w3.org/2000/svg" xmlns:xlink="http://www.w3.org/1999/xlink">
<g id="graph0" class="graph" transform="scale(1 1) rotate(0) translate(4 398)">
<title>Circle</title>
<polygon fill="white" stroke="none" points="-4,4 -4,-398 100,-398 100,4 -4,4"/>
<!-- Node1 -->
<g id="node1" class="node"><title>Node1</title>
<polygon fill="#bfbfbf" stroke="black" points="12,-0.5 12,-189.5 84,-189.5 84,-0.5 12,-0.5"/>
<text text-anchor="middle" x="48" y="-177.5" font-family="Helvetica,sans-Serif" font-size="10.00">Circle</text>
<polyline fill="none" stroke="black" points="12,-170.5 84,-170.5 "/>
<text text-anchor="start" x="20" y="-158.5" font-family="Helvetica,sans-Serif" font-size="10.00">&#45; _radius</text>
<text text-anchor="start" x="20" y="-147.5" font-family="Helvetica,sans-Serif" font-size="10.00">&#45; PI</text>
<text text-anchor="start" x="20" y="-136.5" font-family="Helvetica,sans-Serif" font-size="10.00">&#45; TAU</text>
<polyline fill="none" stroke="black" points="12,-129.5 84,-129.5 "/>
<text text-anchor="start" x="20" y="-117.5" font-family="Helvetica,sans-Serif" font-size="10.00">+ Circle()</text>
<text text-anchor="start" x="20" y="-106.5" font-family="Helvetica,sans-Serif" font-size="10.00">+ Circle()</text>
<text text-anchor="start" x="20" y="-95.5" font-family="Helvetica,sans-Serif" font-size="10.00">+ Circle()</text>
<text text-anchor="start" x="20" y="-84.5" font-family="Helvetica,sans-Serif" font-size="10.00">+ ~Circle()</text>
<text text-anchor="start" x="20" y="-73.5" font-family="Helvetica,sans-Serif" font-size="10.00">+ radius()</text>
<text text-anchor="start" x="20" y="-62.5" font-family="Helvetica,sans-Serif" font-size="10.00">+ radius()</text>
<text text-anchor="start" x="20" y="-51.5" font-family="Helvetica,sans-Serif" font-size="10.00">+ diameter()</text>
<text text-anchor="start" x="20" y="-40.5" font-family="Helvetica,sans-Serif" font-size="10.00">+ area()</text>
<text text-anchor="start" x="20" y="-29.5" font-family="Helvetica,sans-Serif" font-size="10.00">+ perimeter()</text>
<text text-anchor="start" x="20" y="-18.5" font-family="Helvetica,sans-Serif" font-size="10.00">+ clone()</text>
<text text-anchor="start" x="20" y="-7.5" font-family="Helvetica,sans-Serif" font-size="10.00">+ display()</text>
</g>
<!-- Node2 -->
<g id="node2" class="node"><title>Node2</title>
<g id="a_node2"><a xlink:href="classShape.html" target="_top" xlink:title="{Shape\n|# _name\l# WIDTH_LABEL\l# WIDTH_VALUE\l|+ Shape()\l+ Shape()\l+ ~Shape()\l+ name()\l+ area()\l+ perimeter()\l+ clone()\l+ display()\l# name()\l}">
<polygon fill="white" stroke="black" points="-0.5,-226.5 -0.5,-393.5 96.5,-393.5 96.5,-226.5 -0.5,-226.5"/>
<text text-anchor="middle" x="48" y="-381.5" font-family="Helvetica,sans-Serif" font-size="10.00">Shape</text>
<polyline fill="none" stroke="black" points="-0.5,-374.5 96.5,-374.5 "/>
<text text-anchor="start" x="7.5" y="-362.5" font-family="Helvetica,sans-Serif" font-size="10.00"># _name</text>
<text text-anchor="start" x="7.5" y="-351.5" font-family="Helvetica,sans-Serif" font-size="10.00"># WIDTH_LABEL</text>
<text text-anchor="start" x="7.5" y="-340.5" font-family="Helvetica,sans-Serif" font-size="10.00"># WIDTH_VALUE</text>
<polyline fill="none" stroke="black" points="-0.5,-333.5 96.5,-333.5 "/>
<text text-anchor="start" x="7.5" y="-321.5" font-family="Helvetica,sans-Serif" font-size="10.00">+ Shape()</text>
<text text-anchor="start" x="7.5" y="-310.5" font-family="Helvetica,sans-Serif" font-size="10.00">+ Shape()</text>
<text text-anchor="start" x="7.5" y="-299.5" font-family="Helvetica,sans-Serif" font-size="10.00">+ ~Shape()</text>
<text text-anchor="start" x="7.5" y="-288.5" font-family="Helvetica,sans-Serif" font-size="10.00">+ name()</text>
<text text-anchor="start" x="7.5" y="-277.5" font-family="Helvetica,sans-Serif" font-size="10.00">+ area()</text>
<text text-anchor="start" x="7.5" y="-266.5" font-family="Helvetica,sans-Serif" font-size="10.00">+ perimeter()</text>
<text text-anchor="start" x="7.5" y="-255.5" font-family="Helvetica,sans-Serif" font-size="10.00">+ clone()</text>
<text text-anchor="start" x="7.5" y="-244.5" font-family="Helvetica,sans-Serif" font-size="10.00">+ display()</text>
<text text-anchor="start" x="7.5" y="-233.5" font-family="Helvetica,sans-Serif" font-size="10.00"># name()</text>
</a>
</g>
</g>
<!-- Node2&#45;&gt;Node1 -->
<g id="edge1" class="edge"><title>Node2&#45;&gt;Node1</title>
<path fill="none" stroke="midnightblue" d="M48,-216.094C48,-207.301 48,-198.382 48,-189.583"/>
<polygon fill="none" stroke="midnightblue" points="44.5001,-216.344 48,-226.344 51.5001,-216.344 44.5001,-216.344"/>
</g>
</g>
</svg>
