<?xml version="1.0" encoding="UTF-8" standalone="no"?>
<!DOCTYPE svg PUBLIC "-//W3C//DTD SVG 1.1//EN"
 "http://www.w3.org/Graphics/SVG/1.1/DTD/svg11.dtd">
<!-- Generated by graphviz version 2.36.0 (20140111.2315)
 -->
<!-- Title: Triangle::area Pages: 1 -->
<svg width="218pt" height="142pt"
 viewBox="0.00 0.00 218.00 142.00" xmlns="http://www.w3.org/2000/svg" xmlns:xlink="http://www.w3.org/1999/xlink">
<g id="graph0" class="graph" transform="scale(1 1) rotate(0) translate(4 138)">
<title>Triangle::area</title>
<polygon fill="white" stroke="none" points="-4,4 -4,-138 214,-138 214,4 -4,4"/>
<!-- Node1 -->
<g id="node1" class="node"><title>Node1</title>
<polygon fill="#bfbfbf" stroke="black" points="0,-57.5 0,-76.5 76,-76.5 76,-57.5 0,-57.5"/>
<text text-anchor="middle" x="38" y="-64.5" font-family="Helvetica,sans-Serif" font-size="10.00">Triangle::area</text>
</g>
<!-- Node2 -->
<g id="node2" class="node"><title>Node2</title>
<g id="a_node2"><a xlink:href="classTriangle.html#a864f7a8224290b17d06e462712a83732" target="_top" xlink:title="Triangle::perimeter">
<polygon fill="white" stroke="black" points="112,-114.5 112,-133.5 210,-133.5 210,-114.5 112,-114.5"/>
<text text-anchor="middle" x="161" y="-121.5" font-family="Helvetica,sans-Serif" font-size="10.00">Triangle::perimeter</text>
</a>
</g>
</g>
<!-- Node1&#45;&gt;Node2 -->
<g id="edge1" class="edge"><title>Node1&#45;&gt;Node2</title>
<path fill="none" stroke="midnightblue" d="M56.1555,-76.5702C70.7933,-84.5804 92.5052,-96.0963 112,-105 116.148,-106.894 120.542,-108.786 124.922,-110.601"/>
<polygon fill="midnightblue" stroke="midnightblue" points="123.802,-113.924 134.385,-114.425 126.425,-107.434 123.802,-113.924"/>
</g>
<!-- Node3 -->
<g id="node3" class="node"><title>Node3</title>
<g id="a_node3"><a xlink:href="classTriangle.html#abbcfdb4dc6d1a68b8ea513c95617e1bf" target="_top" xlink:title="Triangle::sideA">
<polygon fill="white" stroke="black" points="120,-76.5 120,-95.5 202,-95.5 202,-76.5 120,-76.5"/>
<text text-anchor="middle" x="161" y="-83.5" font-family="Helvetica,sans-Serif" font-size="10.00">Triangle::sideA</text>
</a>
</g>
</g>
<!-- Node1&#45;&gt;Node3 -->
<g id="edge2" class="edge"><title>Node1&#45;&gt;Node3</title>
<path fill="none" stroke="midnightblue" d="M76.2913,-72.8557C86.8178,-74.5086 98.4492,-76.335 109.608,-78.0873"/>
<polygon fill="midnightblue" stroke="midnightblue" points="109.257,-81.5748 119.679,-79.6685 110.343,-74.6596 109.257,-81.5748"/>
</g>
<!-- Node4 -->
<g id="node4" class="node"><title>Node4</title>
<g id="a_node4"><a xlink:href="classTriangle.html#a7dcb91647c0245980970998bcaaf34cf" target="_top" xlink:title="Triangle::sideB">
<polygon fill="white" stroke="black" points="120,-38.5 120,-57.5 202,-57.5 202,-38.5 120,-38.5"/>
<text text-anchor="middle" x="161" y="-45.5" font-family="Helvetica,sans-Serif" font-size="10.00">Triangle::sideB</text>
</a>
</g>
</g>
<!-- Node1&#45;&gt;Node4 -->
<g id="edge3" class="edge"><title>Node1&#45;&gt;Node4</title>
<path fill="none" stroke="midnightblue" d="M76.2913,-61.1443C86.8178,-59.4914 98.4492,-57.665 109.608,-55.9127"/>
<polygon fill="midnightblue" stroke="midnightblue" points="110.343,-59.3404 119.679,-54.3315 109.257,-52.4252 110.343,-59.3404"/>
</g>
<!-- Node5 -->
<g id="node5" class="node"><title>Node5</title>
<g id="a_node5"><a xlink:href="classTriangle.html#a49ea69d999bd5dc233ced7df5bd887a6" target="_top" xlink:title="Triangle::sideC">
<polygon fill="white" stroke="black" points="119.5,-0.5 119.5,-19.5 202.5,-19.5 202.5,-0.5 119.5,-0.5"/>
<text text-anchor="middle" x="161" y="-7.5" font-family="Helvetica,sans-Serif" font-size="10.00">Triangle::sideC</text>
</a>
</g>
</g>
<!-- Node1&#45;&gt;Node5 -->
<g id="edge4" class="edge"><title>Node1&#45;&gt;Node5</title>
<path fill="none" stroke="midnightblue" d="M56.1555,-57.4298C70.7933,-49.4196 92.5052,-37.9037 112,-29 116.148,-27.1057 120.542,-25.214 124.922,-23.3985"/>
<polygon fill="midnightblue" stroke="midnightblue" points="126.425,-26.5664 134.385,-19.5749 123.802,-20.0762 126.425,-26.5664"/>
</g>
</g>
</svg>
