<?xml version="1.0" encoding="UTF-8" standalone="no"?>
<!DOCTYPE svg PUBLIC "-//W3C//DTD SVG 1.1//EN"
 "http://www.w3.org/Graphics/SVG/1.1/DTD/svg11.dtd">
<!-- Generated by graphviz version 2.36.0 (20140111.2315)
 -->
<!-- Title: readShapes Pages: 1 -->
<svg width="360pt" height="66pt"
 viewBox="0.00 0.00 360.00 66.00" xmlns="http://www.w3.org/2000/svg" xmlns:xlink="http://www.w3.org/1999/xlink">
<g id="graph0" class="graph" transform="scale(1 1) rotate(0) translate(4 62)">
<title>readShapes</title>
<polygon fill="white" stroke="none" points="-4,4 -4,-62 356,-62 356,4 -4,4"/>
<!-- Node1 -->
<g id="node1" class="node"><title>Node1</title>
<polygon fill="#bfbfbf" stroke="black" points="0,-19.5 0,-38.5 68,-38.5 68,-19.5 0,-19.5"/>
<text text-anchor="middle" x="34" y="-26.5" font-family="Helvetica,sans-Serif" font-size="10.00">readShapes</text>
</g>
<!-- Node2 -->
<g id="node2" class="node"><title>Node2</title>
<g id="a_node2"><a xlink:href="classShapeFactory.html#afa1a55b6b6f30a734ab70a5d83e72d95" target="_top" xlink:title="ShapeFactory::createShape">
<polygon fill="white" stroke="black" points="104,-38.5 104,-57.5 242,-57.5 242,-38.5 104,-38.5"/>
<text text-anchor="middle" x="173" y="-45.5" font-family="Helvetica,sans-Serif" font-size="10.00">ShapeFactory::createShape</text>
</a>
</g>
</g>
<!-- Node1&#45;&gt;Node2 -->
<g id="edge1" class="edge"><title>Node1&#45;&gt;Node2</title>
<path fill="none" stroke="midnightblue" d="M68.1639,-33.5994C76.0464,-34.6926 84.7886,-35.905 93.7584,-37.149"/>
<polygon fill="midnightblue" stroke="midnightblue" points="93.5624,-40.6552 103.948,-38.5622 94.524,-33.7216 93.5624,-40.6552"/>
</g>
<!-- Node4 -->
<g id="node4" class="node"><title>Node4</title>
<g id="a_node4"><a xlink:href="classShapeCollection.html#a9cc32d77abe0e9016fd0d6fed7668bb1" target="_top" xlink:title="ShapeCollection::addShape">
<polygon fill="white" stroke="black" points="104.5,-0.5 104.5,-19.5 241.5,-19.5 241.5,-0.5 104.5,-0.5"/>
<text text-anchor="middle" x="173" y="-7.5" font-family="Helvetica,sans-Serif" font-size="10.00">ShapeCollection::addShape</text>
</a>
</g>
</g>
<!-- Node1&#45;&gt;Node4 -->
<g id="edge3" class="edge"><title>Node1&#45;&gt;Node4</title>
<path fill="none" stroke="midnightblue" d="M68.1639,-24.4006C76.2475,-23.2795 85.2352,-22.0331 94.4452,-20.7558"/>
<polygon fill="midnightblue" stroke="midnightblue" points="95.0696,-24.2028 104.494,-19.3621 94.108,-17.2691 95.0696,-24.2028"/>
</g>
<!-- Node3 -->
<g id="node3" class="node"><title>Node3</title>
<g id="a_node3"><a xlink:href="classShape.html#a9925268873803b18244ccb79599425fd" target="_top" xlink:title="Shape::clone">
<polygon fill="white" stroke="black" points="278,-38.5 278,-57.5 352,-57.5 352,-38.5 278,-38.5"/>
<text text-anchor="middle" x="315" y="-45.5" font-family="Helvetica,sans-Serif" font-size="10.00">Shape::clone</text>
</a>
</g>
</g>
<!-- Node2&#45;&gt;Node3 -->
<g id="edge2" class="edge"><title>Node2&#45;&gt;Node3</title>
<path fill="none" stroke="midnightblue" d="M242.36,-48C250.949,-48 259.572,-48 267.709,-48"/>
<polygon fill="midnightblue" stroke="midnightblue" points="267.719,-51.5001 277.719,-48 267.719,-44.5001 267.719,-51.5001"/>
</g>
</g>
</svg>
