<?xml version="1.0" encoding="UTF-8" standalone="no"?>
<!DOCTYPE svg PUBLIC "-//W3C//DTD SVG 1.1//EN"
 "http://www.w3.org/Graphics/SVG/1.1/DTD/svg11.dtd">
<!-- Generated by graphviz version 2.36.0 (20140111.2315)
 -->
<!-- Title: main Pages: 1 -->
<!--zoomable 228 -->
<svg id="main" version="1.1" xmlns="http://www.w3.org/2000/svg" xmlns:xlink="http://www.w3.org/1999/xlink" xml:space="preserve" onload="init(evt)">
<style type="text/css"><![CDATA[
.edge:hover path { stroke: red; }
.edge:hover polygon { stroke: red; fill: red; }
]]></style>
<script type="text/javascript"><![CDATA[
var edges = document.getElementsByTagName('g');
if (edges && edges.length) {
  for (var i=0;i<edges.length;i++) {
    if (edges[i].id.substr(0,4)=='edge') {
      edges[i].setAttribute('class','edge');
    }
  }
}
]]></script>
        <defs>
                <circle id="rim" cx="0" cy="0" r="7"/>
                <circle id="rim2" cx="0" cy="0" r="3.5"/>
                <g id="zoomPlus">
                        <use xlink:href="#rim" fill="#404040">
                                <set attributeName="fill" to="#808080" begin="zoomplus.mouseover" end="zoomplus.mouseout"/>
                        </use>
                        <path d="M-4,0h8M0,-4v8" fill="none" stroke="white" stroke-width="1.5" pointer-events="none"/>
                </g>
                <g id="zoomMin">
                        <use xlink:href="#rim" fill="#404040">
                                <set attributeName="fill" to="#808080" begin="zoomminus.mouseover" end="zoomminus.mouseout"/>
                        </use>
                        <path d="M-4,0h8" fill="none" stroke="white" stroke-width="1.5" pointer-events="none"/>
                </g>
                <g id="dirArrow">
                        <path fill="none" stroke="white" stroke-width="1.5" d="M0,-3.0v7 M-2.5,-0.5L0,-3.0L2.5,-0.5"/>
                </g>
               <g id="resetDef">
                       <use xlink:href="#rim2" fill="#404040">
                               <set attributeName="fill" to="#808080" begin="reset.mouseover" end="reset.mouseout"/>
                       </use>
               </g>
        </defs>

<script type="text/javascript">
var viewWidth = 512;
var viewHeight = 228;
var sectionId = 'dynsection-1';
</script>
<script xlink:href="svgpan.js"/>
<svg id="graph" class="graph">
<g id="viewport">
<title>main</title>
<polygon fill="white" stroke="none" points="-4,4 -4,-223.903 508,-223.903 508,4 -4,4"/>
<!-- Node1 -->
<g id="node1" class="node"><title>Node1</title>
<polygon fill="#bfbfbf" stroke="black" points="0,-114.5 0,-133.5 38,-133.5 38,-114.5 0,-114.5"/>
<text text-anchor="middle" x="19" y="-121.5" font-family="Helvetica,sans-Serif" font-size="10.00">main</text>
</g>
<!-- Node2 -->
<g id="node2" class="node"><title>Node2</title>
<g id="a_node2"><a xlink:href="namespaceutilities.html#a5a4a24938bfeb46f18a7d7ecf96e7b6b" target="_top" xlink:title="utilities::printProjectHeading">
<polygon fill="white" stroke="black" points="77.5,-171.5 77.5,-190.5 216.5,-190.5 216.5,-171.5 77.5,-171.5"/>
<text text-anchor="middle" x="147" y="-178.5" font-family="Helvetica,sans-Serif" font-size="10.00">utilities::printProjectHeading</text>
</a>
</g>
</g>
<!-- Node1&#45;&gt;Node2 -->
<g id="edge1" class="edge"><title>Node1&#45;&gt;Node2</title>
<path fill="none" stroke="midnightblue" d="M31.2639,-133.743C41.7044,-142.313 57.9947,-154.551 74,-162 79.0545,-164.353 84.4493,-166.452 89.9263,-168.316"/>
<polygon fill="midnightblue" stroke="midnightblue" points="89.2285,-171.765 99.8178,-171.422 91.3258,-165.087 89.2285,-171.765"/>
</g>
<!-- Node3 -->
<g id="node3" class="node"><title>Node3</title>
<g id="a_node3"><a xlink:href="namespaceutilities.html#a2ca4bf55e15b157fc1255112ecf60b4b" target="_top" xlink:title="utilities::printHorizontalLine">
<polygon fill="white" stroke="black" points="258,-177.5 258,-196.5 392,-196.5 392,-177.5 258,-177.5"/>
<text text-anchor="middle" x="325" y="-184.5" font-family="Helvetica,sans-Serif" font-size="10.00">utilities::printHorizontalLine</text>
</a>
</g>
</g>
<!-- Node1&#45;&gt;Node3 -->
<g id="edge8" class="edge"><title>Node1&#45;&gt;Node3</title>
<path fill="none" stroke="midnightblue" d="M23.4679,-133.737C30.1639,-150.862 46.6728,-185.894 74,-200 142.972,-235.603 237.383,-215.204 288.17,-199.612"/>
<polygon fill="midnightblue" stroke="midnightblue" points="289.255,-202.94 297.725,-196.576 287.135,-196.269 289.255,-202.94"/>
</g>
<!-- Node5 -->
<g id="node5" class="node"><title>Node5</title>
<g id="a_node5"><a xlink:href="namespaceutilities.html#a00ebb5fe3065cdb7f3a0cd6cc1c716e0" target="_top" xlink:title="utilities::printHeading">
<polygon fill="white" stroke="black" points="93,-133.5 93,-152.5 201,-152.5 201,-133.5 93,-133.5"/>
<text text-anchor="middle" x="147" y="-140.5" font-family="Helvetica,sans-Serif" font-size="10.00">utilities::printHeading</text>
</a>
</g>
</g>
<!-- Node1&#45;&gt;Node5 -->
<g id="edge4" class="edge"><title>Node1&#45;&gt;Node5</title>
<path fill="none" stroke="midnightblue" d="M38.0527,-126.722C49.9429,-128.515 66.2901,-130.98 82.6672,-133.45"/>
<polygon fill="midnightblue" stroke="midnightblue" points="82.4185,-136.952 92.8286,-134.982 83.4623,-130.03 82.4185,-136.952"/>
</g>
<!-- Node6 -->
<g id="node6" class="node"><title>Node6</title>
<g id="a_node6"><a xlink:href="classShapeFactory.html#a8618cdfc6a7320bee3bf96e95e92eaff" target="_top" xlink:title="ShapeFactory::listKnown">
<polygon fill="white" stroke="black" points="84,-95.5 84,-114.5 210,-114.5 210,-95.5 84,-95.5"/>
<text text-anchor="middle" x="147" y="-102.5" font-family="Helvetica,sans-Serif" font-size="10.00">ShapeFactory::listKnown</text>
</a>
</g>
</g>
<!-- Node1&#45;&gt;Node6 -->
<g id="edge7" class="edge"><title>Node1&#45;&gt;Node6</title>
<path fill="none" stroke="midnightblue" d="M38.0527,-121.278C47.759,-119.814 60.4354,-117.903 73.6736,-115.906"/>
<polygon fill="midnightblue" stroke="midnightblue" points="74.5003,-119.321 83.8666,-114.369 73.4565,-112.4 74.5003,-119.321"/>
</g>
<!-- Node7 -->
<g id="node7" class="node"><title>Node7</title>
<g id="a_node7"><a xlink:href="classShapeFactory.html#a914d40208527df461c103f4045b62e42" target="_top" xlink:title="ShapeFactory::numberKnown">
<polygon fill="white" stroke="black" points="74,-57.5 74,-76.5 220,-76.5 220,-57.5 74,-57.5"/>
<text text-anchor="middle" x="147" y="-64.5" font-family="Helvetica,sans-Serif" font-size="10.00">ShapeFactory::numberKnown</text>
</a>
</g>
</g>
<!-- Node1&#45;&gt;Node7 -->
<g id="edge9" class="edge"><title>Node1&#45;&gt;Node7</title>
<path fill="none" stroke="midnightblue" d="M31.2639,-114.257C41.7044,-105.687 57.9947,-93.4493 74,-86 79.0545,-83.6475 84.4493,-81.5484 89.9263,-79.6841"/>
<polygon fill="midnightblue" stroke="midnightblue" points="91.3258,-82.9132 99.8178,-76.5779 89.2285,-76.2348 91.3258,-82.9132"/>
</g>
<!-- Node8 -->
<g id="node8" class="node"><title>Node8</title>
<g id="a_node8"><a xlink:href="runShapes_8cpp.html#a0223e658d108bc16bce442b4c24ad7e5" target="_top" xlink:title="readShapes">
<polygon fill="white" stroke="black" points="113,-19.5 113,-38.5 181,-38.5 181,-19.5 113,-19.5"/>
<text text-anchor="middle" x="147" y="-26.5" font-family="Helvetica,sans-Serif" font-size="10.00">readShapes</text>
</a>
</g>
</g>
<!-- Node1&#45;&gt;Node8 -->
<g id="edge10" class="edge"><title>Node1&#45;&gt;Node8</title>
<path fill="none" stroke="midnightblue" d="M24.1103,-114.428C31.5859,-98.1887 48.9807,-65.3203 74,-48 82.5301,-42.0948 92.7875,-38.0248 102.851,-35.2197"/>
<polygon fill="midnightblue" stroke="midnightblue" points="103.884,-38.5709 112.779,-32.8152 102.236,-31.7676 103.884,-38.5709"/>
</g>
<!-- Node2&#45;&gt;Node3 -->
<g id="edge2" class="edge"><title>Node2&#45;&gt;Node3</title>
<path fill="none" stroke="midnightblue" d="M216.55,-183.337C226.757,-183.685 237.331,-184.045 247.686,-184.398"/>
<polygon fill="midnightblue" stroke="midnightblue" points="247.832,-187.905 257.946,-184.748 248.071,-180.909 247.832,-187.905"/>
</g>
<!-- Node4 -->
<g id="node4" class="node"><title>Node4</title>
<g id="a_node4"><a xlink:href="namespaceutilities.html#a0364030fce3431e2ec985b20e571ce9a" target="_top" xlink:title="utilities::printCentered\lTitle">
<polygon fill="white" stroke="black" points="269,-128 269,-158 381,-158 381,-128 269,-128"/>
<text text-anchor="start" x="277" y="-146" font-family="Helvetica,sans-Serif" font-size="10.00">utilities::printCentered</text>
<text text-anchor="middle" x="325" y="-135" font-family="Helvetica,sans-Serif" font-size="10.00">Title</text>
</a>
</g>
</g>
<!-- Node2&#45;&gt;Node4 -->
<g id="edge3" class="edge"><title>Node2&#45;&gt;Node4</title>
<path fill="none" stroke="midnightblue" d="M192.412,-171.411C212.547,-167.064 236.754,-161.837 258.885,-157.059"/>
<polygon fill="midnightblue" stroke="midnightblue" points="259.85,-160.431 268.886,-154.9 258.372,-153.589 259.85,-160.431"/>
</g>
<!-- Node5&#45;&gt;Node3 -->
<g id="edge5" class="edge"><title>Node5&#45;&gt;Node3</title>
<path fill="none" stroke="midnightblue" d="M186.189,-152.547C212.482,-159.12 247.619,-167.905 275.833,-174.958"/>
<polygon fill="midnightblue" stroke="midnightblue" points="275.335,-178.441 285.885,-177.471 277.033,-171.65 275.335,-178.441"/>
</g>
<!-- Node5&#45;&gt;Node4 -->
<g id="edge6" class="edge"><title>Node5&#45;&gt;Node4</title>
<path fill="none" stroke="midnightblue" d="M201.283,-143C219.379,-143 239.807,-143 258.73,-143"/>
<polygon fill="midnightblue" stroke="midnightblue" points="258.764,-146.5 268.764,-143 258.764,-139.5 258.764,-146.5"/>
</g>
<!-- Node9 -->
<g id="node9" class="node"><title>Node9</title>
<g id="a_node9"><a xlink:href="classShapeFactory.html#afa1a55b6b6f30a734ab70a5d83e72d95" target="_top" xlink:title="ShapeFactory::createShape">
<polygon fill="white" stroke="black" points="256,-38.5 256,-57.5 394,-57.5 394,-38.5 256,-38.5"/>
<text text-anchor="middle" x="325" y="-45.5" font-family="Helvetica,sans-Serif" font-size="10.00">ShapeFactory::createShape</text>
</a>
</g>
</g>
<!-- Node8&#45;&gt;Node9 -->
<g id="edge11" class="edge"><title>Node8&#45;&gt;Node9</title>
<path fill="none" stroke="midnightblue" d="M181.104,-32.5738C199.406,-34.5496 222.983,-37.0948 245.689,-39.546"/>
<polygon fill="midnightblue" stroke="midnightblue" points="245.374,-43.0322 255.692,-40.6258 246.126,-36.0727 245.374,-43.0322"/>
</g>
<!-- Node11 -->
<g id="node11" class="node"><title>Node11</title>
<g id="a_node11"><a xlink:href="classShapeCollection.html#a9cc32d77abe0e9016fd0d6fed7668bb1" target="_top" xlink:title="ShapeCollection::addShape">
<polygon fill="white" stroke="black" points="256.5,-0.5 256.5,-19.5 393.5,-19.5 393.5,-0.5 256.5,-0.5"/>
<text text-anchor="middle" x="325" y="-7.5" font-family="Helvetica,sans-Serif" font-size="10.00">ShapeCollection::addShape</text>
</a>
</g>
</g>
<!-- Node8&#45;&gt;Node11 -->
<g id="edge13" class="edge"><title>Node8&#45;&gt;Node11</title>
<path fill="none" stroke="midnightblue" d="M181.104,-25.4262C199.58,-23.4317 223.431,-20.8569 246.334,-18.3843"/>
<polygon fill="midnightblue" stroke="midnightblue" points="246.853,-21.8488 256.42,-17.2956 246.102,-14.8892 246.853,-21.8488"/>
</g>
<!-- Node10 -->
<g id="node10" class="node"><title>Node10</title>
<g id="a_node10"><a xlink:href="classShape.html#a9925268873803b18244ccb79599425fd" target="_top" xlink:title="Shape::clone">
<polygon fill="white" stroke="black" points="430,-38.5 430,-57.5 504,-57.5 504,-38.5 430,-38.5"/>
<text text-anchor="middle" x="467" y="-45.5" font-family="Helvetica,sans-Serif" font-size="10.00">Shape::clone</text>
</a>
</g>
</g>
<!-- Node9&#45;&gt;Node10 -->
<g id="edge12" class="edge"><title>Node9&#45;&gt;Node10</title>
<path fill="none" stroke="midnightblue" d="M394.36,-48C402.949,-48 411.572,-48 419.709,-48"/>
<polygon fill="midnightblue" stroke="midnightblue" points="419.719,-51.5001 429.719,-48 419.719,-44.5001 419.719,-51.5001"/>
</g>
</g>
</svg>
        <g id="navigator" transform="translate(0 0)" fill="#404254">
                <rect fill="#f2f5e9" fill-opacity="0.5" stroke="#606060" stroke-width=".5" x="0" y="0" width="60" height="60"/>
                <use id="zoomplus" xlink:href="#zoomPlus" x="17" y="9" onmousedown="handleZoom(evt,'in')"/>
                <use id="zoomminus" xlink:href="#zoomMin" x="42" y="9" onmousedown="handleZoom(evt,'out')"/>
                <use id="reset" xlink:href="#resetDef" x="30" y="36" onmousedown="handleReset()"/>
                <g id="arrowUp" xlink:href="#dirArrow" transform="translate(30 24)" onmousedown="handlePan(0,-1)">
                  <use xlink:href="#rim" fill="#404040">
                        <set attributeName="fill" to="#808080" begin="arrowUp.mouseover" end="arrowUp.mouseout"/>
                  </use>
                  <path fill="none" stroke="white" stroke-width="1.5" d="M0,-3.0v7 M-2.5,-0.5L0,-3.0L2.5,-0.5"/>
                </g>
                <g id="arrowRight" xlink:href="#dirArrow" transform="rotate(90) translate(36 -43)" onmousedown="handlePan(1,0)">
                  <use xlink:href="#rim" fill="#404040">
                        <set attributeName="fill" to="#808080" begin="arrowRight.mouseover" end="arrowRight.mouseout"/>
                  </use>
                  <path fill="none" stroke="white" stroke-width="1.5" d="M0,-3.0v7 M-2.5,-0.5L0,-3.0L2.5,-0.5"/>
                </g>
                <g id="arrowDown" xlink:href="#dirArrow" transform="rotate(180) translate(-30 -48)" onmousedown="handlePan(0,1)">
                  <use xlink:href="#rim" fill="#404040">
                        <set attributeName="fill" to="#808080" begin="arrowDown.mouseover" end="arrowDown.mouseout"/>
                  </use>
                  <path fill="none" stroke="white" stroke-width="1.5" d="M0,-3.0v7 M-2.5,-0.5L0,-3.0L2.5,-0.5"/>
                </g>
                <g id="arrowLeft" xlink:href="#dirArrow" transform="rotate(270) translate(-36 17)" onmousedown="handlePan(-1,0)">
                  <use xlink:href="#rim" fill="#404040">
                        <set attributeName="fill" to="#808080" begin="arrowLeft.mouseover" end="arrowLeft.mouseout"/>
                  </use>
                  <path fill="none" stroke="white" stroke-width="1.5" d="M0,-3.0v7 M-2.5,-0.5L0,-3.0L2.5,-0.5"/>
                </g>
        </g>
        <svg viewBox="0 0 15 15" width="100%" height="30px" preserveAspectRatio="xMaxYMin meet">
         <g id="arrow_out" transform="scale(0.3 0.3)">
          <a xlink:href="runShapes_8cpp_a3c04138a5bfe5d72780bb7e82a18e627_cgraph_org.svg" target="_base">
           <rect id="button" ry="5" rx="5" y="6" x="6" height="38" width="38"
                fill="#f2f5e9" fill-opacity="0.5" stroke="#606060" stroke-width="1.0"/>
           <path id="arrow"
             d="M 11.500037,31.436501 C 11.940474,20.09759 22.043105,11.32322 32.158766,21.979434 L 37.068811,17.246167 C 37.068811,17.246167 37.088388,32 37.088388,32 L 22.160133,31.978069 C 22.160133,31.978069 26.997745,27.140456 26.997745,27.140456 C 18.528582,18.264221 13.291696,25.230495 11.500037,31.436501 z"
             style="fill:#404040;"/>
          </a>
         </g>
        </svg>
</svg>
