<?xml version="1.0" encoding="UTF-8" standalone="no"?>
<!DOCTYPE svg PUBLIC "-//W3C//DTD SVG 1.1//EN"
 "http://www.w3.org/Graphics/SVG/1.1/DTD/svg11.dtd">
<!-- Generated by graphviz version 2.36.0 (20140111.2315)
 -->
<!-- Title: LinkedList Pages: 1 -->
<svg width="98pt" height="106pt"
 viewBox="0.00 0.00 98.00 106.00" xmlns="http://www.w3.org/2000/svg" xmlns:xlink="http://www.w3.org/1999/xlink">
<g id="graph0" class="graph" transform="scale(1 1) rotate(0) translate(4 102)">
<title>LinkedList</title>
<polygon fill="white" stroke="none" points="-4,4 -4,-102 94,-102 94,4 -4,4"/>
<!-- Node1 -->
<g id="node1" class="node"><title>Node1</title>
<polygon fill="#bfbfbf" stroke="black" points="-0.5,-0.5 -0.5,-19.5 60.5,-19.5 60.5,-0.5 -0.5,-0.5"/>
<text text-anchor="middle" x="30" y="-7.5" font-family="Helvetica,sans-Serif" font-size="10.00">LinkedList</text>
</g>
<!-- Node2 -->
<g id="node2" class="node"><title>Node2</title>
<g id="a_node2"><a xlink:href="structNode.html" target="_top" xlink:title="Node">
<polygon fill="white" stroke="black" points="10,-78.5 10,-97.5 50,-97.5 50,-78.5 10,-78.5"/>
<text text-anchor="middle" x="30" y="-85.5" font-family="Helvetica,sans-Serif" font-size="10.00">Node</text>
</a>
</g>
</g>
<!-- Node2&#45;&gt;Node1 -->
<g id="edge1" class="edge"><title>Node2&#45;&gt;Node1</title>
<path fill="none" stroke="#9a32cd" stroke-dasharray="5,2" d="M30,-68.2239C30,-52.6974 30,-31.3582 30,-19.6165"/>
<polygon fill="#9a32cd" stroke="#9a32cd" points="26.5001,-68.2818 30,-78.2818 33.5001,-68.2819 26.5001,-68.2818"/>
<text text-anchor="middle" x="42.5" y="-52" font-family="Helvetica,sans-Serif" font-size="10.00"> head</text>
<text text-anchor="middle" x="42.5" y="-41" font-family="Helvetica,sans-Serif" font-size="10.00">tail</text>
</g>
<!-- Node2&#45;&gt;Node2 -->
<g id="edge2" class="edge"><title>Node2&#45;&gt;Node2</title>
<path fill="none" stroke="#9a32cd" stroke-dasharray="5,2" d="M60.4158,-94.4625C64.9402,-93.4557 68,-91.3016 68,-88 68,-82.582 59.7602,-80.254 50.3294,-81.0159"/>
<polygon fill="#9a32cd" stroke="#9a32cd" points="60.1353,-90.9722 50.3294,-94.9841 60.4969,-97.9629 60.1353,-90.9722"/>
<text text-anchor="middle" x="79" y="-85.5" font-family="Helvetica,sans-Serif" font-size="10.00"> next</text>
</g>
</g>
</svg>
