<?xml version="1.0" encoding="UTF-8" standalone="no"?>
<!DOCTYPE svg PUBLIC "-//W3C//DTD SVG 1.1//EN"
 "http://www.w3.org/Graphics/SVG/1.1/DTD/svg11.dtd">
<!-- Generated by graphviz version 2.36.0 (20140111.2315)
 -->
<!-- Title: linkedList.cpp Pages: 1 -->
<svg width="146pt" height="196pt"
 viewBox="0.00 0.00 146.00 196.00" xmlns="http://www.w3.org/2000/svg" xmlns:xlink="http://www.w3.org/1999/xlink">
<g id="graph0" class="graph" transform="scale(1 1) rotate(0) translate(4 192)">
<title>linkedList.cpp</title>
<polygon fill="white" stroke="none" points="-4,4 -4,-192 142,-192 142,4 -4,4"/>
<!-- Node1 -->
<g id="node1" class="node"><title>Node1</title>
<polygon fill="#bfbfbf" stroke="black" points="31.5,-168.5 31.5,-187.5 108.5,-187.5 108.5,-168.5 31.5,-168.5"/>
<text text-anchor="middle" x="70" y="-175.5" font-family="Helvetica,sans-Serif" font-size="10.00">linkedList.cpp</text>
</g>
<!-- Node2 -->
<g id="node2" class="node"><title>Node2</title>
<g id="a_node2"><a xlink:href="linkedList_8h.html" target="_top" xlink:title="linkedList.h">
<polygon fill="white" stroke="black" points="37,-112.5 37,-131.5 103,-131.5 103,-112.5 37,-112.5"/>
<text text-anchor="middle" x="70" y="-119.5" font-family="Helvetica,sans-Serif" font-size="10.00">linkedList.h</text>
</a>
</g>
</g>
<!-- Node1&#45;&gt;Node2 -->
<g id="edge1" class="edge"><title>Node1&#45;&gt;Node2</title>
<path fill="none" stroke="midnightblue" d="M70,-168.083C70,-161.006 70,-150.861 70,-141.986"/>
<polygon fill="midnightblue" stroke="midnightblue" points="73.5001,-141.751 70,-131.751 66.5001,-141.751 73.5001,-141.751"/>
</g>
<!-- Node3 -->
<g id="node3" class="node"><title>Node3</title>
<polygon fill="white" stroke="#bfbfbf" points="0,-0.5 0,-19.5 54,-19.5 54,-0.5 0,-0.5"/>
<text text-anchor="middle" x="27" y="-7.5" font-family="Helvetica,sans-Serif" font-size="10.00">iostream</text>
</g>
<!-- Node2&#45;&gt;Node3 -->
<g id="edge2" class="edge"><title>Node2&#45;&gt;Node3</title>
<path fill="none" stroke="midnightblue" d="M62.0715,-112.417C54.6293,-103.854 43.799,-89.9924 38,-76 31.8995,-61.2802 29.181,-43.347 27.9703,-30.0488"/>
<polygon fill="midnightblue" stroke="midnightblue" points="31.4393,-29.483 27.2473,-19.7528 24.4565,-29.9734 31.4393,-29.483"/>
</g>
<!-- Node4 -->
<g id="node4" class="node"><title>Node4</title>
<polygon fill="white" stroke="#bfbfbf" points="88,-0.5 88,-19.5 138,-19.5 138,-0.5 88,-0.5"/>
<text text-anchor="middle" x="113" y="-7.5" font-family="Helvetica,sans-Serif" font-size="10.00">iomanip</text>
</g>
<!-- Node2&#45;&gt;Node4 -->
<g id="edge3" class="edge"><title>Node2&#45;&gt;Node4</title>
<path fill="none" stroke="midnightblue" d="M77.9285,-112.417C85.3707,-103.854 96.201,-89.9924 102,-76 108.1,-61.2802 110.819,-43.347 112.03,-30.0488"/>
<polygon fill="midnightblue" stroke="midnightblue" points="115.544,-29.9734 112.753,-19.7528 108.561,-29.483 115.544,-29.9734"/>
</g>
<!-- Node5 -->
<g id="node5" class="node"><title>Node5</title>
<g id="a_node5"><a xlink:href="node_8h.html" target="_top" xlink:title="node.h">
<polygon fill="white" stroke="black" points="47,-56.5 47,-75.5 93,-75.5 93,-56.5 47,-56.5"/>
<text text-anchor="middle" x="70" y="-63.5" font-family="Helvetica,sans-Serif" font-size="10.00">node.h</text>
</a>
</g>
</g>
<!-- Node2&#45;&gt;Node5 -->
<g id="edge4" class="edge"><title>Node2&#45;&gt;Node5</title>
<path fill="none" stroke="midnightblue" d="M70,-112.083C70,-105.006 70,-94.8611 70,-85.9865"/>
<polygon fill="midnightblue" stroke="midnightblue" points="73.5001,-85.751 70,-75.7511 66.5001,-85.7511 73.5001,-85.751"/>
</g>
<!-- Node5&#45;&gt;Node3 -->
<g id="edge5" class="edge"><title>Node5&#45;&gt;Node3</title>
<path fill="none" stroke="midnightblue" d="M62.8994,-56.083C56.763,-48.3768 47.7303,-37.0333 40.2608,-27.6531"/>
<polygon fill="midnightblue" stroke="midnightblue" points="42.9357,-25.3936 33.9685,-19.7511 37.4598,-29.7542 42.9357,-25.3936"/>
</g>
<!-- Node5&#45;&gt;Node4 -->
<g id="edge6" class="edge"><title>Node5&#45;&gt;Node4</title>
<path fill="none" stroke="midnightblue" d="M77.1006,-56.083C83.237,-48.3768 92.2697,-37.0333 99.7392,-27.6531"/>
<polygon fill="midnightblue" stroke="midnightblue" points="102.54,-29.7542 106.032,-19.7511 97.0643,-25.3936 102.54,-29.7542"/>
</g>
</g>
</svg>
