<?xml version="1.0" encoding="UTF-8" standalone="no"?>
<!DOCTYPE svg PUBLIC "-//W3C//DTD SVG 1.1//EN"
 "http://www.w3.org/Graphics/SVG/1.1/DTD/svg11.dtd">
<!-- Generated by graphviz version 2.36.0 (20140111.2315)
 -->
<!-- Title: listDriver.cpp Pages: 1 -->
<!--zoomable 196 -->
<svg id="main" version="1.1" xmlns="http://www.w3.org/2000/svg" xmlns:xlink="http://www.w3.org/1999/xlink" xml:space="preserve" onload="init(evt)">
<style type="text/css"><![CDATA[
.edge:hover path { stroke: red; }
.edge:hover polygon { stroke: red; fill: red; }
]]></style>
<script type="text/javascript"><![CDATA[
var edges = document.getElementsByTagName('g');
if (edges && edges.length) {
  for (var i=0;i<edges.length;i++) {
    if (edges[i].id.substr(0,4)=='edge') {
      edges[i].setAttribute('class','edge');
    }
  }
}
]]></script>
        <defs>
                <circle id="rim" cx="0" cy="0" r="7"/>
                <circle id="rim2" cx="0" cy="0" r="3.5"/>
                <g id="zoomPlus">
                        <use xlink:href="#rim" fill="#404040">
                                <set attributeName="fill" to="#808080" begin="zoomplus.mouseover" end="zoomplus.mouseout"/>
                        </use>
                        <path d="M-4,0h8M0,-4v8" fill="none" stroke="white" stroke-width="1.5" pointer-events="none"/>
                </g>
                <g id="zoomMin">
                        <use xlink:href="#rim" fill="#404040">
                                <set attributeName="fill" to="#808080" begin="zoomminus.mouseover" end="zoomminus.mouseout"/>
                        </use>
                        <path d="M-4,0h8" fill="none" stroke="white" stroke-width="1.5" pointer-events="none"/>
                </g>
                <g id="dirArrow">
                        <path fill="none" stroke="white" stroke-width="1.5" d="M0,-3.0v7 M-2.5,-0.5L0,-3.0L2.5,-0.5"/>
                </g>
               <g id="resetDef">
                       <use xlink:href="#rim2" fill="#404040">
                               <set attributeName="fill" to="#808080" begin="reset.mouseover" end="reset.mouseout"/>
                       </use>
               </g>
        </defs>

<script type="text/javascript">
var viewWidth = 619;
var viewHeight = 196;
var sectionId = 'dynsection-0';
</script>
<script xlink:href="svgpan.js"/>
<svg id="graph" class="graph">
<g id="viewport">
<title>listDriver.cpp</title>
<polygon fill="white" stroke="none" points="-4,4 -4,-192 615,-192 615,4 -4,4"/>
<!-- Node1 -->
<g id="node1" class="node"><title>Node1</title>
<polygon fill="#bfbfbf" stroke="black" points="187,-168.5 187,-187.5 261,-187.5 261,-168.5 187,-168.5"/>
<text text-anchor="middle" x="224" y="-175.5" font-family="Helvetica,sans-Serif" font-size="10.00">listDriver.cpp</text>
</g>
<!-- Node2 -->
<g id="node2" class="node"><title>Node2</title>
<polygon fill="white" stroke="#bfbfbf" points="0,-0.5 0,-19.5 54,-19.5 54,-0.5 0,-0.5"/>
<text text-anchor="middle" x="27" y="-7.5" font-family="Helvetica,sans-Serif" font-size="10.00">iostream</text>
</g>
<!-- Node1&#45;&gt;Node2 -->
<g id="edge1" class="edge"><title>Node1&#45;&gt;Node2</title>
<path fill="none" stroke="midnightblue" d="M186.674,-174.39C149.887,-170.253 93.4647,-159.569 53,-132 27.5078,-114.632 21.5857,-105.319 12,-76 6.88837,-60.3653 12.0659,-42.0713 17.689,-28.8813"/>
<polygon fill="midnightblue" stroke="midnightblue" points="20.9928,-30.0821 22.106,-19.5459 14.6654,-27.0882 20.9928,-30.0821"/>
</g>
<!-- Node3 -->
<g id="node3" class="node"><title>Node3</title>
<polygon fill="white" stroke="#bfbfbf" points="214,-0.5 214,-19.5 264,-19.5 264,-0.5 214,-0.5"/>
<text text-anchor="middle" x="239" y="-7.5" font-family="Helvetica,sans-Serif" font-size="10.00">iomanip</text>
</g>
<!-- Node1&#45;&gt;Node3 -->
<g id="edge2" class="edge"><title>Node1&#45;&gt;Node3</title>
<path fill="none" stroke="midnightblue" d="M261.166,-175.038C356.469,-168.707 596.949,-143.808 522,-56 490.576,-19.1841 343.413,-12.337 274.617,-11.1705"/>
<polygon fill="midnightblue" stroke="midnightblue" points="274.326,-7.66625 264.278,-11.0283 274.229,-14.6656 274.326,-7.66625"/>
</g>
<!-- Node4 -->
<g id="node4" class="node"><title>Node4</title>
<polygon fill="white" stroke="#bfbfbf" points="570.5,-112.5 570.5,-131.5 611.5,-131.5 611.5,-112.5 570.5,-112.5"/>
<text text-anchor="middle" x="591" y="-119.5" font-family="Helvetica,sans-Serif" font-size="10.00">ctime</text>
</g>
<!-- Node1&#45;&gt;Node4 -->
<g id="edge3" class="edge"><title>Node1&#45;&gt;Node4</title>
<path fill="none" stroke="midnightblue" d="M261.078,-173.406C322.675,-167.115 449.824,-152.773 556,-132 557.462,-131.714 558.955,-131.403 560.459,-131.076"/>
<polygon fill="midnightblue" stroke="midnightblue" points="561.437,-134.441 570.363,-128.733 559.826,-127.629 561.437,-134.441"/>
</g>
<!-- Node5 -->
<g id="node5" class="node"><title>Node5</title>
<polygon fill="white" stroke="#bfbfbf" points="132.5,-56.5 132.5,-75.5 177.5,-75.5 177.5,-56.5 132.5,-56.5"/>
<text text-anchor="middle" x="155" y="-63.5" font-family="Helvetica,sans-Serif" font-size="10.00">cstdlib</text>
</g>
<!-- Node1&#45;&gt;Node5 -->
<g id="edge4" class="edge"><title>Node1&#45;&gt;Node5</title>
<path fill="none" stroke="midnightblue" d="M218.586,-168.368C207.249,-150.296 180.829,-108.176 165.856,-84.3074"/>
<polygon fill="midnightblue" stroke="midnightblue" points="168.668,-82.2029 160.389,-75.5914 162.738,-85.9226 168.668,-82.2029"/>
</g>
<!-- Node6 -->
<g id="node6" class="node"><title>Node6</title>
<polygon fill="white" stroke="#bfbfbf" points="472.5,-56.5 472.5,-75.5 513.5,-75.5 513.5,-56.5 472.5,-56.5"/>
<text text-anchor="middle" x="493" y="-63.5" font-family="Helvetica,sans-Serif" font-size="10.00">string</text>
</g>
<!-- Node1&#45;&gt;Node6 -->
<g id="edge5" class="edge"><title>Node1&#45;&gt;Node6</title>
<path fill="none" stroke="midnightblue" d="M245.108,-168.368C292.564,-148.963 407.817,-101.833 462.82,-79.3411"/>
<polygon fill="midnightblue" stroke="midnightblue" points="464.428,-82.465 472.36,-75.4403 461.779,-75.9858 464.428,-82.465"/>
</g>
<!-- Node7 -->
<g id="node7" class="node"><title>Node7</title>
<g id="a_node7"><a xlink:href="utilities_8h.html" target="_top" xlink:title="utilities.h">
<polygon fill="white" stroke="black" points="260,-112.5 260,-131.5 316,-131.5 316,-112.5 260,-112.5"/>
<text text-anchor="middle" x="288" y="-119.5" font-family="Helvetica,sans-Serif" font-size="10.00">utilities.h</text>
</a>
</g>
</g>
<!-- Node1&#45;&gt;Node7 -->
<g id="edge6" class="edge"><title>Node1&#45;&gt;Node7</title>
<path fill="none" stroke="midnightblue" d="M234.283,-168.324C243.836,-160.263 258.28,-148.077 269.784,-138.369"/>
<polygon fill="midnightblue" stroke="midnightblue" points="272.144,-140.958 277.53,-131.834 267.63,-135.608 272.144,-140.958"/>
</g>
<!-- Node11 -->
<g id="node11" class="node"><title>Node11</title>
<g id="a_node11"><a xlink:href="node_8h.html" target="_top" xlink:title="node.h">
<polygon fill="white" stroke="black" points="30,-56.5 30,-75.5 76,-75.5 76,-56.5 30,-56.5"/>
<text text-anchor="middle" x="53" y="-63.5" font-family="Helvetica,sans-Serif" font-size="10.00">node.h</text>
</a>
</g>
</g>
<!-- Node1&#45;&gt;Node11 -->
<g id="edge14" class="edge"><title>Node1&#45;&gt;Node11</title>
<path fill="none" stroke="midnightblue" d="M186.723,-176.697C150.9,-174.313 97.7933,-164.929 67,-132 55.5526,-119.759 52.5867,-100.496 52.1639,-86.1125"/>
<polygon fill="midnightblue" stroke="midnightblue" points="55.666,-85.8825 52.2566,-75.8512 48.6663,-85.8191 55.666,-85.8825"/>
</g>
<!-- Node12 -->
<g id="node12" class="node"><title>Node12</title>
<g id="a_node12"><a xlink:href="linkedList_8h.html" target="_top" xlink:title="linkedList.h">
<polygon fill="white" stroke="black" points="76,-112.5 76,-131.5 142,-131.5 142,-112.5 76,-112.5"/>
<text text-anchor="middle" x="109" y="-119.5" font-family="Helvetica,sans-Serif" font-size="10.00">linkedList.h</text>
</a>
</g>
</g>
<!-- Node1&#45;&gt;Node12 -->
<g id="edge17" class="edge"><title>Node1&#45;&gt;Node12</title>
<path fill="none" stroke="midnightblue" d="M205.778,-168.444C187.104,-159.675 157.844,-145.935 136.383,-135.858"/>
<polygon fill="midnightblue" stroke="midnightblue" points="137.676,-132.599 127.137,-131.516 134.701,-138.935 137.676,-132.599"/>
</g>
<!-- Node7&#45;&gt;Node2 -->
<g id="edge7" class="edge"><title>Node7&#45;&gt;Node2</title>
<path fill="none" stroke="midnightblue" d="M276.994,-112.442C258.929,-98.7626 221.446,-71.8964 186,-56 146.082,-38.0977 97.301,-25.5558 64.381,-18.3406"/>
<polygon fill="midnightblue" stroke="midnightblue" points="64.7916,-14.8494 54.2813,-16.1851 63.3305,-21.6953 64.7916,-14.8494"/>
</g>
<!-- Node7&#45;&gt;Node3 -->
<g id="edge10" class="edge"><title>Node7&#45;&gt;Node3</title>
<path fill="none" stroke="midnightblue" d="M309.122,-112.427C334.253,-100.934 370.931,-79.2679 355,-56 337.037,-29.7643 301.381,-18.8216 274.316,-14.259"/>
<polygon fill="midnightblue" stroke="midnightblue" points="274.822,-10.7958 264.419,-12.8042 273.804,-17.7214 274.822,-10.7958"/>
</g>
<!-- Node7&#45;&gt;Node5 -->
<g id="edge12" class="edge"><title>Node7&#45;&gt;Node5</title>
<path fill="none" stroke="midnightblue" d="M266.926,-112.444C244.94,-103.517 210.266,-89.4387 185.336,-79.3168"/>
<polygon fill="midnightblue" stroke="midnightblue" points="186.558,-76.0355 175.976,-75.5164 183.924,-82.5213 186.558,-76.0355"/>
</g>
<!-- Node7&#45;&gt;Node6 -->
<g id="edge11" class="edge"><title>Node7&#45;&gt;Node6</title>
<path fill="none" stroke="midnightblue" d="M316.28,-114.095C349.06,-106.012 404.932,-91.9899 462.391,-76.0838"/>
<polygon fill="midnightblue" stroke="midnightblue" points="463.679,-79.3583 472.374,-73.3051 461.802,-72.6146 463.679,-79.3583"/>
</g>
<!-- Node8 -->
<g id="node8" class="node"><title>Node8</title>
<polygon fill="white" stroke="#bfbfbf" points="296,-56.5 296,-75.5 346,-75.5 346,-56.5 296,-56.5"/>
<text text-anchor="middle" x="321" y="-63.5" font-family="Helvetica,sans-Serif" font-size="10.00">fstream</text>
</g>
<!-- Node7&#45;&gt;Node8 -->
<g id="edge8" class="edge"><title>Node7&#45;&gt;Node8</title>
<path fill="none" stroke="midnightblue" d="M293.449,-112.083C298.014,-104.613 304.668,-93.7244 310.293,-84.5199"/>
<polygon fill="midnightblue" stroke="midnightblue" points="313.424,-86.109 315.652,-75.7511 307.451,-82.4588 313.424,-86.109"/>
</g>
<!-- Node9 -->
<g id="node9" class="node"><title>Node9</title>
<polygon fill="white" stroke="#bfbfbf" points="402,-56.5 402,-75.5 454,-75.5 454,-56.5 402,-56.5"/>
<text text-anchor="middle" x="428" y="-63.5" font-family="Helvetica,sans-Serif" font-size="10.00">sstream</text>
</g>
<!-- Node7&#45;&gt;Node9 -->
<g id="edge9" class="edge"><title>Node7&#45;&gt;Node9</title>
<path fill="none" stroke="midnightblue" d="M310.183,-112.444C333.428,-103.478 370.149,-89.314 396.415,-79.1827"/>
<polygon fill="midnightblue" stroke="midnightblue" points="397.85,-82.3807 405.92,-75.5164 395.331,-75.8497 397.85,-82.3807"/>
</g>
<!-- Node10 -->
<g id="node10" class="node"><title>Node10</title>
<polygon fill="white" stroke="#bfbfbf" points="234,-56.5 234,-75.5 278,-75.5 278,-56.5 234,-56.5"/>
<text text-anchor="middle" x="256" y="-63.5" font-family="Helvetica,sans-Serif" font-size="10.00">cmath</text>
</g>
<!-- Node7&#45;&gt;Node10 -->
<g id="edge13" class="edge"><title>Node7&#45;&gt;Node10</title>
<path fill="none" stroke="midnightblue" d="M282.716,-112.083C278.289,-104.613 271.837,-93.7244 266.382,-84.5199"/>
<polygon fill="midnightblue" stroke="midnightblue" points="269.295,-82.5697 261.186,-75.7511 263.273,-86.1383 269.295,-82.5697"/>
</g>
<!-- Node11&#45;&gt;Node2 -->
<g id="edge15" class="edge"><title>Node11&#45;&gt;Node2</title>
<path fill="none" stroke="midnightblue" d="M48.7066,-56.083C45.1477,-48.6913 39.9775,-37.9533 35.5757,-28.8111"/>
<polygon fill="midnightblue" stroke="midnightblue" points="38.7052,-27.2427 31.2135,-19.7511 32.3982,-30.2795 38.7052,-27.2427"/>
</g>
<!-- Node11&#45;&gt;Node3 -->
<g id="edge16" class="edge"><title>Node11&#45;&gt;Node3</title>
<path fill="none" stroke="midnightblue" d="M76.181,-58.27C108.226,-48.9665 166.335,-32.0962 203.769,-21.2284"/>
<polygon fill="midnightblue" stroke="midnightblue" points="205.112,-24.483 213.74,-18.3336 203.16,-17.7606 205.112,-24.483"/>
</g>
<!-- Node12&#45;&gt;Node2 -->
<g id="edge18" class="edge"><title>Node12&#45;&gt;Node2</title>
<path fill="none" stroke="midnightblue" d="M75.8253,-113.3C56.1974,-106.853 32.9103,-95.4677 21,-76 12.5066,-62.1172 15.4305,-43.3552 19.6349,-29.557"/>
<polygon fill="midnightblue" stroke="midnightblue" points="23.0703,-30.3382 23.0876,-19.7434 16.467,-28.015 23.0703,-30.3382"/>
</g>
<!-- Node12&#45;&gt;Node3 -->
<g id="edge19" class="edge"><title>Node12&#45;&gt;Node3</title>
<path fill="none" stroke="midnightblue" d="M108.427,-112.301C108.012,-98.6673 109.212,-72.1568 123,-56 143.301,-32.2103 177.742,-20.936 203.836,-15.63"/>
<polygon fill="midnightblue" stroke="midnightblue" points="204.528,-19.0616 213.733,-13.8172 203.266,-12.1762 204.528,-19.0616"/>
</g>
<!-- Node12&#45;&gt;Node11 -->
<g id="edge20" class="edge"><title>Node12&#45;&gt;Node11</title>
<path fill="none" stroke="midnightblue" d="M100.003,-112.324C91.8056,-104.42 79.4945,-92.5482 69.528,-82.9377"/>
<polygon fill="midnightblue" stroke="midnightblue" points="71.789,-80.2558 62.1611,-75.8339 66.9301,-85.2947 71.789,-80.2558"/>
</g>
</g>
</svg>
        <g id="navigator" transform="translate(0 0)" fill="#404254">
                <rect fill="#f2f5e9" fill-opacity="0.5" stroke="#606060" stroke-width=".5" x="0" y="0" width="60" height="60"/>
                <use id="zoomplus" xlink:href="#zoomPlus" x="17" y="9" onmousedown="handleZoom(evt,'in')"/>
                <use id="zoomminus" xlink:href="#zoomMin" x="42" y="9" onmousedown="handleZoom(evt,'out')"/>
                <use id="reset" xlink:href="#resetDef" x="30" y="36" onmousedown="handleReset()"/>
                <g id="arrowUp" xlink:href="#dirArrow" transform="translate(30 24)" onmousedown="handlePan(0,-1)">
                  <use xlink:href="#rim" fill="#404040">
                        <set attributeName="fill" to="#808080" begin="arrowUp.mouseover" end="arrowUp.mouseout"/>
                  </use>
                  <path fill="none" stroke="white" stroke-width="1.5" d="M0,-3.0v7 M-2.5,-0.5L0,-3.0L2.5,-0.5"/>
                </g>
                <g id="arrowRight" xlink:href="#dirArrow" transform="rotate(90) translate(36 -43)" onmousedown="handlePan(1,0)">
                  <use xlink:href="#rim" fill="#404040">
                        <set attributeName="fill" to="#808080" begin="arrowRight.mouseover" end="arrowRight.mouseout"/>
                  </use>
                  <path fill="none" stroke="white" stroke-width="1.5" d="M0,-3.0v7 M-2.5,-0.5L0,-3.0L2.5,-0.5"/>
                </g>
                <g id="arrowDown" xlink:href="#dirArrow" transform="rotate(180) translate(-30 -48)" onmousedown="handlePan(0,1)">
                  <use xlink:href="#rim" fill="#404040">
                        <set attributeName="fill" to="#808080" begin="arrowDown.mouseover" end="arrowDown.mouseout"/>
                  </use>
                  <path fill="none" stroke="white" stroke-width="1.5" d="M0,-3.0v7 M-2.5,-0.5L0,-3.0L2.5,-0.5"/>
                </g>
                <g id="arrowLeft" xlink:href="#dirArrow" transform="rotate(270) translate(-36 17)" onmousedown="handlePan(-1,0)">
                  <use xlink:href="#rim" fill="#404040">
                        <set attributeName="fill" to="#808080" begin="arrowLeft.mouseover" end="arrowLeft.mouseout"/>
                  </use>
                  <path fill="none" stroke="white" stroke-width="1.5" d="M0,-3.0v7 M-2.5,-0.5L0,-3.0L2.5,-0.5"/>
                </g>
        </g>
        <svg viewBox="0 0 15 15" width="100%" height="30px" preserveAspectRatio="xMaxYMin meet">
         <g id="arrow_out" transform="scale(0.3 0.3)">
          <a xlink:href="listDriver_8cpp__incl_org.svg" target="_base">
           <rect id="button" ry="5" rx="5" y="6" x="6" height="38" width="38"
                fill="#f2f5e9" fill-opacity="0.5" stroke="#606060" stroke-width="1.0"/>
           <path id="arrow"
             d="M 11.500037,31.436501 C 11.940474,20.09759 22.043105,11.32322 32.158766,21.979434 L 37.068811,17.246167 C 37.068811,17.246167 37.088388,32 37.088388,32 L 22.160133,31.978069 C 22.160133,31.978069 26.997745,27.140456 26.997745,27.140456 C 18.528582,18.264221 13.291696,25.230495 11.500037,31.436501 z"
             style="fill:#404040;"/>
          </a>
         </g>
        </svg>
</svg>
