<?xml version="1.0" encoding="UTF-8" standalone="no"?>
<!DOCTYPE svg PUBLIC "-//W3C//DTD SVG 1.1//EN"
 "http://www.w3.org/Graphics/SVG/1.1/DTD/svg11.dtd">
<!-- Generated by graphviz version 2.36.0 (20140111.2315)
 -->
<!-- Title: node.h Pages: 1 -->
<svg width="224pt" height="140pt"
 viewBox="0.00 0.00 224.00 140.00" xmlns="http://www.w3.org/2000/svg" xmlns:xlink="http://www.w3.org/1999/xlink">
<g id="graph0" class="graph" transform="scale(1 1) rotate(0) translate(4 136)">
<title>node.h</title>
<polygon fill="white" stroke="none" points="-4,4 -4,-136 220,-136 220,4 -4,4"/>
<!-- Node1 -->
<g id="node1" class="node"><title>Node1</title>
<polygon fill="#bfbfbf" stroke="black" points="109,-112.5 109,-131.5 155,-131.5 155,-112.5 109,-112.5"/>
<text text-anchor="middle" x="132" y="-119.5" font-family="Helvetica,sans-Serif" font-size="10.00">node.h</text>
</g>
<!-- Node2 -->
<g id="node2" class="node"><title>Node2</title>
<g id="a_node2"><a xlink:href="linkedList_8h.html" target="_top" xlink:title="linkedList.h">
<polygon fill="white" stroke="black" points="38,-56.5 38,-75.5 104,-75.5 104,-56.5 38,-56.5"/>
<text text-anchor="middle" x="71" y="-63.5" font-family="Helvetica,sans-Serif" font-size="10.00">linkedList.h</text>
</a>
</g>
</g>
<!-- Node1&#45;&gt;Node2 -->
<g id="edge1" class="edge"><title>Node1&#45;&gt;Node2</title>
<path fill="none" stroke="midnightblue" d="M114.533,-105.537C103.656,-95.9087 90.0561,-83.8694 80.979,-75.8339"/>
<polygon fill="midnightblue" stroke="midnightblue" points="112.392,-108.316 122.199,-112.324 117.032,-103.075 112.392,-108.316"/>
</g>
<!-- Node4 -->
<g id="node4" class="node"><title>Node4</title>
<g id="a_node4"><a xlink:href="listDriver_8cpp.html" target="_top" xlink:title="listDriver.cpp">
<polygon fill="white" stroke="black" points="95,-0.5 95,-19.5 169,-19.5 169,-0.5 95,-0.5"/>
<text text-anchor="middle" x="132" y="-7.5" font-family="Helvetica,sans-Serif" font-size="10.00">listDriver.cpp</text>
</a>
</g>
</g>
<!-- Node1&#45;&gt;Node4 -->
<g id="edge4" class="edge"><title>Node1&#45;&gt;Node4</title>
<path fill="none" stroke="midnightblue" d="M132,-102.348C132,-78.2538 132,-37.3079 132,-19.5914"/>
<polygon fill="midnightblue" stroke="midnightblue" points="128.5,-102.368 132,-112.368 135.5,-102.369 128.5,-102.368"/>
</g>
<!-- Node5 -->
<g id="node5" class="node"><title>Node5</title>
<g id="a_node5"><a xlink:href="node_8cpp.html" target="_top" xlink:title="node.cpp">
<polygon fill="white" stroke="black" points="160,-56.5 160,-75.5 216,-75.5 216,-56.5 160,-56.5"/>
<text text-anchor="middle" x="188" y="-63.5" font-family="Helvetica,sans-Serif" font-size="10.00">node.cpp</text>
</a>
</g>
</g>
<!-- Node1&#45;&gt;Node5 -->
<g id="edge5" class="edge"><title>Node1&#45;&gt;Node5</title>
<path fill="none" stroke="midnightblue" d="M148.33,-105.253C158.265,-95.6731 170.588,-83.7906 178.839,-75.8339"/>
<polygon fill="midnightblue" stroke="midnightblue" points="145.766,-102.863 140.997,-112.324 150.625,-107.902 145.766,-102.863"/>
</g>
<!-- Node3 -->
<g id="node3" class="node"><title>Node3</title>
<g id="a_node3"><a xlink:href="linkedList_8cpp.html" target="_top" xlink:title="linkedList.cpp">
<polygon fill="white" stroke="black" points="-0.5,-0.5 -0.5,-19.5 76.5,-19.5 76.5,-0.5 -0.5,-0.5"/>
<text text-anchor="middle" x="38" y="-7.5" font-family="Helvetica,sans-Serif" font-size="10.00">linkedList.cpp</text>
</a>
</g>
</g>
<!-- Node2&#45;&gt;Node3 -->
<g id="edge2" class="edge"><title>Node2&#45;&gt;Node3</title>
<path fill="none" stroke="midnightblue" d="M60.1679,-47.2747C54.5278,-38.0454 47.8819,-27.1703 43.3479,-19.7511"/>
<polygon fill="midnightblue" stroke="midnightblue" points="57.3497,-49.3753 65.5507,-56.083 63.3227,-45.7251 57.3497,-49.3753"/>
</g>
<!-- Node2&#45;&gt;Node4 -->
<g id="edge3" class="edge"><title>Node2&#45;&gt;Node4</title>
<path fill="none" stroke="midnightblue" d="M88.4672,-49.5372C99.3438,-39.9087 112.944,-27.8694 122.021,-19.8339"/>
<polygon fill="midnightblue" stroke="midnightblue" points="85.9684,-47.0749 80.8007,-56.324 90.6083,-52.3162 85.9684,-47.0749"/>
</g>
</g>
</svg>
