<?xml version="1.0" encoding="UTF-8" standalone="no"?>
<!DOCTYPE svg PUBLIC "-//W3C//DTD SVG 1.1//EN"
 "http://www.w3.org/Graphics/SVG/1.1/DTD/svg11.dtd">
<!-- Generated by graphviz version 2.36.0 (20140111.2315)
 -->
<!-- Title: RightTriangle::RightTriangle Pages: 1 -->
<svg width="352pt" height="104pt"
 viewBox="0.00 0.00 352.00 104.00" xmlns="http://www.w3.org/2000/svg" xmlns:xlink="http://www.w3.org/1999/xlink">
<g id="graph0" class="graph" transform="scale(1 1) rotate(0) translate(4 100)">
<title>RightTriangle::RightTriangle</title>
<polygon fill="white" stroke="none" points="-4,4 -4,-100 348,-100 348,4 -4,4"/>
<!-- Node1 -->
<g id="node1" class="node"><title>Node1</title>
<polygon fill="#bfbfbf" stroke="black" points="0,-38.5 0,-57.5 138,-57.5 138,-38.5 0,-38.5"/>
<text text-anchor="middle" x="69" y="-45.5" font-family="Helvetica,sans-Serif" font-size="10.00">RightTriangle::RightTriangle</text>
</g>
<!-- Node2 -->
<g id="node2" class="node"><title>Node2</title>
<g id="a_node2"><a xlink:href="classRightTriangle.html#abab1317e02e26fa0456f5cfeafe5f9ec" target="_top" xlink:title="RightTriangle::base">
<polygon fill="white" stroke="black" points="208.5,-76.5 208.5,-95.5 309.5,-95.5 309.5,-76.5 208.5,-76.5"/>
<text text-anchor="middle" x="259" y="-83.5" font-family="Helvetica,sans-Serif" font-size="10.00">RightTriangle::base</text>
</a>
</g>
</g>
<!-- Node1&#45;&gt;Node2 -->
<g id="edge1" class="edge"><title>Node1&#45;&gt;Node2</title>
<path fill="none" stroke="midnightblue" d="M117.44,-57.589C142.808,-62.7165 174.227,-69.0672 200.923,-74.4632"/>
<polygon fill="midnightblue" stroke="midnightblue" points="200.406,-77.9293 210.901,-76.4799 201.792,-71.068 200.406,-77.9293"/>
</g>
<!-- Node3 -->
<g id="node3" class="node"><title>Node3</title>
<g id="a_node3"><a xlink:href="classRightTriangle.html#a1d861752e9f41d3544c359927bac5603" target="_top" xlink:title="RightTriangle::height">
<polygon fill="white" stroke="black" points="205.5,-38.5 205.5,-57.5 312.5,-57.5 312.5,-38.5 205.5,-38.5"/>
<text text-anchor="middle" x="259" y="-45.5" font-family="Helvetica,sans-Serif" font-size="10.00">RightTriangle::height</text>
</a>
</g>
</g>
<!-- Node1&#45;&gt;Node3 -->
<g id="edge2" class="edge"><title>Node1&#45;&gt;Node3</title>
<path fill="none" stroke="midnightblue" d="M138.138,-48C156.846,-48 177.036,-48 195.416,-48"/>
<polygon fill="midnightblue" stroke="midnightblue" points="195.419,-51.5001 205.419,-48 195.419,-44.5001 195.419,-51.5001"/>
</g>
<!-- Node4 -->
<g id="node4" class="node"><title>Node4</title>
<g id="a_node4"><a xlink:href="classRightTriangle.html#a98d5fe32b8935249d6608c3a073fccd5" target="_top" xlink:title="RightTriangle::computeHypotenuse">
<polygon fill="white" stroke="black" points="174,-0.5 174,-19.5 344,-19.5 344,-0.5 174,-0.5"/>
<text text-anchor="middle" x="259" y="-7.5" font-family="Helvetica,sans-Serif" font-size="10.00">RightTriangle::computeHypotenuse</text>
</a>
</g>
</g>
<!-- Node1&#45;&gt;Node4 -->
<g id="edge3" class="edge"><title>Node1&#45;&gt;Node4</title>
<path fill="none" stroke="midnightblue" d="M117.44,-38.411C142.808,-33.2835 174.227,-26.9328 200.923,-21.5368"/>
<polygon fill="midnightblue" stroke="midnightblue" points="201.792,-24.932 210.901,-19.5201 200.406,-18.0707 201.792,-24.932"/>
</g>
</g>
</svg>
