<?xml version="1.0" encoding="UTF-8" standalone="no"?>
<!DOCTYPE svg PUBLIC "-//W3C//DTD SVG 1.1//EN"
 "http://www.w3.org/Graphics/SVG/1.1/DTD/svg11.dtd">
<!-- Generated by graphviz version 2.36.0 (20140111.2315)
 -->
<!-- Title: RightTriangle::clone Pages: 1 -->
<svg width="492pt" height="28pt"
 viewBox="0.00 0.00 492.00 28.00" xmlns="http://www.w3.org/2000/svg" xmlns:xlink="http://www.w3.org/1999/xlink">
<g id="graph0" class="graph" transform="scale(1 1) rotate(0) translate(4 24)">
<title>RightTriangle::clone</title>
<polygon fill="white" stroke="none" points="-4,4 -4,-24 488,-24 488,4 -4,4"/>
<!-- Node1 -->
<g id="node1" class="node"><title>Node1</title>
<polygon fill="#bfbfbf" stroke="black" points="0,-0.5 0,-19.5 104,-19.5 104,-0.5 0,-0.5"/>
<text text-anchor="middle" x="52" y="-7.5" font-family="Helvetica,sans-Serif" font-size="10.00">RightTriangle::clone</text>
</g>
<!-- Node2 -->
<g id="node2" class="node"><title>Node2</title>
<g id="a_node2"><a xlink:href="classRightTriangle.html#a0119c721ea8e80b7d9c635d13a7c10ac" target="_top" xlink:title="RightTriangle::RightTriangle">
<polygon fill="white" stroke="black" points="140,-0.5 140,-19.5 278,-19.5 278,-0.5 140,-0.5"/>
<text text-anchor="middle" x="209" y="-7.5" font-family="Helvetica,sans-Serif" font-size="10.00">RightTriangle::RightTriangle</text>
</a>
</g>
</g>
<!-- Node1&#45;&gt;Node2 -->
<g id="edge1" class="edge"><title>Node1&#45;&gt;Node2</title>
<path fill="none" stroke="midnightblue" d="M104.182,-10C112.358,-10 120.978,-10 129.612,-10"/>
<polygon fill="midnightblue" stroke="midnightblue" points="129.728,-13.5001 139.728,-10 129.728,-6.5001 129.728,-13.5001"/>
</g>
<!-- Node3 -->
<g id="node3" class="node"><title>Node3</title>
<g id="a_node3"><a xlink:href="classRightTriangle.html#a98d5fe32b8935249d6608c3a073fccd5" target="_top" xlink:title="RightTriangle::computeHypotenuse">
<polygon fill="white" stroke="black" points="314,-0.5 314,-19.5 484,-19.5 484,-0.5 314,-0.5"/>
<text text-anchor="middle" x="399" y="-7.5" font-family="Helvetica,sans-Serif" font-size="10.00">RightTriangle::computeHypotenuse</text>
</a>
</g>
</g>
<!-- Node2&#45;&gt;Node3 -->
<g id="edge2" class="edge"><title>Node2&#45;&gt;Node3</title>
<path fill="none" stroke="midnightblue" d="M278.138,-10C286.446,-10 295.047,-10 303.651,-10"/>
<polygon fill="midnightblue" stroke="midnightblue" points="303.736,-13.5001 313.736,-10 303.736,-6.5001 303.736,-13.5001"/>
</g>
</g>
</svg>
