<?xml version="1.0" encoding="UTF-8" standalone="no"?>
<!DOCTYPE svg PUBLIC "-//W3C//DTD SVG 1.1//EN"
 "http://www.w3.org/Graphics/SVG/1.1/DTD/svg11.dtd">
<!-- Generated by graphviz version 2.36.0 (20140111.2315)
 -->
<!-- Title: main Pages: 1 -->
<svg width="398pt" height="249pt"
 viewBox="0.00 0.00 398.00 248.88" xmlns="http://www.w3.org/2000/svg" xmlns:xlink="http://www.w3.org/1999/xlink">
<g id="graph0" class="graph" transform="scale(1 1) rotate(0) translate(4 244.876)">
<title>main</title>
<polygon fill="white" stroke="none" points="-4,4 -4,-244.876 394,-244.876 394,4 -4,4"/>
<!-- Node1 -->
<g id="node1" class="node"><title>Node1</title>
<polygon fill="#bfbfbf" stroke="black" points="0,-114.5 0,-133.5 38,-133.5 38,-114.5 0,-114.5"/>
<text text-anchor="middle" x="19" y="-121.5" font-family="Helvetica,sans-Serif" font-size="10.00">main</text>
</g>
<!-- Node2 -->
<g id="node2" class="node"><title>Node2</title>
<g id="a_node2"><a xlink:href="namespaceutilities.html#a5a4a24938bfeb46f18a7d7ecf96e7b6b" target="_top" xlink:title="utilities::printProjectHeading">
<polygon fill="white" stroke="black" points="77.5,-152.5 77.5,-171.5 216.5,-171.5 216.5,-152.5 77.5,-152.5"/>
<text text-anchor="middle" x="147" y="-159.5" font-family="Helvetica,sans-Serif" font-size="10.00">utilities::printProjectHeading</text>
</a>
</g>
</g>
<!-- Node1&#45;&gt;Node2 -->
<g id="edge1" class="edge"><title>Node1&#45;&gt;Node2</title>
<path fill="none" stroke="midnightblue" d="M38.3726,-130.877C48.7617,-134.661 62.0302,-139.321 74,-143 81.5593,-145.323 89.6171,-147.621 97.5034,-149.773"/>
<polygon fill="midnightblue" stroke="midnightblue" points="96.7856,-153.204 107.351,-152.411 98.5974,-146.442 96.7856,-153.204"/>
</g>
<!-- Node3 -->
<g id="node3" class="node"><title>Node3</title>
<g id="a_node3"><a xlink:href="namespaceutilities.html#a2ca4bf55e15b157fc1255112ecf60b4b" target="_top" xlink:title="utilities::printHorizontalLine">
<polygon fill="white" stroke="black" points="256,-196.5 256,-215.5 390,-215.5 390,-196.5 256,-196.5"/>
<text text-anchor="middle" x="323" y="-203.5" font-family="Helvetica,sans-Serif" font-size="10.00">utilities::printHorizontalLine</text>
</a>
</g>
</g>
<!-- Node1&#45;&gt;Node3 -->
<g id="edge8" class="edge"><title>Node1&#45;&gt;Node3</title>
<path fill="none" stroke="midnightblue" d="M22.0598,-133.511C26.9851,-153.611 41.5326,-200.109 74,-219 141.428,-258.232 237.429,-235.513 287.93,-218.816"/>
<polygon fill="midnightblue" stroke="midnightblue" points="289.072,-222.125 297.402,-215.578 286.807,-215.501 289.072,-222.125"/>
</g>
<!-- Node5 -->
<g id="node5" class="node"><title>Node5</title>
<g id="a_node5"><a xlink:href="namespaceutilities.html#a00ebb5fe3065cdb7f3a0cd6cc1c716e0" target="_top" xlink:title="utilities::printHeading">
<polygon fill="white" stroke="black" points="93,-190.5 93,-209.5 201,-209.5 201,-190.5 93,-190.5"/>
<text text-anchor="middle" x="147" y="-197.5" font-family="Helvetica,sans-Serif" font-size="10.00">utilities::printHeading</text>
</a>
</g>
</g>
<!-- Node1&#45;&gt;Node5 -->
<g id="edge4" class="edge"><title>Node1&#45;&gt;Node5</title>
<path fill="none" stroke="midnightblue" d="M26.4786,-133.635C35.5788,-146.411 53.3635,-168.764 74,-181 77.6905,-183.188 81.6341,-185.128 85.7033,-186.848"/>
<polygon fill="midnightblue" stroke="midnightblue" points="84.7736,-190.237 95.3658,-190.473 87.2327,-183.684 84.7736,-190.237"/>
</g>
<!-- Node6 -->
<g id="node6" class="node"><title>Node6</title>
<g id="a_node6"><a xlink:href="classShapeFactory.html#a8618cdfc6a7320bee3bf96e95e92eaff" target="_top" xlink:title="ShapeFactory::listKnown">
<polygon fill="white" stroke="black" points="84,-114.5 84,-133.5 210,-133.5 210,-114.5 84,-114.5"/>
<text text-anchor="middle" x="147" y="-121.5" font-family="Helvetica,sans-Serif" font-size="10.00">ShapeFactory::listKnown</text>
</a>
</g>
</g>
<!-- Node1&#45;&gt;Node6 -->
<g id="edge7" class="edge"><title>Node1&#45;&gt;Node6</title>
<path fill="none" stroke="midnightblue" d="M38.0527,-124C47.759,-124 60.4354,-124 73.6736,-124"/>
<polygon fill="midnightblue" stroke="midnightblue" points="73.8666,-127.5 83.8666,-124 73.8666,-120.5 73.8666,-127.5"/>
</g>
<!-- Node7 -->
<g id="node7" class="node"><title>Node7</title>
<g id="a_node7"><a xlink:href="classShapeFactory.html#a914d40208527df461c103f4045b62e42" target="_top" xlink:title="ShapeFactory::numberKnown">
<polygon fill="white" stroke="black" points="74,-76.5 74,-95.5 220,-95.5 220,-76.5 74,-76.5"/>
<text text-anchor="middle" x="147" y="-83.5" font-family="Helvetica,sans-Serif" font-size="10.00">ShapeFactory::numberKnown</text>
</a>
</g>
</g>
<!-- Node1&#45;&gt;Node7 -->
<g id="edge9" class="edge"><title>Node1&#45;&gt;Node7</title>
<path fill="none" stroke="midnightblue" d="M38.3726,-117.123C48.7617,-113.339 62.0302,-108.679 74,-105 81.5593,-102.677 89.6171,-100.379 97.5034,-98.2271"/>
<polygon fill="midnightblue" stroke="midnightblue" points="98.5974,-101.558 107.351,-95.5885 96.7856,-94.7961 98.5974,-101.558"/>
</g>
<!-- Node8 -->
<g id="node8" class="node"><title>Node8</title>
<g id="a_node8"><a xlink:href="classShapeFactory.html#afa1a55b6b6f30a734ab70a5d83e72d95" target="_top" xlink:title="ShapeFactory::createShape">
<polygon fill="white" stroke="black" points="78,-38.5 78,-57.5 216,-57.5 216,-38.5 78,-38.5"/>
<text text-anchor="middle" x="147" y="-45.5" font-family="Helvetica,sans-Serif" font-size="10.00">ShapeFactory::createShape</text>
</a>
</g>
</g>
<!-- Node1&#45;&gt;Node8 -->
<g id="edge10" class="edge"><title>Node1&#45;&gt;Node8</title>
<path fill="none" stroke="midnightblue" d="M26.4786,-114.365C35.5788,-101.589 53.3635,-79.2362 74,-67 77.6905,-64.8118 81.6341,-62.8716 85.7033,-61.1519"/>
<polygon fill="midnightblue" stroke="midnightblue" points="87.2327,-64.3164 95.3658,-57.5265 84.7736,-57.7625 87.2327,-64.3164"/>
</g>
<!-- Node10 -->
<g id="node10" class="node"><title>Node10</title>
<g id="a_node10"><a xlink:href="runShapes_8cpp.html#a226d6adf4d61d583310f970884532669" target="_top" xlink:title="pruneNullPtr">
<polygon fill="white" stroke="black" points="111.5,-0.5 111.5,-19.5 182.5,-19.5 182.5,-0.5 111.5,-0.5"/>
<text text-anchor="middle" x="147" y="-7.5" font-family="Helvetica,sans-Serif" font-size="10.00">pruneNullPtr</text>
</a>
</g>
</g>
<!-- Node1&#45;&gt;Node10 -->
<g id="edge12" class="edge"><title>Node1&#45;&gt;Node10</title>
<path fill="none" stroke="midnightblue" d="M22.7433,-114.232C28.6973,-94.8734 44.6836,-51.5636 74,-29 81.9077,-22.9137 91.5925,-18.7704 101.264,-15.9516"/>
<polygon fill="midnightblue" stroke="midnightblue" points="102.401,-19.2755 111.262,-13.4676 100.713,-12.482 102.401,-19.2755"/>
</g>
<!-- Node2&#45;&gt;Node3 -->
<g id="edge2" class="edge"><title>Node2&#45;&gt;Node3</title>
<path fill="none" stroke="midnightblue" d="M185.755,-171.547C211.749,-178.12 246.487,-186.905 274.38,-193.958"/>
<polygon fill="midnightblue" stroke="midnightblue" points="273.765,-197.413 284.318,-196.471 275.482,-190.626 273.765,-197.413"/>
</g>
<!-- Node4 -->
<g id="node4" class="node"><title>Node4</title>
<g id="a_node4"><a xlink:href="namespaceutilities.html#a0364030fce3431e2ec985b20e571ce9a" target="_top" xlink:title="utilities::printCentered\lTitle">
<polygon fill="white" stroke="black" points="267,-147 267,-177 379,-177 379,-147 267,-147"/>
<text text-anchor="start" x="275" y="-165" font-family="Helvetica,sans-Serif" font-size="10.00">utilities::printCentered</text>
<text text-anchor="middle" x="323" y="-154" font-family="Helvetica,sans-Serif" font-size="10.00">Title</text>
</a>
</g>
</g>
<!-- Node2&#45;&gt;Node4 -->
<g id="edge3" class="edge"><title>Node2&#45;&gt;Node4</title>
<path fill="none" stroke="midnightblue" d="M216.769,-162C229.886,-162 243.582,-162 256.591,-162"/>
<polygon fill="midnightblue" stroke="midnightblue" points="256.852,-165.5 266.852,-162 256.852,-158.5 256.852,-165.5"/>
</g>
<!-- Node5&#45;&gt;Node3 -->
<g id="edge5" class="edge"><title>Node5&#45;&gt;Node3</title>
<path fill="none" stroke="midnightblue" d="M201.151,-201.833C215.199,-202.317 230.642,-202.85 245.656,-203.367"/>
<polygon fill="midnightblue" stroke="midnightblue" points="245.844,-206.876 255.958,-203.723 246.085,-199.88 245.844,-206.876"/>
</g>
<!-- Node5&#45;&gt;Node4 -->
<g id="edge6" class="edge"><title>Node5&#45;&gt;Node4</title>
<path fill="none" stroke="midnightblue" d="M191.908,-190.411C211.638,-186.102 235.326,-180.929 257.049,-176.185"/>
<polygon fill="midnightblue" stroke="midnightblue" points="257.848,-179.593 266.871,-174.04 256.354,-172.754 257.848,-179.593"/>
</g>
<!-- Node9 -->
<g id="node9" class="node"><title>Node9</title>
<g id="a_node9"><a xlink:href="classShape.html#a9925268873803b18244ccb79599425fd" target="_top" xlink:title="Shape::clone">
<polygon fill="white" stroke="black" points="286,-38.5 286,-57.5 360,-57.5 360,-38.5 286,-38.5"/>
<text text-anchor="middle" x="323" y="-45.5" font-family="Helvetica,sans-Serif" font-size="10.00">Shape::clone</text>
</a>
</g>
</g>
<!-- Node8&#45;&gt;Node9 -->
<g id="edge11" class="edge"><title>Node8&#45;&gt;Node9</title>
<path fill="none" stroke="midnightblue" d="M216.27,-48C236.26,-48 257.635,-48 275.898,-48"/>
<polygon fill="midnightblue" stroke="midnightblue" points="275.975,-51.5001 285.975,-48 275.975,-44.5001 275.975,-51.5001"/>
</g>
</g>
</svg>
