<?xml version="1.0" encoding="UTF-8" standalone="no"?>
<!DOCTYPE svg PUBLIC "-//W3C//DTD SVG 1.1//EN"
 "http://www.w3.org/Graphics/SVG/1.1/DTD/svg11.dtd">
<!-- Generated by graphviz version 2.36.0 (20140111.2315)
 -->
<!-- Title: runShapes.cpp Pages: 1 -->
<svg width="914pt" height="308pt"
 viewBox="0.00 0.00 914.00 308.00" xmlns="http://www.w3.org/2000/svg" xmlns:xlink="http://www.w3.org/1999/xlink">
<g id="graph0" class="graph" transform="scale(1 1) rotate(0) translate(4 304)">
<title>runShapes.cpp</title>
<polygon fill="white" stroke="none" points="-4,4 -4,-304 910,-304 910,4 -4,4"/>
<!-- Node1 -->
<g id="node1" class="node"><title>Node1</title>
<polygon fill="#bfbfbf" stroke="black" points="436,-280.5 436,-299.5 518,-299.5 518,-280.5 436,-280.5"/>
<text text-anchor="middle" x="477" y="-287.5" font-family="Helvetica,sans-Serif" font-size="10.00">runShapes.cpp</text>
</g>
<!-- Node2 -->
<g id="node2" class="node"><title>Node2</title>
<polygon fill="white" stroke="#bfbfbf" points="727,-0.5 727,-19.5 781,-19.5 781,-0.5 727,-0.5"/>
<text text-anchor="middle" x="754" y="-7.5" font-family="Helvetica,sans-Serif" font-size="10.00">iostream</text>
</g>
<!-- Node1&#45;&gt;Node2 -->
<g id="edge1" class="edge"><title>Node1&#45;&gt;Node2</title>
<path fill="none" stroke="midnightblue" d="M518.134,-287.199C625.51,-281.385 906,-258.58 906,-179 906,-179 906,-179 906,-121 906,-64.3693 835.9,-33.9247 790.91,-20.2172"/>
<polygon fill="midnightblue" stroke="midnightblue" points="791.754,-16.8177 781.175,-17.3902 789.802,-23.54 791.754,-16.8177"/>
</g>
<!-- Node3 -->
<g id="node3" class="node"><title>Node3</title>
<polygon fill="white" stroke="#bfbfbf" points="0,-56.5 0,-75.5 50,-75.5 50,-56.5 0,-56.5"/>
<text text-anchor="middle" x="25" y="-63.5" font-family="Helvetica,sans-Serif" font-size="10.00">iomanip</text>
</g>
<!-- Node1&#45;&gt;Node3 -->
<g id="edge2" class="edge"><title>Node1&#45;&gt;Node3</title>
<path fill="none" stroke="midnightblue" d="M459.558,-280.433C390.423,-246.478 135.353,-121.2 51.7372,-80.132"/>
<polygon fill="midnightblue" stroke="midnightblue" points="53.1526,-76.9278 42.6338,-75.6608 50.0666,-83.2109 53.1526,-76.9278"/>
</g>
<!-- Node4 -->
<g id="node4" class="node"><title>Node4</title>
<g id="a_node4"><a xlink:href="utilities_8h.html" target="_top" xlink:title="utilities.h">
<polygon fill="white" stroke="black" points="225,-112.5 225,-131.5 281,-131.5 281,-112.5 225,-112.5"/>
<text text-anchor="middle" x="253" y="-119.5" font-family="Helvetica,sans-Serif" font-size="10.00">utilities.h</text>
</a>
</g>
</g>
<!-- Node1&#45;&gt;Node4 -->
<g id="edge3" class="edge"><title>Node1&#45;&gt;Node4</title>
<path fill="none" stroke="midnightblue" d="M465.272,-280.309C428.983,-253.416 318.246,-171.352 272.791,-137.666"/>
<polygon fill="midnightblue" stroke="midnightblue" points="274.73,-134.747 264.612,-131.605 270.562,-140.371 274.73,-134.747"/>
</g>
<!-- Node10 -->
<g id="node10" class="node"><title>Node10</title>
<g id="a_node10"><a xlink:href="shapeFactory_8h.html" target="_top" xlink:title="shapeFactory.h">
<polygon fill="white" stroke="black" points="596,-224.5 596,-243.5 680,-243.5 680,-224.5 596,-224.5"/>
<text text-anchor="middle" x="638" y="-231.5" font-family="Helvetica,sans-Serif" font-size="10.00">shapeFactory.h</text>
</a>
</g>
</g>
<!-- Node1&#45;&gt;Node10 -->
<g id="edge11" class="edge"><title>Node1&#45;&gt;Node10</title>
<path fill="none" stroke="midnightblue" d="M502.511,-280.444C529.596,-271.359 572.59,-256.939 602.869,-246.783"/>
<polygon fill="midnightblue" stroke="midnightblue" points="604.24,-250.015 612.608,-243.516 602.014,-243.378 604.24,-250.015"/>
</g>
<!-- Node4&#45;&gt;Node2 -->
<g id="edge4" class="edge"><title>Node4&#45;&gt;Node2</title>
<path fill="none" stroke="midnightblue" d="M265.478,-112.306C286.819,-97.9214 332.177,-69.4277 375,-56 495.63,-18.1746 646.968,-11.7354 716.238,-10.9091"/>
<polygon fill="midnightblue" stroke="midnightblue" points="716.663,-14.4057 726.633,-10.8208 716.604,-7.406 716.663,-14.4057"/>
</g>
<!-- Node4&#45;&gt;Node3 -->
<g id="edge7" class="edge"><title>Node4&#45;&gt;Node3</title>
<path fill="none" stroke="midnightblue" d="M224.985,-114.787C189.056,-106.756 124.585,-92.1389 60.1482,-76.2303"/>
<polygon fill="midnightblue" stroke="midnightblue" points="60.7772,-72.7803 50.2287,-73.7708 59.0925,-79.5746 60.7772,-72.7803"/>
</g>
<!-- Node5 -->
<g id="node5" class="node"><title>Node5</title>
<polygon fill="white" stroke="#bfbfbf" points="132,-56.5 132,-75.5 182,-75.5 182,-56.5 132,-56.5"/>
<text text-anchor="middle" x="157" y="-63.5" font-family="Helvetica,sans-Serif" font-size="10.00">fstream</text>
</g>
<!-- Node4&#45;&gt;Node5 -->
<g id="edge5" class="edge"><title>Node4&#45;&gt;Node5</title>
<path fill="none" stroke="midnightblue" d="M237.576,-112.324C222.46,-103.822 199.185,-90.7288 181.529,-80.7975"/>
<polygon fill="midnightblue" stroke="midnightblue" points="182.817,-77.5066 172.386,-75.6545 179.386,-83.6077 182.817,-77.5066"/>
</g>
<!-- Node6 -->
<g id="node6" class="node"><title>Node6</title>
<polygon fill="white" stroke="#bfbfbf" points="200,-56.5 200,-75.5 252,-75.5 252,-56.5 200,-56.5"/>
<text text-anchor="middle" x="226" y="-63.5" font-family="Helvetica,sans-Serif" font-size="10.00">sstream</text>
</g>
<!-- Node4&#45;&gt;Node6 -->
<g id="edge6" class="edge"><title>Node4&#45;&gt;Node6</title>
<path fill="none" stroke="midnightblue" d="M248.541,-112.083C244.846,-104.691 239.477,-93.9533 234.906,-84.8111"/>
<polygon fill="midnightblue" stroke="midnightblue" points="237.978,-83.1301 230.376,-75.7511 231.717,-86.2606 237.978,-83.1301"/>
</g>
<!-- Node7 -->
<g id="node7" class="node"><title>Node7</title>
<polygon fill="white" stroke="#bfbfbf" points="473.5,-0.5 473.5,-19.5 514.5,-19.5 514.5,-0.5 473.5,-0.5"/>
<text text-anchor="middle" x="494" y="-7.5" font-family="Helvetica,sans-Serif" font-size="10.00">string</text>
</g>
<!-- Node4&#45;&gt;Node7 -->
<g id="edge8" class="edge"><title>Node4&#45;&gt;Node7</title>
<path fill="none" stroke="midnightblue" d="M257.313,-112.302C264.786,-98.1745 281.525,-70.3752 304,-56 353.701,-24.2108 423.642,-14.8465 463.33,-12.1089"/>
<polygon fill="midnightblue" stroke="midnightblue" points="463.669,-15.5951 473.445,-11.5108 463.255,-8.60729 463.669,-15.5951"/>
</g>
<!-- Node8 -->
<g id="node8" class="node"><title>Node8</title>
<polygon fill="white" stroke="#bfbfbf" points="68.5,-56.5 68.5,-75.5 113.5,-75.5 113.5,-56.5 68.5,-56.5"/>
<text text-anchor="middle" x="91" y="-63.5" font-family="Helvetica,sans-Serif" font-size="10.00">cstdlib</text>
</g>
<!-- Node4&#45;&gt;Node8 -->
<g id="edge9" class="edge"><title>Node4&#45;&gt;Node8</title>
<path fill="none" stroke="midnightblue" d="M227.331,-112.444C199.196,-103.065 154,-88.0001 123.434,-77.8112"/>
<polygon fill="midnightblue" stroke="midnightblue" points="124.268,-74.3999 113.674,-74.558 122.054,-81.0407 124.268,-74.3999"/>
</g>
<!-- Node9 -->
<g id="node9" class="node"><title>Node9</title>
<polygon fill="white" stroke="#bfbfbf" points="384,-56.5 384,-75.5 428,-75.5 428,-56.5 384,-56.5"/>
<text text-anchor="middle" x="406" y="-63.5" font-family="Helvetica,sans-Serif" font-size="10.00">cmath</text>
</g>
<!-- Node4&#45;&gt;Node9 -->
<g id="edge10" class="edge"><title>Node4&#45;&gt;Node9</title>
<path fill="none" stroke="midnightblue" d="M277.243,-112.444C303.474,-103.186 345.405,-88.3866 374.248,-78.2066"/>
<polygon fill="midnightblue" stroke="midnightblue" points="375.592,-81.4438 383.857,-74.8151 373.262,-74.8429 375.592,-81.4438"/>
</g>
<!-- Node10&#45;&gt;Node2 -->
<g id="edge12" class="edge"><title>Node10&#45;&gt;Node2</title>
<path fill="none" stroke="midnightblue" d="M673.862,-224.441C715.906,-212.159 783.019,-184.934 808,-132 814.293,-118.665 815.699,-79.9347 804,-56 797.99,-43.7045 787.005,-33.2362 776.859,-25.4988"/>
<polygon fill="midnightblue" stroke="midnightblue" points="778.837,-22.6109 768.661,-19.6615 774.777,-28.313 778.837,-22.6109"/>
</g>
<!-- Node11 -->
<g id="node11" class="node"><title>Node11</title>
<g id="a_node11"><a xlink:href="shape_8h.html" target="_top" xlink:title="shape.h">
<polygon fill="white" stroke="black" points="636.5,-56.5 636.5,-75.5 687.5,-75.5 687.5,-56.5 636.5,-56.5"/>
<text text-anchor="middle" x="662" y="-63.5" font-family="Helvetica,sans-Serif" font-size="10.00">shape.h</text>
</a>
</g>
</g>
<!-- Node10&#45;&gt;Node11 -->
<g id="edge13" class="edge"><title>Node10&#45;&gt;Node11</title>
<path fill="none" stroke="midnightblue" d="M643.673,-224.282C654.317,-207.344 676.935,-168.445 685,-132 686.92,-123.321 687.081,-120.642 685,-112 682.693,-102.418 677.983,-92.5813 673.422,-84.5579"/>
<polygon fill="midnightblue" stroke="midnightblue" points="676.289,-82.537 668.105,-75.8095 670.308,-86.1727 676.289,-82.537"/>
</g>
<!-- Node12 -->
<g id="node12" class="node"><title>Node12</title>
<g id="a_node12"><a xlink:href="triangle_8h.html" target="_top" xlink:title="triangle.h">
<polygon fill="white" stroke="black" points="548,-112.5 548,-131.5 604,-131.5 604,-112.5 548,-112.5"/>
<text text-anchor="middle" x="576" y="-119.5" font-family="Helvetica,sans-Serif" font-size="10.00">triangle.h</text>
</a>
</g>
</g>
<!-- Node10&#45;&gt;Node12 -->
<g id="edge16" class="edge"><title>Node10&#45;&gt;Node12</title>
<path fill="none" stroke="midnightblue" d="M633.135,-224.368C622.948,-206.296 599.209,-164.176 585.755,-140.307"/>
<polygon fill="midnightblue" stroke="midnightblue" points="588.802,-138.584 580.842,-131.591 582.704,-142.022 588.802,-138.584"/>
</g>
<!-- Node13 -->
<g id="node13" class="node"><title>Node13</title>
<g id="a_node13"><a xlink:href="rightTriangle_8h.html" target="_top" xlink:title="rightTriangle.h">
<polygon fill="white" stroke="black" points="391,-168.5 391,-187.5 469,-187.5 469,-168.5 391,-168.5"/>
<text text-anchor="middle" x="430" y="-175.5" font-family="Helvetica,sans-Serif" font-size="10.00">rightTriangle.h</text>
</a>
</g>
</g>
<!-- Node10&#45;&gt;Node13 -->
<g id="edge21" class="edge"><title>Node10&#45;&gt;Node13</title>
<path fill="none" stroke="midnightblue" d="M605.042,-224.444C569.213,-215.142 511.837,-200.246 472.609,-190.062"/>
<polygon fill="midnightblue" stroke="midnightblue" points="473.363,-186.642 462.804,-187.516 471.604,-193.417 473.363,-186.642"/>
</g>
<!-- Node14 -->
<g id="node14" class="node"><title>Node14</title>
<g id="a_node14"><a xlink:href="equilateralTriangle_8h.html" target="_top" xlink:title="equilateralTriangle.h">
<polygon fill="white" stroke="black" points="487,-168.5 487,-187.5 591,-187.5 591,-168.5 487,-168.5"/>
<text text-anchor="middle" x="539" y="-175.5" font-family="Helvetica,sans-Serif" font-size="10.00">equilateralTriangle.h</text>
</a>
</g>
</g>
<!-- Node10&#45;&gt;Node14 -->
<g id="edge26" class="edge"><title>Node10&#45;&gt;Node14</title>
<path fill="none" stroke="midnightblue" d="M622.094,-224.324C606.362,-215.743 582.058,-202.486 563.791,-192.522"/>
<polygon fill="midnightblue" stroke="midnightblue" points="565.322,-189.37 554.867,-187.655 561.97,-195.516 565.322,-189.37"/>
</g>
<!-- Node15 -->
<g id="node15" class="node"><title>Node15</title>
<g id="a_node15"><a xlink:href="square_8h.html" target="_top" xlink:title="square.h">
<polygon fill="white" stroke="black" points="622,-112.5 622,-131.5 676,-131.5 676,-112.5 622,-112.5"/>
<text text-anchor="middle" x="649" y="-119.5" font-family="Helvetica,sans-Serif" font-size="10.00">square.h</text>
</a>
</g>
</g>
<!-- Node10&#45;&gt;Node15 -->
<g id="edge31" class="edge"><title>Node10&#45;&gt;Node15</title>
<path fill="none" stroke="midnightblue" d="M638.863,-224.368C640.638,-206.617 644.733,-165.666 647.14,-141.597"/>
<polygon fill="midnightblue" stroke="midnightblue" points="650.628,-141.89 648.141,-131.591 643.663,-141.193 650.628,-141.89"/>
</g>
<!-- Node16 -->
<g id="node16" class="node"><title>Node16</title>
<g id="a_node16"><a xlink:href="circle_8h.html" target="_top" xlink:title="circle.h">
<polygon fill="white" stroke="black" points="732,-112.5 732,-131.5 780,-131.5 780,-112.5 732,-112.5"/>
<text text-anchor="middle" x="756" y="-119.5" font-family="Helvetica,sans-Serif" font-size="10.00">circle.h</text>
</a>
</g>
</g>
<!-- Node10&#45;&gt;Node16 -->
<g id="edge35" class="edge"><title>Node10&#45;&gt;Node16</title>
<path fill="none" stroke="midnightblue" d="M660.076,-224.406C677.4,-216.825 701.299,-204.426 718,-188 731.665,-174.561 742.142,-155.193 748.601,-141.097"/>
<polygon fill="midnightblue" stroke="midnightblue" points="751.981,-142.098 752.743,-131.53 745.558,-139.317 751.981,-142.098"/>
</g>
<!-- Node11&#45;&gt;Node2 -->
<g id="edge14" class="edge"><title>Node11&#45;&gt;Node2</title>
<path fill="none" stroke="midnightblue" d="M676.781,-56.324C691.267,-47.8215 713.573,-34.7288 730.493,-24.7975"/>
<polygon fill="midnightblue" stroke="midnightblue" points="732.403,-27.735 739.255,-19.6545 728.859,-21.6981 732.403,-27.735"/>
</g>
<!-- Node11&#45;&gt;Node7 -->
<g id="edge15" class="edge"><title>Node11&#45;&gt;Node7</title>
<path fill="none" stroke="midnightblue" d="M636.484,-56.7986C606.418,-47.1343 556.506,-31.0911 524.446,-20.7862"/>
<polygon fill="midnightblue" stroke="midnightblue" points="525.303,-17.3855 514.712,-17.6574 523.161,-24.0497 525.303,-17.3855"/>
</g>
<!-- Node12&#45;&gt;Node2 -->
<g id="edge17" class="edge"><title>Node12&#45;&gt;Node2</title>
<path fill="none" stroke="midnightblue" d="M580.747,-112.122C588.597,-98.2414 605.566,-71.3996 627,-56 654.036,-36.5752 690.262,-24.8404 717.105,-18.2488"/>
<polygon fill="midnightblue" stroke="midnightblue" points="717.949,-21.6461 726.894,-15.9691 716.361,-14.8285 717.949,-21.6461"/>
</g>
<!-- Node12&#45;&gt;Node7 -->
<g id="edge18" class="edge"><title>Node12&#45;&gt;Node7</title>
<path fill="none" stroke="midnightblue" d="M569.566,-112.368C555.973,-94.135 524.136,-51.4257 506.431,-27.6752"/>
<polygon fill="midnightblue" stroke="midnightblue" points="509.187,-25.5171 500.405,-19.5914 503.575,-29.7007 509.187,-25.5171"/>
</g>
<!-- Node12&#45;&gt;Node9 -->
<g id="edge19" class="edge"><title>Node12&#45;&gt;Node9</title>
<path fill="none" stroke="midnightblue" d="M549.063,-112.444C518.903,-102.863 470.062,-87.3492 437.986,-77.1604"/>
<polygon fill="midnightblue" stroke="midnightblue" points="438.796,-73.7454 428.206,-74.0537 436.677,-80.4169 438.796,-73.7454"/>
</g>
<!-- Node12&#45;&gt;Node11 -->
<g id="edge20" class="edge"><title>Node12&#45;&gt;Node11</title>
<path fill="none" stroke="midnightblue" d="M589.817,-112.324C603.233,-103.9 623.824,-90.9709 639.586,-81.0741"/>
<polygon fill="midnightblue" stroke="midnightblue" points="641.609,-83.9364 648.217,-75.6545 637.887,-78.0081 641.609,-83.9364"/>
</g>
<!-- Node13&#45;&gt;Node2 -->
<g id="edge22" class="edge"><title>Node13&#45;&gt;Node2</title>
<path fill="none" stroke="midnightblue" d="M439.877,-168.409C465.355,-146.651 536.066,-88.778 604,-56 640.63,-38.3262 685.669,-25.9421 716.782,-18.7005"/>
<polygon fill="midnightblue" stroke="midnightblue" points="717.786,-22.0618 726.767,-16.4415 716.241,-15.2344 717.786,-22.0618"/>
</g>
<!-- Node13&#45;&gt;Node7 -->
<g id="edge23" class="edge"><title>Node13&#45;&gt;Node7</title>
<path fill="none" stroke="midnightblue" d="M420.154,-168.239C398.066,-147.515 348.503,-94.3482 375,-56 394.706,-27.4797 434.978,-17.0159 463.192,-13.1882"/>
<polygon fill="midnightblue" stroke="midnightblue" points="463.811,-16.6402 473.346,-12.0223 463.012,-9.68586 463.811,-16.6402"/>
</g>
<!-- Node13&#45;&gt;Node9 -->
<g id="edge24" class="edge"><title>Node13&#45;&gt;Node9</title>
<path fill="none" stroke="midnightblue" d="M427.499,-168.423C424.919,-159.404 420.879,-144.778 418,-132 414.528,-116.588 411.32,-98.9539 409.096,-85.9451"/>
<polygon fill="midnightblue" stroke="midnightblue" points="412.514,-85.1621 407.413,-75.8759 405.609,-86.3161 412.514,-85.1621"/>
</g>
<!-- Node13&#45;&gt;Node12 -->
<g id="edge25" class="edge"><title>Node13&#45;&gt;Node12</title>
<path fill="none" stroke="midnightblue" d="M453.134,-168.444C477.482,-159.438 516.007,-145.189 543.423,-135.049"/>
<polygon fill="midnightblue" stroke="midnightblue" points="544.809,-138.268 552.974,-131.516 542.381,-131.703 544.809,-138.268"/>
</g>
<!-- Node14&#45;&gt;Node2 -->
<g id="edge27" class="edge"><title>Node14&#45;&gt;Node2</title>
<path fill="none" stroke="midnightblue" d="M591.095,-175.212C656.82,-171.733 764.284,-161.562 789,-132 814.485,-101.518 786.166,-53.356 767.578,-27.963"/>
<polygon fill="midnightblue" stroke="midnightblue" points="770.134,-25.5429 761.287,-19.7128 764.567,-29.7871 770.134,-25.5429"/>
</g>
<!-- Node14&#45;&gt;Node7 -->
<g id="edge28" class="edge"><title>Node14&#45;&gt;Node7</title>
<path fill="none" stroke="midnightblue" d="M536.581,-168.075C529.497,-141.945 508.696,-65.2106 499.036,-29.577"/>
<polygon fill="midnightblue" stroke="midnightblue" points="502.317,-28.304 496.323,-19.5681 495.561,-30.1355 502.317,-28.304"/>
</g>
<!-- Node14&#45;&gt;Node9 -->
<g id="edge29" class="edge"><title>Node14&#45;&gt;Node9</title>
<path fill="none" stroke="midnightblue" d="M517.717,-168.448C499.99,-160.659 474.71,-147.951 456,-132 439.979,-118.341 425.783,-98.7741 416.65,-84.6816"/>
<polygon fill="midnightblue" stroke="midnightblue" points="419.449,-82.5574 411.175,-75.9398 413.517,-86.2727 419.449,-82.5574"/>
</g>
<!-- Node14&#45;&gt;Node12 -->
<g id="edge30" class="edge"><title>Node14&#45;&gt;Node12</title>
<path fill="none" stroke="midnightblue" d="M545.11,-168.083C550.282,-160.534 557.846,-149.495 564.194,-140.23"/>
<polygon fill="midnightblue" stroke="midnightblue" points="567.239,-141.979 570.004,-131.751 561.464,-138.022 567.239,-141.979"/>
</g>
<!-- Node15&#45;&gt;Node2 -->
<g id="edge32" class="edge"><title>Node15&#45;&gt;Node2</title>
<path fill="none" stroke="midnightblue" d="M658.575,-112.247C668.225,-103.331 683.446,-89.0032 696,-76 711.511,-59.9343 728.425,-40.7774 739.962,-27.4398"/>
<polygon fill="midnightblue" stroke="midnightblue" points="742.832,-29.4705 746.699,-19.6065 737.525,-24.9061 742.832,-29.4705"/>
</g>
<!-- Node15&#45;&gt;Node7 -->
<g id="edge33" class="edge"><title>Node15&#45;&gt;Node7</title>
<path fill="none" stroke="midnightblue" d="M636.837,-112.368C610.353,-93.5728 547.219,-48.7684 514.479,-25.5334"/>
<polygon fill="midnightblue" stroke="midnightblue" points="516.287,-22.5246 506.106,-19.5914 512.236,-28.2332 516.287,-22.5246"/>
</g>
<!-- Node15&#45;&gt;Node11 -->
<g id="edge34" class="edge"><title>Node15&#45;&gt;Node11</title>
<path fill="none" stroke="midnightblue" d="M651.147,-112.083C652.869,-104.927 655.347,-94.6353 657.5,-85.6911"/>
<polygon fill="midnightblue" stroke="midnightblue" points="660.955,-86.2925 659.893,-75.7511 654.15,-84.6541 660.955,-86.2925"/>
</g>
<!-- Node16&#45;&gt;Node2 -->
<g id="edge36" class="edge"><title>Node16&#45;&gt;Node2</title>
<path fill="none" stroke="midnightblue" d="M759.518,-112.199C764.069,-99.7308 771.069,-76.1944 768,-56 766.632,-47.001 763.81,-37.3251 761.055,-29.2601"/>
<polygon fill="midnightblue" stroke="midnightblue" points="764.312,-27.9759 757.6,-19.7782 757.735,-30.3722 764.312,-27.9759"/>
</g>
<!-- Node16&#45;&gt;Node7 -->
<g id="edge37" class="edge"><title>Node16&#45;&gt;Node7</title>
<path fill="none" stroke="midnightblue" d="M750.548,-112.274C741.212,-98.106 720.757,-70.2499 696,-56 641.144,-24.4248 566.13,-14.9968 524.678,-12.1872"/>
<polygon fill="midnightblue" stroke="midnightblue" points="524.841,-8.69081 514.651,-11.5937 524.427,-15.6786 524.841,-8.69081"/>
</g>
<!-- Node16&#45;&gt;Node11 -->
<g id="edge38" class="edge"><title>Node16&#45;&gt;Node11</title>
<path fill="none" stroke="midnightblue" d="M740.897,-112.324C726.097,-103.822 703.306,-90.7288 686.018,-80.7975"/>
<polygon fill="midnightblue" stroke="midnightblue" points="687.48,-77.6009 677.065,-75.6545 683.993,-83.6707 687.48,-77.6009"/>
</g>
</g>
</svg>
