<?xml version="1.0" encoding="UTF-8" standalone="no"?>
<!DOCTYPE svg PUBLIC "-//W3C//DTD SVG 1.1//EN"
 "http://www.w3.org/Graphics/SVG/1.1/DTD/svg11.dtd">
<!-- Generated by graphviz version 2.36.0 (20140111.2315)
 -->
<!-- Title: shape.h Pages: 1 -->
<svg width="594pt" height="252pt"
 viewBox="0.00 0.00 593.66 252.00" xmlns="http://www.w3.org/2000/svg" xmlns:xlink="http://www.w3.org/1999/xlink">
<g id="graph0" class="graph" transform="scale(1 1) rotate(0) translate(4 248)">
<title>shape.h</title>
<polygon fill="white" stroke="none" points="-4,4 -4,-248 589.661,-248 589.661,4 -4,4"/>
<!-- Node1 -->
<g id="node1" class="node"><title>Node1</title>
<polygon fill="#bfbfbf" stroke="black" points="168.161,-224.5 168.161,-243.5 219.161,-243.5 219.161,-224.5 168.161,-224.5"/>
<text text-anchor="middle" x="193.661" y="-231.5" font-family="Helvetica,sans-Serif" font-size="10.00">shape.h</text>
</g>
<!-- Node2 -->
<g id="node2" class="node"><title>Node2</title>
<g id="a_node2"><a xlink:href="circle_8h.html" target="_top" xlink:title="circle.h">
<polygon fill="white" stroke="black" points="169.661,-168.5 169.661,-187.5 217.661,-187.5 217.661,-168.5 169.661,-168.5"/>
<text text-anchor="middle" x="193.661" y="-175.5" font-family="Helvetica,sans-Serif" font-size="10.00">circle.h</text>
</a>
</g>
</g>
<!-- Node1&#45;&gt;Node2 -->
<g id="edge1" class="edge"><title>Node1&#45;&gt;Node2</title>
<path fill="none" stroke="midnightblue" d="M193.661,-213.805C193.661,-204.91 193.661,-194.78 193.661,-187.751"/>
<polygon fill="midnightblue" stroke="midnightblue" points="190.161,-214.083 193.661,-224.083 197.161,-214.083 190.161,-214.083"/>
</g>
<!-- Node4 -->
<g id="node4" class="node"><title>Node4</title>
<g id="a_node4"><a xlink:href="shapeFactory_8h.html" target="_top" xlink:title="shapeFactory.h">
<polygon fill="white" stroke="black" points="200.661,-56.5 200.661,-75.5 284.661,-75.5 284.661,-56.5 200.661,-56.5"/>
<text text-anchor="middle" x="242.661" y="-63.5" font-family="Helvetica,sans-Serif" font-size="10.00">shapeFactory.h</text>
</a>
</g>
</g>
<!-- Node1&#45;&gt;Node4 -->
<g id="edge15" class="edge"><title>Node1&#45;&gt;Node4</title>
<path fill="none" stroke="midnightblue" d="M174.396,-217.963C146.77,-194.541 101.827,-148.271 126.661,-112 143.135,-87.938 174.493,-76.7398 200.455,-71.5295"/>
<polygon fill="midnightblue" stroke="midnightblue" points="172.366,-220.825 182.317,-224.462 176.806,-215.413 172.366,-220.825"/>
</g>
<!-- Node7 -->
<g id="node7" class="node"><title>Node7</title>
<g id="a_node7"><a xlink:href="triangle_8h.html" target="_top" xlink:title="triangle.h">
<polygon fill="white" stroke="black" points="264.661,-168.5 264.661,-187.5 320.661,-187.5 320.661,-168.5 264.661,-168.5"/>
<text text-anchor="middle" x="292.661" y="-175.5" font-family="Helvetica,sans-Serif" font-size="10.00">triangle.h</text>
</a>
</g>
</g>
<!-- Node1&#45;&gt;Node7 -->
<g id="edge6" class="edge"><title>Node1&#45;&gt;Node7</title>
<path fill="none" stroke="midnightblue" d="M218.498,-219.453C236.774,-209.483 261.076,-196.228 276.794,-187.655"/>
<polygon fill="midnightblue" stroke="midnightblue" points="216.67,-216.463 209.567,-224.324 220.022,-222.608 216.67,-216.463"/>
</g>
<!-- Node13 -->
<g id="node13" class="node"><title>Node13</title>
<g id="a_node13"><a xlink:href="square_8h.html" target="_top" xlink:title="square.h">
<polygon fill="white" stroke="black" points="19.6606,-168.5 19.6606,-187.5 73.6606,-187.5 73.6606,-168.5 19.6606,-168.5"/>
<text text-anchor="middle" x="46.6606" y="-175.5" font-family="Helvetica,sans-Serif" font-size="10.00">square.h</text>
</a>
</g>
</g>
<!-- Node1&#45;&gt;Node13 -->
<g id="edge16" class="edge"><title>Node1&#45;&gt;Node13</title>
<path fill="none" stroke="midnightblue" d="M160.738,-220.906C133.101,-210.754 94.3166,-196.506 69.8442,-187.516"/>
<polygon fill="midnightblue" stroke="midnightblue" points="159.774,-224.281 170.368,-224.444 162.188,-217.71 159.774,-224.281"/>
</g>
<!-- Node15 -->
<g id="node15" class="node"><title>Node15</title>
<g id="a_node15"><a xlink:href="shape_8cpp.html" target="_top" xlink:title="shape.cpp">
<polygon fill="white" stroke="black" points="338.661,-168.5 338.661,-187.5 400.661,-187.5 400.661,-168.5 338.661,-168.5"/>
<text text-anchor="middle" x="369.661" y="-175.5" font-family="Helvetica,sans-Serif" font-size="10.00">shape.cpp</text>
</a>
</g>
</g>
<!-- Node1&#45;&gt;Node15 -->
<g id="edge19" class="edge"><title>Node1&#45;&gt;Node15</title>
<path fill="none" stroke="midnightblue" d="M229.006,-222.155C262.19,-211.974 311.173,-196.945 341.711,-187.576"/>
<polygon fill="midnightblue" stroke="midnightblue" points="227.786,-218.869 219.252,-225.148 229.839,-225.561 227.786,-218.869"/>
</g>
<!-- Node3 -->
<g id="node3" class="node"><title>Node3</title>
<g id="a_node3"><a xlink:href="circle_8cpp.html" target="_top" xlink:title="circle.cpp">
<polygon fill="white" stroke="black" points="136.161,-112.5 136.161,-131.5 195.161,-131.5 195.161,-112.5 136.161,-112.5"/>
<text text-anchor="middle" x="165.661" y="-119.5" font-family="Helvetica,sans-Serif" font-size="10.00">circle.cpp</text>
</a>
</g>
</g>
<!-- Node2&#45;&gt;Node3 -->
<g id="edge2" class="edge"><title>Node2&#45;&gt;Node3</title>
<path fill="none" stroke="midnightblue" d="M184.318,-158.983C179.566,-149.817 174.005,-139.092 170.198,-131.751"/>
<polygon fill="midnightblue" stroke="midnightblue" points="181.327,-160.817 189.037,-168.083 187.541,-157.594 181.327,-160.817"/>
</g>
<!-- Node2&#45;&gt;Node4 -->
<g id="edge3" class="edge"><title>Node2&#45;&gt;Node4</title>
<path fill="none" stroke="midnightblue" d="M201.68,-158.998C212.371,-134.997 230.87,-93.4683 238.833,-75.5914"/>
<polygon fill="midnightblue" stroke="midnightblue" points="198.378,-157.81 197.506,-168.368 204.772,-160.658 198.378,-157.81"/>
</g>
<!-- Node5 -->
<g id="node5" class="node"><title>Node5</title>
<g id="a_node5"><a xlink:href="runShapes_8cpp.html" target="_top" xlink:title="runShapes.cpp">
<polygon fill="white" stroke="black" points="148.661,-0.5 148.661,-19.5 230.661,-19.5 230.661,-0.5 148.661,-0.5"/>
<text text-anchor="middle" x="189.661" y="-7.5" font-family="Helvetica,sans-Serif" font-size="10.00">runShapes.cpp</text>
</a>
</g>
</g>
<!-- Node4&#45;&gt;Node5 -->
<g id="edge4" class="edge"><title>Node4&#45;&gt;Node5</title>
<path fill="none" stroke="midnightblue" d="M226.68,-48.7175C217.338,-39.1997 205.915,-27.5608 198.25,-19.7511"/>
<polygon fill="midnightblue" stroke="midnightblue" points="224.406,-51.3978 233.909,-56.083 229.402,-46.4945 224.406,-51.3978"/>
</g>
<!-- Node6 -->
<g id="node6" class="node"><title>Node6</title>
<g id="a_node6"><a xlink:href="shapeFactory_8cpp.html" target="_top" xlink:title="shapeFactory.cpp">
<polygon fill="white" stroke="black" points="249.161,-0.5 249.161,-19.5 344.161,-19.5 344.161,-0.5 249.161,-0.5"/>
<text text-anchor="middle" x="296.661" y="-7.5" font-family="Helvetica,sans-Serif" font-size="10.00">shapeFactory.cpp</text>
</a>
</g>
</g>
<!-- Node4&#45;&gt;Node6 -->
<g id="edge5" class="edge"><title>Node4&#45;&gt;Node6</title>
<path fill="none" stroke="midnightblue" d="M258.658,-49.0024C268.228,-39.4329 280.022,-27.6389 287.909,-19.7511"/>
<polygon fill="midnightblue" stroke="midnightblue" points="256.174,-46.537 251.578,-56.083 261.124,-51.4868 256.174,-46.537"/>
</g>
<!-- Node7&#45;&gt;Node4 -->
<g id="edge13" class="edge"><title>Node7&#45;&gt;Node4</title>
<path fill="none" stroke="midnightblue" d="M284.478,-158.998C273.568,-134.997 254.692,-93.4683 246.566,-75.5914"/>
<polygon fill="midnightblue" stroke="midnightblue" points="281.413,-160.713 288.737,-168.368 287.785,-157.816 281.413,-160.713"/>
</g>
<!-- Node8 -->
<g id="node8" class="node"><title>Node8</title>
<g id="a_node8"><a xlink:href="equilateralTriangle_8h.html" target="_top" xlink:title="equilateralTriangle.h">
<polygon fill="white" stroke="black" points="471.661,-112.5 471.661,-131.5 575.661,-131.5 575.661,-112.5 471.661,-112.5"/>
<text text-anchor="middle" x="523.661" y="-119.5" font-family="Helvetica,sans-Serif" font-size="10.00">equilateralTriangle.h</text>
</a>
</g>
</g>
<!-- Node7&#45;&gt;Node8 -->
<g id="edge7" class="edge"><title>Node7&#45;&gt;Node8</title>
<path fill="none" stroke="midnightblue" d="M330.933,-167.715C390.755,-153.53 449.428,-139.999 486.442,-131.509"/>
<polygon fill="midnightblue" stroke="midnightblue" points="329.856,-164.374 320.935,-170.09 331.473,-171.184 329.856,-164.374"/>
</g>
<!-- Node10 -->
<g id="node10" class="node"><title>Node10</title>
<g id="a_node10"><a xlink:href="rightTriangle_8h.html" target="_top" xlink:title="rightTriangle.h">
<polygon fill="white" stroke="black" points="375.661,-112.5 375.661,-131.5 453.661,-131.5 453.661,-112.5 375.661,-112.5"/>
<text text-anchor="middle" x="414.661" y="-119.5" font-family="Helvetica,sans-Serif" font-size="10.00">rightTriangle.h</text>
</a>
</g>
</g>
<!-- Node7&#45;&gt;Node10 -->
<g id="edge10" class="edge"><title>Node7&#45;&gt;Node10</title>
<path fill="none" stroke="midnightblue" d="M321.2,-164.368C344.047,-154.255 375.466,-140.349 395.42,-131.516"/>
<polygon fill="midnightblue" stroke="midnightblue" points="319.719,-161.196 311.992,-168.444 322.553,-167.597 319.719,-161.196"/>
</g>
<!-- Node12 -->
<g id="node12" class="node"><title>Node12</title>
<g id="a_node12"><a xlink:href="triangle_8cpp.html" target="_top" xlink:title="triangle.cpp">
<polygon fill="white" stroke="black" points="290.161,-112.5 290.161,-131.5 357.161,-131.5 357.161,-112.5 290.161,-112.5"/>
<text text-anchor="middle" x="323.661" y="-119.5" font-family="Helvetica,sans-Serif" font-size="10.00">triangle.cpp</text>
</a>
</g>
</g>
<!-- Node7&#45;&gt;Node12 -->
<g id="edge14" class="edge"><title>Node7&#45;&gt;Node12</title>
<path fill="none" stroke="midnightblue" d="M302.836,-159.275C308.134,-150.045 314.378,-139.17 318.637,-131.751"/>
<polygon fill="midnightblue" stroke="midnightblue" points="299.723,-157.668 297.78,-168.083 305.794,-161.153 299.723,-157.668"/>
</g>
<!-- Node8&#45;&gt;Node4 -->
<g id="edge9" class="edge"><title>Node8&#45;&gt;Node4</title>
<path fill="none" stroke="midnightblue" d="M469.064,-110.508C415.125,-100.143 333.773,-84.5091 284.683,-75.0755"/>
<polygon fill="midnightblue" stroke="midnightblue" points="468.654,-113.993 479.135,-112.444 469.976,-107.119 468.654,-113.993"/>
</g>
<!-- Node9 -->
<g id="node9" class="node"><title>Node9</title>
<g id="a_node9"><a xlink:href="equilateralTriangle_8cpp.html" target="_top" xlink:title="equilateralTriangle.cpp">
<polygon fill="white" stroke="black" points="471.661,-56.5 471.661,-75.5 585.661,-75.5 585.661,-56.5 471.661,-56.5"/>
<text text-anchor="middle" x="528.661" y="-63.5" font-family="Helvetica,sans-Serif" font-size="10.00">equilateralTriangle.cpp</text>
</a>
</g>
</g>
<!-- Node8&#45;&gt;Node9 -->
<g id="edge8" class="edge"><title>Node8&#45;&gt;Node9</title>
<path fill="none" stroke="midnightblue" d="M525.411,-102.101C526.241,-93.1357 527.192,-82.8579 527.85,-75.7511"/>
<polygon fill="midnightblue" stroke="midnightblue" points="521.923,-101.803 524.486,-112.083 528.893,-102.448 521.923,-101.803"/>
</g>
<!-- Node10&#45;&gt;Node4 -->
<g id="edge12" class="edge"><title>Node10&#45;&gt;Node4</title>
<path fill="none" stroke="midnightblue" d="M377.828,-109.436C345.399,-99.2551 298.924,-84.664 269.787,-75.5164"/>
<polygon fill="midnightblue" stroke="midnightblue" points="376.817,-112.787 387.407,-112.444 378.914,-106.109 376.817,-112.787"/>
</g>
<!-- Node11 -->
<g id="node11" class="node"><title>Node11</title>
<g id="a_node11"><a xlink:href="rightTriangle_8cpp.html" target="_top" xlink:title="rightTriangle.cpp">
<polygon fill="white" stroke="black" points="364.161,-56.5 364.161,-75.5 453.161,-75.5 453.161,-56.5 364.161,-56.5"/>
<text text-anchor="middle" x="408.661" y="-63.5" font-family="Helvetica,sans-Serif" font-size="10.00">rightTriangle.cpp</text>
</a>
</g>
</g>
<!-- Node10&#45;&gt;Node11 -->
<g id="edge11" class="edge"><title>Node10&#45;&gt;Node11</title>
<path fill="none" stroke="midnightblue" d="M412.561,-102.101C411.565,-93.1357 410.423,-82.8579 409.633,-75.7511"/>
<polygon fill="midnightblue" stroke="midnightblue" points="409.087,-102.531 413.67,-112.083 416.044,-101.758 409.087,-102.531"/>
</g>
<!-- Node13&#45;&gt;Node4 -->
<g id="edge17" class="edge"><title>Node13&#45;&gt;Node4</title>
<path fill="none" stroke="midnightblue" d="M25.7259,-161.889C9.37016,-148.253 -8.55254,-127.945 4.66056,-112 29.0768,-82.5347 139.069,-72.2209 200.618,-68.7203"/>
<polygon fill="midnightblue" stroke="midnightblue" points="23.9353,-164.933 33.9628,-168.353 28.257,-159.426 23.9353,-164.933"/>
</g>
<!-- Node14 -->
<g id="node14" class="node"><title>Node14</title>
<g id="a_node14"><a xlink:href="square_8cpp.html" target="_top" xlink:title="square.cpp">
<polygon fill="white" stroke="black" points="14.1606,-112.5 14.1606,-131.5 79.1606,-131.5 79.1606,-112.5 14.1606,-112.5"/>
<text text-anchor="middle" x="46.6606" y="-119.5" font-family="Helvetica,sans-Serif" font-size="10.00">square.cpp</text>
</a>
</g>
</g>
<!-- Node13&#45;&gt;Node14 -->
<g id="edge18" class="edge"><title>Node13&#45;&gt;Node14</title>
<path fill="none" stroke="midnightblue" d="M46.6606,-157.805C46.6606,-148.91 46.6606,-138.78 46.6606,-131.751"/>
<polygon fill="midnightblue" stroke="midnightblue" points="43.1607,-158.083 46.6606,-168.083 50.1607,-158.083 43.1607,-158.083"/>
</g>
</g>
</svg>
