<?xml version="1.0" encoding="UTF-8" standalone="no"?>
<!DOCTYPE svg PUBLIC "-//W3C//DTD SVG 1.1//EN"
 "http://www.w3.org/Graphics/SVG/1.1/DTD/svg11.dtd">
<!-- Generated by graphviz version 2.36.0 (20140111.2315)
 -->
<!-- Title: shapeFactory.h Pages: 1 -->
<svg width="480pt" height="252pt"
 viewBox="0.00 0.00 479.50 252.00" xmlns="http://www.w3.org/2000/svg" xmlns:xlink="http://www.w3.org/1999/xlink">
<g id="graph0" class="graph" transform="scale(1 1) rotate(0) translate(4 248)">
<title>shapeFactory.h</title>
<polygon fill="white" stroke="none" points="-4,4 -4,-248 475.502,-248 475.502,4 -4,4"/>
<!-- Node1 -->
<g id="node1" class="node"><title>Node1</title>
<polygon fill="#bfbfbf" stroke="black" points="100.84,-224.5 100.84,-243.5 184.84,-243.5 184.84,-224.5 100.84,-224.5"/>
<text text-anchor="middle" x="142.84" y="-231.5" font-family="Helvetica,sans-Serif" font-size="10.00">shapeFactory.h</text>
</g>
<!-- Node2 -->
<g id="node2" class="node"><title>Node2</title>
<polygon fill="white" stroke="#bfbfbf" points="114.84,-0.5 114.84,-19.5 168.84,-19.5 168.84,-0.5 114.84,-0.5"/>
<text text-anchor="middle" x="141.84" y="-7.5" font-family="Helvetica,sans-Serif" font-size="10.00">iostream</text>
</g>
<!-- Node1&#45;&gt;Node2 -->
<g id="edge1" class="edge"><title>Node1&#45;&gt;Node2</title>
<path fill="none" stroke="midnightblue" d="M121.407,-224.495C102.826,-216.568 75.717,-203.635 54.8403,-188 27.4113,-167.458 14.5174,-163.837 1.84025,-132 -1.44808,-123.742 1.0559,-120.854 1.84025,-112 4.07118,-86.816 -4.58471,-75.2206 11.8403,-56 34.9496,-28.9573 75.1722,-18.1494 104.773,-13.8392"/>
<polygon fill="midnightblue" stroke="midnightblue" points="105.276,-17.3034 114.755,-12.5696 104.393,-10.3594 105.276,-17.3034"/>
</g>
<!-- Node3 -->
<g id="node3" class="node"><title>Node3</title>
<g id="a_node3"><a xlink:href="shape_8h.html" target="_top" xlink:title="shape.h">
<polygon fill="white" stroke="black" points="62.3403,-56.5 62.3403,-75.5 113.34,-75.5 113.34,-56.5 62.3403,-56.5"/>
<text text-anchor="middle" x="87.8403" y="-63.5" font-family="Helvetica,sans-Serif" font-size="10.00">shape.h</text>
</a>
</g>
</g>
<!-- Node1&#45;&gt;Node3 -->
<g id="edge2" class="edge"><title>Node1&#45;&gt;Node3</title>
<path fill="none" stroke="midnightblue" d="M139.588,-224.411C133.061,-207.058 118.031,-166.532 106.84,-132 101.8,-116.447 96.629,-98.6108 92.9567,-85.5615"/>
<polygon fill="midnightblue" stroke="midnightblue" points="96.3153,-84.5752 90.2602,-75.8811 89.572,-86.4536 96.3153,-84.5752"/>
</g>
<!-- Node5 -->
<g id="node5" class="node"><title>Node5</title>
<g id="a_node5"><a xlink:href="triangle_8h.html" target="_top" xlink:title="triangle.h">
<polygon fill="white" stroke="black" points="245.84,-112.5 245.84,-131.5 301.84,-131.5 301.84,-112.5 245.84,-112.5"/>
<text text-anchor="middle" x="273.84" y="-119.5" font-family="Helvetica,sans-Serif" font-size="10.00">triangle.h</text>
</a>
</g>
</g>
<!-- Node1&#45;&gt;Node5 -->
<g id="edge5" class="edge"><title>Node1&#45;&gt;Node5</title>
<path fill="none" stroke="midnightblue" d="M153.12,-224.368C175.312,-205.733 227.952,-161.532 255.817,-138.134"/>
<polygon fill="midnightblue" stroke="midnightblue" points="258.201,-140.702 263.609,-131.591 253.7,-135.342 258.201,-140.702"/>
</g>
<!-- Node7 -->
<g id="node7" class="node"><title>Node7</title>
<g id="a_node7"><a xlink:href="rightTriangle_8h.html" target="_top" xlink:title="rightTriangle.h">
<polygon fill="white" stroke="black" points="234.84,-168.5 234.84,-187.5 312.84,-187.5 312.84,-168.5 234.84,-168.5"/>
<text text-anchor="middle" x="273.84" y="-175.5" font-family="Helvetica,sans-Serif" font-size="10.00">rightTriangle.h</text>
</a>
</g>
</g>
<!-- Node1&#45;&gt;Node7 -->
<g id="edge10" class="edge"><title>Node1&#45;&gt;Node7</title>
<path fill="none" stroke="midnightblue" d="M163.598,-224.444C185.157,-215.557 219.104,-201.563 243.634,-191.451"/>
<polygon fill="midnightblue" stroke="midnightblue" points="245.269,-194.563 253.18,-187.516 242.601,-188.092 245.269,-194.563"/>
</g>
<!-- Node8 -->
<g id="node8" class="node"><title>Node8</title>
<g id="a_node8"><a xlink:href="equilateralTriangle_8h.html" target="_top" xlink:title="equilateralTriangle.h">
<polygon fill="white" stroke="black" points="353.84,-168.5 353.84,-187.5 457.84,-187.5 457.84,-168.5 353.84,-168.5"/>
<text text-anchor="middle" x="405.84" y="-175.5" font-family="Helvetica,sans-Serif" font-size="10.00">equilateralTriangle.h</text>
</a>
</g>
</g>
<!-- Node1&#45;&gt;Node8 -->
<g id="edge15" class="edge"><title>Node1&#45;&gt;Node8</title>
<path fill="none" stroke="midnightblue" d="M184.513,-224.444C230.585,-214.984 304.837,-199.738 354.471,-189.547"/>
<polygon fill="midnightblue" stroke="midnightblue" points="355.27,-192.956 364.362,-187.516 353.862,-186.099 355.27,-192.956"/>
</g>
<!-- Node9 -->
<g id="node9" class="node"><title>Node9</title>
<g id="a_node9"><a xlink:href="square_8h.html" target="_top" xlink:title="square.h">
<polygon fill="white" stroke="black" points="115.84,-112.5 115.84,-131.5 169.84,-131.5 169.84,-112.5 115.84,-112.5"/>
<text text-anchor="middle" x="142.84" y="-119.5" font-family="Helvetica,sans-Serif" font-size="10.00">square.h</text>
</a>
</g>
</g>
<!-- Node1&#45;&gt;Node9 -->
<g id="edge20" class="edge"><title>Node1&#45;&gt;Node9</title>
<path fill="none" stroke="midnightblue" d="M142.84,-224.368C142.84,-206.617 142.84,-165.666 142.84,-141.597"/>
<polygon fill="midnightblue" stroke="midnightblue" points="146.34,-141.591 142.84,-131.591 139.34,-141.591 146.34,-141.591"/>
</g>
<!-- Node10 -->
<g id="node10" class="node"><title>Node10</title>
<g id="a_node10"><a xlink:href="circle_8h.html" target="_top" xlink:title="circle.h">
<polygon fill="white" stroke="black" points="10.8403,-112.5 10.8403,-131.5 58.8403,-131.5 58.8403,-112.5 10.8403,-112.5"/>
<text text-anchor="middle" x="34.8403" y="-119.5" font-family="Helvetica,sans-Serif" font-size="10.00">circle.h</text>
</a>
</g>
</g>
<!-- Node1&#45;&gt;Node10 -->
<g id="edge24" class="edge"><title>Node1&#45;&gt;Node10</title>
<path fill="none" stroke="midnightblue" d="M125.1,-224.349C110.136,-216.415 88.8217,-203.554 73.8403,-188 60.4697,-174.119 49.6334,-154.847 42.8076,-140.895"/>
<polygon fill="midnightblue" stroke="midnightblue" points="45.9746,-139.405 38.5674,-131.829 39.6339,-142.371 45.9746,-139.405"/>
</g>
<!-- Node3&#45;&gt;Node2 -->
<g id="edge3" class="edge"><title>Node3&#45;&gt;Node2</title>
<path fill="none" stroke="midnightblue" d="M96.7573,-56.083C104.621,-48.2195 116.271,-36.5688 125.759,-27.0813"/>
<polygon fill="midnightblue" stroke="midnightblue" points="128.493,-29.2971 133.089,-19.7511 123.543,-24.3473 128.493,-29.2971"/>
</g>
<!-- Node4 -->
<g id="node4" class="node"><title>Node4</title>
<polygon fill="white" stroke="#bfbfbf" points="230.34,-0.5 230.34,-19.5 271.34,-19.5 271.34,-0.5 230.34,-0.5"/>
<text text-anchor="middle" x="250.84" y="-7.5" font-family="Helvetica,sans-Serif" font-size="10.00">string</text>
</g>
<!-- Node3&#45;&gt;Node4 -->
<g id="edge4" class="edge"><title>Node3&#45;&gt;Node4</title>
<path fill="none" stroke="midnightblue" d="M113.668,-56.4435C142.703,-46.8247 189.794,-31.2238 220.543,-21.0372"/>
<polygon fill="midnightblue" stroke="midnightblue" points="221.902,-24.2739 230.294,-17.8067 219.701,-17.6291 221.902,-24.2739"/>
</g>
<!-- Node5&#45;&gt;Node2 -->
<g id="edge6" class="edge"><title>Node5&#45;&gt;Node2</title>
<path fill="none" stroke="midnightblue" d="M270.112,-112.381C263.896,-98.8565 250.256,-72.4931 231.84,-56 215.919,-41.7411 194.661,-30.8333 176.802,-23.3302"/>
<polygon fill="midnightblue" stroke="midnightblue" points="177.87,-19.9876 167.286,-19.5125 175.264,-26.4843 177.87,-19.9876"/>
</g>
<!-- Node5&#45;&gt;Node3 -->
<g id="edge9" class="edge"><title>Node5&#45;&gt;Node3</title>
<path fill="none" stroke="midnightblue" d="M245.591,-112.799C212.847,-103.292 158.844,-87.614 123.305,-77.2962"/>
<polygon fill="midnightblue" stroke="midnightblue" points="123.938,-73.8354 113.358,-74.4085 121.986,-80.5579 123.938,-73.8354"/>
</g>
<!-- Node5&#45;&gt;Node4 -->
<g id="edge7" class="edge"><title>Node5&#45;&gt;Node4</title>
<path fill="none" stroke="midnightblue" d="M274.221,-112.454C274.578,-99.8988 274.489,-75.8127 269.84,-56 267.661,-46.7119 263.728,-36.8968 260.003,-28.8116"/>
<polygon fill="midnightblue" stroke="midnightblue" points="263.072,-27.1206 255.544,-19.6654 256.78,-30.188 263.072,-27.1206"/>
</g>
<!-- Node6 -->
<g id="node6" class="node"><title>Node6</title>
<polygon fill="white" stroke="#bfbfbf" points="359.84,-56.5 359.84,-75.5 403.84,-75.5 403.84,-56.5 359.84,-56.5"/>
<text text-anchor="middle" x="381.84" y="-63.5" font-family="Helvetica,sans-Serif" font-size="10.00">cmath</text>
</g>
<!-- Node5&#45;&gt;Node6 -->
<g id="edge8" class="edge"><title>Node5&#45;&gt;Node6</title>
<path fill="none" stroke="midnightblue" d="M291.192,-112.324C308.512,-103.664 335.356,-90.2424 355.342,-80.249"/>
<polygon fill="midnightblue" stroke="midnightblue" points="357.152,-83.2572 364.531,-75.6545 354.022,-76.9962 357.152,-83.2572"/>
</g>
<!-- Node7&#45;&gt;Node2 -->
<g id="edge11" class="edge"><title>Node7&#45;&gt;Node2</title>
<path fill="none" stroke="midnightblue" d="M266.689,-168.42C259.194,-159.4 247.103,-144.773 236.84,-132 207.156,-95.0564 172.98,-51.1928 154.801,-27.752"/>
<polygon fill="midnightblue" stroke="midnightblue" points="157.346,-25.3224 148.455,-19.5607 151.812,-29.6094 157.346,-25.3224"/>
</g>
<!-- Node7&#45;&gt;Node4 -->
<g id="edge12" class="edge"><title>Node7&#45;&gt;Node4</title>
<path fill="none" stroke="midnightblue" d="M284.002,-168.185C292.749,-159.87 304.74,-146.539 309.84,-132 312.783,-123.612 311.628,-120.707 309.84,-112 304.396,-85.4747 299.599,-79.3226 285.84,-56 279.943,-46.0035 272.105,-35.723 265.341,-27.5162"/>
<polygon fill="midnightblue" stroke="midnightblue" points="267.945,-25.1756 258.807,-19.8133 262.607,-29.7035 267.945,-25.1756"/>
</g>
<!-- Node7&#45;&gt;Node5 -->
<g id="edge14" class="edge"><title>Node7&#45;&gt;Node5</title>
<path fill="none" stroke="midnightblue" d="M273.84,-168.083C273.84,-161.006 273.84,-150.861 273.84,-141.986"/>
<polygon fill="midnightblue" stroke="midnightblue" points="277.34,-141.751 273.84,-131.751 270.34,-141.751 277.34,-141.751"/>
</g>
<!-- Node7&#45;&gt;Node6 -->
<g id="edge13" class="edge"><title>Node7&#45;&gt;Node6</title>
<path fill="none" stroke="midnightblue" d="M291.889,-168.447C307.103,-160.575 328.744,-147.749 343.84,-132 356.959,-118.314 367.41,-99.2731 374.005,-85.3371"/>
<polygon fill="midnightblue" stroke="midnightblue" points="377.363,-86.4039 378.277,-75.8486 370.98,-83.53 377.363,-86.4039"/>
</g>
<!-- Node8&#45;&gt;Node2 -->
<g id="edge16" class="edge"><title>Node8&#45;&gt;Node2</title>
<path fill="none" stroke="midnightblue" d="M409.778,-168.424C419.097,-146.7 439.71,-88.8992 411.84,-56 404.356,-47.1655 251.749,-25.6972 179.345,-15.9548"/>
<polygon fill="midnightblue" stroke="midnightblue" points="179.648,-12.4641 169.271,-14.6054 178.718,-19.4022 179.648,-12.4641"/>
</g>
<!-- Node8&#45;&gt;Node4 -->
<g id="edge17" class="edge"><title>Node8&#45;&gt;Node4</title>
<path fill="none" stroke="midnightblue" d="M421.624,-168.467C434.043,-160.769 450.445,-148.179 457.84,-132 471.882,-101.279 479.037,-82.2993 457.84,-56 436.033,-28.9433 333.619,-17.3108 281.49,-13.0745"/>
<polygon fill="midnightblue" stroke="midnightblue" points="281.714,-9.58149 271.474,-12.3016 281.175,-16.5607 281.714,-9.58149"/>
</g>
<!-- Node8&#45;&gt;Node5 -->
<g id="edge19" class="edge"><title>Node8&#45;&gt;Node5</title>
<path fill="none" stroke="midnightblue" d="M384.924,-168.444C363.104,-159.517 328.69,-145.439 303.948,-135.317"/>
<polygon fill="midnightblue" stroke="midnightblue" points="305.239,-132.063 294.658,-131.516 302.588,-138.542 305.239,-132.063"/>
</g>
<!-- Node8&#45;&gt;Node6 -->
<g id="edge18" class="edge"><title>Node8&#45;&gt;Node6</title>
<path fill="none" stroke="midnightblue" d="M403.957,-168.368C400.084,-150.617 391.149,-109.666 385.898,-85.5974"/>
<polygon fill="midnightblue" stroke="midnightblue" points="389.266,-84.6155 383.715,-75.5914 382.427,-86.1077 389.266,-84.6155"/>
</g>
<!-- Node9&#45;&gt;Node2 -->
<g id="edge21" class="edge"><title>Node9&#45;&gt;Node2</title>
<path fill="none" stroke="midnightblue" d="M142.762,-112.368C142.6,-94.617 142.228,-53.6664 142.009,-29.5974"/>
<polygon fill="midnightblue" stroke="midnightblue" points="145.509,-29.5592 141.918,-19.5914 138.51,-29.6229 145.509,-29.5592"/>
</g>
<!-- Node9&#45;&gt;Node3 -->
<g id="edge23" class="edge"><title>Node9&#45;&gt;Node3</title>
<path fill="none" stroke="midnightblue" d="M133.758,-112.083C125.669,-104.141 113.645,-92.3354 103.93,-82.7973"/>
<polygon fill="midnightblue" stroke="midnightblue" points="106.341,-80.2595 96.7534,-75.7511 101.437,-85.2545 106.341,-80.2595"/>
</g>
<!-- Node9&#45;&gt;Node4 -->
<g id="edge22" class="edge"><title>Node9&#45;&gt;Node4</title>
<path fill="none" stroke="midnightblue" d="M151.315,-112.368C169.453,-93.8941 212.262,-50.2926 235.383,-26.7436"/>
<polygon fill="midnightblue" stroke="midnightblue" points="237.897,-29.1792 242.405,-19.5914 232.902,-24.275 237.897,-29.1792"/>
</g>
<!-- Node10&#45;&gt;Node2 -->
<g id="edge25" class="edge"><title>Node10&#45;&gt;Node2</title>
<path fill="none" stroke="midnightblue" d="M28.7835,-112.181C20.4538,-98.8501 7.78761,-73.292 19.8403,-56 38.8103,-28.7835 76.2025,-17.9852 104.616,-13.7242"/>
<polygon fill="midnightblue" stroke="midnightblue" points="105.157,-17.1834 114.627,-12.4318 104.261,-10.241 105.157,-17.1834"/>
</g>
<!-- Node10&#45;&gt;Node3 -->
<g id="edge27" class="edge"><title>Node10&#45;&gt;Node3</title>
<path fill="none" stroke="midnightblue" d="M43.5921,-112.083C51.31,-104.22 62.7449,-92.5688 72.0568,-83.0813"/>
<polygon fill="midnightblue" stroke="midnightblue" points="74.7444,-85.3396 79.2512,-75.7511 69.7486,-80.4363 74.7444,-85.3396"/>
</g>
<!-- Node10&#45;&gt;Node4 -->
<g id="edge26" class="edge"><title>Node10&#45;&gt;Node4</title>
<path fill="none" stroke="midnightblue" d="M34.6077,-112.451C34.7218,-98.5363 37.0846,-71.0369 52.8403,-56 64.9183,-44.4729 167.554,-25.3625 220.102,-16.2054"/>
<polygon fill="midnightblue" stroke="midnightblue" points="220.945,-19.6116 230.204,-14.4602 219.754,-12.7138 220.945,-19.6116"/>
</g>
</g>
</svg>
