<?xml version="1.0" encoding="UTF-8" standalone="no"?>
<!DOCTYPE svg PUBLIC "-//W3C//DTD SVG 1.1//EN"
 "http://www.w3.org/Graphics/SVG/1.1/DTD/svg11.dtd">
<!-- Generated by graphviz version 2.36.0 (20140111.2315)
 -->
<!-- Title: triangle.h Pages: 1 -->
<svg width="173pt" height="140pt"
 viewBox="0.00 0.00 173.00 140.00" xmlns="http://www.w3.org/2000/svg" xmlns:xlink="http://www.w3.org/1999/xlink">
<g id="graph0" class="graph" transform="scale(1 1) rotate(0) translate(4 136)">
<title>triangle.h</title>
<polygon fill="white" stroke="none" points="-4,4 -4,-136 169,-136 169,4 -4,4"/>
<!-- Node1 -->
<g id="node1" class="node"><title>Node1</title>
<polygon fill="#bfbfbf" stroke="black" points="60,-112.5 60,-131.5 116,-131.5 116,-112.5 60,-112.5"/>
<text text-anchor="middle" x="88" y="-119.5" font-family="Helvetica,sans-Serif" font-size="10.00">triangle.h</text>
</g>
<!-- Node2 -->
<g id="node2" class="node"><title>Node2</title>
<polygon fill="white" stroke="#bfbfbf" points="0,-0.5 0,-19.5 54,-19.5 54,-0.5 0,-0.5"/>
<text text-anchor="middle" x="27" y="-7.5" font-family="Helvetica,sans-Serif" font-size="10.00">iostream</text>
</g>
<!-- Node1&#45;&gt;Node2 -->
<g id="edge1" class="edge"><title>Node1&#45;&gt;Node2</title>
<path fill="none" stroke="midnightblue" d="M64.5459,-112.408C48.8389,-105.28 29.3815,-93.4581 20,-76 12.2845,-61.6421 15.4282,-42.9381 19.6757,-29.2823"/>
<polygon fill="midnightblue" stroke="midnightblue" points="23.0689,-30.1871 23.1324,-19.5925 16.4758,-27.8351 23.0689,-30.1871"/>
</g>
<!-- Node3 -->
<g id="node3" class="node"><title>Node3</title>
<polygon fill="white" stroke="#bfbfbf" points="124.5,-0.5 124.5,-19.5 165.5,-19.5 165.5,-0.5 124.5,-0.5"/>
<text text-anchor="middle" x="145" y="-7.5" font-family="Helvetica,sans-Serif" font-size="10.00">string</text>
</g>
<!-- Node1&#45;&gt;Node3 -->
<g id="edge2" class="edge"><title>Node1&#45;&gt;Node3</title>
<path fill="none" stroke="midnightblue" d="M108.847,-112.427C123.578,-105.129 142.205,-93.0905 151,-76 158.447,-61.529 155.651,-42.8387 151.76,-29.2169"/>
<polygon fill="midnightblue" stroke="midnightblue" points="155.031,-27.9607 148.58,-19.5565 148.382,-30.1495 155.031,-27.9607"/>
</g>
<!-- Node4 -->
<g id="node4" class="node"><title>Node4</title>
<polygon fill="white" stroke="#bfbfbf" points="99,-56.5 99,-75.5 143,-75.5 143,-56.5 99,-56.5"/>
<text text-anchor="middle" x="121" y="-63.5" font-family="Helvetica,sans-Serif" font-size="10.00">cmath</text>
</g>
<!-- Node1&#45;&gt;Node4 -->
<g id="edge3" class="edge"><title>Node1&#45;&gt;Node4</title>
<path fill="none" stroke="midnightblue" d="M93.4493,-112.083C98.0145,-104.613 104.668,-93.7244 110.293,-84.5199"/>
<polygon fill="midnightblue" stroke="midnightblue" points="113.424,-86.109 115.652,-75.7511 107.451,-82.4588 113.424,-86.109"/>
</g>
<!-- Node5 -->
<g id="node5" class="node"><title>Node5</title>
<g id="a_node5"><a xlink:href="shape_8h.html" target="_top" xlink:title="shape.h">
<polygon fill="white" stroke="black" points="29.5,-56.5 29.5,-75.5 80.5,-75.5 80.5,-56.5 29.5,-56.5"/>
<text text-anchor="middle" x="55" y="-63.5" font-family="Helvetica,sans-Serif" font-size="10.00">shape.h</text>
</a>
</g>
</g>
<!-- Node1&#45;&gt;Node5 -->
<g id="edge4" class="edge"><title>Node1&#45;&gt;Node5</title>
<path fill="none" stroke="midnightblue" d="M82.5507,-112.083C77.9855,-104.613 71.3316,-93.7244 65.7066,-84.5199"/>
<polygon fill="midnightblue" stroke="midnightblue" points="68.5489,-82.4588 60.3479,-75.7511 62.5759,-86.109 68.5489,-82.4588"/>
</g>
<!-- Node5&#45;&gt;Node2 -->
<g id="edge5" class="edge"><title>Node5&#45;&gt;Node2</title>
<path fill="none" stroke="midnightblue" d="M50.3764,-56.083C46.5437,-48.6913 40.9758,-37.9533 36.2354,-28.8111"/>
<polygon fill="midnightblue" stroke="midnightblue" points="39.248,-27.0175 31.5376,-19.7511 33.0337,-30.2398 39.248,-27.0175"/>
</g>
<!-- Node5&#45;&gt;Node3 -->
<g id="edge6" class="edge"><title>Node5&#45;&gt;Node3</title>
<path fill="none" stroke="midnightblue" d="M69.4601,-56.324C83.4996,-47.9002 105.048,-34.9709 121.543,-25.0741"/>
<polygon fill="midnightblue" stroke="midnightblue" points="123.802,-27.8007 130.576,-19.6545 120.2,-21.7983 123.802,-27.8007"/>
</g>
</g>
</svg>
