<?xml version="1.0" encoding="UTF-8" standalone="no"?>
<!DOCTYPE svg PUBLIC "-//W3C//DTD SVG 1.1//EN"
 "http://www.w3.org/Graphics/SVG/1.1/DTD/svg11.dtd">
<!-- Generated by graphviz version 2.36.0 (20140111.2315)
 -->
<!-- Title: triangle.cpp Pages: 1 -->
<svg width="182pt" height="196pt"
 viewBox="0.00 0.00 182.00 196.00" xmlns="http://www.w3.org/2000/svg" xmlns:xlink="http://www.w3.org/1999/xlink">
<g id="graph0" class="graph" transform="scale(1 1) rotate(0) translate(4 192)">
<title>triangle.cpp</title>
<polygon fill="white" stroke="none" points="-4,4 -4,-192 178,-192 178,4 -4,4"/>
<!-- Node1 -->
<g id="node1" class="node"><title>Node1</title>
<polygon fill="#bfbfbf" stroke="black" points="26.5,-168.5 26.5,-187.5 93.5,-187.5 93.5,-168.5 26.5,-168.5"/>
<text text-anchor="middle" x="60" y="-175.5" font-family="Helvetica,sans-Serif" font-size="10.00">triangle.cpp</text>
</g>
<!-- Node2 -->
<g id="node2" class="node"><title>Node2</title>
<polygon fill="white" stroke="#bfbfbf" points="0,-112.5 0,-131.5 50,-131.5 50,-112.5 0,-112.5"/>
<text text-anchor="middle" x="25" y="-119.5" font-family="Helvetica,sans-Serif" font-size="10.00">iomanip</text>
</g>
<!-- Node1&#45;&gt;Node2 -->
<g id="edge1" class="edge"><title>Node1&#45;&gt;Node2</title>
<path fill="none" stroke="midnightblue" d="M54.2205,-168.083C49.3276,-160.534 42.1726,-149.495 36.1674,-140.23"/>
<polygon fill="midnightblue" stroke="midnightblue" points="39.048,-138.239 30.672,-131.751 33.174,-142.046 39.048,-138.239"/>
</g>
<!-- Node3 -->
<g id="node3" class="node"><title>Node3</title>
<g id="a_node3"><a xlink:href="triangle_8h.html" target="_top" xlink:title="triangle.h">
<polygon fill="white" stroke="black" points="68,-112.5 68,-131.5 124,-131.5 124,-112.5 68,-112.5"/>
<text text-anchor="middle" x="96" y="-119.5" font-family="Helvetica,sans-Serif" font-size="10.00">triangle.h</text>
</a>
</g>
</g>
<!-- Node1&#45;&gt;Node3 -->
<g id="edge2" class="edge"><title>Node1&#45;&gt;Node3</title>
<path fill="none" stroke="midnightblue" d="M65.9447,-168.083C70.9773,-160.534 78.3368,-149.495 84.5135,-140.23"/>
<polygon fill="midnightblue" stroke="midnightblue" points="87.5311,-142.013 90.1659,-131.751 81.7067,-138.13 87.5311,-142.013"/>
</g>
<!-- Node4 -->
<g id="node4" class="node"><title>Node4</title>
<polygon fill="white" stroke="#bfbfbf" points="8,-0.5 8,-19.5 62,-19.5 62,-0.5 8,-0.5"/>
<text text-anchor="middle" x="35" y="-7.5" font-family="Helvetica,sans-Serif" font-size="10.00">iostream</text>
</g>
<!-- Node3&#45;&gt;Node4 -->
<g id="edge3" class="edge"><title>Node3&#45;&gt;Node4</title>
<path fill="none" stroke="midnightblue" d="M72.5459,-112.408C56.8389,-105.28 37.3815,-93.4581 28,-76 20.2845,-61.6421 23.4282,-42.9381 27.6757,-29.2823"/>
<polygon fill="midnightblue" stroke="midnightblue" points="31.0689,-30.1871 31.1324,-19.5925 24.4758,-27.8351 31.0689,-30.1871"/>
</g>
<!-- Node5 -->
<g id="node5" class="node"><title>Node5</title>
<polygon fill="white" stroke="#bfbfbf" points="132.5,-0.5 132.5,-19.5 173.5,-19.5 173.5,-0.5 132.5,-0.5"/>
<text text-anchor="middle" x="153" y="-7.5" font-family="Helvetica,sans-Serif" font-size="10.00">string</text>
</g>
<!-- Node3&#45;&gt;Node5 -->
<g id="edge4" class="edge"><title>Node3&#45;&gt;Node5</title>
<path fill="none" stroke="midnightblue" d="M116.847,-112.427C131.578,-105.129 150.205,-93.0905 159,-76 166.447,-61.529 163.651,-42.8387 159.76,-29.2169"/>
<polygon fill="midnightblue" stroke="midnightblue" points="163.031,-27.9607 156.58,-19.5565 156.382,-30.1495 163.031,-27.9607"/>
</g>
<!-- Node6 -->
<g id="node6" class="node"><title>Node6</title>
<polygon fill="white" stroke="#bfbfbf" points="107,-56.5 107,-75.5 151,-75.5 151,-56.5 107,-56.5"/>
<text text-anchor="middle" x="129" y="-63.5" font-family="Helvetica,sans-Serif" font-size="10.00">cmath</text>
</g>
<!-- Node3&#45;&gt;Node6 -->
<g id="edge5" class="edge"><title>Node3&#45;&gt;Node6</title>
<path fill="none" stroke="midnightblue" d="M101.449,-112.083C106.014,-104.613 112.668,-93.7244 118.293,-84.5199"/>
<polygon fill="midnightblue" stroke="midnightblue" points="121.424,-86.109 123.652,-75.7511 115.451,-82.4588 121.424,-86.109"/>
</g>
<!-- Node7 -->
<g id="node7" class="node"><title>Node7</title>
<g id="a_node7"><a xlink:href="shape_8h.html" target="_top" xlink:title="shape.h">
<polygon fill="white" stroke="black" points="37.5,-56.5 37.5,-75.5 88.5,-75.5 88.5,-56.5 37.5,-56.5"/>
<text text-anchor="middle" x="63" y="-63.5" font-family="Helvetica,sans-Serif" font-size="10.00">shape.h</text>
</a>
</g>
</g>
<!-- Node3&#45;&gt;Node7 -->
<g id="edge6" class="edge"><title>Node3&#45;&gt;Node7</title>
<path fill="none" stroke="midnightblue" d="M90.5507,-112.083C85.9855,-104.613 79.3316,-93.7244 73.7066,-84.5199"/>
<polygon fill="midnightblue" stroke="midnightblue" points="76.5489,-82.4588 68.3479,-75.7511 70.5759,-86.109 76.5489,-82.4588"/>
</g>
<!-- Node7&#45;&gt;Node4 -->
<g id="edge7" class="edge"><title>Node7&#45;&gt;Node4</title>
<path fill="none" stroke="midnightblue" d="M58.3764,-56.083C54.5437,-48.6913 48.9758,-37.9533 44.2354,-28.8111"/>
<polygon fill="midnightblue" stroke="midnightblue" points="47.248,-27.0175 39.5376,-19.7511 41.0337,-30.2398 47.248,-27.0175"/>
</g>
<!-- Node7&#45;&gt;Node5 -->
<g id="edge8" class="edge"><title>Node7&#45;&gt;Node5</title>
<path fill="none" stroke="midnightblue" d="M77.4601,-56.324C91.4996,-47.9002 113.048,-34.9709 129.543,-25.0741"/>
<polygon fill="midnightblue" stroke="midnightblue" points="131.802,-27.8007 138.576,-19.6545 128.2,-21.7983 131.802,-27.8007"/>
</g>
</g>
</svg>
