<?xml version="1.0" encoding="UTF-8" standalone="no"?>
<!DOCTYPE svg PUBLIC "-//W3C//DTD SVG 1.1//EN"
 "http://www.w3.org/Graphics/SVG/1.1/DTD/svg11.dtd">
<!-- Generated by graphviz version 2.36.0 (20140111.2315)
 -->
<!-- Title: House::House Pages: 1 -->
<svg width="218pt" height="66pt"
 viewBox="0.00 0.00 218.00 66.00" xmlns="http://www.w3.org/2000/svg" xmlns:xlink="http://www.w3.org/1999/xlink">
<g id="graph0" class="graph" transform="scale(1 1) rotate(0) translate(4 62)">
<title>House::House</title>
<polygon fill="white" stroke="none" points="-4,4 -4,-62 214,-62 214,4 -4,4"/>
<!-- Node1 -->
<g id="node1" class="node"><title>Node1</title>
<polygon fill="#bfbfbf" stroke="black" points="0,-19.5 0,-38.5 80,-38.5 80,-19.5 0,-19.5"/>
<text text-anchor="middle" x="40" y="-26.5" font-family="Helvetica,sans-Serif" font-size="10.00">House::House</text>
</g>
<!-- Node2 -->
<g id="node2" class="node"><title>Node2</title>
<g id="a_node2"><a xlink:href="classHouse.html#ade9f3a768375a32eea123837de86e516" target="_top" xlink:title="House::size">
<polygon fill="white" stroke="black" points="128.5,-38.5 128.5,-57.5 197.5,-57.5 197.5,-38.5 128.5,-38.5"/>
<text text-anchor="middle" x="163" y="-45.5" font-family="Helvetica,sans-Serif" font-size="10.00">House::size</text>
</a>
</g>
</g>
<!-- Node1&#45;&gt;Node2 -->
<g id="edge1" class="edge"><title>Node1&#45;&gt;Node2</title>
<path fill="none" stroke="midnightblue" d="M80.2852,-35.1688C92.3613,-37.065 105.729,-39.164 118.094,-41.1056"/>
<polygon fill="midnightblue" stroke="midnightblue" points="117.772,-44.598 128.194,-42.6917 118.858,-37.6827 117.772,-44.598"/>
</g>
<!-- Node3 -->
<g id="node3" class="node"><title>Node3</title>
<g id="a_node3"><a xlink:href="classHouse.html#a13cbcc156df50cd85dfe7a8fde385df4" target="_top" xlink:title="House::addRoom">
<polygon fill="white" stroke="black" points="116.5,-0.5 116.5,-19.5 209.5,-19.5 209.5,-0.5 116.5,-0.5"/>
<text text-anchor="middle" x="163" y="-7.5" font-family="Helvetica,sans-Serif" font-size="10.00">House::addRoom</text>
</a>
</g>
</g>
<!-- Node1&#45;&gt;Node3 -->
<g id="edge2" class="edge"><title>Node1&#45;&gt;Node3</title>
<path fill="none" stroke="midnightblue" d="M80.2852,-22.8312C88.5185,-21.5384 97.352,-20.1513 106.059,-18.7841"/>
<polygon fill="midnightblue" stroke="midnightblue" points="106.842,-22.2041 116.178,-17.1951 105.756,-15.2888 106.842,-22.2041"/>
</g>
</g>
</svg>
