<?xml version="1.0" encoding="UTF-8" standalone="no"?>
<!DOCTYPE svg PUBLIC "-//W3C//DTD SVG 1.1//EN"
 "http://www.w3.org/Graphics/SVG/1.1/DTD/svg11.dtd">
<!-- Generated by graphviz version 2.36.0 (20140111.2315)
 -->
<!-- Title: House Pages: 1 -->
<svg width="219pt" height="676pt"
 viewBox="0.00 0.00 219.00 676.00" xmlns="http://www.w3.org/2000/svg" xmlns:xlink="http://www.w3.org/1999/xlink">
<g id="graph0" class="graph" transform="scale(1 1) rotate(0) translate(4 672)">
<title>House</title>
<polygon fill="white" stroke="none" points="-4,4 -4,-672 215,-672 215,4 -4,4"/>
<!-- Node1 -->
<g id="node1" class="node"><title>Node1</title>
<polygon fill="#bfbfbf" stroke="black" points="72.5,-1 72.5,-223 151.5,-223 151.5,-1 72.5,-1"/>
<text text-anchor="middle" x="112" y="-211" font-family="Helvetica,sans-Serif" font-size="10.00">House</text>
<polyline fill="none" stroke="black" points="72.5,-204 151.5,-204 "/>
<text text-anchor="start" x="80.5" y="-192" font-family="Helvetica,sans-Serif" font-size="10.00">&#45; name</text>
<text text-anchor="start" x="80.5" y="-181" font-family="Helvetica,sans-Serif" font-size="10.00">&#45; currentSize</text>
<polyline fill="none" stroke="black" points="72.5,-174 151.5,-174 "/>
<text text-anchor="start" x="80.5" y="-162" font-family="Helvetica,sans-Serif" font-size="10.00">+ House()</text>
<text text-anchor="start" x="80.5" y="-151" font-family="Helvetica,sans-Serif" font-size="10.00">+ House()</text>
<text text-anchor="start" x="80.5" y="-140" font-family="Helvetica,sans-Serif" font-size="10.00">+ House()</text>
<text text-anchor="start" x="80.5" y="-129" font-family="Helvetica,sans-Serif" font-size="10.00">+ ~House()</text>
<text text-anchor="start" x="80.5" y="-118" font-family="Helvetica,sans-Serif" font-size="10.00">+ addRoom()</text>
<text text-anchor="start" x="80.5" y="-107" font-family="Helvetica,sans-Serif" font-size="10.00">+ setName()</text>
<text text-anchor="start" x="80.5" y="-96" font-family="Helvetica,sans-Serif" font-size="10.00">+ getName()</text>
<text text-anchor="start" x="80.5" y="-85" font-family="Helvetica,sans-Serif" font-size="10.00">+ begin()</text>
<text text-anchor="start" x="80.5" y="-74" font-family="Helvetica,sans-Serif" font-size="10.00">+ begin()</text>
<text text-anchor="start" x="80.5" y="-63" font-family="Helvetica,sans-Serif" font-size="10.00">+ end()</text>
<text text-anchor="start" x="80.5" y="-52" font-family="Helvetica,sans-Serif" font-size="10.00">+ end()</text>
<text text-anchor="start" x="80.5" y="-41" font-family="Helvetica,sans-Serif" font-size="10.00">+ size()</text>
<text text-anchor="start" x="80.5" y="-30" font-family="Helvetica,sans-Serif" font-size="10.00">+ display()</text>
<text text-anchor="start" x="80.5" y="-19" font-family="Helvetica,sans-Serif" font-size="10.00">+ operator=()</text>
<text text-anchor="start" x="80.5" y="-8" font-family="Helvetica,sans-Serif" font-size="10.00">+ operator==()</text>
</g>
<!-- Node2 -->
<g id="node2" class="node"><title>Node2</title>
<g id="a_node2"><a xlink:href="classRoom.html" target="_top" xlink:title="{Room\n|+ UNITS\l&#45; name\l|+ Room()\l+ Room()\l+ Room()\l+ Room()\l+ getDimensions()\l+ setDimensions()\l+ getFlooring()\l+ setFlooring()\l+ setName()\l+ getName()\l+ area()\l+ flooringCost()\l+ display()\l+ operator==()\l+ operator\&lt;()\l}">
<polygon fill="white" stroke="black" points="63.5,-273 63.5,-495 160.5,-495 160.5,-273 63.5,-273"/>
<text text-anchor="middle" x="112" y="-483" font-family="Helvetica,sans-Serif" font-size="10.00">Room</text>
<polyline fill="none" stroke="black" points="63.5,-476 160.5,-476 "/>
<text text-anchor="start" x="71.5" y="-464" font-family="Helvetica,sans-Serif" font-size="10.00">+ UNITS</text>
<text text-anchor="start" x="71.5" y="-453" font-family="Helvetica,sans-Serif" font-size="10.00">&#45; name</text>
<polyline fill="none" stroke="black" points="63.5,-446 160.5,-446 "/>
<text text-anchor="start" x="71.5" y="-434" font-family="Helvetica,sans-Serif" font-size="10.00">+ Room()</text>
<text text-anchor="start" x="71.5" y="-423" font-family="Helvetica,sans-Serif" font-size="10.00">+ Room()</text>
<text text-anchor="start" x="71.5" y="-412" font-family="Helvetica,sans-Serif" font-size="10.00">+ Room()</text>
<text text-anchor="start" x="71.5" y="-401" font-family="Helvetica,sans-Serif" font-size="10.00">+ Room()</text>
<text text-anchor="start" x="71.5" y="-390" font-family="Helvetica,sans-Serif" font-size="10.00">+ getDimensions()</text>
<text text-anchor="start" x="71.5" y="-379" font-family="Helvetica,sans-Serif" font-size="10.00">+ setDimensions()</text>
<text text-anchor="start" x="71.5" y="-368" font-family="Helvetica,sans-Serif" font-size="10.00">+ getFlooring()</text>
<text text-anchor="start" x="71.5" y="-357" font-family="Helvetica,sans-Serif" font-size="10.00">+ setFlooring()</text>
<text text-anchor="start" x="71.5" y="-346" font-family="Helvetica,sans-Serif" font-size="10.00">+ setName()</text>
<text text-anchor="start" x="71.5" y="-335" font-family="Helvetica,sans-Serif" font-size="10.00">+ getName()</text>
<text text-anchor="start" x="71.5" y="-324" font-family="Helvetica,sans-Serif" font-size="10.00">+ area()</text>
<text text-anchor="start" x="71.5" y="-313" font-family="Helvetica,sans-Serif" font-size="10.00">+ flooringCost()</text>
<text text-anchor="start" x="71.5" y="-302" font-family="Helvetica,sans-Serif" font-size="10.00">+ display()</text>
<text text-anchor="start" x="71.5" y="-291" font-family="Helvetica,sans-Serif" font-size="10.00">+ operator==()</text>
<text text-anchor="start" x="71.5" y="-280" font-family="Helvetica,sans-Serif" font-size="10.00">+ operator&lt;()</text>
</a>
</g>
</g>
<!-- Node2&#45;&gt;Node1 -->
<g id="edge1" class="edge"><title>Node2&#45;&gt;Node1</title>
<path fill="none" stroke="#404040" d="M112,-272.791C112,-260.543 112,-248.012 112,-235.622"/>
<polygon fill="none" stroke="#404040" points="112,-235.294 108,-229.294 112,-223.294 116,-229.294 112,-235.294"/>
<text text-anchor="middle" x="129" y="-245.5" font-family="Helvetica,sans-Serif" font-size="10.00"> &#45;rooms</text>
</g>
<!-- Node3 -->
<g id="node3" class="node"><title>Node3</title>
<g id="a_node3"><a xlink:href="classRoom_1_1DimensionSet.html" target="_top" xlink:title="{Room::DimensionSet\n|&#45; length\l&#45; width\l|+ DimensionSet()\l+ DimensionSet()\l+ setLength()\l+ getLength()\l+ setWidth()\l+ getWidth()\l}">
<polygon fill="white" stroke="black" points="0,-544.5 0,-667.5 110,-667.5 110,-544.5 0,-544.5"/>
<text text-anchor="middle" x="55" y="-655.5" font-family="Helvetica,sans-Serif" font-size="10.00">Room::DimensionSet</text>
<polyline fill="none" stroke="black" points="0,-648.5 110,-648.5 "/>
<text text-anchor="start" x="8" y="-636.5" font-family="Helvetica,sans-Serif" font-size="10.00">&#45; length</text>
<text text-anchor="start" x="8" y="-625.5" font-family="Helvetica,sans-Serif" font-size="10.00">&#45; width</text>
<polyline fill="none" stroke="black" points="0,-618.5 110,-618.5 "/>
<text text-anchor="start" x="8" y="-606.5" font-family="Helvetica,sans-Serif" font-size="10.00">+ DimensionSet()</text>
<text text-anchor="start" x="8" y="-595.5" font-family="Helvetica,sans-Serif" font-size="10.00">+ DimensionSet()</text>
<text text-anchor="start" x="8" y="-584.5" font-family="Helvetica,sans-Serif" font-size="10.00">+ setLength()</text>
<text text-anchor="start" x="8" y="-573.5" font-family="Helvetica,sans-Serif" font-size="10.00">+ getLength()</text>
<text text-anchor="start" x="8" y="-562.5" font-family="Helvetica,sans-Serif" font-size="10.00">+ setWidth()</text>
<text text-anchor="start" x="8" y="-551.5" font-family="Helvetica,sans-Serif" font-size="10.00">+ getWidth()</text>
</a>
</g>
</g>
<!-- Node3&#45;&gt;Node2 -->
<g id="edge2" class="edge"><title>Node3&#45;&gt;Node2</title>
<path fill="none" stroke="#404040" d="M70.7264,-544.302C73.7539,-532.617 77.0239,-519.996 80.3518,-507.151"/>
<polygon fill="none" stroke="#404040" points="80.4093,-506.929 78.0421,-500.117 83.4191,-495.312 85.7864,-502.124 80.4093,-506.929"/>
<text text-anchor="middle" x="107" y="-517.5" font-family="Helvetica,sans-Serif" font-size="10.00"> &#45;dimensions</text>
</g>
<!-- Node4 -->
<g id="node4" class="node"><title>Node4</title>
<g id="a_node4"><a xlink:href="structRoom_1_1Flooring.html" target="_top" xlink:title="{Room::Flooring\n|+ type\l+ unitCost\l|+ Flooring()\l+ Flooring()\l}">
<polygon fill="white" stroke="black" points="128.5,-566.5 128.5,-645.5 211.5,-645.5 211.5,-566.5 128.5,-566.5"/>
<text text-anchor="middle" x="170" y="-633.5" font-family="Helvetica,sans-Serif" font-size="10.00">Room::Flooring</text>
<polyline fill="none" stroke="black" points="128.5,-626.5 211.5,-626.5 "/>
<text text-anchor="start" x="136.5" y="-614.5" font-family="Helvetica,sans-Serif" font-size="10.00">+ type</text>
<text text-anchor="start" x="136.5" y="-603.5" font-family="Helvetica,sans-Serif" font-size="10.00">+ unitCost</text>
<polyline fill="none" stroke="black" points="128.5,-596.5 211.5,-596.5 "/>
<text text-anchor="start" x="136.5" y="-584.5" font-family="Helvetica,sans-Serif" font-size="10.00">+ Flooring()</text>
<text text-anchor="start" x="136.5" y="-573.5" font-family="Helvetica,sans-Serif" font-size="10.00">+ Flooring()</text>
</a>
</g>
</g>
<!-- Node4&#45;&gt;Node2 -->
<g id="edge3" class="edge"><title>Node4&#45;&gt;Node2</title>
<path fill="none" stroke="#404040" d="M159.831,-566.427C155.369,-549.505 149.861,-528.609 144.187,-507.089"/>
<polygon fill="none" stroke="#404040" points="144.176,-507.048 138.779,-502.266 141.117,-495.444 146.515,-500.226 144.176,-507.048"/>
<text text-anchor="middle" x="167" y="-517.5" font-family="Helvetica,sans-Serif" font-size="10.00"> &#45;flooring</text>
</g>
</g>
</svg>
