<?xml version="1.0" encoding="UTF-8" standalone="no"?>
<!DOCTYPE svg PUBLIC "-//W3C//DTD SVG 1.1//EN"
 "http://www.w3.org/Graphics/SVG/1.1/DTD/svg11.dtd">
<!-- Generated by graphviz version 2.36.0 (20140111.2315)
 -->
<!-- Title: House::operator= Pages: 1 -->
<svg width="230pt" height="66pt"
 viewBox="0.00 0.00 230.00 66.00" xmlns="http://www.w3.org/2000/svg" xmlns:xlink="http://www.w3.org/1999/xlink">
<g id="graph0" class="graph" transform="scale(1 1) rotate(0) translate(4 62)">
<title>House::operator=</title>
<polygon fill="white" stroke="none" points="-4,4 -4,-62 226,-62 226,4 -4,4"/>
<!-- Node1 -->
<g id="node1" class="node"><title>Node1</title>
<polygon fill="#bfbfbf" stroke="black" points="0,-19.5 0,-38.5 92,-38.5 92,-19.5 0,-19.5"/>
<text text-anchor="middle" x="46" y="-26.5" font-family="Helvetica,sans-Serif" font-size="10.00">House::operator=</text>
</g>
<!-- Node2 -->
<g id="node2" class="node"><title>Node2</title>
<g id="a_node2"><a xlink:href="classHouse.html#ade9f3a768375a32eea123837de86e516" target="_top" xlink:title="House::size">
<polygon fill="white" stroke="black" points="140.5,-38.5 140.5,-57.5 209.5,-57.5 209.5,-38.5 140.5,-38.5"/>
<text text-anchor="middle" x="175" y="-45.5" font-family="Helvetica,sans-Serif" font-size="10.00">House::size</text>
</a>
</g>
</g>
<!-- Node1&#45;&gt;Node2 -->
<g id="edge1" class="edge"><title>Node1&#45;&gt;Node2</title>
<path fill="none" stroke="midnightblue" d="M92.133,-35.7522C104.498,-37.6021 117.88,-39.6042 130.171,-41.443"/>
<polygon fill="midnightblue" stroke="midnightblue" points="129.785,-44.9241 140.193,-42.9423 130.821,-38.0011 129.785,-44.9241"/>
</g>
<!-- Node3 -->
<g id="node3" class="node"><title>Node3</title>
<g id="a_node3"><a xlink:href="classHouse.html#a13cbcc156df50cd85dfe7a8fde385df4" target="_top" xlink:title="House::addRoom">
<polygon fill="white" stroke="black" points="128.5,-0.5 128.5,-19.5 221.5,-19.5 221.5,-0.5 128.5,-0.5"/>
<text text-anchor="middle" x="175" y="-7.5" font-family="Helvetica,sans-Serif" font-size="10.00">House::addRoom</text>
</a>
</g>
</g>
<!-- Node1&#45;&gt;Node3 -->
<g id="edge2" class="edge"><title>Node1&#45;&gt;Node3</title>
<path fill="none" stroke="midnightblue" d="M92.133,-22.2478C100.537,-20.9905 109.411,-19.663 118.092,-18.3642"/>
<polygon fill="midnightblue" stroke="midnightblue" points="118.784,-21.7998 128.156,-16.8586 117.748,-14.8768 118.784,-21.7998"/>
</g>
</g>
</svg>
