<?xml version="1.0" encoding="UTF-8" standalone="no"?>
<!DOCTYPE svg PUBLIC "-//W3C//DTD SVG 1.1//EN"
 "http://www.w3.org/Graphics/SVG/1.1/DTD/svg11.dtd">
<!-- Generated by graphviz version 2.36.0 (20140111.2315)
 -->
<!-- Title: main Pages: 1 -->
<!--zoomable 673 -->
<svg id="main" version="1.1" xmlns="http://www.w3.org/2000/svg" xmlns:xlink="http://www.w3.org/1999/xlink" xml:space="preserve" onload="init(evt)">
<style type="text/css"><![CDATA[
.edge:hover path { stroke: red; }
.edge:hover polygon { stroke: red; fill: red; }
]]></style>
<script type="text/javascript"><![CDATA[
var edges = document.getElementsByTagName('g');
if (edges && edges.length) {
  for (var i=0;i<edges.length;i++) {
    if (edges[i].id.substr(0,4)=='edge') {
      edges[i].setAttribute('class','edge');
    }
  }
}
]]></script>
        <defs>
                <circle id="rim" cx="0" cy="0" r="7"/>
                <circle id="rim2" cx="0" cy="0" r="3.5"/>
                <g id="zoomPlus">
                        <use xlink:href="#rim" fill="#404040">
                                <set attributeName="fill" to="#808080" begin="zoomplus.mouseover" end="zoomplus.mouseout"/>
                        </use>
                        <path d="M-4,0h8M0,-4v8" fill="none" stroke="white" stroke-width="1.5" pointer-events="none"/>
                </g>
                <g id="zoomMin">
                        <use xlink:href="#rim" fill="#404040">
                                <set attributeName="fill" to="#808080" begin="zoomminus.mouseover" end="zoomminus.mouseout"/>
                        </use>
                        <path d="M-4,0h8" fill="none" stroke="white" stroke-width="1.5" pointer-events="none"/>
                </g>
                <g id="dirArrow">
                        <path fill="none" stroke="white" stroke-width="1.5" d="M0,-3.0v7 M-2.5,-0.5L0,-3.0L2.5,-0.5"/>
                </g>
               <g id="resetDef">
                       <use xlink:href="#rim2" fill="#404040">
                               <set attributeName="fill" to="#808080" begin="reset.mouseover" end="reset.mouseout"/>
                       </use>
               </g>
        </defs>

<script type="text/javascript">
var viewWidth = 526;
var viewHeight = 673;
var sectionId = 'dynsection-1';
</script>
<script xlink:href="svgpan.js"/>
<svg id="graph" class="graph">
<g id="viewport">
<title>main</title>
<polygon fill="white" stroke="none" points="-4,4 -4,-668.978 522,-668.978 522,4 -4,4"/>
<!-- Node1 -->
<g id="node1" class="node"><title>Node1</title>
<polygon fill="#bfbfbf" stroke="black" points="0,-478.5 0,-497.5 38,-497.5 38,-478.5 0,-478.5"/>
<text text-anchor="middle" x="19" y="-485.5" font-family="Helvetica,sans-Serif" font-size="10.00">main</text>
</g>
<!-- Node2 -->
<g id="node2" class="node"><title>Node2</title>
<g id="a_node2"><a xlink:href="namespaceutilities.html#a5a4a24938bfeb46f18a7d7ecf96e7b6b" target="_top" xlink:title="utilities::printProjectHeading">
<polygon fill="white" stroke="black" points="74.5,-599.5 74.5,-618.5 213.5,-618.5 213.5,-599.5 74.5,-599.5"/>
<text text-anchor="middle" x="144" y="-606.5" font-family="Helvetica,sans-Serif" font-size="10.00">utilities::printProjectHeading</text>
</a>
</g>
</g>
<!-- Node1&#45;&gt;Node2 -->
<g id="edge1" class="edge"><title>Node1&#45;&gt;Node2</title>
<path fill="none" stroke="midnightblue" d="M22.4331,-497.692C27.9941,-517.823 43.5658,-564.34 74,-589 76.7482,-591.227 79.7342,-593.206 82.8717,-594.964"/>
<polygon fill="midnightblue" stroke="midnightblue" points="81.5126,-598.194 92.0431,-599.36 84.5379,-591.881 81.5126,-598.194"/>
</g>
<!-- Node3 -->
<g id="node3" class="node"><title>Node3</title>
<g id="a_node3"><a xlink:href="namespaceutilities.html#a2ca4bf55e15b157fc1255112ecf60b4b" target="_top" xlink:title="utilities::printHorizontalLine">
<polygon fill="white" stroke="black" points="250,-642.5 250,-661.5 384,-661.5 384,-642.5 250,-642.5"/>
<text text-anchor="middle" x="317" y="-649.5" font-family="Helvetica,sans-Serif" font-size="10.00">utilities::printHorizontalLine</text>
</a>
</g>
</g>
<!-- Node1&#45;&gt;Node3 -->
<g id="edge26" class="edge"><title>Node1&#45;&gt;Node3</title>
<path fill="none" stroke="midnightblue" d="M20.4622,-497.833C22.2692,-523.959 31.0956,-595.333 74,-628 124.807,-666.685 200.055,-668.035 253.127,-662.664"/>
<polygon fill="midnightblue" stroke="midnightblue" points="253.55,-666.139 263.099,-661.55 252.772,-659.182 253.55,-666.139"/>
</g>
<!-- Node5 -->
<g id="node5" class="node"><title>Node5</title>
<g id="a_node5"><a xlink:href="namespaceutilities.html#a7e1ede519f535f5c1f9969fb1b17a66a" target="_top" xlink:title="utilities::printSeperated\lHeading">
<polygon fill="white" stroke="black" points="86,-550 86,-580 202,-580 202,-550 86,-550"/>
<text text-anchor="start" x="94" y="-568" font-family="Helvetica,sans-Serif" font-size="10.00">utilities::printSeperated</text>
<text text-anchor="middle" x="144" y="-557" font-family="Helvetica,sans-Serif" font-size="10.00">Heading</text>
</a>
</g>
</g>
<!-- Node1&#45;&gt;Node5 -->
<g id="edge4" class="edge"><title>Node1&#45;&gt;Node5</title>
<path fill="none" stroke="midnightblue" d="M35.3293,-497.596C54.0272,-509.302 86.1432,-529.407 110.446,-544.621"/>
<polygon fill="midnightblue" stroke="midnightblue" points="108.674,-547.641 119.007,-549.98 112.388,-541.707 108.674,-547.641"/>
</g>
<!-- Node6 -->
<g id="node6" class="node"><title>Node6</title>
<g id="a_node6"><a xlink:href="classRightTriangle.html#ae42f3859389838c9d55a2d2842cd56f5" target="_top" xlink:title="RightTriangle::display">
<polygon fill="white" stroke="black" points="88.5,-478.5 88.5,-497.5 199.5,-497.5 199.5,-478.5 88.5,-478.5"/>
<text text-anchor="middle" x="144" y="-485.5" font-family="Helvetica,sans-Serif" font-size="10.00">RightTriangle::display</text>
</a>
</g>
</g>
<!-- Node1&#45;&gt;Node6 -->
<g id="edge7" class="edge"><title>Node1&#45;&gt;Node6</title>
<path fill="none" stroke="midnightblue" d="M38.1491,-488C48.9539,-488 63.3909,-488 78.0886,-488"/>
<polygon fill="midnightblue" stroke="midnightblue" points="78.2641,-491.5 88.2641,-488 78.2641,-484.5 78.2641,-491.5"/>
</g>
<!-- Node12 -->
<g id="node12" class="node"><title>Node12</title>
<g id="a_node12"><a xlink:href="classTriangle.html#a1bcd69888ccc2db4ed6fc74a92e87ff3" target="_top" xlink:title="Triangle::display">
<polygon fill="white" stroke="black" points="100,-288.5 100,-307.5 188,-307.5 188,-288.5 100,-288.5"/>
<text text-anchor="middle" x="144" y="-295.5" font-family="Helvetica,sans-Serif" font-size="10.00">Triangle::display</text>
</a>
</g>
</g>
<!-- Node1&#45;&gt;Node12 -->
<g id="edge13" class="edge"><title>Node1&#45;&gt;Node12</title>
<path fill="none" stroke="midnightblue" d="M25.4797,-478.419C35.023,-461.838 55.4505,-426.8 74,-398 92.8324,-368.761 116.03,-335.702 130.157,-315.873"/>
<polygon fill="midnightblue" stroke="midnightblue" points="133.164,-317.686 136.133,-307.516 127.469,-313.615 133.164,-317.686"/>
</g>
<!-- Node13 -->
<g id="node13" class="node"><title>Node13</title>
<g id="a_node13"><a xlink:href="classShape.html#a614686977967fae752625a7d89bbdce9" target="_top" xlink:title="Shape::display">
<polygon fill="white" stroke="black" points="276.5,-364.5 276.5,-383.5 357.5,-383.5 357.5,-364.5 276.5,-364.5"/>
<text text-anchor="middle" x="317" y="-371.5" font-family="Helvetica,sans-Serif" font-size="10.00">Shape::display</text>
</a>
</g>
</g>
<!-- Node1&#45;&gt;Node13 -->
<g id="edge25" class="edge"><title>Node1&#45;&gt;Node13</title>
<path fill="none" stroke="midnightblue" d="M38.2152,-479.659C76.7626,-462.192 169.65,-421.062 250,-393 256.504,-390.728 263.435,-388.514 270.268,-386.447"/>
<polygon fill="midnightblue" stroke="midnightblue" points="271.546,-389.72 280.148,-383.535 269.566,-383.005 271.546,-389.72"/>
</g>
<!-- Node19 -->
<g id="node19" class="node"><title>Node19</title>
<g id="a_node19"><a xlink:href="classEquilateralTriangle.html#adb2c41e64ab7af04f171ce72f47fffe3" target="_top" xlink:title="EquilateralTriangle\l::display">
<polygon fill="white" stroke="black" points="95.5,-93 95.5,-123 192.5,-123 192.5,-93 95.5,-93"/>
<text text-anchor="start" x="103.5" y="-111" font-family="Helvetica,sans-Serif" font-size="10.00">EquilateralTriangle</text>
<text text-anchor="middle" x="144" y="-100" font-family="Helvetica,sans-Serif" font-size="10.00">::display</text>
</a>
</g>
</g>
<!-- Node1&#45;&gt;Node19 -->
<g id="edge27" class="edge"><title>Node1&#45;&gt;Node19</title>
<path fill="none" stroke="midnightblue" d="M22.0345,-478.288C28.4233,-448.27 49.1447,-354.462 74,-279 91.5171,-225.817 117.307,-165.484 131.888,-132.596"/>
<polygon fill="midnightblue" stroke="midnightblue" points="135.154,-133.867 136.032,-123.309 128.761,-131.015 135.154,-133.867"/>
</g>
<!-- Node2&#45;&gt;Node3 -->
<g id="edge2" class="edge"><title>Node2&#45;&gt;Node3</title>
<path fill="none" stroke="midnightblue" d="M182.95,-618.543C208.078,-624.862 241.239,-633.201 268.169,-639.972"/>
<polygon fill="midnightblue" stroke="midnightblue" points="267.604,-643.439 278.156,-642.484 269.311,-636.65 267.604,-643.439"/>
</g>
<!-- Node4 -->
<g id="node4" class="node"><title>Node4</title>
<g id="a_node4"><a xlink:href="namespaceutilities.html#a0364030fce3431e2ec985b20e571ce9a" target="_top" xlink:title="utilities::printCentered\lTitle">
<polygon fill="white" stroke="black" points="261,-593 261,-623 373,-623 373,-593 261,-593"/>
<text text-anchor="start" x="269" y="-611" font-family="Helvetica,sans-Serif" font-size="10.00">utilities::printCentered</text>
<text text-anchor="middle" x="317" y="-600" font-family="Helvetica,sans-Serif" font-size="10.00">Title</text>
</a>
</g>
</g>
<!-- Node2&#45;&gt;Node4 -->
<g id="edge3" class="edge"><title>Node2&#45;&gt;Node4</title>
<path fill="none" stroke="midnightblue" d="M213.567,-608.599C225.835,-608.527 238.587,-608.453 250.759,-608.382"/>
<polygon fill="midnightblue" stroke="midnightblue" points="250.843,-611.881 260.822,-608.323 250.802,-604.881 250.843,-611.881"/>
</g>
<!-- Node5&#45;&gt;Node3 -->
<g id="edge6" class="edge"><title>Node5&#45;&gt;Node3</title>
<path fill="none" stroke="midnightblue" d="M196.234,-580.147C202.467,-582.964 208.55,-586.232 214,-590 234.223,-603.981 229.411,-618.564 250,-632 253.826,-634.497 257.977,-636.693 262.273,-638.624"/>
<polygon fill="midnightblue" stroke="midnightblue" points="261.249,-641.984 271.834,-642.439 263.843,-635.483 261.249,-641.984"/>
</g>
<!-- Node5&#45;&gt;Node4 -->
<g id="edge5" class="edge"><title>Node5&#45;&gt;Node4</title>
<path fill="none" stroke="midnightblue" d="M202.416,-579.438C218.004,-583.358 234.993,-587.63 250.969,-591.647"/>
<polygon fill="midnightblue" stroke="midnightblue" points="250.212,-595.066 260.763,-594.11 251.919,-588.277 250.212,-595.066"/>
</g>
<!-- Node7 -->
<g id="node7" class="node"><title>Node7</title>
<g id="a_node7"><a xlink:href="classRightTriangle.html#abab1317e02e26fa0456f5cfeafe5f9ec" target="_top" xlink:title="RightTriangle::base">
<polygon fill="white" stroke="black" points="266.5,-554.5 266.5,-573.5 367.5,-573.5 367.5,-554.5 266.5,-554.5"/>
<text text-anchor="middle" x="317" y="-561.5" font-family="Helvetica,sans-Serif" font-size="10.00">RightTriangle::base</text>
</a>
</g>
</g>
<!-- Node6&#45;&gt;Node7 -->
<g id="edge8" class="edge"><title>Node6&#45;&gt;Node7</title>
<path fill="none" stroke="midnightblue" d="M162.924,-497.639C183.601,-508.579 218.767,-526.636 250,-540 258.89,-543.804 268.607,-547.555 277.785,-550.92"/>
<polygon fill="midnightblue" stroke="midnightblue" points="276.873,-554.311 287.467,-554.404 279.243,-547.725 276.873,-554.311"/>
</g>
<!-- Node8 -->
<g id="node8" class="node"><title>Node8</title>
<g id="a_node8"><a xlink:href="classRightTriangle.html#a1d861752e9f41d3544c359927bac5603" target="_top" xlink:title="RightTriangle::height">
<polygon fill="white" stroke="black" points="263.5,-478.5 263.5,-497.5 370.5,-497.5 370.5,-478.5 263.5,-478.5"/>
<text text-anchor="middle" x="317" y="-485.5" font-family="Helvetica,sans-Serif" font-size="10.00">RightTriangle::height</text>
</a>
</g>
</g>
<!-- Node6&#45;&gt;Node8 -->
<g id="edge9" class="edge"><title>Node6&#45;&gt;Node8</title>
<path fill="none" stroke="midnightblue" d="M199.576,-488C216.652,-488 235.631,-488 253.226,-488"/>
<polygon fill="midnightblue" stroke="midnightblue" points="253.4,-491.5 263.4,-488 253.4,-484.5 253.4,-491.5"/>
</g>
<!-- Node9 -->
<g id="node9" class="node"><title>Node9</title>
<g id="a_node9"><a xlink:href="classRightTriangle.html#a3a5e2a101cb80081ec788fdae8b2b181" target="_top" xlink:title="RightTriangle::hypotenuse">
<polygon fill="white" stroke="black" points="251.5,-440.5 251.5,-459.5 382.5,-459.5 382.5,-440.5 251.5,-440.5"/>
<text text-anchor="middle" x="317" y="-447.5" font-family="Helvetica,sans-Serif" font-size="10.00">RightTriangle::hypotenuse</text>
</a>
</g>
</g>
<!-- Node6&#45;&gt;Node9 -->
<g id="edge10" class="edge"><title>Node6&#45;&gt;Node9</title>
<path fill="none" stroke="midnightblue" d="M188.151,-478.411C210.919,-473.351 239.048,-467.1 263.119,-461.751"/>
<polygon fill="midnightblue" stroke="midnightblue" points="264.157,-465.106 273.16,-459.52 262.639,-458.273 264.157,-465.106"/>
</g>
<!-- Node10 -->
<g id="node10" class="node"><title>Node10</title>
<g id="a_node10"><a xlink:href="classTriangle.html#a864f7a8224290b17d06e462712a83732" target="_top" xlink:title="Triangle::perimeter">
<polygon fill="white" stroke="black" points="420,-176.5 420,-195.5 518,-195.5 518,-176.5 420,-176.5"/>
<text text-anchor="middle" x="469" y="-183.5" font-family="Helvetica,sans-Serif" font-size="10.00">Triangle::perimeter</text>
</a>
</g>
</g>
<!-- Node6&#45;&gt;Node10 -->
<g id="edge11" class="edge"><title>Node6&#45;&gt;Node10</title>
<path fill="none" stroke="midnightblue" d="M164.019,-497.626C208.655,-518.705 321.093,-562.787 384,-507 434.071,-462.596 380.549,-262.06 420,-208 421.773,-205.57 423.88,-203.402 426.207,-201.468"/>
<polygon fill="midnightblue" stroke="midnightblue" points="428.406,-204.209 434.794,-195.756 424.53,-198.38 428.406,-204.209"/>
</g>
<!-- Node11 -->
<g id="node11" class="node"><title>Node11</title>
<g id="a_node11"><a xlink:href="classRightTriangle.html#a1092d8c0d647e1cc583e2e0d1c349498" target="_top" xlink:title="RightTriangle::area">
<polygon fill="white" stroke="black" points="267.5,-402.5 267.5,-421.5 366.5,-421.5 366.5,-402.5 267.5,-402.5"/>
<text text-anchor="middle" x="317" y="-409.5" font-family="Helvetica,sans-Serif" font-size="10.00">RightTriangle::area</text>
</a>
</g>
</g>
<!-- Node6&#45;&gt;Node11 -->
<g id="edge12" class="edge"><title>Node6&#45;&gt;Node11</title>
<path fill="none" stroke="midnightblue" d="M160.138,-478.413C180.098,-466.098 216.603,-444.682 250,-431 255.584,-428.712 261.54,-426.587 267.502,-424.648"/>
<polygon fill="midnightblue" stroke="midnightblue" points="268.955,-427.862 277.477,-421.567 266.89,-421.174 268.955,-427.862"/>
</g>
<!-- Node12&#45;&gt;Node10 -->
<g id="edge19" class="edge"><title>Node12&#45;&gt;Node10</title>
<path fill="none" stroke="midnightblue" d="M154.712,-288.324C172.136,-271.595 210.582,-237.479 250,-221 301.348,-199.534 364.574,-191.159 409.688,-187.93"/>
<polygon fill="midnightblue" stroke="midnightblue" points="410.135,-191.409 419.886,-187.266 409.68,-184.423 410.135,-191.409"/>
</g>
<!-- Node12&#45;&gt;Node13 -->
<g id="edge14" class="edge"><title>Node12&#45;&gt;Node13</title>
<path fill="none" stroke="midnightblue" d="M162.924,-307.639C183.601,-318.579 218.767,-336.636 250,-350 258.89,-353.804 268.607,-357.555 277.785,-360.92"/>
<polygon fill="midnightblue" stroke="midnightblue" points="276.873,-364.311 287.467,-364.404 279.243,-357.725 276.873,-364.311"/>
</g>
<!-- Node15 -->
<g id="node15" class="node"><title>Node15</title>
<g id="a_node15"><a xlink:href="classTriangle.html#abbcfdb4dc6d1a68b8ea513c95617e1bf" target="_top" xlink:title="Triangle::sideA">
<polygon fill="white" stroke="black" points="428,-260.5 428,-279.5 510,-279.5 510,-260.5 428,-260.5"/>
<text text-anchor="middle" x="469" y="-267.5" font-family="Helvetica,sans-Serif" font-size="10.00">Triangle::sideA</text>
</a>
</g>
</g>
<!-- Node12&#45;&gt;Node15 -->
<g id="edge16" class="edge"><title>Node12&#45;&gt;Node15</title>
<path fill="none" stroke="midnightblue" d="M188.207,-294.923C236.099,-291.429 315.617,-285.38 384,-279 394.957,-277.978 406.707,-276.781 417.844,-275.601"/>
<polygon fill="midnightblue" stroke="midnightblue" points="418.289,-279.074 427.859,-274.527 417.543,-272.114 418.289,-279.074"/>
</g>
<!-- Node16 -->
<g id="node16" class="node"><title>Node16</title>
<g id="a_node16"><a xlink:href="classTriangle.html#a7dcb91647c0245980970998bcaaf34cf" target="_top" xlink:title="Triangle::sideB">
<polygon fill="white" stroke="black" points="428,-317.5 428,-336.5 510,-336.5 510,-317.5 428,-317.5"/>
<text text-anchor="middle" x="469" y="-324.5" font-family="Helvetica,sans-Serif" font-size="10.00">Triangle::sideB</text>
</a>
</g>
</g>
<!-- Node12&#45;&gt;Node16 -->
<g id="edge17" class="edge"><title>Node12&#45;&gt;Node16</title>
<path fill="none" stroke="midnightblue" d="M188.226,-301.881C247.743,-307.225 354.701,-316.828 417.722,-322.486"/>
<polygon fill="midnightblue" stroke="midnightblue" points="417.55,-325.984 427.823,-323.393 418.176,-319.013 417.55,-325.984"/>
</g>
<!-- Node17 -->
<g id="node17" class="node"><title>Node17</title>
<g id="a_node17"><a xlink:href="classTriangle.html#a49ea69d999bd5dc233ced7df5bd887a6" target="_top" xlink:title="Triangle::sideC">
<polygon fill="white" stroke="black" points="427.5,-217.5 427.5,-236.5 510.5,-236.5 510.5,-217.5 427.5,-217.5"/>
<text text-anchor="middle" x="469" y="-224.5" font-family="Helvetica,sans-Serif" font-size="10.00">Triangle::sideC</text>
</a>
</g>
</g>
<!-- Node12&#45;&gt;Node17 -->
<g id="edge18" class="edge"><title>Node12&#45;&gt;Node17</title>
<path fill="none" stroke="midnightblue" d="M158.101,-288.424C177.204,-275.056 214.325,-251.287 250,-241 305.613,-224.964 372.393,-223.072 417.262,-224.159"/>
<polygon fill="midnightblue" stroke="midnightblue" points="417.232,-227.66 427.333,-224.462 417.443,-220.663 417.232,-227.66"/>
</g>
<!-- Node18 -->
<g id="node18" class="node"><title>Node18</title>
<g id="a_node18"><a xlink:href="classTriangle.html#aa74ed09360f28cdbf3aad374d97311e7" target="_top" xlink:title="Triangle::area">
<polygon fill="white" stroke="black" points="279,-250.5 279,-269.5 355,-269.5 355,-250.5 279,-250.5"/>
<text text-anchor="middle" x="317" y="-257.5" font-family="Helvetica,sans-Serif" font-size="10.00">Triangle::area</text>
</a>
</g>
</g>
<!-- Node12&#45;&gt;Node18 -->
<g id="edge20" class="edge"><title>Node12&#45;&gt;Node18</title>
<path fill="none" stroke="midnightblue" d="M188.151,-288.411C212.76,-282.942 243.632,-276.082 268.873,-270.473"/>
<polygon fill="midnightblue" stroke="midnightblue" points="269.952,-273.818 278.955,-268.232 268.434,-266.985 269.952,-273.818"/>
</g>
<!-- Node14 -->
<g id="node14" class="node"><title>Node14</title>
<g id="a_node14"><a xlink:href="classShape.html#ab0219a5934793fa9e4c9f8ff7426be88" target="_top" xlink:title="Shape::name">
<polygon fill="white" stroke="black" points="432,-364.5 432,-383.5 506,-383.5 506,-364.5 432,-364.5"/>
<text text-anchor="middle" x="469" y="-371.5" font-family="Helvetica,sans-Serif" font-size="10.00">Shape::name</text>
</a>
</g>
</g>
<!-- Node13&#45;&gt;Node14 -->
<g id="edge15" class="edge"><title>Node13&#45;&gt;Node14</title>
<path fill="none" stroke="midnightblue" d="M357.803,-374C377.479,-374 401.335,-374 421.812,-374"/>
<polygon fill="midnightblue" stroke="midnightblue" points="421.865,-377.5 431.865,-374 421.865,-370.5 421.865,-377.5"/>
</g>
<!-- Node18&#45;&gt;Node10 -->
<g id="edge21" class="edge"><title>Node18&#45;&gt;Node10</title>
<path fill="none" stroke="midnightblue" d="M336.311,-250.374C356.638,-239.757 390.477,-222.283 420,-208 425.498,-205.34 431.385,-202.575 437.087,-199.939"/>
<polygon fill="midnightblue" stroke="midnightblue" points="438.774,-203.015 446.406,-195.666 435.857,-196.652 438.774,-203.015"/>
</g>
<!-- Node18&#45;&gt;Node15 -->
<g id="edge22" class="edge"><title>Node18&#45;&gt;Node15</title>
<path fill="none" stroke="midnightblue" d="M355.079,-262.472C374.004,-263.734 397.301,-265.287 417.809,-266.654"/>
<polygon fill="midnightblue" stroke="midnightblue" points="417.72,-270.156 427.931,-267.329 418.186,-263.171 417.72,-270.156"/>
</g>
<!-- Node18&#45;&gt;Node16 -->
<g id="edge23" class="edge"><title>Node18&#45;&gt;Node16</title>
<path fill="none" stroke="midnightblue" d="M339.491,-269.599C365.11,-281.043 408.11,-300.249 437.245,-313.263"/>
<polygon fill="midnightblue" stroke="midnightblue" points="435.991,-316.536 446.549,-317.418 438.845,-310.144 435.991,-316.536"/>
</g>
<!-- Node18&#45;&gt;Node17 -->
<g id="edge24" class="edge"><title>Node18&#45;&gt;Node17</title>
<path fill="none" stroke="midnightblue" d="M355.079,-251.843C373.941,-247.693 397.147,-242.588 417.605,-238.087"/>
<polygon fill="midnightblue" stroke="midnightblue" points="418.383,-241.5 427.397,-235.933 416.879,-234.663 418.383,-241.5"/>
</g>
<!-- Node19&#45;&gt;Node10 -->
<g id="edge31" class="edge"><title>Node19&#45;&gt;Node10</title>
<path fill="none" stroke="midnightblue" d="M192.66,-119.509C253.168,-134.121 357.053,-159.208 418.449,-174.034"/>
<polygon fill="midnightblue" stroke="midnightblue" points="417.751,-177.466 428.293,-176.411 419.394,-170.662 417.751,-177.466"/>
</g>
<!-- Node20 -->
<g id="node20" class="node"><title>Node20</title>
<g id="a_node20"><a xlink:href="classEquilateralTriangle.html#aae64ee91451823677b74b04508c72b5a" target="_top" xlink:title="EquilateralTriangle\l::side">
<polygon fill="white" stroke="black" points="420.5,-49 420.5,-79 517.5,-79 517.5,-49 420.5,-49"/>
<text text-anchor="start" x="428.5" y="-67" font-family="Helvetica,sans-Serif" font-size="10.00">EquilateralTriangle</text>
<text text-anchor="middle" x="469" y="-56" font-family="Helvetica,sans-Serif" font-size="10.00">::side</text>
</a>
</g>
</g>
<!-- Node19&#45;&gt;Node20 -->
<g id="edge28" class="edge"><title>Node19&#45;&gt;Node20</title>
<path fill="none" stroke="midnightblue" d="M192.52,-106.746C241.009,-104.832 318.261,-100.023 384,-88 392.984,-86.3568 402.39,-84.1587 411.521,-81.7577"/>
<polygon fill="midnightblue" stroke="midnightblue" points="412.565,-85.1008 421.289,-79.0893 410.72,-78.3482 412.565,-85.1008"/>
</g>
<!-- Node21 -->
<g id="node21" class="node"><title>Node21</title>
<g id="a_node21"><a xlink:href="classEquilateralTriangle.html#aeb9166557fb87fc187e534337191cc4f" target="_top" xlink:title="EquilateralTriangle\l::height">
<polygon fill="white" stroke="black" points="268.5,-49 268.5,-79 365.5,-79 365.5,-49 268.5,-49"/>
<text text-anchor="start" x="276.5" y="-67" font-family="Helvetica,sans-Serif" font-size="10.00">EquilateralTriangle</text>
<text text-anchor="middle" x="317" y="-56" font-family="Helvetica,sans-Serif" font-size="10.00">::height</text>
</a>
</g>
</g>
<!-- Node19&#45;&gt;Node21 -->
<g id="edge29" class="edge"><title>Node19&#45;&gt;Node21</title>
<path fill="none" stroke="midnightblue" d="M192.633,-95.7435C213.023,-90.4971 237.013,-84.3242 258.391,-78.8235"/>
<polygon fill="midnightblue" stroke="midnightblue" points="259.514,-82.1486 268.326,-76.267 257.769,-75.3694 259.514,-82.1486"/>
</g>
<!-- Node22 -->
<g id="node22" class="node"><title>Node22</title>
<g id="a_node22"><a xlink:href="classEquilateralTriangle.html#acd770baf66a470218191c25c89246d0c" target="_top" xlink:title="EquilateralTriangle\l::area">
<polygon fill="white" stroke="black" points="268.5,-0 268.5,-30 365.5,-30 365.5,-0 268.5,-0"/>
<text text-anchor="start" x="276.5" y="-18" font-family="Helvetica,sans-Serif" font-size="10.00">EquilateralTriangle</text>
<text text-anchor="middle" x="317" y="-7" font-family="Helvetica,sans-Serif" font-size="10.00">::area</text>
</a>
</g>
</g>
<!-- Node19&#45;&gt;Node22 -->
<g id="edge32" class="edge"><title>Node19&#45;&gt;Node22</title>
<path fill="none" stroke="midnightblue" d="M165.063,-92.7714C185.589,-77.6926 218.806,-54.6526 250,-39 253.516,-37.2357 257.194,-35.5348 260.938,-33.9095"/>
<polygon fill="midnightblue" stroke="midnightblue" points="262.418,-37.0852 270.323,-30.0318 259.744,-30.6157 262.418,-37.0852"/>
</g>
<!-- Node21&#45;&gt;Node20 -->
<g id="edge30" class="edge"><title>Node21&#45;&gt;Node20</title>
<path fill="none" stroke="midnightblue" d="M365.873,-64C379.879,-64 395.343,-64 409.91,-64"/>
<polygon fill="midnightblue" stroke="midnightblue" points="410.324,-67.5001 420.324,-64 410.324,-60.5001 410.324,-67.5001"/>
</g>
<!-- Node22&#45;&gt;Node20 -->
<g id="edge33" class="edge"><title>Node22&#45;&gt;Node20</title>
<path fill="none" stroke="midnightblue" d="M364.229,-30.1014C379.413,-35.0615 396.451,-40.6274 412.264,-45.7929"/>
<polygon fill="midnightblue" stroke="midnightblue" points="411.331,-49.1702 421.924,-48.9484 413.505,-42.5162 411.331,-49.1702"/>
</g>
</g>
</svg>
        <g id="navigator" transform="translate(0 0)" fill="#404254">
                <rect fill="#f2f5e9" fill-opacity="0.5" stroke="#606060" stroke-width=".5" x="0" y="0" width="60" height="60"/>
                <use id="zoomplus" xlink:href="#zoomPlus" x="17" y="9" onmousedown="handleZoom(evt,'in')"/>
                <use id="zoomminus" xlink:href="#zoomMin" x="42" y="9" onmousedown="handleZoom(evt,'out')"/>
                <use id="reset" xlink:href="#resetDef" x="30" y="36" onmousedown="handleReset()"/>
                <g id="arrowUp" xlink:href="#dirArrow" transform="translate(30 24)" onmousedown="handlePan(0,-1)">
                  <use xlink:href="#rim" fill="#404040">
                        <set attributeName="fill" to="#808080" begin="arrowUp.mouseover" end="arrowUp.mouseout"/>
                  </use>
                  <path fill="none" stroke="white" stroke-width="1.5" d="M0,-3.0v7 M-2.5,-0.5L0,-3.0L2.5,-0.5"/>
                </g>
                <g id="arrowRight" xlink:href="#dirArrow" transform="rotate(90) translate(36 -43)" onmousedown="handlePan(1,0)">
                  <use xlink:href="#rim" fill="#404040">
                        <set attributeName="fill" to="#808080" begin="arrowRight.mouseover" end="arrowRight.mouseout"/>
                  </use>
                  <path fill="none" stroke="white" stroke-width="1.5" d="M0,-3.0v7 M-2.5,-0.5L0,-3.0L2.5,-0.5"/>
                </g>
                <g id="arrowDown" xlink:href="#dirArrow" transform="rotate(180) translate(-30 -48)" onmousedown="handlePan(0,1)">
                  <use xlink:href="#rim" fill="#404040">
                        <set attributeName="fill" to="#808080" begin="arrowDown.mouseover" end="arrowDown.mouseout"/>
                  </use>
                  <path fill="none" stroke="white" stroke-width="1.5" d="M0,-3.0v7 M-2.5,-0.5L0,-3.0L2.5,-0.5"/>
                </g>
                <g id="arrowLeft" xlink:href="#dirArrow" transform="rotate(270) translate(-36 17)" onmousedown="handlePan(-1,0)">
                  <use xlink:href="#rim" fill="#404040">
                        <set attributeName="fill" to="#808080" begin="arrowLeft.mouseover" end="arrowLeft.mouseout"/>
                  </use>
                  <path fill="none" stroke="white" stroke-width="1.5" d="M0,-3.0v7 M-2.5,-0.5L0,-3.0L2.5,-0.5"/>
                </g>
        </g>
        <svg viewBox="0 0 15 15" width="100%" height="30px" preserveAspectRatio="xMaxYMin meet">
         <g id="arrow_out" transform="scale(0.3 0.3)">
          <a xlink:href="runShapes_8cpp_ae66f6b31b5ad750f1fe042a706a4e3d4_cgraph_org.svg" target="_base">
           <rect id="button" ry="5" rx="5" y="6" x="6" height="38" width="38"
                fill="#f2f5e9" fill-opacity="0.5" stroke="#606060" stroke-width="1.0"/>
           <path id="arrow"
             d="M 11.500037,31.436501 C 11.940474,20.09759 22.043105,11.32322 32.158766,21.979434 L 37.068811,17.246167 C 37.068811,17.246167 37.088388,32 37.088388,32 L 22.160133,31.978069 C 22.160133,31.978069 26.997745,27.140456 26.997745,27.140456 C 18.528582,18.264221 13.291696,25.230495 11.500037,31.436501 z"
             style="fill:#404040;"/>
          </a>
         </g>
        </svg>
</svg>
