<?xml version="1.0" encoding="UTF-8" standalone="no"?>
<!DOCTYPE svg PUBLIC "-//W3C//DTD SVG 1.1//EN"
 "http://www.w3.org/Graphics/SVG/1.1/DTD/svg11.dtd">
<!-- Generated by graphviz version 2.36.0 (20140111.2315)
 -->
<!-- Title: runShapes.cpp Pages: 1 -->
<svg width="701pt" height="252pt"
 viewBox="0.00 0.00 701.00 252.00" xmlns="http://www.w3.org/2000/svg" xmlns:xlink="http://www.w3.org/1999/xlink">
<g id="graph0" class="graph" transform="scale(1 1) rotate(0) translate(4 248)">
<title>runShapes.cpp</title>
<polygon fill="white" stroke="none" points="-4,4 -4,-248 696.999,-248 696.999,4 -4,4"/>
<!-- Node1 -->
<g id="node1" class="node"><title>Node1</title>
<polygon fill="#bfbfbf" stroke="black" points="265.769,-224.5 265.769,-243.5 347.769,-243.5 347.769,-224.5 265.769,-224.5"/>
<text text-anchor="middle" x="306.769" y="-231.5" font-family="Helvetica,sans-Serif" font-size="10.00">runShapes.cpp</text>
</g>
<!-- Node2 -->
<g id="node2" class="node"><title>Node2</title>
<polygon fill="white" stroke="#bfbfbf" points="362.769,-0.5 362.769,-19.5 416.769,-19.5 416.769,-0.5 362.769,-0.5"/>
<text text-anchor="middle" x="389.769" y="-7.5" font-family="Helvetica,sans-Serif" font-size="10.00">iostream</text>
</g>
<!-- Node1&#45;&gt;Node2 -->
<g id="edge1" class="edge"><title>Node1&#45;&gt;Node2</title>
<path fill="none" stroke="midnightblue" d="M265.494,-225.128C167.925,-204.829 -62.9601,-145.926 16.7685,-56 38.8292,-31.1179 262.43,-17.3226 352.484,-12.7398"/>
<polygon fill="midnightblue" stroke="midnightblue" points="352.719,-16.2325 362.532,-12.2386 352.37,-9.24121 352.719,-16.2325"/>
</g>
<!-- Node3 -->
<g id="node3" class="node"><title>Node3</title>
<polygon fill="white" stroke="#bfbfbf" points="25.7685,-56.5 25.7685,-75.5 75.7685,-75.5 75.7685,-56.5 25.7685,-56.5"/>
<text text-anchor="middle" x="50.7685" y="-63.5" font-family="Helvetica,sans-Serif" font-size="10.00">iomanip</text>
</g>
<!-- Node1&#45;&gt;Node3 -->
<g id="edge2" class="edge"><title>Node1&#45;&gt;Node3</title>
<path fill="none" stroke="midnightblue" d="M293.365,-224.309C251.719,-197.304 124.279,-114.667 72.7412,-81.2479"/>
<polygon fill="midnightblue" stroke="midnightblue" points="74.3338,-78.1092 64.0391,-75.6051 70.5253,-83.9825 74.3338,-78.1092"/>
</g>
<!-- Node4 -->
<g id="node4" class="node"><title>Node4</title>
<g id="a_node4"><a xlink:href="utilities_8h.html" target="_top" xlink:title="utilities.h">
<polygon fill="white" stroke="black" points="222.769,-112.5 222.769,-131.5 278.769,-131.5 278.769,-112.5 222.769,-112.5"/>
<text text-anchor="middle" x="250.769" y="-119.5" font-family="Helvetica,sans-Serif" font-size="10.00">utilities.h</text>
</a>
</g>
</g>
<!-- Node1&#45;&gt;Node4 -->
<g id="edge3" class="edge"><title>Node1&#45;&gt;Node4</title>
<path fill="none" stroke="midnightblue" d="M302.374,-224.368C293.214,-206.376 271.921,-164.55 259.742,-140.627"/>
<polygon fill="midnightblue" stroke="midnightblue" points="262.798,-138.915 255.142,-131.591 256.56,-142.091 262.798,-138.915"/>
</g>
<!-- Node10 -->
<g id="node10" class="node"><title>Node10</title>
<g id="a_node10"><a xlink:href="shape_8h.html" target="_top" xlink:title="shape.h">
<polygon fill="white" stroke="black" points="410.269,-56.5 410.269,-75.5 461.269,-75.5 461.269,-56.5 410.269,-56.5"/>
<text text-anchor="middle" x="435.769" y="-63.5" font-family="Helvetica,sans-Serif" font-size="10.00">shape.h</text>
</a>
</g>
</g>
<!-- Node1&#45;&gt;Node10 -->
<g id="edge11" class="edge"><title>Node1&#45;&gt;Node10</title>
<path fill="none" stroke="midnightblue" d="M313.704,-224.075C334.361,-197.493 395.718,-118.538 422.742,-83.7633"/>
<polygon fill="midnightblue" stroke="midnightblue" points="425.738,-85.6119 429.11,-75.5681 420.21,-81.3166 425.738,-85.6119"/>
</g>
<!-- Node11 -->
<g id="node11" class="node"><title>Node11</title>
<g id="a_node11"><a xlink:href="triangle_8h.html" target="_top" xlink:title="triangle.h">
<polygon fill="white" stroke="black" points="463.769,-112.5 463.769,-131.5 519.769,-131.5 519.769,-112.5 463.769,-112.5"/>
<text text-anchor="middle" x="491.769" y="-119.5" font-family="Helvetica,sans-Serif" font-size="10.00">triangle.h</text>
</a>
</g>
</g>
<!-- Node1&#45;&gt;Node11 -->
<g id="edge14" class="edge"><title>Node1&#45;&gt;Node11</title>
<path fill="none" stroke="midnightblue" d="M321.285,-224.368C353.166,-205.412 429.54,-160.001 468.32,-136.942"/>
<polygon fill="midnightblue" stroke="midnightblue" points="470.513,-139.711 477.319,-131.591 466.935,-133.694 470.513,-139.711"/>
</g>
<!-- Node12 -->
<g id="node12" class="node"><title>Node12</title>
<g id="a_node12"><a xlink:href="rightTriangle_8h.html" target="_top" xlink:title="rightTriangle.h">
<polygon fill="white" stroke="black" points="452.769,-168.5 452.769,-187.5 530.769,-187.5 530.769,-168.5 452.769,-168.5"/>
<text text-anchor="middle" x="491.769" y="-175.5" font-family="Helvetica,sans-Serif" font-size="10.00">rightTriangle.h</text>
</a>
</g>
</g>
<!-- Node1&#45;&gt;Node12 -->
<g id="edge19" class="edge"><title>Node1&#45;&gt;Node12</title>
<path fill="none" stroke="midnightblue" d="M336.082,-224.444C367.611,-215.241 417.9,-200.562 452.754,-190.388"/>
<polygon fill="midnightblue" stroke="midnightblue" points="453.973,-193.678 462.592,-187.516 452.012,-186.959 453.973,-193.678"/>
</g>
<!-- Node13 -->
<g id="node13" class="node"><title>Node13</title>
<g id="a_node13"><a xlink:href="equilateralTriangle_8h.html" target="_top" xlink:title="equilateralTriangle.h">
<polygon fill="white" stroke="black" points="575.769,-168.5 575.769,-187.5 679.769,-187.5 679.769,-168.5 575.769,-168.5"/>
<text text-anchor="middle" x="627.769" y="-175.5" font-family="Helvetica,sans-Serif" font-size="10.00">equilateralTriangle.h</text>
</a>
</g>
</g>
<!-- Node1&#45;&gt;Node13 -->
<g id="edge24" class="edge"><title>Node1&#45;&gt;Node13</title>
<path fill="none" stroke="midnightblue" d="M348.076,-226.051C403.69,-216.696 503.042,-199.982 567.135,-189.2"/>
<polygon fill="midnightblue" stroke="midnightblue" points="567.826,-192.633 577.107,-187.522 566.665,-185.73 567.826,-192.633"/>
</g>
<!-- Node4&#45;&gt;Node2 -->
<g id="edge4" class="edge"><title>Node4&#45;&gt;Node2</title>
<path fill="none" stroke="midnightblue" d="M260.876,-112.438C275.786,-99.8629 304.63,-75.7522 329.769,-56 342.822,-45.7429 357.756,-34.5406 369.46,-25.8788"/>
<polygon fill="midnightblue" stroke="midnightblue" points="371.722,-28.5591 377.695,-19.8081 367.569,-22.9245 371.722,-28.5591"/>
</g>
<!-- Node4&#45;&gt;Node3 -->
<g id="edge7" class="edge"><title>Node4&#45;&gt;Node3</title>
<path fill="none" stroke="midnightblue" d="M222.538,-113.378C186.657,-103.69 124.724,-86.9679 85.8472,-76.4712"/>
<polygon fill="midnightblue" stroke="midnightblue" points="86.579,-73.0436 76.0123,-73.8158 84.7543,-79.8016 86.579,-73.0436"/>
</g>
<!-- Node5 -->
<g id="node5" class="node"><title>Node5</title>
<polygon fill="white" stroke="#bfbfbf" points="227.769,-56.5 227.769,-75.5 277.769,-75.5 277.769,-56.5 227.769,-56.5"/>
<text text-anchor="middle" x="252.769" y="-63.5" font-family="Helvetica,sans-Serif" font-size="10.00">fstream</text>
</g>
<!-- Node4&#45;&gt;Node5 -->
<g id="edge5" class="edge"><title>Node4&#45;&gt;Node5</title>
<path fill="none" stroke="midnightblue" d="M251.099,-112.083C251.361,-105.006 251.737,-94.8611 252.065,-85.9865"/>
<polygon fill="midnightblue" stroke="midnightblue" points="255.572,-85.8738 252.444,-75.7511 248.577,-85.6147 255.572,-85.8738"/>
</g>
<!-- Node6 -->
<g id="node6" class="node"><title>Node6</title>
<polygon fill="white" stroke="#bfbfbf" points="93.7685,-56.5 93.7685,-75.5 145.769,-75.5 145.769,-56.5 93.7685,-56.5"/>
<text text-anchor="middle" x="119.769" y="-63.5" font-family="Helvetica,sans-Serif" font-size="10.00">sstream</text>
</g>
<!-- Node4&#45;&gt;Node6 -->
<g id="edge6" class="edge"><title>Node4&#45;&gt;Node6</title>
<path fill="none" stroke="midnightblue" d="M230.011,-112.444C208.452,-103.557 174.505,-89.5632 149.975,-79.4514"/>
<polygon fill="midnightblue" stroke="midnightblue" points="151.008,-76.0917 140.429,-75.5164 148.34,-82.5634 151.008,-76.0917"/>
</g>
<!-- Node7 -->
<g id="node7" class="node"><title>Node7</title>
<polygon fill="white" stroke="#bfbfbf" points="507.269,-0.5 507.269,-19.5 548.269,-19.5 548.269,-0.5 507.269,-0.5"/>
<text text-anchor="middle" x="527.769" y="-7.5" font-family="Helvetica,sans-Serif" font-size="10.00">string</text>
</g>
<!-- Node4&#45;&gt;Node7 -->
<g id="edge8" class="edge"><title>Node4&#45;&gt;Node7</title>
<path fill="none" stroke="midnightblue" d="M269.539,-112.373C297.773,-99.5099 352.962,-74.8022 400.769,-56 433.439,-43.1509 471.451,-29.9015 497.314,-21.1372"/>
<polygon fill="midnightblue" stroke="midnightblue" points="498.572,-24.4067 506.93,-17.8955 496.336,-17.7734 498.572,-24.4067"/>
</g>
<!-- Node8 -->
<g id="node8" class="node"><title>Node8</title>
<polygon fill="white" stroke="#bfbfbf" points="164.269,-56.5 164.269,-75.5 209.269,-75.5 209.269,-56.5 164.269,-56.5"/>
<text text-anchor="middle" x="186.769" y="-63.5" font-family="Helvetica,sans-Serif" font-size="10.00">cstdlib</text>
</g>
<!-- Node4&#45;&gt;Node8 -->
<g id="edge9" class="edge"><title>Node4&#45;&gt;Node8</title>
<path fill="none" stroke="midnightblue" d="M240.486,-112.324C230.932,-104.263 216.489,-92.0765 204.984,-82.3695"/>
<polygon fill="midnightblue" stroke="midnightblue" points="207.138,-79.6076 197.238,-75.8339 202.624,-84.9577 207.138,-79.6076"/>
</g>
<!-- Node9 -->
<g id="node9" class="node"><title>Node9</title>
<polygon fill="white" stroke="#bfbfbf" points="555.769,-56.5 555.769,-75.5 599.769,-75.5 599.769,-56.5 555.769,-56.5"/>
<text text-anchor="middle" x="577.769" y="-63.5" font-family="Helvetica,sans-Serif" font-size="10.00">cmath</text>
</g>
<!-- Node4&#45;&gt;Node9 -->
<g id="edge10" class="edge"><title>Node4&#45;&gt;Node9</title>
<path fill="none" stroke="midnightblue" d="M278.931,-116.349C339.539,-106.341 482.003,-82.8146 545.844,-72.272"/>
<polygon fill="midnightblue" stroke="midnightblue" points="546.451,-75.7192 555.747,-70.6366 545.31,-68.8127 546.451,-75.7192"/>
</g>
<!-- Node10&#45;&gt;Node2 -->
<g id="edge12" class="edge"><title>Node10&#45;&gt;Node2</title>
<path fill="none" stroke="midnightblue" d="M428.173,-56.083C421.541,-48.2982 411.748,-36.8015 403.71,-27.3665"/>
<polygon fill="midnightblue" stroke="midnightblue" points="406.372,-25.0939 397.223,-19.7511 401.043,-29.6332 406.372,-25.0939"/>
</g>
<!-- Node10&#45;&gt;Node7 -->
<g id="edge13" class="edge"><title>Node10&#45;&gt;Node7</title>
<path fill="none" stroke="midnightblue" d="M450.55,-56.324C465.036,-47.8215 487.342,-34.7288 504.262,-24.7975"/>
<polygon fill="midnightblue" stroke="midnightblue" points="506.171,-27.735 513.024,-19.6545 502.628,-21.6981 506.171,-27.735"/>
</g>
<!-- Node11&#45;&gt;Node2 -->
<g id="edge15" class="edge"><title>Node11&#45;&gt;Node2</title>
<path fill="none" stroke="midnightblue" d="M490.847,-112.471C489.005,-99.0703 483.762,-72.8732 469.769,-56 457.89,-41.6777 440.204,-31.0587 424.48,-23.7445"/>
<polygon fill="midnightblue" stroke="midnightblue" points="425.578,-20.4048 415.012,-19.6138 422.778,-26.8207 425.578,-20.4048"/>
</g>
<!-- Node11&#45;&gt;Node7 -->
<g id="edge16" class="edge"><title>Node11&#45;&gt;Node7</title>
<path fill="none" stroke="midnightblue" d="M494.593,-112.368C500.429,-94.5366 513.926,-53.2953 521.789,-29.2717"/>
<polygon fill="midnightblue" stroke="midnightblue" points="525.173,-30.1841 524.957,-19.5914 518.52,-28.0067 525.173,-30.1841"/>
</g>
<!-- Node11&#45;&gt;Node9 -->
<g id="edge17" class="edge"><title>Node11&#45;&gt;Node9</title>
<path fill="none" stroke="midnightblue" d="M505.586,-112.324C519.001,-103.9 539.593,-90.9709 555.354,-81.0741"/>
<polygon fill="midnightblue" stroke="midnightblue" points="557.378,-83.9364 563.985,-75.6545 553.655,-78.0081 557.378,-83.9364"/>
</g>
<!-- Node11&#45;&gt;Node10 -->
<g id="edge18" class="edge"><title>Node11&#45;&gt;Node10</title>
<path fill="none" stroke="midnightblue" d="M482.771,-112.324C474.574,-104.42 462.263,-92.5482 452.296,-82.9377"/>
<polygon fill="midnightblue" stroke="midnightblue" points="454.558,-80.2558 444.93,-75.8339 449.699,-85.2947 454.558,-80.2558"/>
</g>
<!-- Node12&#45;&gt;Node2 -->
<g id="edge20" class="edge"><title>Node12&#45;&gt;Node2</title>
<path fill="none" stroke="midnightblue" d="M480.635,-168.372C460.963,-152.451 420.294,-116.37 400.769,-76 393.761,-61.511 391.133,-43.3265 390.187,-29.8784"/>
<polygon fill="midnightblue" stroke="midnightblue" points="393.683,-29.7107 389.73,-19.8812 386.691,-30.0308 393.683,-29.7107"/>
</g>
<!-- Node12&#45;&gt;Node7 -->
<g id="edge21" class="edge"><title>Node12&#45;&gt;Node7</title>
<path fill="none" stroke="midnightblue" d="M509.133,-168.496C536.482,-153.968 588.464,-121.472 607.769,-76 618.917,-49.7392 585.156,-30.9783 558.095,-20.5605"/>
<polygon fill="midnightblue" stroke="midnightblue" points="559.119,-17.2089 548.525,-17.1013 556.74,-23.7921 559.119,-17.2089"/>
</g>
<!-- Node12&#45;&gt;Node9 -->
<g id="edge22" class="edge"><title>Node12&#45;&gt;Node9</title>
<path fill="none" stroke="midnightblue" d="M498.719,-168.412C506.006,-159.385 517.764,-144.752 527.769,-132 540.478,-115.8 554.785,-97.1586 564.828,-84.0049"/>
<polygon fill="midnightblue" stroke="midnightblue" points="567.749,-85.9471 571.028,-75.8726 562.182,-81.7031 567.749,-85.9471"/>
</g>
<!-- Node12&#45;&gt;Node11 -->
<g id="edge23" class="edge"><title>Node12&#45;&gt;Node11</title>
<path fill="none" stroke="midnightblue" d="M491.769,-168.083C491.769,-161.006 491.769,-150.861 491.769,-141.986"/>
<polygon fill="midnightblue" stroke="midnightblue" points="495.269,-141.751 491.769,-131.751 488.269,-141.751 495.269,-141.751"/>
</g>
<!-- Node13&#45;&gt;Node2 -->
<g id="edge25" class="edge"><title>Node13&#45;&gt;Node2</title>
<path fill="none" stroke="midnightblue" d="M629.305,-168.254C632.644,-146.131 638.013,-87.4715 607.769,-56 583.304,-30.543 482.701,-18.5009 427.113,-13.6929"/>
<polygon fill="midnightblue" stroke="midnightblue" points="427.214,-10.1893 416.959,-12.8517 426.636,-17.1654 427.214,-10.1893"/>
</g>
<!-- Node13&#45;&gt;Node7 -->
<g id="edge26" class="edge"><title>Node13&#45;&gt;Node7</title>
<path fill="none" stroke="midnightblue" d="M643.552,-168.467C655.971,-160.769 672.374,-148.179 679.769,-132 693.81,-101.279 699.981,-83.0631 679.769,-56 651.935,-18.7318 594.599,-11.0589 558.849,-10.1474"/>
<polygon fill="midnightblue" stroke="midnightblue" points="558.534,-6.64458 548.504,-10.0563 558.472,-13.6443 558.534,-6.64458"/>
</g>
<!-- Node13&#45;&gt;Node9 -->
<g id="edge27" class="edge"><title>Node13&#45;&gt;Node9</title>
<path fill="none" stroke="midnightblue" d="M623.845,-168.368C615.703,-150.456 596.825,-108.923 585.927,-84.9482"/>
<polygon fill="midnightblue" stroke="midnightblue" points="588.998,-83.2468 581.674,-75.5914 582.626,-86.1434 588.998,-83.2468"/>
</g>
<!-- Node13&#45;&gt;Node11 -->
<g id="edge28" class="edge"><title>Node13&#45;&gt;Node11</title>
<path fill="none" stroke="midnightblue" d="M606.219,-168.444C583.737,-159.517 548.281,-145.439 522.789,-135.317"/>
<polygon fill="midnightblue" stroke="midnightblue" points="523.803,-131.954 513.217,-131.516 521.22,-138.46 523.803,-131.954"/>
</g>
</g>
</svg>
