<?xml version="1.0" encoding="UTF-8" standalone="no"?>
<!DOCTYPE svg PUBLIC "-//W3C//DTD SVG 1.1//EN"
 "http://www.w3.org/Graphics/SVG/1.1/DTD/svg11.dtd">
<!-- Generated by graphviz version 2.36.0 (20140111.2315)
 -->
<!-- Title: shape.h Pages: 1 -->
<svg width="530pt" height="196pt"
 viewBox="0.00 0.00 530.00 196.00" xmlns="http://www.w3.org/2000/svg" xmlns:xlink="http://www.w3.org/1999/xlink">
<g id="graph0" class="graph" transform="scale(1 1) rotate(0) translate(4 192)">
<title>shape.h</title>
<polygon fill="white" stroke="none" points="-4,4 -4,-192 526,-192 526,4 -4,4"/>
<!-- Node1 -->
<g id="node1" class="node"><title>Node1</title>
<polygon fill="#bfbfbf" stroke="black" points="195.5,-168.5 195.5,-187.5 246.5,-187.5 246.5,-168.5 195.5,-168.5"/>
<text text-anchor="middle" x="221" y="-175.5" font-family="Helvetica,sans-Serif" font-size="10.00">shape.h</text>
</g>
<!-- Node2 -->
<g id="node2" class="node"><title>Node2</title>
<g id="a_node2"><a xlink:href="circle_8h.html" target="_top" xlink:title="circle.h">
<polygon fill="white" stroke="black" points="8,-112.5 8,-131.5 56,-131.5 56,-112.5 8,-112.5"/>
<text text-anchor="middle" x="32" y="-119.5" font-family="Helvetica,sans-Serif" font-size="10.00">circle.h</text>
</a>
</g>
</g>
<!-- Node1&#45;&gt;Node2 -->
<g id="edge1" class="edge"><title>Node1&#45;&gt;Node2</title>
<path fill="none" stroke="midnightblue" d="M185.03,-166.723C147.191,-155.912 88.6981,-139.199 56.0787,-129.88"/>
<polygon fill="midnightblue" stroke="midnightblue" points="184.54,-170.223 195.117,-169.605 186.463,-163.492 184.54,-170.223"/>
</g>
<!-- Node4 -->
<g id="node4" class="node"><title>Node4</title>
<g id="a_node4"><a xlink:href="triangle_8h.html" target="_top" xlink:title="triangle.h">
<polygon fill="white" stroke="black" points="193,-112.5 193,-131.5 249,-131.5 249,-112.5 193,-112.5"/>
<text text-anchor="middle" x="221" y="-119.5" font-family="Helvetica,sans-Serif" font-size="10.00">triangle.h</text>
</a>
</g>
</g>
<!-- Node1&#45;&gt;Node4 -->
<g id="edge3" class="edge"><title>Node1&#45;&gt;Node4</title>
<path fill="none" stroke="midnightblue" d="M221,-157.805C221,-148.91 221,-138.78 221,-131.751"/>
<polygon fill="midnightblue" stroke="midnightblue" points="217.5,-158.083 221,-168.083 224.5,-158.083 217.5,-158.083"/>
</g>
<!-- Node7 -->
<g id="node7" class="node"><title>Node7</title>
<g id="a_node7"><a xlink:href="runShapes_8cpp.html" target="_top" xlink:title="runShapes.cpp">
<polygon fill="white" stroke="black" points="180,-0.5 180,-19.5 262,-19.5 262,-0.5 180,-0.5"/>
<text text-anchor="middle" x="221" y="-7.5" font-family="Helvetica,sans-Serif" font-size="10.00">runShapes.cpp</text>
</a>
</g>
</g>
<!-- Node1&#45;&gt;Node7 -->
<g id="edge12" class="edge"><title>Node1&#45;&gt;Node7</title>
<path fill="none" stroke="midnightblue" d="M191.748,-164.148C148.561,-143.32 75.9258,-100.063 106,-56 115.578,-41.9665 157.38,-28.0603 187.831,-19.5033"/>
<polygon fill="midnightblue" stroke="midnightblue" points="190.444,-167.403 200.984,-168.48 193.417,-161.065 190.444,-167.403"/>
</g>
<!-- Node11 -->
<g id="node11" class="node"><title>Node11</title>
<g id="a_node11"><a xlink:href="shape_8cpp.html" target="_top" xlink:title="shape.cpp">
<polygon fill="white" stroke="black" points="267,-112.5 267,-131.5 329,-131.5 329,-112.5 267,-112.5"/>
<text text-anchor="middle" x="298" y="-119.5" font-family="Helvetica,sans-Serif" font-size="10.00">shape.cpp</text>
</a>
</g>
</g>
<!-- Node1&#45;&gt;Node11 -->
<g id="edge13" class="edge"><title>Node1&#45;&gt;Node11</title>
<path fill="none" stroke="midnightblue" d="M241.901,-162.342C255.911,-152.517 273.883,-139.913 285.659,-131.655"/>
<polygon fill="midnightblue" stroke="midnightblue" points="239.549,-159.717 233.371,-168.324 243.568,-165.448 239.549,-159.717"/>
</g>
<!-- Node12 -->
<g id="node12" class="node"><title>Node12</title>
<g id="a_node12"><a xlink:href="square_8h.html" target="_top" xlink:title="square.h">
<polygon fill="white" stroke="black" points="405,-112.5 405,-131.5 459,-131.5 459,-112.5 405,-112.5"/>
<text text-anchor="middle" x="432" y="-119.5" font-family="Helvetica,sans-Serif" font-size="10.00">square.h</text>
</a>
</g>
</g>
<!-- Node1&#45;&gt;Node12 -->
<g id="edge14" class="edge"><title>Node1&#45;&gt;Node12</title>
<path fill="none" stroke="midnightblue" d="M256.66,-167.874C298.558,-157.151 367.136,-139.6 404.915,-129.932"/>
<polygon fill="midnightblue" stroke="midnightblue" points="255.693,-164.508 246.873,-170.379 257.428,-171.29 255.693,-164.508"/>
</g>
<!-- Node3 -->
<g id="node3" class="node"><title>Node3</title>
<g id="a_node3"><a xlink:href="circle_8cpp.html" target="_top" xlink:title="circle.cpp">
<polygon fill="white" stroke="black" points="-0.5,-56.5 -0.5,-75.5 58.5,-75.5 58.5,-56.5 -0.5,-56.5"/>
<text text-anchor="middle" x="29" y="-63.5" font-family="Helvetica,sans-Serif" font-size="10.00">circle.cpp</text>
</a>
</g>
</g>
<!-- Node2&#45;&gt;Node3 -->
<g id="edge2" class="edge"><title>Node2&#45;&gt;Node3</title>
<path fill="none" stroke="midnightblue" d="M30.9336,-101.805C30.4395,-92.9102 29.8767,-82.7798 29.4862,-75.7511"/>
<polygon fill="midnightblue" stroke="midnightblue" points="27.4552,-102.293 31.5046,-112.083 34.4444,-101.904 27.4552,-102.293"/>
</g>
<!-- Node5 -->
<g id="node5" class="node"><title>Node5</title>
<g id="a_node5"><a xlink:href="equilateralTriangle_8h.html" target="_top" xlink:title="equilateralTriangle.h">
<polygon fill="white" stroke="black" points="335,-56.5 335,-75.5 439,-75.5 439,-56.5 335,-56.5"/>
<text text-anchor="middle" x="387" y="-63.5" font-family="Helvetica,sans-Serif" font-size="10.00">equilateralTriangle.h</text>
</a>
</g>
</g>
<!-- Node4&#45;&gt;Node5 -->
<g id="edge4" class="edge"><title>Node4&#45;&gt;Node5</title>
<path fill="none" stroke="midnightblue" d="M256.953,-109.304C288.232,-99.1294 332.821,-84.6246 360.82,-75.5164"/>
<polygon fill="midnightblue" stroke="midnightblue" points="255.73,-106.022 247.303,-112.444 257.895,-112.678 255.73,-106.022"/>
</g>
<!-- Node4&#45;&gt;Node7 -->
<g id="edge10" class="edge"><title>Node4&#45;&gt;Node7</title>
<path fill="none" stroke="midnightblue" d="M221,-102.348C221,-78.2538 221,-37.3079 221,-19.5914"/>
<polygon fill="midnightblue" stroke="midnightblue" points="217.5,-102.368 221,-112.368 224.5,-102.369 217.5,-102.368"/>
</g>
<!-- Node8 -->
<g id="node8" class="node"><title>Node8</title>
<g id="a_node8"><a xlink:href="rightTriangle_8h.html" target="_top" xlink:title="rightTriangle.h">
<polygon fill="white" stroke="black" points="115,-56.5 115,-75.5 193,-75.5 193,-56.5 115,-56.5"/>
<text text-anchor="middle" x="154" y="-63.5" font-family="Helvetica,sans-Serif" font-size="10.00">rightTriangle.h</text>
</a>
</g>
</g>
<!-- Node4&#45;&gt;Node8 -->
<g id="edge7" class="edge"><title>Node4&#45;&gt;Node8</title>
<path fill="none" stroke="midnightblue" d="M202.165,-105.82C190.162,-96.1452 175.028,-83.9481 164.961,-75.8339"/>
<polygon fill="midnightblue" stroke="midnightblue" points="200.253,-108.774 210.235,-112.324 204.646,-103.324 200.253,-108.774"/>
</g>
<!-- Node10 -->
<g id="node10" class="node"><title>Node10</title>
<g id="a_node10"><a xlink:href="triangle_8cpp.html" target="_top" xlink:title="triangle.cpp">
<polygon fill="white" stroke="black" points="249.5,-56.5 249.5,-75.5 316.5,-75.5 316.5,-56.5 249.5,-56.5"/>
<text text-anchor="middle" x="283" y="-63.5" font-family="Helvetica,sans-Serif" font-size="10.00">triangle.cpp</text>
</a>
</g>
</g>
<!-- Node4&#45;&gt;Node10 -->
<g id="edge11" class="edge"><title>Node4&#45;&gt;Node10</title>
<path fill="none" stroke="midnightblue" d="M238.754,-105.537C249.808,-95.9087 263.631,-83.8694 272.857,-75.8339"/>
<polygon fill="midnightblue" stroke="midnightblue" points="236.203,-103.117 230.961,-112.324 240.801,-108.395 236.203,-103.117"/>
</g>
<!-- Node6 -->
<g id="node6" class="node"><title>Node6</title>
<g id="a_node6"><a xlink:href="equilateralTriangle_8cpp.html" target="_top" xlink:title="equilateralTriangle.cpp">
<polygon fill="white" stroke="black" points="330,-0.5 330,-19.5 444,-19.5 444,-0.5 330,-0.5"/>
<text text-anchor="middle" x="387" y="-7.5" font-family="Helvetica,sans-Serif" font-size="10.00">equilateralTriangle.cpp</text>
</a>
</g>
</g>
<!-- Node5&#45;&gt;Node6 -->
<g id="edge5" class="edge"><title>Node5&#45;&gt;Node6</title>
<path fill="none" stroke="midnightblue" d="M387,-45.8045C387,-36.9102 387,-26.7798 387,-19.7511"/>
<polygon fill="midnightblue" stroke="midnightblue" points="383.5,-46.083 387,-56.083 390.5,-46.083 383.5,-46.083"/>
</g>
<!-- Node5&#45;&gt;Node7 -->
<g id="edge6" class="edge"><title>Node5&#45;&gt;Node7</title>
<path fill="none" stroke="midnightblue" d="M351.047,-53.3044C319.768,-43.1294 275.179,-28.6246 247.18,-19.5164"/>
<polygon fill="midnightblue" stroke="midnightblue" points="350.105,-56.6783 360.697,-56.4435 352.27,-50.0217 350.105,-56.6783"/>
</g>
<!-- Node8&#45;&gt;Node7 -->
<g id="edge9" class="edge"><title>Node8&#45;&gt;Node7</title>
<path fill="none" stroke="midnightblue" d="M172.835,-49.8197C184.838,-40.1452 199.972,-27.9481 210.039,-19.8339"/>
<polygon fill="midnightblue" stroke="midnightblue" points="170.354,-47.3236 164.765,-56.324 174.747,-52.7738 170.354,-47.3236"/>
</g>
<!-- Node9 -->
<g id="node9" class="node"><title>Node9</title>
<g id="a_node9"><a xlink:href="rightTriangle_8cpp.html" target="_top" xlink:title="rightTriangle.cpp">
<polygon fill="white" stroke="black" points="72.5,-0.5 72.5,-19.5 161.5,-19.5 161.5,-0.5 72.5,-0.5"/>
<text text-anchor="middle" x="117" y="-7.5" font-family="Helvetica,sans-Serif" font-size="10.00">rightTriangle.cpp</text>
</a>
</g>
</g>
<!-- Node8&#45;&gt;Node9 -->
<g id="edge8" class="edge"><title>Node8&#45;&gt;Node9</title>
<path fill="none" stroke="midnightblue" d="M142.054,-47.5656C135.688,-38.2747 128.133,-27.2484 122.996,-19.7511"/>
<polygon fill="midnightblue" stroke="midnightblue" points="139.351,-49.812 147.89,-56.083 145.125,-45.8553 139.351,-49.812"/>
</g>
<!-- Node13 -->
<g id="node13" class="node"><title>Node13</title>
<g id="a_node13"><a xlink:href="square_8cpp.html" target="_top" xlink:title="square.cpp">
<polygon fill="white" stroke="black" points="457.5,-56.5 457.5,-75.5 522.5,-75.5 522.5,-56.5 457.5,-56.5"/>
<text text-anchor="middle" x="490" y="-63.5" font-family="Helvetica,sans-Serif" font-size="10.00">square.cpp</text>
</a>
</g>
</g>
<!-- Node12&#45;&gt;Node13 -->
<g id="edge15" class="edge"><title>Node12&#45;&gt;Node13</title>
<path fill="none" stroke="midnightblue" d="M448.913,-105.253C459.203,-95.6731 471.966,-83.7906 480.512,-75.8339"/>
<polygon fill="midnightblue" stroke="midnightblue" points="446.253,-102.948 441.319,-112.324 451.023,-108.071 446.253,-102.948"/>
</g>
</g>
</svg>
