<?xml version="1.0" encoding="UTF-8" standalone="no"?>
<!DOCTYPE svg PUBLIC "-//W3C//DTD SVG 1.1//EN"
 "http://www.w3.org/Graphics/SVG/1.1/DTD/svg11.dtd">
<!-- Generated by graphviz version 2.36.0 (20140111.2315)
 -->
<!-- Title: triangle.h Pages: 1 -->
<svg width="372pt" height="140pt"
 viewBox="0.00 0.00 372.00 140.00" xmlns="http://www.w3.org/2000/svg" xmlns:xlink="http://www.w3.org/1999/xlink">
<g id="graph0" class="graph" transform="scale(1 1) rotate(0) translate(4 136)">
<title>triangle.h</title>
<polygon fill="white" stroke="none" points="-4,4 -4,-136 368,-136 368,4 -4,4"/>
<!-- Node1 -->
<g id="node1" class="node"><title>Node1</title>
<polygon fill="#bfbfbf" stroke="black" points="178,-112.5 178,-131.5 234,-131.5 234,-112.5 178,-112.5"/>
<text text-anchor="middle" x="206" y="-119.5" font-family="Helvetica,sans-Serif" font-size="10.00">triangle.h</text>
</g>
<!-- Node2 -->
<g id="node2" class="node"><title>Node2</title>
<g id="a_node2"><a xlink:href="equilateralTriangle_8h.html" target="_top" xlink:title="equilateralTriangle.h">
<polygon fill="white" stroke="black" points="41,-56.5 41,-75.5 145,-75.5 145,-56.5 41,-56.5"/>
<text text-anchor="middle" x="93" y="-63.5" font-family="Helvetica,sans-Serif" font-size="10.00">equilateralTriangle.h</text>
</a>
</g>
</g>
<!-- Node1&#45;&gt;Node2 -->
<g id="edge1" class="edge"><title>Node1&#45;&gt;Node2</title>
<path fill="none" stroke="midnightblue" d="M178.997,-108.096C157.886,-98.0073 129.138,-84.2697 110.821,-75.5164"/>
<polygon fill="midnightblue" stroke="midnightblue" points="177.563,-111.29 188.095,-112.444 180.581,-104.974 177.563,-111.29"/>
</g>
<!-- Node4 -->
<g id="node4" class="node"><title>Node4</title>
<g id="a_node4"><a xlink:href="runShapes_8cpp.html" target="_top" xlink:title="runShapes.cpp">
<polygon fill="white" stroke="black" points="132,-0.5 132,-19.5 214,-19.5 214,-0.5 132,-0.5"/>
<text text-anchor="middle" x="173" y="-7.5" font-family="Helvetica,sans-Serif" font-size="10.00">runShapes.cpp</text>
</a>
</g>
</g>
<!-- Node1&#45;&gt;Node4 -->
<g id="edge7" class="edge"><title>Node1&#45;&gt;Node4</title>
<path fill="none" stroke="midnightblue" d="M200.25,-102.771C197.692,-94.5942 194.662,-84.8233 192,-76 185.956,-55.9645 179.131,-32.366 175.533,-19.8457"/>
<polygon fill="midnightblue" stroke="midnightblue" points="196.935,-103.896 203.272,-112.387 203.613,-101.797 196.935,-103.896"/>
</g>
<!-- Node5 -->
<g id="node5" class="node"><title>Node5</title>
<g id="a_node5"><a xlink:href="rightTriangle_8h.html" target="_top" xlink:title="rightTriangle.h">
<polygon fill="white" stroke="black" points="201,-56.5 201,-75.5 279,-75.5 279,-56.5 201,-56.5"/>
<text text-anchor="middle" x="240" y="-63.5" font-family="Helvetica,sans-Serif" font-size="10.00">rightTriangle.h</text>
</a>
</g>
</g>
<!-- Node1&#45;&gt;Node5 -->
<g id="edge4" class="edge"><title>Node1&#45;&gt;Node5</title>
<path fill="none" stroke="midnightblue" d="M216.977,-103.566C222.827,-94.2747 229.77,-83.2484 234.49,-75.7511"/>
<polygon fill="midnightblue" stroke="midnightblue" points="213.981,-101.756 211.614,-112.083 219.904,-105.486 213.981,-101.756"/>
</g>
<!-- Node7 -->
<g id="node7" class="node"><title>Node7</title>
<g id="a_node7"><a xlink:href="triangle_8cpp.html" target="_top" xlink:title="triangle.cpp">
<polygon fill="white" stroke="black" points="297.5,-56.5 297.5,-75.5 364.5,-75.5 364.5,-56.5 297.5,-56.5"/>
<text text-anchor="middle" x="331" y="-63.5" font-family="Helvetica,sans-Serif" font-size="10.00">triangle.cpp</text>
</a>
</g>
</g>
<!-- Node1&#45;&gt;Node7 -->
<g id="edge8" class="edge"><title>Node1&#45;&gt;Node7</title>
<path fill="none" stroke="midnightblue" d="M235.241,-108.368C258.65,-98.2553 290.841,-84.3486 311.286,-75.5164"/>
<polygon fill="midnightblue" stroke="midnightblue" points="233.599,-105.265 225.807,-112.444 236.375,-111.691 233.599,-105.265"/>
</g>
<!-- Node3 -->
<g id="node3" class="node"><title>Node3</title>
<g id="a_node3"><a xlink:href="equilateralTriangle_8cpp.html" target="_top" xlink:title="equilateralTriangle.cpp">
<polygon fill="white" stroke="black" points="0,-0.5 0,-19.5 114,-19.5 114,-0.5 0,-0.5"/>
<text text-anchor="middle" x="57" y="-7.5" font-family="Helvetica,sans-Serif" font-size="10.00">equilateralTriangle.cpp</text>
</a>
</g>
</g>
<!-- Node2&#45;&gt;Node3 -->
<g id="edge2" class="edge"><title>Node2&#45;&gt;Node3</title>
<path fill="none" stroke="midnightblue" d="M81.3771,-47.5656C75.1832,-38.2747 67.8323,-27.2484 62.8341,-19.7511"/>
<polygon fill="midnightblue" stroke="midnightblue" points="78.5961,-49.7039 87.0553,-56.083 84.4205,-45.821 78.5961,-49.7039"/>
</g>
<!-- Node2&#45;&gt;Node4 -->
<g id="edge3" class="edge"><title>Node2&#45;&gt;Node4</title>
<path fill="none" stroke="midnightblue" d="M114.301,-50.6221C128.915,-40.7574 147.827,-27.9919 160.179,-19.6545"/>
<polygon fill="midnightblue" stroke="midnightblue" points="112.184,-47.8282 105.853,-56.324 116.1,-53.6302 112.184,-47.8282"/>
</g>
<!-- Node5&#45;&gt;Node4 -->
<g id="edge6" class="edge"><title>Node5&#45;&gt;Node4</title>
<path fill="none" stroke="midnightblue" d="M221.165,-49.8197C209.162,-40.1452 194.028,-27.9481 183.961,-19.8339"/>
<polygon fill="midnightblue" stroke="midnightblue" points="219.253,-52.7738 229.235,-56.324 223.646,-47.3236 219.253,-52.7738"/>
</g>
<!-- Node6 -->
<g id="node6" class="node"><title>Node6</title>
<g id="a_node6"><a xlink:href="rightTriangle_8cpp.html" target="_top" xlink:title="rightTriangle.cpp">
<polygon fill="white" stroke="black" points="232.5,-0.5 232.5,-19.5 321.5,-19.5 321.5,-0.5 232.5,-0.5"/>
<text text-anchor="middle" x="277" y="-7.5" font-family="Helvetica,sans-Serif" font-size="10.00">rightTriangle.cpp</text>
</a>
</g>
</g>
<!-- Node5&#45;&gt;Node6 -->
<g id="edge5" class="edge"><title>Node5&#45;&gt;Node6</title>
<path fill="none" stroke="midnightblue" d="M251.946,-47.5656C258.312,-38.2747 265.867,-27.2484 271.004,-19.7511"/>
<polygon fill="midnightblue" stroke="midnightblue" points="248.875,-45.8553 246.11,-56.083 254.649,-49.812 248.875,-45.8553"/>
</g>
</g>
</svg>
