<?xml version="1.0" encoding="UTF-8" standalone="no"?>
<!DOCTYPE svg PUBLIC "-//W3C//DTD SVG 1.1//EN"
 "http://www.w3.org/Graphics/SVG/1.1/DTD/svg11.dtd">
<!-- Generated by graphviz version 2.36.0 (20140111.2315)
 -->
<!-- Title: ColumnHeading.h Pages: 1 -->
<svg width="229pt" height="84pt"
 viewBox="0.00 0.00 229.00 84.00" xmlns="http://www.w3.org/2000/svg" xmlns:xlink="http://www.w3.org/1999/xlink">
<g id="graph0" class="graph" transform="scale(1 1) rotate(0) translate(4 80)">
<title>ColumnHeading.h</title>
<polygon fill="white" stroke="none" points="-4,4 -4,-80 225,-80 225,4 -4,4"/>
<!-- Node1 -->
<g id="node1" class="node"><title>Node1</title>
<polygon fill="#bfbfbf" stroke="black" points="64.5,-56.5 64.5,-75.5 159.5,-75.5 159.5,-56.5 64.5,-56.5"/>
<text text-anchor="middle" x="112" y="-63.5" font-family="Helvetica,sans-Serif" font-size="10.00">ColumnHeading.h</text>
</g>
<!-- Node2 -->
<g id="node2" class="node"><title>Node2</title>
<g id="a_node2"><a xlink:href="ColumnHeading_8cpp.html" target="_top" xlink:title="ColumnHeading.cpp">
<polygon fill="white" stroke="black" points="-0.5,-0.5 -0.5,-19.5 104.5,-19.5 104.5,-0.5 -0.5,-0.5"/>
<text text-anchor="middle" x="52" y="-7.5" font-family="Helvetica,sans-Serif" font-size="10.00">ColumnHeading.cpp</text>
</a>
</g>
</g>
<!-- Node1&#45;&gt;Node2 -->
<g id="edge1" class="edge"><title>Node1&#45;&gt;Node2</title>
<path fill="none" stroke="midnightblue" d="M94.8191,-49.5372C84.1208,-39.9087 70.7437,-27.8694 61.8154,-19.8339"/>
<polygon fill="midnightblue" stroke="midnightblue" points="92.5856,-52.2358 102.36,-56.324 97.2684,-47.0327 92.5856,-52.2358"/>
</g>
<!-- Node3 -->
<g id="node3" class="node"><title>Node3</title>
<g id="a_node3"><a xlink:href="pointerReview_8cpp.html" target="_top" xlink:title="pointerReview.cpp">
<polygon fill="white" stroke="black" points="123,-0.5 123,-19.5 221,-19.5 221,-0.5 123,-0.5"/>
<text text-anchor="middle" x="172" y="-7.5" font-family="Helvetica,sans-Serif" font-size="10.00">pointerReview.cpp</text>
</a>
</g>
</g>
<!-- Node1&#45;&gt;Node3 -->
<g id="edge2" class="edge"><title>Node1&#45;&gt;Node3</title>
<path fill="none" stroke="midnightblue" d="M129.181,-49.5372C139.879,-39.9087 153.256,-27.8694 162.185,-19.8339"/>
<polygon fill="midnightblue" stroke="midnightblue" points="126.732,-47.0327 121.64,-56.324 131.414,-52.2358 126.732,-47.0327"/>
</g>
</g>
</svg>
