<?xml version="1.0" encoding="UTF-8" standalone="no"?>
<!DOCTYPE svg PUBLIC "-//W3C//DTD SVG 1.1//EN"
 "http://www.w3.org/Graphics/SVG/1.1/DTD/svg11.dtd">
<!-- Generated by graphviz version 2.36.0 (20140111.2315)
 -->
<!-- Title: pointerReview.cpp Pages: 1 -->
<svg width="314pt" height="140pt"
 viewBox="0.00 0.00 314.00 140.00" xmlns="http://www.w3.org/2000/svg" xmlns:xlink="http://www.w3.org/1999/xlink">
<g id="graph0" class="graph" transform="scale(1 1) rotate(0) translate(4 136)">
<title>pointerReview.cpp</title>
<polygon fill="white" stroke="none" points="-4,4 -4,-136 310,-136 310,4 -4,4"/>
<!-- Node1 -->
<g id="node1" class="node"><title>Node1</title>
<polygon fill="#bfbfbf" stroke="black" points="86,-112.5 86,-131.5 184,-131.5 184,-112.5 86,-112.5"/>
<text text-anchor="middle" x="135" y="-119.5" font-family="Helvetica,sans-Serif" font-size="10.00">pointerReview.cpp</text>
</g>
<!-- Node2 -->
<g id="node2" class="node"><title>Node2</title>
<polygon fill="white" stroke="#bfbfbf" points="-0.5,-56.5 -0.5,-75.5 44.5,-75.5 44.5,-56.5 -0.5,-56.5"/>
<text text-anchor="middle" x="22" y="-63.5" font-family="Helvetica,sans-Serif" font-size="10.00">cstdlib</text>
</g>
<!-- Node1&#45;&gt;Node2 -->
<g id="edge1" class="edge"><title>Node1&#45;&gt;Node2</title>
<path fill="none" stroke="midnightblue" d="M117.095,-112.444C98.746,-103.675 69.9946,-89.9355 48.9064,-79.8579"/>
<polygon fill="midnightblue" stroke="midnightblue" points="50.3532,-76.6703 39.8214,-75.5164 47.335,-82.9862 50.3532,-76.6703"/>
</g>
<!-- Node3 -->
<g id="node3" class="node"><title>Node3</title>
<polygon fill="white" stroke="#bfbfbf" points="63,-56.5 63,-75.5 107,-75.5 107,-56.5 63,-56.5"/>
<text text-anchor="middle" x="85" y="-63.5" font-family="Helvetica,sans-Serif" font-size="10.00">cmath</text>
</g>
<!-- Node1&#45;&gt;Node3 -->
<g id="edge2" class="edge"><title>Node1&#45;&gt;Node3</title>
<path fill="none" stroke="midnightblue" d="M126.744,-112.083C119.535,-104.298 108.89,-92.8015 100.154,-83.3665"/>
<polygon fill="midnightblue" stroke="midnightblue" points="102.465,-80.7108 93.1028,-75.7511 97.3288,-85.4666 102.465,-80.7108"/>
</g>
<!-- Node4 -->
<g id="node4" class="node"><title>Node4</title>
<polygon fill="white" stroke="#bfbfbf" points="113,-0.5 113,-19.5 167,-19.5 167,-0.5 113,-0.5"/>
<text text-anchor="middle" x="140" y="-7.5" font-family="Helvetica,sans-Serif" font-size="10.00">iostream</text>
</g>
<!-- Node1&#45;&gt;Node4 -->
<g id="edge3" class="edge"><title>Node1&#45;&gt;Node4</title>
<path fill="none" stroke="midnightblue" d="M135.392,-112.368C136.199,-94.617 138.061,-53.6664 139.155,-29.5974"/>
<polygon fill="midnightblue" stroke="midnightblue" points="142.652,-29.7401 139.609,-19.5914 135.659,-29.4221 142.652,-29.7401"/>
</g>
<!-- Node5 -->
<g id="node5" class="node"><title>Node5</title>
<polygon fill="white" stroke="#bfbfbf" points="256,-0.5 256,-19.5 306,-19.5 306,-0.5 256,-0.5"/>
<text text-anchor="middle" x="281" y="-7.5" font-family="Helvetica,sans-Serif" font-size="10.00">iomanip</text>
</g>
<!-- Node1&#45;&gt;Node5 -->
<g id="edge4" class="edge"><title>Node1&#45;&gt;Node5</title>
<path fill="none" stroke="midnightblue" d="M184.247,-116.116C212.364,-110.75 246.076,-99.5134 267,-76 278.141,-63.4798 281.148,-44.2539 281.664,-29.9556"/>
<polygon fill="midnightblue" stroke="midnightblue" points="285.164,-29.7629 281.651,-19.7673 278.164,-29.7717 285.164,-29.7629"/>
</g>
<!-- Node6 -->
<g id="node6" class="node"><title>Node6</title>
<g id="a_node6"><a xlink:href="ColumnHeading_8h.html" target="_top" xlink:title="ColumnHeading.h">
<polygon fill="white" stroke="black" points="163.5,-56.5 163.5,-75.5 258.5,-75.5 258.5,-56.5 163.5,-56.5"/>
<text text-anchor="middle" x="211" y="-63.5" font-family="Helvetica,sans-Serif" font-size="10.00">ColumnHeading.h</text>
</a>
</g>
</g>
<!-- Node1&#45;&gt;Node6 -->
<g id="edge5" class="edge"><title>Node1&#45;&gt;Node6</title>
<path fill="none" stroke="midnightblue" d="M147.211,-112.324C158.776,-104.107 176.375,-91.6017 190.161,-81.8069"/>
<polygon fill="midnightblue" stroke="midnightblue" points="192.443,-84.4791 198.567,-75.8339 188.388,-78.7729 192.443,-84.4791"/>
</g>
<!-- Node6&#45;&gt;Node4 -->
<g id="edge6" class="edge"><title>Node6&#45;&gt;Node4</title>
<path fill="none" stroke="midnightblue" d="M199.593,-56.324C188.891,-48.1849 172.659,-35.8395 159.837,-26.0874"/>
<polygon fill="midnightblue" stroke="midnightblue" points="161.693,-23.1018 151.615,-19.8339 157.456,-28.6734 161.693,-23.1018"/>
</g>
<!-- Node6&#45;&gt;Node5 -->
<g id="edge7" class="edge"><title>Node6&#45;&gt;Node5</title>
<path fill="none" stroke="midnightblue" d="M222.247,-56.324C232.797,-48.1849 248.801,-35.8395 261.442,-26.0874"/>
<polygon fill="midnightblue" stroke="midnightblue" points="263.769,-28.7132 269.549,-19.8339 259.493,-23.1707 263.769,-28.7132"/>
</g>
<!-- Node7 -->
<g id="node7" class="node"><title>Node7</title>
<polygon fill="white" stroke="#bfbfbf" points="190.5,-0.5 190.5,-19.5 231.5,-19.5 231.5,-0.5 190.5,-0.5"/>
<text text-anchor="middle" x="211" y="-7.5" font-family="Helvetica,sans-Serif" font-size="10.00">string</text>
</g>
<!-- Node6&#45;&gt;Node7 -->
<g id="edge8" class="edge"><title>Node6&#45;&gt;Node7</title>
<path fill="none" stroke="midnightblue" d="M211,-56.083C211,-49.0059 211,-38.8611 211,-29.9865"/>
<polygon fill="midnightblue" stroke="midnightblue" points="214.5,-29.751 211,-19.7511 207.5,-29.7511 214.5,-29.751"/>
</g>
</g>
</svg>
