<?xml version="1.0" encoding="UTF-8" standalone="no"?>
<!DOCTYPE svg PUBLIC "-//W3C//DTD SVG 1.1//EN"
 "http://www.w3.org/Graphics/SVG/1.1/DTD/svg11.dtd">
<!-- Generated by graphviz version 2.36.0 (20140111.2315)
 -->
<!-- Title: House::operator== Pages: 1 -->
<svg width="216pt" height="66pt"
 viewBox="0.00 0.00 216.00 66.00" xmlns="http://www.w3.org/2000/svg" xmlns:xlink="http://www.w3.org/1999/xlink">
<g id="graph0" class="graph" transform="scale(1 1) rotate(0) translate(4 62)">
<title>House::operator==</title>
<polygon fill="white" stroke="none" points="-4,4 -4,-62 212,-62 212,4 -4,4"/>
<!-- Node1 -->
<g id="node1" class="node"><title>Node1</title>
<polygon fill="#bfbfbf" stroke="black" points="0,-19.5 0,-38.5 98,-38.5 98,-19.5 0,-19.5"/>
<text text-anchor="middle" x="49" y="-26.5" font-family="Helvetica,sans-Serif" font-size="10.00">House::operator==</text>
</g>
<!-- Node2 -->
<g id="node2" class="node"><title>Node2</title>
<g id="a_node2"><a xlink:href="classHouse.html#ae70ecbaede41b41d52ff35f4ecaaf6a6" target="_top" xlink:title="House::begin">
<polygon fill="white" stroke="black" points="134,-38.5 134,-57.5 208,-57.5 208,-38.5 134,-38.5"/>
<text text-anchor="middle" x="171" y="-45.5" font-family="Helvetica,sans-Serif" font-size="10.00">House::begin</text>
</a>
</g>
</g>
<!-- Node1&#45;&gt;Node2 -->
<g id="edge1" class="edge"><title>Node1&#45;&gt;Node2</title>
<path fill="none" stroke="midnightblue" d="M98.1172,-36.6185C106.554,-37.9544 115.318,-39.3419 123.704,-40.6697"/>
<polygon fill="midnightblue" stroke="midnightblue" points="123.274,-44.1452 133.698,-42.2522 124.369,-37.2314 123.274,-44.1452"/>
</g>
<!-- Node3 -->
<g id="node3" class="node"><title>Node3</title>
<g id="a_node3"><a xlink:href="classHouse.html#a93d9916bf4ea226e254470a0e6728efb" target="_top" xlink:title="House::end">
<polygon fill="white" stroke="black" points="137.5,-0.5 137.5,-19.5 204.5,-19.5 204.5,-0.5 137.5,-0.5"/>
<text text-anchor="middle" x="171" y="-7.5" font-family="Helvetica,sans-Serif" font-size="10.00">House::end</text>
</a>
</g>
</g>
<!-- Node1&#45;&gt;Node3 -->
<g id="edge2" class="edge"><title>Node1&#45;&gt;Node3</title>
<path fill="none" stroke="midnightblue" d="M98.1172,-21.3815C107.79,-19.8499 117.892,-18.2505 127.362,-16.751"/>
<polygon fill="midnightblue" stroke="midnightblue" points="128.011,-20.1919 137.341,-15.171 126.916,-13.278 128.011,-20.1919"/>
</g>
</g>
</svg>
