<?xml version="1.0" encoding="UTF-8" standalone="no"?>
<!DOCTYPE svg PUBLIC "-//W3C//DTD SVG 1.1//EN"
 "http://www.w3.org/Graphics/SVG/1.1/DTD/svg11.dtd">
<!-- Generated by graphviz version 2.36.0 (20140111.2315)
 -->
<!-- Title: circle.cpp Pages: 1 -->
<svg width="163pt" height="196pt"
 viewBox="0.00 0.00 163.00 196.00" xmlns="http://www.w3.org/2000/svg" xmlns:xlink="http://www.w3.org/1999/xlink">
<g id="graph0" class="graph" transform="scale(1 1) rotate(0) translate(4 192)">
<title>circle.cpp</title>
<polygon fill="white" stroke="none" points="-4,4 -4,-192 159,-192 159,4 -4,4"/>
<!-- Node1 -->
<g id="node1" class="node"><title>Node1</title>
<polygon fill="#bfbfbf" stroke="black" points="28.5,-168.5 28.5,-187.5 87.5,-187.5 87.5,-168.5 28.5,-168.5"/>
<text text-anchor="middle" x="58" y="-175.5" font-family="Helvetica,sans-Serif" font-size="10.00">circle.cpp</text>
</g>
<!-- Node2 -->
<g id="node2" class="node"><title>Node2</title>
<polygon fill="white" stroke="#bfbfbf" points="0,-112.5 0,-131.5 50,-131.5 50,-112.5 0,-112.5"/>
<text text-anchor="middle" x="25" y="-119.5" font-family="Helvetica,sans-Serif" font-size="10.00">iomanip</text>
</g>
<!-- Node1&#45;&gt;Node2 -->
<g id="edge1" class="edge"><title>Node1&#45;&gt;Node2</title>
<path fill="none" stroke="midnightblue" d="M52.5507,-168.083C47.9855,-160.613 41.3316,-149.724 35.7066,-140.52"/>
<polygon fill="midnightblue" stroke="midnightblue" points="38.5489,-138.459 30.3479,-131.751 32.5759,-142.109 38.5489,-138.459"/>
</g>
<!-- Node3 -->
<g id="node3" class="node"><title>Node3</title>
<g id="a_node3"><a xlink:href="circle_8h.html" target="_top" xlink:title="circle.h">
<polygon fill="white" stroke="black" points="68,-112.5 68,-131.5 116,-131.5 116,-112.5 68,-112.5"/>
<text text-anchor="middle" x="92" y="-119.5" font-family="Helvetica,sans-Serif" font-size="10.00">circle.h</text>
</a>
</g>
</g>
<!-- Node1&#45;&gt;Node3 -->
<g id="edge2" class="edge"><title>Node1&#45;&gt;Node3</title>
<path fill="none" stroke="midnightblue" d="M63.6144,-168.083C68.3674,-160.534 75.3181,-149.495 81.1516,-140.23"/>
<polygon fill="midnightblue" stroke="midnightblue" points="84.1237,-142.078 86.4901,-131.751 78.2001,-138.349 84.1237,-142.078"/>
</g>
<!-- Node4 -->
<g id="node4" class="node"><title>Node4</title>
<polygon fill="white" stroke="#bfbfbf" points="21,-0.5 21,-19.5 75,-19.5 75,-0.5 21,-0.5"/>
<text text-anchor="middle" x="48" y="-7.5" font-family="Helvetica,sans-Serif" font-size="10.00">iostream</text>
</g>
<!-- Node3&#45;&gt;Node4 -->
<g id="edge3" class="edge"><title>Node3&#45;&gt;Node4</title>
<path fill="none" stroke="midnightblue" d="M82.8985,-112.277C74.6865,-103.824 63.0028,-90.2252 57,-76 50.8337,-61.3874 48.7125,-43.4448 48.0603,-30.1157"/>
<polygon fill="midnightblue" stroke="midnightblue" points="51.551,-29.6983 47.8007,-19.7894 44.5533,-29.8743 51.551,-29.6983"/>
</g>
<!-- Node5 -->
<g id="node5" class="node"><title>Node5</title>
<polygon fill="white" stroke="#bfbfbf" points="114.5,-0.5 114.5,-19.5 155.5,-19.5 155.5,-0.5 114.5,-0.5"/>
<text text-anchor="middle" x="135" y="-7.5" font-family="Helvetica,sans-Serif" font-size="10.00">string</text>
</g>
<!-- Node3&#45;&gt;Node5 -->
<g id="edge4" class="edge"><title>Node3&#45;&gt;Node5</title>
<path fill="none" stroke="midnightblue" d="M100.837,-112.226C108.812,-103.737 120.16,-90.1146 126,-76 132.064,-61.3446 134.194,-43.4058 134.876,-30.089"/>
<polygon fill="midnightblue" stroke="midnightblue" points="138.383,-29.8688 135.164,-19.7748 131.386,-29.673 138.383,-29.8688"/>
</g>
<!-- Node6 -->
<g id="node6" class="node"><title>Node6</title>
<g id="a_node6"><a xlink:href="shape_8h.html" target="_top" xlink:title="shape.h">
<polygon fill="white" stroke="black" points="66.5,-56.5 66.5,-75.5 117.5,-75.5 117.5,-56.5 66.5,-56.5"/>
<text text-anchor="middle" x="92" y="-63.5" font-family="Helvetica,sans-Serif" font-size="10.00">shape.h</text>
</a>
</g>
</g>
<!-- Node3&#45;&gt;Node6 -->
<g id="edge5" class="edge"><title>Node3&#45;&gt;Node6</title>
<path fill="none" stroke="midnightblue" d="M92,-112.083C92,-105.006 92,-94.8611 92,-85.9865"/>
<polygon fill="midnightblue" stroke="midnightblue" points="95.5001,-85.751 92,-75.7511 88.5001,-85.7511 95.5001,-85.751"/>
</g>
<!-- Node6&#45;&gt;Node4 -->
<g id="edge6" class="edge"><title>Node6&#45;&gt;Node4</title>
<path fill="none" stroke="midnightblue" d="M84.7343,-56.083C78.4552,-48.3768 69.2124,-37.0333 61.5692,-27.6531"/>
<polygon fill="midnightblue" stroke="midnightblue" points="64.1606,-25.2926 55.1305,-19.7511 58.7339,-29.7143 64.1606,-25.2926"/>
</g>
<!-- Node6&#45;&gt;Node5 -->
<g id="edge7" class="edge"><title>Node6&#45;&gt;Node5</title>
<path fill="none" stroke="midnightblue" d="M99.1006,-56.083C105.237,-48.3768 114.27,-37.0333 121.739,-27.6531"/>
<polygon fill="midnightblue" stroke="midnightblue" points="124.54,-29.7542 128.032,-19.7511 119.064,-25.3936 124.54,-29.7542"/>
</g>
</g>
</svg>
