<?xml version="1.0" encoding="UTF-8" standalone="no"?>
<!DOCTYPE svg PUBLIC "-//W3C//DTD SVG 1.1//EN"
 "http://www.w3.org/Graphics/SVG/1.1/DTD/svg11.dtd">
<!-- Generated by graphviz version 2.36.0 (20140111.2315)
 -->
<!-- Title: Circle::display Pages: 1 -->
<svg width="324pt" height="180pt"
 viewBox="0.00 0.00 324.00 180.00" xmlns="http://www.w3.org/2000/svg" xmlns:xlink="http://www.w3.org/1999/xlink">
<g id="graph0" class="graph" transform="scale(1 1) rotate(0) translate(4 176)">
<title>Circle::display</title>
<polygon fill="white" stroke="none" points="-4,4 -4,-176 320,-176 320,4 -4,4"/>
<!-- Node1 -->
<g id="node1" class="node"><title>Node1</title>
<polygon fill="#bfbfbf" stroke="black" points="0.5,-76.5 0.5,-95.5 79.5,-95.5 79.5,-76.5 0.5,-76.5"/>
<text text-anchor="middle" x="40" y="-83.5" font-family="Helvetica,sans-Serif" font-size="10.00">Circle::display</text>
</g>
<!-- Node2 -->
<g id="node2" class="node"><title>Node2</title>
<g id="a_node2"><a xlink:href="classShape.html#a614686977967fae752625a7d89bbdce9" target="_top" xlink:title="Shape::display">
<polygon fill="white" stroke="black" points="120.5,-152.5 120.5,-171.5 201.5,-171.5 201.5,-152.5 120.5,-152.5"/>
<text text-anchor="middle" x="161" y="-159.5" font-family="Helvetica,sans-Serif" font-size="10.00">Shape::display</text>
</a>
</g>
</g>
<!-- Node1&#45;&gt;Node2 -->
<g id="edge1" class="edge"><title>Node1&#45;&gt;Node2</title>
<path fill="none" stroke="midnightblue" d="M52.0806,-95.8001C66.2046,-107.957 91.7117,-128.81 116,-143 119.038,-144.775 122.272,-146.481 125.556,-148.094"/>
<polygon fill="midnightblue" stroke="midnightblue" points="124.27,-151.356 134.816,-152.37 127.204,-145 124.27,-151.356"/>
</g>
<!-- Node4 -->
<g id="node4" class="node"><title>Node4</title>
<g id="a_node4"><a xlink:href="classCircle.html#a7242f3362f929b51de34916a5352aa9d" target="_top" xlink:title="Circle::radius">
<polygon fill="white" stroke="black" points="124,-114.5 124,-133.5 198,-133.5 198,-114.5 124,-114.5"/>
<text text-anchor="middle" x="161" y="-121.5" font-family="Helvetica,sans-Serif" font-size="10.00">Circle::radius</text>
</a>
</g>
</g>
<!-- Node1&#45;&gt;Node4 -->
<g id="edge3" class="edge"><title>Node1&#45;&gt;Node4</title>
<path fill="none" stroke="midnightblue" d="M71.0287,-95.589C85.9677,-100.359 104.223,-106.189 120.301,-111.323"/>
<polygon fill="midnightblue" stroke="midnightblue" points="119.39,-114.706 129.981,-114.414 121.519,-108.038 119.39,-114.706"/>
</g>
<!-- Node5 -->
<g id="node5" class="node"><title>Node5</title>
<g id="a_node5"><a xlink:href="classCircle.html#a6e08d36b3ee6c81eae7f01761add115c" target="_top" xlink:title="Circle::diameter">
<polygon fill="white" stroke="black" points="118,-76.5 118,-95.5 204,-95.5 204,-76.5 118,-76.5"/>
<text text-anchor="middle" x="161" y="-83.5" font-family="Helvetica,sans-Serif" font-size="10.00">Circle::diameter</text>
</a>
</g>
</g>
<!-- Node1&#45;&gt;Node5 -->
<g id="edge4" class="edge"><title>Node1&#45;&gt;Node5</title>
<path fill="none" stroke="midnightblue" d="M79.6359,-86C88.6069,-86 98.3024,-86 107.75,-86"/>
<polygon fill="midnightblue" stroke="midnightblue" points="107.859,-89.5001 117.859,-86 107.859,-82.5001 107.859,-89.5001"/>
</g>
<!-- Node6 -->
<g id="node6" class="node"><title>Node6</title>
<g id="a_node6"><a xlink:href="classCircle.html#a4a94620d941557761584cad8ec66954e" target="_top" xlink:title="Circle::perimeter">
<polygon fill="white" stroke="black" points="116.5,-38.5 116.5,-57.5 205.5,-57.5 205.5,-38.5 116.5,-38.5"/>
<text text-anchor="middle" x="161" y="-45.5" font-family="Helvetica,sans-Serif" font-size="10.00">Circle::perimeter</text>
</a>
</g>
</g>
<!-- Node1&#45;&gt;Node6 -->
<g id="edge5" class="edge"><title>Node1&#45;&gt;Node6</title>
<path fill="none" stroke="midnightblue" d="M71.0287,-76.411C85.9677,-71.6406 104.223,-65.8112 120.301,-60.6771"/>
<polygon fill="midnightblue" stroke="midnightblue" points="121.519,-63.9621 129.981,-57.5859 119.39,-57.2938 121.519,-63.9621"/>
</g>
<!-- Node7 -->
<g id="node7" class="node"><title>Node7</title>
<g id="a_node7"><a xlink:href="classCircle.html#af73a364b94e2fe86c0347c62202094fc" target="_top" xlink:title="Circle::area">
<polygon fill="white" stroke="black" points="127.5,-0.5 127.5,-19.5 194.5,-19.5 194.5,-0.5 127.5,-0.5"/>
<text text-anchor="middle" x="161" y="-7.5" font-family="Helvetica,sans-Serif" font-size="10.00">Circle::area</text>
</a>
</g>
</g>
<!-- Node1&#45;&gt;Node7 -->
<g id="edge6" class="edge"><title>Node1&#45;&gt;Node7</title>
<path fill="none" stroke="midnightblue" d="M52.0806,-76.1999C66.2046,-64.043 91.7117,-43.1902 116,-29 119.038,-27.2253 122.272,-25.5185 125.556,-23.9057"/>
<polygon fill="midnightblue" stroke="midnightblue" points="127.204,-26.9998 134.816,-19.6305 124.27,-20.6443 127.204,-26.9998"/>
</g>
<!-- Node3 -->
<g id="node3" class="node"><title>Node3</title>
<g id="a_node3"><a xlink:href="classShape.html#ab0219a5934793fa9e4c9f8ff7426be88" target="_top" xlink:title="Shape::name">
<polygon fill="white" stroke="black" points="242,-152.5 242,-171.5 316,-171.5 316,-152.5 242,-152.5"/>
<text text-anchor="middle" x="279" y="-159.5" font-family="Helvetica,sans-Serif" font-size="10.00">Shape::name</text>
</a>
</g>
</g>
<!-- Node2&#45;&gt;Node3 -->
<g id="edge2" class="edge"><title>Node2&#45;&gt;Node3</title>
<path fill="none" stroke="midnightblue" d="M201.596,-162C211.241,-162 221.644,-162 231.574,-162"/>
<polygon fill="midnightblue" stroke="midnightblue" points="231.701,-165.5 241.701,-162 231.701,-158.5 231.701,-165.5"/>
</g>
</g>
</svg>
