<?xml version="1.0" encoding="UTF-8" standalone="no"?>
<!DOCTYPE svg PUBLIC "-//W3C//DTD SVG 1.1//EN"
 "http://www.w3.org/Graphics/SVG/1.1/DTD/svg11.dtd">
<!-- Generated by graphviz version 2.36.0 (20140111.2315)
 -->
<!-- Title: ShapeFactory Pages: 1 -->
<!--zoomable 456 -->
<svg id="main" version="1.1" xmlns="http://www.w3.org/2000/svg" xmlns:xlink="http://www.w3.org/1999/xlink" xml:space="preserve" onload="init(evt)">
<style type="text/css"><![CDATA[
.edge:hover path { stroke: red; }
.edge:hover polygon { stroke: red; fill: red; }
]]></style>
<script type="text/javascript"><![CDATA[
var edges = document.getElementsByTagName('g');
if (edges && edges.length) {
  for (var i=0;i<edges.length;i++) {
    if (edges[i].id.substr(0,4)=='edge') {
      edges[i].setAttribute('class','edge');
    }
  }
}
]]></script>
        <defs>
                <circle id="rim" cx="0" cy="0" r="7"/>
                <circle id="rim2" cx="0" cy="0" r="3.5"/>
                <g id="zoomPlus">
                        <use xlink:href="#rim" fill="#404040">
                                <set attributeName="fill" to="#808080" begin="zoomplus.mouseover" end="zoomplus.mouseout"/>
                        </use>
                        <path d="M-4,0h8M0,-4v8" fill="none" stroke="white" stroke-width="1.5" pointer-events="none"/>
                </g>
                <g id="zoomMin">
                        <use xlink:href="#rim" fill="#404040">
                                <set attributeName="fill" to="#808080" begin="zoomminus.mouseover" end="zoomminus.mouseout"/>
                        </use>
                        <path d="M-4,0h8" fill="none" stroke="white" stroke-width="1.5" pointer-events="none"/>
                </g>
                <g id="dirArrow">
                        <path fill="none" stroke="white" stroke-width="1.5" d="M0,-3.0v7 M-2.5,-0.5L0,-3.0L2.5,-0.5"/>
                </g>
               <g id="resetDef">
                       <use xlink:href="#rim2" fill="#404040">
                               <set attributeName="fill" to="#808080" begin="reset.mouseover" end="reset.mouseout"/>
                       </use>
               </g>
        </defs>

<script type="text/javascript">
var viewWidth = 149;
var viewHeight = 456;
var sectionId = 'dynsection-0';
</script>
<script xlink:href="svgpan.js"/>
<svg id="graph" class="graph">
<g id="viewport">
<title>ShapeFactory</title>
<polygon fill="white" stroke="none" points="-4,4 -4,-452 145,-452 145,4 -4,4"/>
<!-- Node1 -->
<g id="node1" class="node"><title>Node1</title>
<polygon fill="#bfbfbf" stroke="black" points="17,-1 17,-91 111,-91 111,-1 17,-1"/>
<text text-anchor="middle" x="64" y="-79" font-family="Helvetica,sans-Serif" font-size="10.00">ShapeFactory</text>
<polyline fill="none" stroke="black" points="17,-72 111,-72 "/>
<text text-anchor="middle" x="64" y="-60" font-family="Helvetica,sans-Serif" font-size="10.00"> </text>
<polyline fill="none" stroke="black" points="17,-53 111,-53 "/>
<text text-anchor="start" x="25" y="-41" font-family="Helvetica,sans-Serif" font-size="10.00">+ createShape()</text>
<text text-anchor="start" x="25" y="-30" font-family="Helvetica,sans-Serif" font-size="10.00">+ isKnown()</text>
<text text-anchor="start" x="25" y="-19" font-family="Helvetica,sans-Serif" font-size="10.00">+ listKnown()</text>
<text text-anchor="start" x="25" y="-8" font-family="Helvetica,sans-Serif" font-size="10.00">+ numberKnown()</text>
</g>
<!-- Node2 -->
<g id="node2" class="node"><title>Node2</title>
<g id="a_node2"><a xlink:href="structShapeFactory_1_1ShapePair.html" target="_top" xlink:title="{ShapeFactory::ShapePair\n|+ _name\l|+ ShapePair()\l+ ShapePair()\l+ ~ShapePair()\l}">
<polygon fill="white" stroke="black" points="0,-140.5 0,-219.5 128,-219.5 128,-140.5 0,-140.5"/>
<text text-anchor="middle" x="64" y="-207.5" font-family="Helvetica,sans-Serif" font-size="10.00">ShapeFactory::ShapePair</text>
<polyline fill="none" stroke="black" points="0,-200.5 128,-200.5 "/>
<text text-anchor="start" x="8" y="-188.5" font-family="Helvetica,sans-Serif" font-size="10.00">+ _name</text>
<polyline fill="none" stroke="black" points="0,-181.5 128,-181.5 "/>
<text text-anchor="start" x="8" y="-169.5" font-family="Helvetica,sans-Serif" font-size="10.00">+ ShapePair()</text>
<text text-anchor="start" x="8" y="-158.5" font-family="Helvetica,sans-Serif" font-size="10.00">+ ShapePair()</text>
<text text-anchor="start" x="8" y="-147.5" font-family="Helvetica,sans-Serif" font-size="10.00">+ ~ShapePair()</text>
</a>
</g>
</g>
<!-- Node2&#45;&gt;Node1 -->
<g id="edge1" class="edge"><title>Node2&#45;&gt;Node1</title>
<path fill="none" stroke="#404040" d="M64,-140.465C64,-128.937 64,-116.047 64,-103.612"/>
<polygon fill="none" stroke="#404040" points="64.0001,-103.395 60,-97.3946 64,-91.3945 68,-97.3945 64.0001,-103.395"/>
<text text-anchor="middle" x="102.5" y="-113.5" font-family="Helvetica,sans-Serif" font-size="10.00"> &#45;_known_shapes</text>
</g>
<!-- Node3 -->
<g id="node3" class="node"><title>Node3</title>
<g id="a_node3"><a xlink:href="classShape.html" target="_top" xlink:title="{Shape\n|# _name\l# WIDTH_LABEL\l# WIDTH_VALUE\l|+ Shape()\l+ Shape()\l+ ~Shape()\l+ name()\l+ area()\l+ perimeter()\l+ clone()\l+ display()\l+ read()\l# name()\l}">
<polygon fill="white" stroke="black" points="15.5,-269 15.5,-447 112.5,-447 112.5,-269 15.5,-269"/>
<text text-anchor="middle" x="64" y="-435" font-family="Helvetica,sans-Serif" font-size="10.00">Shape</text>
<polyline fill="none" stroke="black" points="15.5,-428 112.5,-428 "/>
<text text-anchor="start" x="23.5" y="-416" font-family="Helvetica,sans-Serif" font-size="10.00"># _name</text>
<text text-anchor="start" x="23.5" y="-405" font-family="Helvetica,sans-Serif" font-size="10.00"># WIDTH_LABEL</text>
<text text-anchor="start" x="23.5" y="-394" font-family="Helvetica,sans-Serif" font-size="10.00"># WIDTH_VALUE</text>
<polyline fill="none" stroke="black" points="15.5,-387 112.5,-387 "/>
<text text-anchor="start" x="23.5" y="-375" font-family="Helvetica,sans-Serif" font-size="10.00">+ Shape()</text>
<text text-anchor="start" x="23.5" y="-364" font-family="Helvetica,sans-Serif" font-size="10.00">+ Shape()</text>
<text text-anchor="start" x="23.5" y="-353" font-family="Helvetica,sans-Serif" font-size="10.00">+ ~Shape()</text>
<text text-anchor="start" x="23.5" y="-342" font-family="Helvetica,sans-Serif" font-size="10.00">+ name()</text>
<text text-anchor="start" x="23.5" y="-331" font-family="Helvetica,sans-Serif" font-size="10.00">+ area()</text>
<text text-anchor="start" x="23.5" y="-320" font-family="Helvetica,sans-Serif" font-size="10.00">+ perimeter()</text>
<text text-anchor="start" x="23.5" y="-309" font-family="Helvetica,sans-Serif" font-size="10.00">+ clone()</text>
<text text-anchor="start" x="23.5" y="-298" font-family="Helvetica,sans-Serif" font-size="10.00">+ display()</text>
<text text-anchor="start" x="23.5" y="-287" font-family="Helvetica,sans-Serif" font-size="10.00">+ read()</text>
<text text-anchor="start" x="23.5" y="-276" font-family="Helvetica,sans-Serif" font-size="10.00"># name()</text>
</a>
</g>
</g>
<!-- Node3&#45;&gt;Node2 -->
<g id="edge2" class="edge"><title>Node3&#45;&gt;Node2</title>
<path fill="none" stroke="#404040" d="M64,-268.742C64,-256.145 64,-243.554 64,-232.004"/>
<polygon fill="none" stroke="#404040" points="64.0001,-231.927 60,-225.927 64,-219.927 68,-225.927 64.0001,-231.927"/>
<text text-anchor="middle" x="84.5" y="-241.5" font-family="Helvetica,sans-Serif" font-size="10.00"> +_model</text>
</g>
</g>
</svg>
        <g id="navigator" transform="translate(0 0)" fill="#404254">
                <rect fill="#f2f5e9" fill-opacity="0.5" stroke="#606060" stroke-width=".5" x="0" y="0" width="60" height="60"/>
                <use id="zoomplus" xlink:href="#zoomPlus" x="17" y="9" onmousedown="handleZoom(evt,'in')"/>
                <use id="zoomminus" xlink:href="#zoomMin" x="42" y="9" onmousedown="handleZoom(evt,'out')"/>
                <use id="reset" xlink:href="#resetDef" x="30" y="36" onmousedown="handleReset()"/>
                <g id="arrowUp" xlink:href="#dirArrow" transform="translate(30 24)" onmousedown="handlePan(0,-1)">
                  <use xlink:href="#rim" fill="#404040">
                        <set attributeName="fill" to="#808080" begin="arrowUp.mouseover" end="arrowUp.mouseout"/>
                  </use>
                  <path fill="none" stroke="white" stroke-width="1.5" d="M0,-3.0v7 M-2.5,-0.5L0,-3.0L2.5,-0.5"/>
                </g>
                <g id="arrowRight" xlink:href="#dirArrow" transform="rotate(90) translate(36 -43)" onmousedown="handlePan(1,0)">
                  <use xlink:href="#rim" fill="#404040">
                        <set attributeName="fill" to="#808080" begin="arrowRight.mouseover" end="arrowRight.mouseout"/>
                  </use>
                  <path fill="none" stroke="white" stroke-width="1.5" d="M0,-3.0v7 M-2.5,-0.5L0,-3.0L2.5,-0.5"/>
                </g>
                <g id="arrowDown" xlink:href="#dirArrow" transform="rotate(180) translate(-30 -48)" onmousedown="handlePan(0,1)">
                  <use xlink:href="#rim" fill="#404040">
                        <set attributeName="fill" to="#808080" begin="arrowDown.mouseover" end="arrowDown.mouseout"/>
                  </use>
                  <path fill="none" stroke="white" stroke-width="1.5" d="M0,-3.0v7 M-2.5,-0.5L0,-3.0L2.5,-0.5"/>
                </g>
                <g id="arrowLeft" xlink:href="#dirArrow" transform="rotate(270) translate(-36 17)" onmousedown="handlePan(-1,0)">
                  <use xlink:href="#rim" fill="#404040">
                        <set attributeName="fill" to="#808080" begin="arrowLeft.mouseover" end="arrowLeft.mouseout"/>
                  </use>
                  <path fill="none" stroke="white" stroke-width="1.5" d="M0,-3.0v7 M-2.5,-0.5L0,-3.0L2.5,-0.5"/>
                </g>
        </g>
        <svg viewBox="0 0 15 15" width="100%" height="30px" preserveAspectRatio="xMaxYMin meet">
         <g id="arrow_out" transform="scale(0.3 0.3)">
          <a xlink:href="classShapeFactory__coll__graph_org.svg" target="_base">
           <rect id="button" ry="5" rx="5" y="6" x="6" height="38" width="38"
                fill="#f2f5e9" fill-opacity="0.5" stroke="#606060" stroke-width="1.0"/>
           <path id="arrow"
             d="M 11.500037,31.436501 C 11.940474,20.09759 22.043105,11.32322 32.158766,21.979434 L 37.068811,17.246167 C 37.068811,17.246167 37.088388,32 37.088388,32 L 22.160133,31.978069 C 22.160133,31.978069 26.997745,27.140456 26.997745,27.140456 C 18.528582,18.264221 13.291696,25.230495 11.500037,31.436501 z"
             style="fill:#404040;"/>
          </a>
         </g>
        </svg>
</svg>
