<?xml version="1.0" encoding="UTF-8" standalone="no"?>
<!DOCTYPE svg PUBLIC "-//W3C//DTD SVG 1.1//EN"
 "http://www.w3.org/Graphics/SVG/1.1/DTD/svg11.dtd">
<!-- Generated by graphviz version 2.36.0 (20140111.2315)
 -->
<!-- Title: equilateralTriangle.h Pages: 1 -->
<svg width="282pt" height="140pt"
 viewBox="0.00 0.00 282.00 140.00" xmlns="http://www.w3.org/2000/svg" xmlns:xlink="http://www.w3.org/1999/xlink">
<g id="graph0" class="graph" transform="scale(1 1) rotate(0) translate(4 136)">
<title>equilateralTriangle.h</title>
<polygon fill="white" stroke="none" points="-4,4 -4,-136 278,-136 278,4 -4,4"/>
<!-- Node1 -->
<g id="node1" class="node"><title>Node1</title>
<polygon fill="#bfbfbf" stroke="black" points="63,-112.5 63,-131.5 167,-131.5 167,-112.5 63,-112.5"/>
<text text-anchor="middle" x="115" y="-119.5" font-family="Helvetica,sans-Serif" font-size="10.00">equilateralTriangle.h</text>
</g>
<!-- Node2 -->
<g id="node2" class="node"><title>Node2</title>
<g id="a_node2"><a xlink:href="equilateralTriangle_8cpp.html" target="_top" xlink:title="equilateralTriangle.cpp">
<polygon fill="white" stroke="black" points="0,-56.5 0,-75.5 114,-75.5 114,-56.5 0,-56.5"/>
<text text-anchor="middle" x="57" y="-63.5" font-family="Helvetica,sans-Serif" font-size="10.00">equilateralTriangle.cpp</text>
</a>
</g>
</g>
<!-- Node1&#45;&gt;Node2 -->
<g id="edge1" class="edge"><title>Node1&#45;&gt;Node2</title>
<path fill="none" stroke="midnightblue" d="M98.0869,-105.253C87.797,-95.6731 75.0343,-83.7906 66.4883,-75.8339"/>
<polygon fill="midnightblue" stroke="midnightblue" points="95.9774,-108.071 105.681,-112.324 100.747,-102.948 95.9774,-108.071"/>
</g>
<!-- Node3 -->
<g id="node3" class="node"><title>Node3</title>
<g id="a_node3"><a xlink:href="shapeFactory_8h.html" target="_top" xlink:title="shapeFactory.h">
<polygon fill="white" stroke="black" points="132,-56.5 132,-75.5 216,-75.5 216,-56.5 132,-56.5"/>
<text text-anchor="middle" x="174" y="-63.5" font-family="Helvetica,sans-Serif" font-size="10.00">shapeFactory.h</text>
</a>
</g>
</g>
<!-- Node1&#45;&gt;Node3 -->
<g id="edge2" class="edge"><title>Node1&#45;&gt;Node3</title>
<path fill="none" stroke="midnightblue" d="M131.895,-105.537C142.415,-95.9087 155.569,-83.8694 164.348,-75.8339"/>
<polygon fill="midnightblue" stroke="midnightblue" points="129.493,-102.99 124.479,-112.324 134.219,-108.154 129.493,-102.99"/>
</g>
<!-- Node4 -->
<g id="node4" class="node"><title>Node4</title>
<g id="a_node4"><a xlink:href="runShapes_8cpp.html" target="_top" xlink:title="runShapes.cpp">
<polygon fill="white" stroke="black" points="79,-0.5 79,-19.5 161,-19.5 161,-0.5 79,-0.5"/>
<text text-anchor="middle" x="120" y="-7.5" font-family="Helvetica,sans-Serif" font-size="10.00">runShapes.cpp</text>
</a>
</g>
</g>
<!-- Node3&#45;&gt;Node4 -->
<g id="edge3" class="edge"><title>Node3&#45;&gt;Node4</title>
<path fill="none" stroke="midnightblue" d="M158.002,-49.0024C148.433,-39.4329 136.639,-27.6389 128.751,-19.7511"/>
<polygon fill="midnightblue" stroke="midnightblue" points="155.537,-51.4868 165.083,-56.083 160.487,-46.537 155.537,-51.4868"/>
</g>
<!-- Node5 -->
<g id="node5" class="node"><title>Node5</title>
<g id="a_node5"><a xlink:href="shapeFactory_8cpp.html" target="_top" xlink:title="shapeFactory.cpp">
<polygon fill="white" stroke="black" points="179.5,-0.5 179.5,-19.5 274.5,-19.5 274.5,-0.5 179.5,-0.5"/>
<text text-anchor="middle" x="227" y="-7.5" font-family="Helvetica,sans-Serif" font-size="10.00">shapeFactory.cpp</text>
</a>
</g>
</g>
<!-- Node3&#45;&gt;Node5 -->
<g id="edge4" class="edge"><title>Node3&#45;&gt;Node5</title>
<path fill="none" stroke="midnightblue" d="M189.981,-48.7175C199.322,-39.1997 210.746,-27.5608 218.411,-19.7511"/>
<polygon fill="midnightblue" stroke="midnightblue" points="187.259,-46.4945 182.752,-56.083 192.254,-51.3978 187.259,-46.4945"/>
</g>
</g>
</svg>
