<?xml version="1.0" encoding="UTF-8" standalone="no"?>
<!DOCTYPE svg PUBLIC "-//W3C//DTD SVG 1.1//EN"
 "http://www.w3.org/Graphics/SVG/1.1/DTD/svg11.dtd">
<!-- Generated by graphviz version 2.36.0 (20140111.2315)
 -->
<!-- Title: main Pages: 1 -->
<svg width="402pt" height="347pt"
 viewBox="0.00 0.00 402.00 346.81" xmlns="http://www.w3.org/2000/svg" xmlns:xlink="http://www.w3.org/1999/xlink">
<g id="graph0" class="graph" transform="scale(1 1) rotate(0) translate(4 342.805)">
<title>main</title>
<polygon fill="white" stroke="none" points="-4,4 -4,-342.805 398,-342.805 398,4 -4,4"/>
<!-- Node1 -->
<g id="node1" class="node"><title>Node1</title>
<polygon fill="#bfbfbf" stroke="black" points="0,-171.5 0,-190.5 38,-190.5 38,-171.5 0,-171.5"/>
<text text-anchor="middle" x="19" y="-178.5" font-family="Helvetica,sans-Serif" font-size="10.00">main</text>
</g>
<!-- Node2 -->
<g id="node2" class="node"><title>Node2</title>
<g id="a_node2"><a xlink:href="namespaceutilities.html#a5a4a24938bfeb46f18a7d7ecf96e7b6b" target="_top" xlink:title="utilities::printProjectHeading">
<polygon fill="white" stroke="black" points="77.5,-247.5 77.5,-266.5 216.5,-266.5 216.5,-247.5 77.5,-247.5"/>
<text text-anchor="middle" x="147" y="-254.5" font-family="Helvetica,sans-Serif" font-size="10.00">utilities::printProjectHeading</text>
</a>
</g>
</g>
<!-- Node1&#45;&gt;Node2 -->
<g id="edge1" class="edge"><title>Node1&#45;&gt;Node2</title>
<path fill="none" stroke="midnightblue" d="M26.4786,-190.635C35.5788,-203.411 53.3635,-225.764 74,-238 77.6905,-240.188 81.6341,-242.128 85.7033,-243.848"/>
<polygon fill="midnightblue" stroke="midnightblue" points="84.7736,-247.237 95.3658,-247.473 87.2327,-240.684 84.7736,-247.237"/>
</g>
<!-- Node3 -->
<g id="node3" class="node"><title>Node3</title>
<g id="a_node3"><a xlink:href="namespaceutilities.html#a2ca4bf55e15b157fc1255112ecf60b4b" target="_top" xlink:title="utilities::printHorizontalLine">
<polygon fill="white" stroke="black" points="258,-291.5 258,-310.5 392,-310.5 392,-291.5 258,-291.5"/>
<text text-anchor="middle" x="325" y="-298.5" font-family="Helvetica,sans-Serif" font-size="10.00">utilities::printHorizontalLine</text>
</a>
</g>
</g>
<!-- Node1&#45;&gt;Node3 -->
<g id="edge8" class="edge"><title>Node1&#45;&gt;Node3</title>
<path fill="none" stroke="midnightblue" d="M20.4746,-190.586C22.3124,-216.013 31.2084,-285.19 74,-314 140.414,-358.715 240.702,-332.344 291.721,-314.04"/>
<polygon fill="midnightblue" stroke="midnightblue" points="293.083,-317.267 301.243,-310.51 290.65,-310.704 293.083,-317.267"/>
</g>
<!-- Node5 -->
<g id="node5" class="node"><title>Node5</title>
<g id="a_node5"><a xlink:href="namespaceutilities.html#a00ebb5fe3065cdb7f3a0cd6cc1c716e0" target="_top" xlink:title="utilities::printHeading">
<polygon fill="white" stroke="black" points="93,-285.5 93,-304.5 201,-304.5 201,-285.5 93,-285.5"/>
<text text-anchor="middle" x="147" y="-292.5" font-family="Helvetica,sans-Serif" font-size="10.00">utilities::printHeading</text>
</a>
</g>
</g>
<!-- Node1&#45;&gt;Node5 -->
<g id="edge4" class="edge"><title>Node1&#45;&gt;Node5</title>
<path fill="none" stroke="midnightblue" d="M22.7433,-190.768C28.6973,-210.127 44.6836,-253.436 74,-276 76.9934,-278.304 80.2415,-280.329 83.647,-282.11"/>
<polygon fill="midnightblue" stroke="midnightblue" points="82.4052,-285.389 92.9629,-286.275 85.262,-278.998 82.4052,-285.389"/>
</g>
<!-- Node6 -->
<g id="node6" class="node"><title>Node6</title>
<g id="a_node6"><a xlink:href="classShapeFactory.html#a8618cdfc6a7320bee3bf96e95e92eaff" target="_top" xlink:title="ShapeFactory::listKnown">
<polygon fill="white" stroke="black" points="84,-209.5 84,-228.5 210,-228.5 210,-209.5 84,-209.5"/>
<text text-anchor="middle" x="147" y="-216.5" font-family="Helvetica,sans-Serif" font-size="10.00">ShapeFactory::listKnown</text>
</a>
</g>
</g>
<!-- Node1&#45;&gt;Node6 -->
<g id="edge7" class="edge"><title>Node1&#45;&gt;Node6</title>
<path fill="none" stroke="midnightblue" d="M38.3726,-187.877C48.7617,-191.661 62.0302,-196.321 74,-200 81.5593,-202.323 89.6171,-204.621 97.5034,-206.773"/>
<polygon fill="midnightblue" stroke="midnightblue" points="96.7856,-210.204 107.351,-209.411 98.5974,-203.442 96.7856,-210.204"/>
</g>
<!-- Node7 -->
<g id="node7" class="node"><title>Node7</title>
<g id="a_node7"><a xlink:href="classShapeFactory.html#a914d40208527df461c103f4045b62e42" target="_top" xlink:title="ShapeFactory::numberKnown">
<polygon fill="white" stroke="black" points="74,-171.5 74,-190.5 220,-190.5 220,-171.5 74,-171.5"/>
<text text-anchor="middle" x="147" y="-178.5" font-family="Helvetica,sans-Serif" font-size="10.00">ShapeFactory::numberKnown</text>
</a>
</g>
</g>
<!-- Node1&#45;&gt;Node7 -->
<g id="edge9" class="edge"><title>Node1&#45;&gt;Node7</title>
<path fill="none" stroke="midnightblue" d="M38.0527,-181C45.2748,-181 54.1411,-181 63.6597,-181"/>
<polygon fill="midnightblue" stroke="midnightblue" points="63.7737,-184.5 73.7737,-181 63.7737,-177.5 63.7737,-184.5"/>
</g>
<!-- Node8 -->
<g id="node8" class="node"><title>Node8</title>
<g id="a_node8"><a xlink:href="runShapes_8cpp.html#a0223e658d108bc16bce442b4c24ad7e5" target="_top" xlink:title="readShapes">
<polygon fill="white" stroke="black" points="113,-133.5 113,-152.5 181,-152.5 181,-133.5 113,-133.5"/>
<text text-anchor="middle" x="147" y="-140.5" font-family="Helvetica,sans-Serif" font-size="10.00">readShapes</text>
</a>
</g>
</g>
<!-- Node1&#45;&gt;Node8 -->
<g id="edge10" class="edge"><title>Node1&#45;&gt;Node8</title>
<path fill="none" stroke="midnightblue" d="M38.3726,-174.123C48.7617,-170.339 62.0302,-165.679 74,-162 83.355,-159.125 93.4734,-156.289 103.086,-153.72"/>
<polygon fill="midnightblue" stroke="midnightblue" points="104.084,-157.076 112.866,-151.149 102.305,-150.306 104.084,-157.076"/>
</g>
<!-- Node10 -->
<g id="node10" class="node"><title>Node10</title>
<g id="a_node10"><a xlink:href="runShapes_8cpp.html#aef0dfe19adea7d9d7c1897b5e3ce17a1" target="_top" xlink:title="printShapes">
<polygon fill="white" stroke="black" points="113,-95.5 113,-114.5 181,-114.5 181,-95.5 113,-95.5"/>
<text text-anchor="middle" x="147" y="-102.5" font-family="Helvetica,sans-Serif" font-size="10.00">printShapes</text>
</a>
</g>
</g>
<!-- Node1&#45;&gt;Node10 -->
<g id="edge12" class="edge"><title>Node1&#45;&gt;Node10</title>
<path fill="none" stroke="midnightblue" d="M26.4786,-171.365C35.5788,-158.589 53.3635,-136.236 74,-124 82.8405,-118.758 93.1338,-114.94 103.125,-112.166"/>
<polygon fill="midnightblue" stroke="midnightblue" points="104.089,-115.533 112.951,-109.726 102.402,-108.739 104.089,-115.533"/>
</g>
<!-- Node11 -->
<g id="node11" class="node"><title>Node11</title>
<g id="a_node11"><a xlink:href="runShapes_8cpp.html#a4737fcffcbcaf6725cf27c3164956c6e" target="_top" xlink:title="printShapeNames">
<polygon fill="white" stroke="black" points="99.5,-57.5 99.5,-76.5 194.5,-76.5 194.5,-57.5 99.5,-57.5"/>
<text text-anchor="middle" x="147" y="-64.5" font-family="Helvetica,sans-Serif" font-size="10.00">printShapeNames</text>
</a>
</g>
</g>
<!-- Node1&#45;&gt;Node11 -->
<g id="edge13" class="edge"><title>Node1&#45;&gt;Node11</title>
<path fill="none" stroke="midnightblue" d="M22.7433,-171.232C28.6973,-151.873 44.6836,-108.564 74,-86 78.7254,-82.363 84.0854,-79.4198 89.6979,-77.0385"/>
<polygon fill="midnightblue" stroke="midnightblue" points="91.1146,-80.2475 99.3141,-73.538 88.7201,-73.6698 91.1146,-80.2475"/>
</g>
<!-- Node12 -->
<g id="node12" class="node"><title>Node12</title>
<g id="a_node12"><a xlink:href="runShapes_8cpp.html#a56ace7b820ff2d48ed84ee2c8cff612c" target="_top" xlink:title="findLargestShapeByArea">
<polygon fill="white" stroke="black" points="84.5,-19.5 84.5,-38.5 209.5,-38.5 209.5,-19.5 84.5,-19.5"/>
<text text-anchor="middle" x="147" y="-26.5" font-family="Helvetica,sans-Serif" font-size="10.00">findLargestShapeByArea</text>
</a>
</g>
</g>
<!-- Node1&#45;&gt;Node12 -->
<g id="edge14" class="edge"><title>Node1&#45;&gt;Node12</title>
<path fill="none" stroke="midnightblue" d="M21.0088,-171.286C24.0902,-146.732 35.6445,-81.7465 74,-48 75.7744,-46.4388 77.6625,-45.0038 79.6391,-43.6847"/>
<polygon fill="midnightblue" stroke="midnightblue" points="81.7421,-46.5209 88.7934,-38.6134 78.3499,-40.3977 81.7421,-46.5209"/>
</g>
<!-- Node2&#45;&gt;Node3 -->
<g id="edge2" class="edge"><title>Node2&#45;&gt;Node3</title>
<path fill="none" stroke="midnightblue" d="M186.189,-266.547C212.482,-273.12 247.619,-281.905 275.833,-288.958"/>
<polygon fill="midnightblue" stroke="midnightblue" points="275.335,-292.441 285.885,-291.471 277.033,-285.65 275.335,-292.441"/>
</g>
<!-- Node4 -->
<g id="node4" class="node"><title>Node4</title>
<g id="a_node4"><a xlink:href="namespaceutilities.html#a0364030fce3431e2ec985b20e571ce9a" target="_top" xlink:title="utilities::printCentered\lTitle">
<polygon fill="white" stroke="black" points="269,-242 269,-272 381,-272 381,-242 269,-242"/>
<text text-anchor="start" x="277" y="-260" font-family="Helvetica,sans-Serif" font-size="10.00">utilities::printCentered</text>
<text text-anchor="middle" x="325" y="-249" font-family="Helvetica,sans-Serif" font-size="10.00">Title</text>
</a>
</g>
</g>
<!-- Node2&#45;&gt;Node4 -->
<g id="edge3" class="edge"><title>Node2&#45;&gt;Node4</title>
<path fill="none" stroke="midnightblue" d="M216.55,-257C230.395,-257 244.915,-257 258.646,-257"/>
<polygon fill="midnightblue" stroke="midnightblue" points="258.969,-260.5 268.969,-257 258.969,-253.5 258.969,-260.5"/>
</g>
<!-- Node5&#45;&gt;Node3 -->
<g id="edge5" class="edge"><title>Node5&#45;&gt;Node3</title>
<path fill="none" stroke="midnightblue" d="M201.283,-296.816C215.89,-297.314 232.017,-297.864 247.646,-298.397"/>
<polygon fill="midnightblue" stroke="midnightblue" points="247.709,-301.901 257.822,-298.744 247.947,-294.905 247.709,-301.901"/>
</g>
<!-- Node5&#45;&gt;Node4 -->
<g id="edge6" class="edge"><title>Node5&#45;&gt;Node4</title>
<path fill="none" stroke="midnightblue" d="M192.412,-285.411C212.547,-281.064 236.754,-275.837 258.885,-271.059"/>
<polygon fill="midnightblue" stroke="midnightblue" points="259.85,-274.431 268.886,-268.9 258.372,-267.589 259.85,-274.431"/>
</g>
<!-- Node9 -->
<g id="node9" class="node"><title>Node9</title>
<g id="a_node9"><a xlink:href="classShapeCollection.html#a9cc32d77abe0e9016fd0d6fed7668bb1" target="_top" xlink:title="ShapeCollection::addShape">
<polygon fill="white" stroke="black" points="256.5,-133.5 256.5,-152.5 393.5,-152.5 393.5,-133.5 256.5,-133.5"/>
<text text-anchor="middle" x="325" y="-140.5" font-family="Helvetica,sans-Serif" font-size="10.00">ShapeCollection::addShape</text>
</a>
</g>
</g>
<!-- Node8&#45;&gt;Node9 -->
<g id="edge11" class="edge"><title>Node8&#45;&gt;Node9</title>
<path fill="none" stroke="midnightblue" d="M181.104,-143C199.58,-143 223.431,-143 246.334,-143"/>
<polygon fill="midnightblue" stroke="midnightblue" points="246.42,-146.5 256.42,-143 246.42,-139.5 246.42,-146.5"/>
</g>
<!-- Node13 -->
<g id="node13" class="node"><title>Node13</title>
<g id="a_node13"><a xlink:href="classShapeCollection.html#ad0837fd1ccb1038889619803453635be" target="_top" xlink:title="ShapeCollection::begin">
<polygon fill="white" stroke="black" points="266.5,-0.5 266.5,-19.5 383.5,-19.5 383.5,-0.5 266.5,-0.5"/>
<text text-anchor="middle" x="325" y="-7.5" font-family="Helvetica,sans-Serif" font-size="10.00">ShapeCollection::begin</text>
</a>
</g>
</g>
<!-- Node12&#45;&gt;Node13 -->
<g id="edge15" class="edge"><title>Node12&#45;&gt;Node13</title>
<path fill="none" stroke="midnightblue" d="M209.556,-22.3547C224.681,-20.7219 240.955,-18.9651 256.349,-17.3032"/>
<polygon fill="midnightblue" stroke="midnightblue" points="256.751,-20.7802 266.318,-16.2271 256,-13.8207 256.751,-20.7802"/>
</g>
<!-- Node14 -->
<g id="node14" class="node"><title>Node14</title>
<g id="a_node14"><a xlink:href="classShapeCollection.html#a480b41c733e2a87ac2a3b0088f00d19d" target="_top" xlink:title="ShapeCollection::end">
<polygon fill="white" stroke="black" points="270,-38.5 270,-57.5 380,-57.5 380,-38.5 270,-38.5"/>
<text text-anchor="middle" x="325" y="-45.5" font-family="Helvetica,sans-Serif" font-size="10.00">ShapeCollection::end</text>
</a>
</g>
</g>
<!-- Node12&#45;&gt;Node14 -->
<g id="edge16" class="edge"><title>Node12&#45;&gt;Node14</title>
<path fill="none" stroke="midnightblue" d="M209.556,-35.6453C225.81,-37.4 243.391,-39.2979 259.781,-41.0673"/>
<polygon fill="midnightblue" stroke="midnightblue" points="259.493,-44.5564 269.811,-42.15 260.244,-37.5968 259.493,-44.5564"/>
</g>
</g>
</svg>
