<?xml version="1.0" encoding="UTF-8" standalone="no"?>
<!DOCTYPE svg PUBLIC "-//W3C//DTD SVG 1.1//EN"
 "http://www.w3.org/Graphics/SVG/1.1/DTD/svg11.dtd">
<!-- Generated by graphviz version 2.36.0 (20140111.2315)
 -->
<!-- Title: findLargestShapeByArea Pages: 1 -->
<svg width="288pt" height="66pt"
 viewBox="0.00 0.00 288.00 66.00" xmlns="http://www.w3.org/2000/svg" xmlns:xlink="http://www.w3.org/1999/xlink">
<g id="graph0" class="graph" transform="scale(1 1) rotate(0) translate(4 62)">
<title>findLargestShapeByArea</title>
<polygon fill="white" stroke="none" points="-4,4 -4,-62 284,-62 284,4 -4,4"/>
<!-- Node1 -->
<g id="node1" class="node"><title>Node1</title>
<polygon fill="#bfbfbf" stroke="black" points="0.5,-19.5 0.5,-38.5 125.5,-38.5 125.5,-19.5 0.5,-19.5"/>
<text text-anchor="middle" x="63" y="-26.5" font-family="Helvetica,sans-Serif" font-size="10.00">findLargestShapeByArea</text>
</g>
<!-- Node2 -->
<g id="node2" class="node"><title>Node2</title>
<g id="a_node2"><a xlink:href="classShapeCollection.html#ad0837fd1ccb1038889619803453635be" target="_top" xlink:title="ShapeCollection::begin">
<polygon fill="white" stroke="black" points="162.5,-38.5 162.5,-57.5 279.5,-57.5 279.5,-38.5 162.5,-38.5"/>
<text text-anchor="middle" x="221" y="-45.5" font-family="Helvetica,sans-Serif" font-size="10.00">ShapeCollection::begin</text>
</a>
</g>
</g>
<!-- Node1&#45;&gt;Node2 -->
<g id="edge1" class="edge"><title>Node1&#45;&gt;Node2</title>
<path fill="none" stroke="midnightblue" d="M125.655,-36.5093C134.442,-37.5795 143.518,-38.6849 152.411,-39.768"/>
<polygon fill="midnightblue" stroke="midnightblue" points="151.998,-43.2435 162.348,-40.9782 152.844,-36.2948 151.998,-43.2435"/>
</g>
<!-- Node3 -->
<g id="node3" class="node"><title>Node3</title>
<g id="a_node3"><a xlink:href="classShapeCollection.html#a480b41c733e2a87ac2a3b0088f00d19d" target="_top" xlink:title="ShapeCollection::end">
<polygon fill="white" stroke="black" points="166,-0.5 166,-19.5 276,-19.5 276,-0.5 166,-0.5"/>
<text text-anchor="middle" x="221" y="-7.5" font-family="Helvetica,sans-Serif" font-size="10.00">ShapeCollection::end</text>
</a>
</g>
</g>
<!-- Node1&#45;&gt;Node3 -->
<g id="edge2" class="edge"><title>Node1&#45;&gt;Node3</title>
<path fill="none" stroke="midnightblue" d="M125.655,-21.4907C135.516,-20.2897 145.741,-19.0443 155.662,-17.836"/>
<polygon fill="midnightblue" stroke="midnightblue" points="156.359,-21.277 165.863,-16.5936 155.513,-14.3284 156.359,-21.277"/>
</g>
</g>
</svg>
