<?xml version="1.0" encoding="UTF-8" standalone="no"?>
<!DOCTYPE svg PUBLIC "-//W3C//DTD SVG 1.1//EN"
 "http://www.w3.org/Graphics/SVG/1.1/DTD/svg11.dtd">
<!-- Generated by graphviz version 2.36.0 (20140111.2315)
 -->
<!-- Title: shape.h Pages: 1 -->
<svg width="770pt" height="252pt"
 viewBox="0.00 0.00 770.00 252.00" xmlns="http://www.w3.org/2000/svg" xmlns:xlink="http://www.w3.org/1999/xlink">
<g id="graph0" class="graph" transform="scale(1 1) rotate(0) translate(4 248)">
<title>shape.h</title>
<polygon fill="white" stroke="none" points="-4,4 -4,-248 766,-248 766,4 -4,4"/>
<!-- Node1 -->
<g id="node1" class="node"><title>Node1</title>
<polygon fill="#bfbfbf" stroke="black" points="273.5,-224.5 273.5,-243.5 324.5,-243.5 324.5,-224.5 273.5,-224.5"/>
<text text-anchor="middle" x="299" y="-231.5" font-family="Helvetica,sans-Serif" font-size="10.00">shape.h</text>
</g>
<!-- Node2 -->
<g id="node2" class="node"><title>Node2</title>
<g id="a_node2"><a xlink:href="circle_8h.html" target="_top" xlink:title="circle.h">
<polygon fill="white" stroke="black" points="63,-168.5 63,-187.5 111,-187.5 111,-168.5 63,-168.5"/>
<text text-anchor="middle" x="87" y="-175.5" font-family="Helvetica,sans-Serif" font-size="10.00">circle.h</text>
</a>
</g>
</g>
<!-- Node1&#45;&gt;Node2 -->
<g id="edge1" class="edge"><title>Node1&#45;&gt;Node2</title>
<path fill="none" stroke="midnightblue" d="M263.612,-223.986C220.358,-212.968 148.329,-194.622 111.03,-185.121"/>
<polygon fill="midnightblue" stroke="midnightblue" points="262.873,-227.41 273.428,-226.486 264.601,-220.626 262.873,-227.41"/>
</g>
<!-- Node4 -->
<g id="node4" class="node"><title>Node4</title>
<g id="a_node4"><a xlink:href="shapeFactory_8h.html" target="_top" xlink:title="shapeFactory.h">
<polygon fill="white" stroke="black" points="206,-56.5 206,-75.5 290,-75.5 290,-56.5 206,-56.5"/>
<text text-anchor="middle" x="248" y="-63.5" font-family="Helvetica,sans-Serif" font-size="10.00">shapeFactory.h</text>
</a>
</g>
</g>
<!-- Node1&#45;&gt;Node4 -->
<g id="edge15" class="edge"><title>Node1&#45;&gt;Node4</title>
<path fill="none" stroke="midnightblue" d="M293.284,-214.395C282.282,-178.585 258.551,-101.342 250.632,-75.5681"/>
<polygon fill="midnightblue" stroke="midnightblue" points="289.975,-215.544 296.258,-224.075 296.667,-213.488 289.975,-215.544"/>
</g>
<!-- Node7 -->
<g id="node7" class="node"><title>Node7</title>
<g id="a_node7"><a xlink:href="triangle_8h.html" target="_top" xlink:title="triangle.h">
<polygon fill="white" stroke="black" points="324,-168.5 324,-187.5 380,-187.5 380,-168.5 324,-168.5"/>
<text text-anchor="middle" x="352" y="-175.5" font-family="Helvetica,sans-Serif" font-size="10.00">triangle.h</text>
</a>
</g>
</g>
<!-- Node1&#45;&gt;Node7 -->
<g id="edge6" class="edge"><title>Node1&#45;&gt;Node7</title>
<path fill="none" stroke="midnightblue" d="M314.981,-216.718C324.322,-207.2 335.746,-195.561 343.411,-187.751"/>
<polygon fill="midnightblue" stroke="midnightblue" points="312.259,-214.494 307.752,-224.083 317.254,-219.398 312.259,-214.494"/>
</g>
<!-- Node13 -->
<g id="node13" class="node"><title>Node13</title>
<g id="a_node13"><a xlink:href="square_8h.html" target="_top" xlink:title="square.h">
<polygon fill="white" stroke="black" points="165,-168.5 165,-187.5 219,-187.5 219,-168.5 165,-168.5"/>
<text text-anchor="middle" x="192" y="-175.5" font-family="Helvetica,sans-Serif" font-size="10.00">square.h</text>
</a>
</g>
</g>
<!-- Node1&#45;&gt;Node13 -->
<g id="edge16" class="edge"><title>Node1&#45;&gt;Node13</title>
<path fill="none" stroke="midnightblue" d="M272.698,-219.726C252.885,-209.727 226.293,-196.307 209.149,-187.655"/>
<polygon fill="midnightblue" stroke="midnightblue" points="271.304,-222.943 281.809,-224.324 274.458,-216.694 271.304,-222.943"/>
</g>
<!-- Node15 -->
<g id="node15" class="node"><title>Node15</title>
<g id="a_node15"><a xlink:href="ShapeCollection_8h.html" target="_top" xlink:title="ShapeCollection.h">
<polygon fill="white" stroke="black" points="488,-168.5 488,-187.5 584,-187.5 584,-168.5 488,-168.5"/>
<text text-anchor="middle" x="536" y="-175.5" font-family="Helvetica,sans-Serif" font-size="10.00">ShapeCollection.h</text>
</a>
</g>
</g>
<!-- Node1&#45;&gt;Node15 -->
<g id="edge19" class="edge"><title>Node1&#45;&gt;Node15</title>
<path fill="none" stroke="midnightblue" d="M334.815,-224.84C378.973,-214.778 453.672,-197.758 498.563,-187.53"/>
<polygon fill="midnightblue" stroke="midnightblue" points="333.787,-221.484 324.814,-227.118 335.342,-228.309 333.787,-221.484"/>
</g>
<!-- Node17 -->
<g id="node17" class="node"><title>Node17</title>
<g id="a_node17"><a xlink:href="shape_8cpp.html" target="_top" xlink:title="shape.cpp">
<polygon fill="white" stroke="black" points="602,-168.5 602,-187.5 664,-187.5 664,-168.5 602,-168.5"/>
<text text-anchor="middle" x="633" y="-175.5" font-family="Helvetica,sans-Serif" font-size="10.00">shape.cpp</text>
</a>
</g>
</g>
<!-- Node1&#45;&gt;Node17 -->
<g id="edge22" class="edge"><title>Node1&#45;&gt;Node17</title>
<path fill="none" stroke="midnightblue" d="M334.685,-228.352C390.143,-220.946 500.286,-205.504 593,-188 595.798,-187.472 598.698,-186.889 601.6,-186.281"/>
<polygon fill="midnightblue" stroke="midnightblue" points="334.116,-224.897 324.663,-229.683 335.037,-231.836 334.116,-224.897"/>
</g>
<!-- Node3 -->
<g id="node3" class="node"><title>Node3</title>
<g id="a_node3"><a xlink:href="circle_8cpp.html" target="_top" xlink:title="circle.cpp">
<polygon fill="white" stroke="black" points="-0.5,-112.5 -0.5,-131.5 58.5,-131.5 58.5,-112.5 -0.5,-112.5"/>
<text text-anchor="middle" x="29" y="-119.5" font-family="Helvetica,sans-Serif" font-size="10.00">circle.cpp</text>
</a>
</g>
</g>
<!-- Node2&#45;&gt;Node3 -->
<g id="edge2" class="edge"><title>Node2&#45;&gt;Node3</title>
<path fill="none" stroke="midnightblue" d="M70.0869,-161.253C59.797,-151.673 47.0343,-139.791 38.4883,-131.834"/>
<polygon fill="midnightblue" stroke="midnightblue" points="67.9774,-164.071 77.6813,-168.324 72.7473,-158.948 67.9774,-164.071"/>
</g>
<!-- Node2&#45;&gt;Node4 -->
<g id="edge3" class="edge"><title>Node2&#45;&gt;Node4</title>
<path fill="none" stroke="midnightblue" d="M87.8902,-157.867C89.5577,-143.473 94.0665,-124.205 106,-112 132.215,-85.1878 174.29,-74.3121 205.847,-69.9216"/>
<polygon fill="midnightblue" stroke="midnightblue" points="84.3773,-157.892 87.0745,-168.138 91.3553,-158.446 84.3773,-157.892"/>
</g>
<!-- Node5 -->
<g id="node5" class="node"><title>Node5</title>
<g id="a_node5"><a xlink:href="runShapes_8cpp.html" target="_top" xlink:title="runShapes.cpp">
<polygon fill="white" stroke="black" points="450,-0.5 450,-19.5 532,-19.5 532,-0.5 450,-0.5"/>
<text text-anchor="middle" x="491" y="-7.5" font-family="Helvetica,sans-Serif" font-size="10.00">runShapes.cpp</text>
</a>
</g>
</g>
<!-- Node4&#45;&gt;Node5 -->
<g id="edge4" class="edge"><title>Node4&#45;&gt;Node5</title>
<path fill="none" stroke="midnightblue" d="M296.522,-54.2172C342.44,-44.0134 410.447,-28.9006 452.676,-19.5164"/>
<polygon fill="midnightblue" stroke="midnightblue" points="295.507,-50.8575 286.504,-56.4435 297.025,-57.6908 295.507,-50.8575"/>
</g>
<!-- Node6 -->
<g id="node6" class="node"><title>Node6</title>
<g id="a_node6"><a xlink:href="shapeFactory_8cpp.html" target="_top" xlink:title="shapeFactory.cpp">
<polygon fill="white" stroke="black" points="200.5,-0.5 200.5,-19.5 295.5,-19.5 295.5,-0.5 200.5,-0.5"/>
<text text-anchor="middle" x="248" y="-7.5" font-family="Helvetica,sans-Serif" font-size="10.00">shapeFactory.cpp</text>
</a>
</g>
</g>
<!-- Node4&#45;&gt;Node6 -->
<g id="edge5" class="edge"><title>Node4&#45;&gt;Node6</title>
<path fill="none" stroke="midnightblue" d="M248,-45.8045C248,-36.9102 248,-26.7798 248,-19.7511"/>
<polygon fill="midnightblue" stroke="midnightblue" points="244.5,-46.083 248,-56.083 251.5,-46.083 244.5,-46.083"/>
</g>
<!-- Node7&#45;&gt;Node4 -->
<g id="edge13" class="edge"><title>Node7&#45;&gt;Node4</title>
<path fill="none" stroke="midnightblue" d="M334.638,-161.549C325.325,-153.057 313.783,-142.203 304,-132 285.444,-112.648 265.297,-88.3745 254.97,-75.668"/>
<polygon fill="midnightblue" stroke="midnightblue" points="332.38,-164.226 342.149,-168.327 337.07,-159.029 332.38,-164.226"/>
</g>
<!-- Node8 -->
<g id="node8" class="node"><title>Node8</title>
<g id="a_node8"><a xlink:href="equilateralTriangle_8h.html" target="_top" xlink:title="equilateralTriangle.h">
<polygon fill="white" stroke="black" points="409,-112.5 409,-131.5 513,-131.5 513,-112.5 409,-112.5"/>
<text text-anchor="middle" x="461" y="-119.5" font-family="Helvetica,sans-Serif" font-size="10.00">equilateralTriangle.h</text>
</a>
</g>
</g>
<!-- Node7&#45;&gt;Node8 -->
<g id="edge7" class="edge"><title>Node7&#45;&gt;Node8</title>
<path fill="none" stroke="midnightblue" d="M378.519,-163.862C398.73,-153.849 425.987,-140.346 443.531,-131.655"/>
<polygon fill="midnightblue" stroke="midnightblue" points="376.92,-160.748 369.513,-168.324 380.027,-167.021 376.92,-160.748"/>
</g>
<!-- Node10 -->
<g id="node10" class="node"><title>Node10</title>
<g id="a_node10"><a xlink:href="rightTriangle_8h.html" target="_top" xlink:title="rightTriangle.h">
<polygon fill="white" stroke="black" points="313,-112.5 313,-131.5 391,-131.5 391,-112.5 313,-112.5"/>
<text text-anchor="middle" x="352" y="-119.5" font-family="Helvetica,sans-Serif" font-size="10.00">rightTriangle.h</text>
</a>
</g>
</g>
<!-- Node7&#45;&gt;Node10 -->
<g id="edge10" class="edge"><title>Node7&#45;&gt;Node10</title>
<path fill="none" stroke="midnightblue" d="M352,-157.805C352,-148.91 352,-138.78 352,-131.751"/>
<polygon fill="midnightblue" stroke="midnightblue" points="348.5,-158.083 352,-168.083 355.5,-158.083 348.5,-158.083"/>
</g>
<!-- Node12 -->
<g id="node12" class="node"><title>Node12</title>
<g id="a_node12"><a xlink:href="triangle_8cpp.html" target="_top" xlink:title="triangle.cpp">
<polygon fill="white" stroke="black" points="531.5,-112.5 531.5,-131.5 598.5,-131.5 598.5,-112.5 531.5,-112.5"/>
<text text-anchor="middle" x="565" y="-119.5" font-family="Helvetica,sans-Serif" font-size="10.00">triangle.cpp</text>
</a>
</g>
</g>
<!-- Node7&#45;&gt;Node12 -->
<g id="edge14" class="edge"><title>Node7&#45;&gt;Node12</title>
<path fill="none" stroke="midnightblue" d="M389.979,-167.372C430.136,-157.191 492.88,-141.284 531.326,-131.537"/>
<polygon fill="midnightblue" stroke="midnightblue" points="389.118,-163.979 380.285,-169.829 390.838,-170.764 389.118,-163.979"/>
</g>
<!-- Node8&#45;&gt;Node4 -->
<g id="edge9" class="edge"><title>Node8&#45;&gt;Node4</title>
<path fill="none" stroke="midnightblue" d="M417.449,-109.959C377.219,-99.7598 318.297,-84.8217 281.593,-75.5164"/>
<polygon fill="midnightblue" stroke="midnightblue" points="416.696,-113.379 427.25,-112.444 418.416,-106.593 416.696,-113.379"/>
</g>
<!-- Node9 -->
<g id="node9" class="node"><title>Node9</title>
<g id="a_node9"><a xlink:href="equilateralTriangle_8cpp.html" target="_top" xlink:title="equilateralTriangle.cpp">
<polygon fill="white" stroke="black" points="415,-56.5 415,-75.5 529,-75.5 529,-56.5 415,-56.5"/>
<text text-anchor="middle" x="472" y="-63.5" font-family="Helvetica,sans-Serif" font-size="10.00">equilateralTriangle.cpp</text>
</a>
</g>
</g>
<!-- Node8&#45;&gt;Node9 -->
<g id="edge8" class="edge"><title>Node8&#45;&gt;Node9</title>
<path fill="none" stroke="midnightblue" d="M464.85,-102.101C466.676,-93.1357 468.77,-82.8579 470.217,-75.7511"/>
<polygon fill="midnightblue" stroke="midnightblue" points="461.383,-101.586 462.816,-112.083 468.242,-102.983 461.383,-101.586"/>
</g>
<!-- Node10&#45;&gt;Node4 -->
<g id="edge12" class="edge"><title>Node10&#45;&gt;Node4</title>
<path fill="none" stroke="midnightblue" d="M326.172,-107.59C306.943,-97.6052 281.255,-84.2672 264.668,-75.6545"/>
<polygon fill="midnightblue" stroke="midnightblue" points="324.803,-110.822 335.291,-112.324 328.029,-104.61 324.803,-110.822"/>
</g>
<!-- Node11 -->
<g id="node11" class="node"><title>Node11</title>
<g id="a_node11"><a xlink:href="rightTriangle_8cpp.html" target="_top" xlink:title="rightTriangle.cpp">
<polygon fill="white" stroke="black" points="307.5,-56.5 307.5,-75.5 396.5,-75.5 396.5,-56.5 307.5,-56.5"/>
<text text-anchor="middle" x="352" y="-63.5" font-family="Helvetica,sans-Serif" font-size="10.00">rightTriangle.cpp</text>
</a>
</g>
</g>
<!-- Node10&#45;&gt;Node11 -->
<g id="edge11" class="edge"><title>Node10&#45;&gt;Node11</title>
<path fill="none" stroke="midnightblue" d="M352,-101.805C352,-92.9102 352,-82.7798 352,-75.7511"/>
<polygon fill="midnightblue" stroke="midnightblue" points="348.5,-102.083 352,-112.083 355.5,-102.083 348.5,-102.083"/>
</g>
<!-- Node13&#45;&gt;Node4 -->
<g id="edge17" class="edge"><title>Node13&#45;&gt;Node4</title>
<path fill="none" stroke="midnightblue" d="M201.001,-159.32C213.194,-135.37 234.484,-93.5484 243.626,-75.5914"/>
<polygon fill="midnightblue" stroke="midnightblue" points="197.812,-157.869 196.394,-168.368 204.05,-161.045 197.812,-157.869"/>
</g>
<!-- Node14 -->
<g id="node14" class="node"><title>Node14</title>
<g id="a_node14"><a xlink:href="square_8cpp.html" target="_top" xlink:title="square.cpp">
<polygon fill="white" stroke="black" points="115.5,-112.5 115.5,-131.5 180.5,-131.5 180.5,-112.5 115.5,-112.5"/>
<text text-anchor="middle" x="148" y="-119.5" font-family="Helvetica,sans-Serif" font-size="10.00">square.cpp</text>
</a>
</g>
</g>
<!-- Node13&#45;&gt;Node14 -->
<g id="edge18" class="edge"><title>Node13&#45;&gt;Node14</title>
<path fill="none" stroke="midnightblue" d="M178.265,-160.144C170.599,-150.736 161.367,-139.405 155.131,-131.751"/>
<polygon fill="midnightblue" stroke="midnightblue" points="175.704,-162.541 184.734,-168.083 181.131,-158.12 175.704,-162.541"/>
</g>
<!-- Node15&#45;&gt;Node5 -->
<g id="edge20" class="edge"><title>Node15&#45;&gt;Node5</title>
<path fill="none" stroke="midnightblue" d="M568.468,-164.197C591.733,-152.85 617.285,-134.592 607,-112 586.532,-67.0395 535.068,-34.3155 508.096,-19.6223"/>
<polygon fill="midnightblue" stroke="midnightblue" points="566.721,-161.147 559.081,-168.487 569.631,-167.514 566.721,-161.147"/>
</g>
<!-- Node16 -->
<g id="node16" class="node"><title>Node16</title>
<g id="a_node16"><a xlink:href="ShapeCollection_8cpp.html" target="_top" xlink:title="ShapeCollection.cpp">
<polygon fill="white" stroke="black" points="655.5,-112.5 655.5,-131.5 762.5,-131.5 762.5,-112.5 655.5,-112.5"/>
<text text-anchor="middle" x="709" y="-119.5" font-family="Helvetica,sans-Serif" font-size="10.00">ShapeCollection.cpp</text>
</a>
</g>
</g>
<!-- Node15&#45;&gt;Node16 -->
<g id="edge21" class="edge"><title>Node15&#45;&gt;Node16</title>
<path fill="none" stroke="midnightblue" d="M573.047,-165.436C605.664,-155.255 652.41,-140.664 681.716,-131.516"/>
<polygon fill="midnightblue" stroke="midnightblue" points="571.915,-162.123 563.412,-168.444 574.001,-168.805 571.915,-162.123"/>
</g>
</g>
</svg>
