<?xml version="1.0" encoding="UTF-8" standalone="no"?>
<!DOCTYPE svg PUBLIC "-//W3C//DTD SVG 1.1//EN"
 "http://www.w3.org/Graphics/SVG/1.1/DTD/svg11.dtd">
<!-- Generated by graphviz version 2.36.0 (20140111.2315)
 -->
<!-- Title: triangle.h Pages: 1 -->
<svg width="373pt" height="196pt"
 viewBox="0.00 0.00 373.00 196.00" xmlns="http://www.w3.org/2000/svg" xmlns:xlink="http://www.w3.org/1999/xlink">
<g id="graph0" class="graph" transform="scale(1 1) rotate(0) translate(4 192)">
<title>triangle.h</title>
<polygon fill="white" stroke="none" points="-4,4 -4,-192 369,-192 369,4 -4,4"/>
<!-- Node1 -->
<g id="node1" class="node"><title>Node1</title>
<polygon fill="#bfbfbf" stroke="black" points="179,-168.5 179,-187.5 235,-187.5 235,-168.5 179,-168.5"/>
<text text-anchor="middle" x="207" y="-175.5" font-family="Helvetica,sans-Serif" font-size="10.00">triangle.h</text>
</g>
<!-- Node2 -->
<g id="node2" class="node"><title>Node2</title>
<g id="a_node2"><a xlink:href="equilateralTriangle_8h.html" target="_top" xlink:title="equilateralTriangle.h">
<polygon fill="white" stroke="black" points="42,-112.5 42,-131.5 146,-131.5 146,-112.5 42,-112.5"/>
<text text-anchor="middle" x="94" y="-119.5" font-family="Helvetica,sans-Serif" font-size="10.00">equilateralTriangle.h</text>
</a>
</g>
</g>
<!-- Node1&#45;&gt;Node2 -->
<g id="edge1" class="edge"><title>Node1&#45;&gt;Node2</title>
<path fill="none" stroke="midnightblue" d="M179.997,-164.096C158.886,-154.007 130.138,-140.27 111.821,-131.516"/>
<polygon fill="midnightblue" stroke="midnightblue" points="178.563,-167.29 189.095,-168.444 181.581,-160.974 178.563,-167.29"/>
</g>
<!-- Node4 -->
<g id="node4" class="node"><title>Node4</title>
<g id="a_node4"><a xlink:href="shapeFactory_8h.html" target="_top" xlink:title="shapeFactory.h">
<polygon fill="white" stroke="black" points="132,-56.5 132,-75.5 216,-75.5 216,-56.5 132,-56.5"/>
<text text-anchor="middle" x="174" y="-63.5" font-family="Helvetica,sans-Serif" font-size="10.00">shapeFactory.h</text>
</a>
</g>
</g>
<!-- Node1&#45;&gt;Node4 -->
<g id="edge9" class="edge"><title>Node1&#45;&gt;Node4</title>
<path fill="none" stroke="midnightblue" d="M201.25,-158.771C198.692,-150.594 195.662,-140.823 193,-132 186.956,-111.965 180.131,-88.366 176.533,-75.8457"/>
<polygon fill="midnightblue" stroke="midnightblue" points="197.935,-159.896 204.272,-168.387 204.613,-157.797 197.935,-159.896"/>
</g>
<!-- Node7 -->
<g id="node7" class="node"><title>Node7</title>
<g id="a_node7"><a xlink:href="rightTriangle_8h.html" target="_top" xlink:title="rightTriangle.h">
<polygon fill="white" stroke="black" points="202,-112.5 202,-131.5 280,-131.5 280,-112.5 202,-112.5"/>
<text text-anchor="middle" x="241" y="-119.5" font-family="Helvetica,sans-Serif" font-size="10.00">rightTriangle.h</text>
</a>
</g>
</g>
<!-- Node1&#45;&gt;Node7 -->
<g id="edge6" class="edge"><title>Node1&#45;&gt;Node7</title>
<path fill="none" stroke="midnightblue" d="M217.977,-159.566C223.827,-150.275 230.77,-139.248 235.49,-131.751"/>
<polygon fill="midnightblue" stroke="midnightblue" points="214.981,-157.756 212.614,-168.083 220.904,-161.486 214.981,-157.756"/>
</g>
<!-- Node9 -->
<g id="node9" class="node"><title>Node9</title>
<g id="a_node9"><a xlink:href="triangle_8cpp.html" target="_top" xlink:title="triangle.cpp">
<polygon fill="white" stroke="black" points="298.5,-112.5 298.5,-131.5 365.5,-131.5 365.5,-112.5 298.5,-112.5"/>
<text text-anchor="middle" x="332" y="-119.5" font-family="Helvetica,sans-Serif" font-size="10.00">triangle.cpp</text>
</a>
</g>
</g>
<!-- Node1&#45;&gt;Node9 -->
<g id="edge10" class="edge"><title>Node1&#45;&gt;Node9</title>
<path fill="none" stroke="midnightblue" d="M236.241,-164.368C259.65,-154.255 291.841,-140.349 312.286,-131.516"/>
<polygon fill="midnightblue" stroke="midnightblue" points="234.599,-161.265 226.807,-168.444 237.375,-167.691 234.599,-161.265"/>
</g>
<!-- Node3 -->
<g id="node3" class="node"><title>Node3</title>
<g id="a_node3"><a xlink:href="equilateralTriangle_8cpp.html" target="_top" xlink:title="equilateralTriangle.cpp">
<polygon fill="white" stroke="black" points="0,-56.5 0,-75.5 114,-75.5 114,-56.5 0,-56.5"/>
<text text-anchor="middle" x="57" y="-63.5" font-family="Helvetica,sans-Serif" font-size="10.00">equilateralTriangle.cpp</text>
</a>
</g>
</g>
<!-- Node2&#45;&gt;Node3 -->
<g id="edge2" class="edge"><title>Node2&#45;&gt;Node3</title>
<path fill="none" stroke="midnightblue" d="M82.0542,-103.566C75.6883,-94.2747 68.1332,-83.2484 62.9961,-75.7511"/>
<polygon fill="midnightblue" stroke="midnightblue" points="79.3506,-105.812 87.8902,-112.083 85.1251,-101.855 79.3506,-105.812"/>
</g>
<!-- Node2&#45;&gt;Node4 -->
<g id="edge3" class="edge"><title>Node2&#45;&gt;Node4</title>
<path fill="none" stroke="midnightblue" d="M115.301,-106.622C129.915,-96.7574 148.827,-83.9919 161.179,-75.6545"/>
<polygon fill="midnightblue" stroke="midnightblue" points="113.184,-103.828 106.853,-112.324 117.1,-109.63 113.184,-103.828"/>
</g>
<!-- Node5 -->
<g id="node5" class="node"><title>Node5</title>
<g id="a_node5"><a xlink:href="runShapes_8cpp.html" target="_top" xlink:title="runShapes.cpp">
<polygon fill="white" stroke="black" points="79,-0.5 79,-19.5 161,-19.5 161,-0.5 79,-0.5"/>
<text text-anchor="middle" x="120" y="-7.5" font-family="Helvetica,sans-Serif" font-size="10.00">runShapes.cpp</text>
</a>
</g>
</g>
<!-- Node4&#45;&gt;Node5 -->
<g id="edge4" class="edge"><title>Node4&#45;&gt;Node5</title>
<path fill="none" stroke="midnightblue" d="M158.002,-49.0024C148.433,-39.4329 136.639,-27.6389 128.751,-19.7511"/>
<polygon fill="midnightblue" stroke="midnightblue" points="155.537,-51.4868 165.083,-56.083 160.487,-46.537 155.537,-51.4868"/>
</g>
<!-- Node6 -->
<g id="node6" class="node"><title>Node6</title>
<g id="a_node6"><a xlink:href="shapeFactory_8cpp.html" target="_top" xlink:title="shapeFactory.cpp">
<polygon fill="white" stroke="black" points="179.5,-0.5 179.5,-19.5 274.5,-19.5 274.5,-0.5 179.5,-0.5"/>
<text text-anchor="middle" x="227" y="-7.5" font-family="Helvetica,sans-Serif" font-size="10.00">shapeFactory.cpp</text>
</a>
</g>
</g>
<!-- Node4&#45;&gt;Node6 -->
<g id="edge5" class="edge"><title>Node4&#45;&gt;Node6</title>
<path fill="none" stroke="midnightblue" d="M189.981,-48.7175C199.322,-39.1997 210.746,-27.5608 218.411,-19.7511"/>
<polygon fill="midnightblue" stroke="midnightblue" points="187.259,-46.4945 182.752,-56.083 192.254,-51.3978 187.259,-46.4945"/>
</g>
<!-- Node7&#45;&gt;Node4 -->
<g id="edge8" class="edge"><title>Node7&#45;&gt;Node4</title>
<path fill="none" stroke="midnightblue" d="M222.165,-105.82C210.162,-96.1452 195.028,-83.9481 184.961,-75.8339"/>
<polygon fill="midnightblue" stroke="midnightblue" points="220.253,-108.774 230.235,-112.324 224.646,-103.324 220.253,-108.774"/>
</g>
<!-- Node8 -->
<g id="node8" class="node"><title>Node8</title>
<g id="a_node8"><a xlink:href="rightTriangle_8cpp.html" target="_top" xlink:title="rightTriangle.cpp">
<polygon fill="white" stroke="black" points="233.5,-56.5 233.5,-75.5 322.5,-75.5 322.5,-56.5 233.5,-56.5"/>
<text text-anchor="middle" x="278" y="-63.5" font-family="Helvetica,sans-Serif" font-size="10.00">rightTriangle.cpp</text>
</a>
</g>
</g>
<!-- Node7&#45;&gt;Node8 -->
<g id="edge7" class="edge"><title>Node7&#45;&gt;Node8</title>
<path fill="none" stroke="midnightblue" d="M252.946,-103.566C259.312,-94.2747 266.867,-83.2484 272.004,-75.7511"/>
<polygon fill="midnightblue" stroke="midnightblue" points="249.875,-101.855 247.11,-112.083 255.649,-105.812 249.875,-101.855"/>
</g>
</g>
</svg>
