<?xml version="1.0" encoding="UTF-8" standalone="no"?>
<!DOCTYPE svg PUBLIC "-//W3C//DTD SVG 1.1//EN"
 "http://www.w3.org/Graphics/SVG/1.1/DTD/svg11.dtd">
<!-- Generated by graphviz version 2.36.0 (20140111.2315)
 -->
<!-- Title: House Pages: 1 -->
<svg width="219pt" height="642pt"
 viewBox="0.00 0.00 219.00 642.00" xmlns="http://www.w3.org/2000/svg" xmlns:xlink="http://www.w3.org/1999/xlink">
<g id="graph0" class="graph" transform="scale(1 1) rotate(0) translate(4 638)">
<title>House</title>
<polygon fill="white" stroke="none" points="-4,4 -4,-638 215,-638 215,4 -4,4"/>
<!-- Node1 -->
<g id="node1" class="node"><title>Node1</title>
<polygon fill="#bfbfbf" stroke="black" points="72.5,-0.5 72.5,-189.5 151.5,-189.5 151.5,-0.5 72.5,-0.5"/>
<text text-anchor="middle" x="112" y="-177.5" font-family="Helvetica,sans-Serif" font-size="10.00">House</text>
<polyline fill="none" stroke="black" points="72.5,-170.5 151.5,-170.5 "/>
<text text-anchor="start" x="80.5" y="-158.5" font-family="Helvetica,sans-Serif" font-size="10.00">&#45; name</text>
<text text-anchor="start" x="80.5" y="-147.5" font-family="Helvetica,sans-Serif" font-size="10.00">&#45; currentSize</text>
<polyline fill="none" stroke="black" points="72.5,-140.5 151.5,-140.5 "/>
<text text-anchor="start" x="80.5" y="-128.5" font-family="Helvetica,sans-Serif" font-size="10.00">+ House()</text>
<text text-anchor="start" x="80.5" y="-117.5" font-family="Helvetica,sans-Serif" font-size="10.00">+ House()</text>
<text text-anchor="start" x="80.5" y="-106.5" font-family="Helvetica,sans-Serif" font-size="10.00">+ addRoom()</text>
<text text-anchor="start" x="80.5" y="-95.5" font-family="Helvetica,sans-Serif" font-size="10.00">+ setName()</text>
<text text-anchor="start" x="80.5" y="-84.5" font-family="Helvetica,sans-Serif" font-size="10.00">+ getName()</text>
<text text-anchor="start" x="80.5" y="-73.5" font-family="Helvetica,sans-Serif" font-size="10.00">+ begin()</text>
<text text-anchor="start" x="80.5" y="-62.5" font-family="Helvetica,sans-Serif" font-size="10.00">+ begin()</text>
<text text-anchor="start" x="80.5" y="-51.5" font-family="Helvetica,sans-Serif" font-size="10.00">+ end()</text>
<text text-anchor="start" x="80.5" y="-40.5" font-family="Helvetica,sans-Serif" font-size="10.00">+ end()</text>
<text text-anchor="start" x="80.5" y="-29.5" font-family="Helvetica,sans-Serif" font-size="10.00">+ size()</text>
<text text-anchor="start" x="80.5" y="-18.5" font-family="Helvetica,sans-Serif" font-size="10.00">+ display()</text>
<text text-anchor="start" x="80.5" y="-7.5" font-family="Helvetica,sans-Serif" font-size="10.00">+ operator==()</text>
</g>
<!-- Node2 -->
<g id="node2" class="node"><title>Node2</title>
<g id="a_node2"><a xlink:href="classRoom.html" target="_top" xlink:title="{Room\n|+ UNITS\l&#45; name\l|+ Room()\l+ Room()\l+ Room()\l+ Room()\l+ getDimensions()\l+ setDimensions()\l+ getFlooring()\l+ setFlooring()\l+ setName()\l+ getName()\l+ area()\l+ flooringCost()\l+ display()\l+ operator==()\l+ operator\&lt;()\l}">
<polygon fill="white" stroke="black" points="63.5,-239 63.5,-461 160.5,-461 160.5,-239 63.5,-239"/>
<text text-anchor="middle" x="112" y="-449" font-family="Helvetica,sans-Serif" font-size="10.00">Room</text>
<polyline fill="none" stroke="black" points="63.5,-442 160.5,-442 "/>
<text text-anchor="start" x="71.5" y="-430" font-family="Helvetica,sans-Serif" font-size="10.00">+ UNITS</text>
<text text-anchor="start" x="71.5" y="-419" font-family="Helvetica,sans-Serif" font-size="10.00">&#45; name</text>
<polyline fill="none" stroke="black" points="63.5,-412 160.5,-412 "/>
<text text-anchor="start" x="71.5" y="-400" font-family="Helvetica,sans-Serif" font-size="10.00">+ Room()</text>
<text text-anchor="start" x="71.5" y="-389" font-family="Helvetica,sans-Serif" font-size="10.00">+ Room()</text>
<text text-anchor="start" x="71.5" y="-378" font-family="Helvetica,sans-Serif" font-size="10.00">+ Room()</text>
<text text-anchor="start" x="71.5" y="-367" font-family="Helvetica,sans-Serif" font-size="10.00">+ Room()</text>
<text text-anchor="start" x="71.5" y="-356" font-family="Helvetica,sans-Serif" font-size="10.00">+ getDimensions()</text>
<text text-anchor="start" x="71.5" y="-345" font-family="Helvetica,sans-Serif" font-size="10.00">+ setDimensions()</text>
<text text-anchor="start" x="71.5" y="-334" font-family="Helvetica,sans-Serif" font-size="10.00">+ getFlooring()</text>
<text text-anchor="start" x="71.5" y="-323" font-family="Helvetica,sans-Serif" font-size="10.00">+ setFlooring()</text>
<text text-anchor="start" x="71.5" y="-312" font-family="Helvetica,sans-Serif" font-size="10.00">+ setName()</text>
<text text-anchor="start" x="71.5" y="-301" font-family="Helvetica,sans-Serif" font-size="10.00">+ getName()</text>
<text text-anchor="start" x="71.5" y="-290" font-family="Helvetica,sans-Serif" font-size="10.00">+ area()</text>
<text text-anchor="start" x="71.5" y="-279" font-family="Helvetica,sans-Serif" font-size="10.00">+ flooringCost()</text>
<text text-anchor="start" x="71.5" y="-268" font-family="Helvetica,sans-Serif" font-size="10.00">+ display()</text>
<text text-anchor="start" x="71.5" y="-257" font-family="Helvetica,sans-Serif" font-size="10.00">+ operator==()</text>
<text text-anchor="start" x="71.5" y="-246" font-family="Helvetica,sans-Serif" font-size="10.00">+ operator&lt;()</text>
</a>
</g>
</g>
<!-- Node2&#45;&gt;Node1 -->
<g id="edge1" class="edge"><title>Node2&#45;&gt;Node1</title>
<path fill="none" stroke="#404040" d="M112,-238.766C112,-226.482 112,-213.99 112,-201.764"/>
<polygon fill="none" stroke="#404040" points="112,-201.643 108,-195.643 112,-189.643 116,-195.643 112,-201.643"/>
<text text-anchor="middle" x="129" y="-211.5" font-family="Helvetica,sans-Serif" font-size="10.00"> &#45;rooms</text>
</g>
<!-- Node3 -->
<g id="node3" class="node"><title>Node3</title>
<g id="a_node3"><a xlink:href="classRoom_1_1DimensionSet.html" target="_top" xlink:title="{Room::DimensionSet\n|&#45; length\l&#45; width\l|+ DimensionSet()\l+ DimensionSet()\l+ setLength()\l+ getLength()\l+ setWidth()\l+ getWidth()\l}">
<polygon fill="white" stroke="black" points="0,-510.5 0,-633.5 110,-633.5 110,-510.5 0,-510.5"/>
<text text-anchor="middle" x="55" y="-621.5" font-family="Helvetica,sans-Serif" font-size="10.00">Room::DimensionSet</text>
<polyline fill="none" stroke="black" points="0,-614.5 110,-614.5 "/>
<text text-anchor="start" x="8" y="-602.5" font-family="Helvetica,sans-Serif" font-size="10.00">&#45; length</text>
<text text-anchor="start" x="8" y="-591.5" font-family="Helvetica,sans-Serif" font-size="10.00">&#45; width</text>
<polyline fill="none" stroke="black" points="0,-584.5 110,-584.5 "/>
<text text-anchor="start" x="8" y="-572.5" font-family="Helvetica,sans-Serif" font-size="10.00">+ DimensionSet()</text>
<text text-anchor="start" x="8" y="-561.5" font-family="Helvetica,sans-Serif" font-size="10.00">+ DimensionSet()</text>
<text text-anchor="start" x="8" y="-550.5" font-family="Helvetica,sans-Serif" font-size="10.00">+ setLength()</text>
<text text-anchor="start" x="8" y="-539.5" font-family="Helvetica,sans-Serif" font-size="10.00">+ getLength()</text>
<text text-anchor="start" x="8" y="-528.5" font-family="Helvetica,sans-Serif" font-size="10.00">+ setWidth()</text>
<text text-anchor="start" x="8" y="-517.5" font-family="Helvetica,sans-Serif" font-size="10.00">+ getWidth()</text>
</a>
</g>
</g>
<!-- Node3&#45;&gt;Node2 -->
<g id="edge2" class="edge"><title>Node3&#45;&gt;Node2</title>
<path fill="none" stroke="#404040" d="M70.7264,-510.302C73.7539,-498.617 77.0239,-485.996 80.3518,-473.151"/>
<polygon fill="none" stroke="#404040" points="80.4093,-472.929 78.0421,-466.117 83.4191,-461.312 85.7864,-468.124 80.4093,-472.929"/>
<text text-anchor="middle" x="107" y="-483.5" font-family="Helvetica,sans-Serif" font-size="10.00"> &#45;dimensions</text>
</g>
<!-- Node4 -->
<g id="node4" class="node"><title>Node4</title>
<g id="a_node4"><a xlink:href="structRoom_1_1Flooring.html" target="_top" xlink:title="{Room::Flooring\n|+ type\l+ unitCost\l|+ Flooring()\l+ Flooring()\l}">
<polygon fill="white" stroke="black" points="128.5,-532.5 128.5,-611.5 211.5,-611.5 211.5,-532.5 128.5,-532.5"/>
<text text-anchor="middle" x="170" y="-599.5" font-family="Helvetica,sans-Serif" font-size="10.00">Room::Flooring</text>
<polyline fill="none" stroke="black" points="128.5,-592.5 211.5,-592.5 "/>
<text text-anchor="start" x="136.5" y="-580.5" font-family="Helvetica,sans-Serif" font-size="10.00">+ type</text>
<text text-anchor="start" x="136.5" y="-569.5" font-family="Helvetica,sans-Serif" font-size="10.00">+ unitCost</text>
<polyline fill="none" stroke="black" points="128.5,-562.5 211.5,-562.5 "/>
<text text-anchor="start" x="136.5" y="-550.5" font-family="Helvetica,sans-Serif" font-size="10.00">+ Flooring()</text>
<text text-anchor="start" x="136.5" y="-539.5" font-family="Helvetica,sans-Serif" font-size="10.00">+ Flooring()</text>
</a>
</g>
</g>
<!-- Node4&#45;&gt;Node2 -->
<g id="edge3" class="edge"><title>Node4&#45;&gt;Node2</title>
<path fill="none" stroke="#404040" d="M159.831,-532.427C155.369,-515.505 149.861,-494.609 144.187,-473.089"/>
<polygon fill="none" stroke="#404040" points="144.176,-473.048 138.779,-468.266 141.117,-461.444 146.515,-466.226 144.176,-473.048"/>
<text text-anchor="middle" x="167" y="-483.5" font-family="Helvetica,sans-Serif" font-size="10.00"> &#45;flooring</text>
</g>
</g>
</svg>
