<?xml version="1.0" encoding="UTF-8" standalone="no"?>
<!DOCTYPE svg PUBLIC "-//W3C//DTD SVG 1.1//EN"
 "http://www.w3.org/Graphics/SVG/1.1/DTD/svg11.dtd">
<!-- Generated by graphviz version 2.36.0 (20140111.2315)
 -->
<!-- Title: Square::display Pages: 1 -->
<svg width="332pt" height="142pt"
 viewBox="0.00 0.00 332.00 142.00" xmlns="http://www.w3.org/2000/svg" xmlns:xlink="http://www.w3.org/1999/xlink">
<g id="graph0" class="graph" transform="scale(1 1) rotate(0) translate(4 138)">
<title>Square::display</title>
<polygon fill="white" stroke="none" points="-4,4 -4,-138 328,-138 328,4 -4,4"/>
<!-- Node1 -->
<g id="node1" class="node"><title>Node1</title>
<polygon fill="#bfbfbf" stroke="black" points="0,-57.5 0,-76.5 84,-76.5 84,-57.5 0,-57.5"/>
<text text-anchor="middle" x="42" y="-64.5" font-family="Helvetica,sans-Serif" font-size="10.00">Square::display</text>
</g>
<!-- Node2 -->
<g id="node2" class="node"><title>Node2</title>
<g id="a_node2"><a xlink:href="classShape.html#a614686977967fae752625a7d89bbdce9" target="_top" xlink:title="Shape::display">
<polygon fill="white" stroke="black" points="126.5,-114.5 126.5,-133.5 207.5,-133.5 207.5,-114.5 126.5,-114.5"/>
<text text-anchor="middle" x="167" y="-121.5" font-family="Helvetica,sans-Serif" font-size="10.00">Shape::display</text>
</a>
</g>
</g>
<!-- Node1&#45;&gt;Node2 -->
<g id="edge1" class="edge"><title>Node1&#45;&gt;Node2</title>
<path fill="none" stroke="midnightblue" d="M61.5052,-76.5656C77,-84.4701 99.7647,-95.8402 120,-105 124.096,-106.854 128.427,-108.739 132.728,-110.566"/>
<polygon fill="midnightblue" stroke="midnightblue" points="131.419,-113.812 141.995,-114.439 134.118,-107.354 131.419,-113.812"/>
</g>
<!-- Node4 -->
<g id="node4" class="node"><title>Node4</title>
<g id="a_node4"><a xlink:href="classSquare.html#ae5a53d6aaabba4ac0991354951e6b9ee" target="_top" xlink:title="Square::side">
<polygon fill="white" stroke="black" points="131.5,-76.5 131.5,-95.5 202.5,-95.5 202.5,-76.5 131.5,-76.5"/>
<text text-anchor="middle" x="167" y="-83.5" font-family="Helvetica,sans-Serif" font-size="10.00">Square::side</text>
</a>
</g>
</g>
<!-- Node1&#45;&gt;Node4 -->
<g id="edge3" class="edge"><title>Node1&#45;&gt;Node4</title>
<path fill="none" stroke="midnightblue" d="M84.2994,-73.3796C96.1856,-75.2157 109.204,-77.2267 121.287,-79.0931"/>
<polygon fill="midnightblue" stroke="midnightblue" points="120.754,-82.5521 131.171,-80.6199 121.822,-75.6342 120.754,-82.5521"/>
</g>
<!-- Node5 -->
<g id="node5" class="node"><title>Node5</title>
<g id="a_node5"><a xlink:href="classSquare.html#a33f68f589a226cd3873448b7e57b6cf5" target="_top" xlink:title="Square::perimeter">
<polygon fill="white" stroke="black" points="120,-38.5 120,-57.5 214,-57.5 214,-38.5 120,-38.5"/>
<text text-anchor="middle" x="167" y="-45.5" font-family="Helvetica,sans-Serif" font-size="10.00">Square::perimeter</text>
</a>
</g>
</g>
<!-- Node1&#45;&gt;Node5 -->
<g id="edge4" class="edge"><title>Node1&#45;&gt;Node5</title>
<path fill="none" stroke="midnightblue" d="M84.2994,-60.6204C92.526,-59.3496 101.295,-57.9951 109.921,-56.6626"/>
<polygon fill="midnightblue" stroke="midnightblue" points="110.591,-60.1007 119.94,-55.115 109.523,-53.1827 110.591,-60.1007"/>
</g>
<!-- Node6 -->
<g id="node6" class="node"><title>Node6</title>
<g id="a_node6"><a xlink:href="classSquare.html#a50e15f9989a860214cac480538ef085d" target="_top" xlink:title="Square::area">
<polygon fill="white" stroke="black" points="131,-0.5 131,-19.5 203,-19.5 203,-0.5 131,-0.5"/>
<text text-anchor="middle" x="167" y="-7.5" font-family="Helvetica,sans-Serif" font-size="10.00">Square::area</text>
</a>
</g>
</g>
<!-- Node1&#45;&gt;Node6 -->
<g id="edge5" class="edge"><title>Node1&#45;&gt;Node6</title>
<path fill="none" stroke="midnightblue" d="M61.5052,-57.4344C77,-49.5299 99.7647,-38.1598 120,-29 124.096,-27.146 128.427,-25.2608 132.728,-23.4336"/>
<polygon fill="midnightblue" stroke="midnightblue" points="134.118,-26.6462 141.995,-19.561 131.419,-20.1875 134.118,-26.6462"/>
</g>
<!-- Node3 -->
<g id="node3" class="node"><title>Node3</title>
<g id="a_node3"><a xlink:href="classShape.html#ab0219a5934793fa9e4c9f8ff7426be88" target="_top" xlink:title="Shape::name">
<polygon fill="white" stroke="black" points="250,-114.5 250,-133.5 324,-133.5 324,-114.5 250,-114.5"/>
<text text-anchor="middle" x="287" y="-121.5" font-family="Helvetica,sans-Serif" font-size="10.00">Shape::name</text>
</a>
</g>
</g>
<!-- Node2&#45;&gt;Node3 -->
<g id="edge2" class="edge"><title>Node2&#45;&gt;Node3</title>
<path fill="none" stroke="midnightblue" d="M207.621,-124C217.864,-124 228.985,-124 239.544,-124"/>
<polygon fill="midnightblue" stroke="midnightblue" points="239.862,-127.5 249.862,-124 239.862,-120.5 239.862,-127.5"/>
</g>
</g>
</svg>
