<?xml version="1.0" encoding="UTF-8" standalone="no"?>
<!DOCTYPE svg PUBLIC "-//W3C//DTD SVG 1.1//EN"
 "http://www.w3.org/Graphics/SVG/1.1/DTD/svg11.dtd">
<!-- Generated by graphviz version 2.36.0 (20140111.2315)
 -->
<!-- Title: RightTriangle::display Pages: 1 -->
<svg width="288pt" height="180pt"
 viewBox="0.00 0.00 288.00 180.00" xmlns="http://www.w3.org/2000/svg" xmlns:xlink="http://www.w3.org/1999/xlink">
<g id="graph0" class="graph" transform="scale(1 1) rotate(0) translate(4 176)">
<title>RightTriangle::display</title>
<polygon fill="white" stroke="none" points="-4,4 -4,-176 284,-176 284,4 -4,4"/>
<!-- Node1 -->
<g id="node1" class="node"><title>Node1</title>
<polygon fill="#bfbfbf" stroke="black" points="0.5,-76.5 0.5,-95.5 111.5,-95.5 111.5,-76.5 0.5,-76.5"/>
<text text-anchor="middle" x="56" y="-83.5" font-family="Helvetica,sans-Serif" font-size="10.00">RightTriangle::display</text>
</g>
<!-- Node2 -->
<g id="node2" class="node"><title>Node2</title>
<g id="a_node2"><a xlink:href="classRightTriangle.html#abab1317e02e26fa0456f5cfeafe5f9ec" target="_top" xlink:title="RightTriangle::base">
<polygon fill="white" stroke="black" points="163.5,-152.5 163.5,-171.5 264.5,-171.5 264.5,-152.5 163.5,-152.5"/>
<text text-anchor="middle" x="214" y="-159.5" font-family="Helvetica,sans-Serif" font-size="10.00">RightTriangle::base</text>
</a>
</g>
</g>
<!-- Node1&#45;&gt;Node2 -->
<g id="edge1" class="edge"><title>Node1&#45;&gt;Node2</title>
<path fill="none" stroke="midnightblue" d="M69.9203,-95.7089C87.0032,-108.157 118.408,-129.715 148,-143 153.095,-145.287 158.537,-147.38 164.021,-149.271"/>
<polygon fill="midnightblue" stroke="midnightblue" points="163.283,-152.711 173.875,-152.457 165.436,-146.05 163.283,-152.711"/>
</g>
<!-- Node3 -->
<g id="node3" class="node"><title>Node3</title>
<g id="a_node3"><a xlink:href="classRightTriangle.html#a1d861752e9f41d3544c359927bac5603" target="_top" xlink:title="RightTriangle::height">
<polygon fill="white" stroke="black" points="160.5,-114.5 160.5,-133.5 267.5,-133.5 267.5,-114.5 160.5,-114.5"/>
<text text-anchor="middle" x="214" y="-121.5" font-family="Helvetica,sans-Serif" font-size="10.00">RightTriangle::height</text>
</a>
</g>
</g>
<!-- Node1&#45;&gt;Node3 -->
<g id="edge2" class="edge"><title>Node1&#45;&gt;Node3</title>
<path fill="none" stroke="midnightblue" d="M96.3654,-95.589C116.951,-100.604 142.34,-106.788 164.169,-112.105"/>
<polygon fill="midnightblue" stroke="midnightblue" points="163.373,-115.514 173.918,-114.48 165.03,-108.713 163.373,-115.514"/>
</g>
<!-- Node4 -->
<g id="node4" class="node"><title>Node4</title>
<g id="a_node4"><a xlink:href="classRightTriangle.html#a3a5e2a101cb80081ec788fdae8b2b181" target="_top" xlink:title="RightTriangle::hypotenuse">
<polygon fill="white" stroke="black" points="148.5,-76.5 148.5,-95.5 279.5,-95.5 279.5,-76.5 148.5,-76.5"/>
<text text-anchor="middle" x="214" y="-83.5" font-family="Helvetica,sans-Serif" font-size="10.00">RightTriangle::hypotenuse</text>
</a>
</g>
</g>
<!-- Node1&#45;&gt;Node4 -->
<g id="edge3" class="edge"><title>Node1&#45;&gt;Node4</title>
<path fill="none" stroke="midnightblue" d="M111.561,-86C120.179,-86 129.218,-86 138.201,-86"/>
<polygon fill="midnightblue" stroke="midnightblue" points="138.292,-89.5001 148.292,-86 138.292,-82.5001 138.292,-89.5001"/>
</g>
<!-- Node5 -->
<g id="node5" class="node"><title>Node5</title>
<g id="a_node5"><a xlink:href="classTriangle.html#a864f7a8224290b17d06e462712a83732" target="_top" xlink:title="Triangle::perimeter">
<polygon fill="white" stroke="black" points="165,-38.5 165,-57.5 263,-57.5 263,-38.5 165,-38.5"/>
<text text-anchor="middle" x="214" y="-45.5" font-family="Helvetica,sans-Serif" font-size="10.00">Triangle::perimeter</text>
</a>
</g>
</g>
<!-- Node1&#45;&gt;Node5 -->
<g id="edge4" class="edge"><title>Node1&#45;&gt;Node5</title>
<path fill="none" stroke="midnightblue" d="M96.3654,-76.411C116.951,-71.3965 142.34,-65.2119 164.169,-59.8947"/>
<polygon fill="midnightblue" stroke="midnightblue" points="165.03,-63.2874 173.918,-57.5201 163.373,-56.4863 165.03,-63.2874"/>
</g>
<!-- Node6 -->
<g id="node6" class="node"><title>Node6</title>
<g id="a_node6"><a xlink:href="classRightTriangle.html#a1092d8c0d647e1cc583e2e0d1c349498" target="_top" xlink:title="RightTriangle::area">
<polygon fill="white" stroke="black" points="164.5,-0.5 164.5,-19.5 263.5,-19.5 263.5,-0.5 164.5,-0.5"/>
<text text-anchor="middle" x="214" y="-7.5" font-family="Helvetica,sans-Serif" font-size="10.00">RightTriangle::area</text>
</a>
</g>
</g>
<!-- Node1&#45;&gt;Node6 -->
<g id="edge5" class="edge"><title>Node1&#45;&gt;Node6</title>
<path fill="none" stroke="midnightblue" d="M69.9203,-76.2911C87.0032,-63.8435 118.408,-42.2853 148,-29 153.095,-26.7127 158.537,-24.6201 164.021,-22.7287"/>
<polygon fill="midnightblue" stroke="midnightblue" points="165.436,-25.9496 173.875,-19.5428 163.283,-19.2891 165.436,-25.9496"/>
</g>
</g>
</svg>
