<?xml version="1.0" encoding="UTF-8" standalone="no"?>
<!DOCTYPE svg PUBLIC "-//W3C//DTD SVG 1.1//EN"
 "http://www.w3.org/Graphics/SVG/1.1/DTD/svg11.dtd">
<!-- Generated by graphviz version 2.36.0 (20140111.2315)
 -->
<!-- Title: Graphical Class Hierarchy Pages: 1 -->
<svg width="274pt" height="123pt"
 viewBox="0.00 0.00 274.00 123.00" xmlns="http://www.w3.org/2000/svg" xmlns:xlink="http://www.w3.org/1999/xlink">
<g id="graph0" class="graph" transform="scale(1 1) rotate(0) translate(4 119)">
<title>Graphical Class Hierarchy</title>
<polygon fill="white" stroke="none" points="-4,4 -4,-119 270,-119 270,4 -4,4"/>
<!-- Node1 -->
<g id="node1" class="node"><title>Node1</title>
<g id="a_node1"><a xlink:href="classShape.html" target="_top" xlink:title="Shape">
<polygon fill="white" stroke="black" points="0,-57.5 0,-76.5 44,-76.5 44,-57.5 0,-57.5"/>
<text text-anchor="middle" x="22" y="-64.5" font-family="Helvetica,sans-Serif" font-size="10.00">Shape</text>
</a>
</g>
</g>
<!-- Node2 -->
<g id="node2" class="node"><title>Node2</title>
<g id="a_node2"><a xlink:href="classCircle.html" target="_top" xlink:title="Circle">
<polygon fill="white" stroke="black" points="85,-95.5 85,-114.5 127,-114.5 127,-95.5 85,-95.5"/>
<text text-anchor="middle" x="106" y="-102.5" font-family="Helvetica,sans-Serif" font-size="10.00">Circle</text>
</a>
</g>
</g>
<!-- Node1&#45;&gt;Node2 -->
<g id="edge1" class="edge"><title>Node1&#45;&gt;Node2</title>
<path fill="none" stroke="midnightblue" d="M53.0419,-80.9219C63.6436,-85.8349 75.3003,-91.2367 84.8815,-95.6768"/>
<polygon fill="midnightblue" stroke="midnightblue" points="54.2368,-77.6181 43.6921,-76.589 51.2935,-83.9693 54.2368,-77.6181"/>
</g>
<!-- Node3 -->
<g id="node3" class="node"><title>Node3</title>
<g id="a_node3"><a xlink:href="classSquare.html" target="_top" xlink:title="Square">
<polygon fill="white" stroke="black" points="82.5,-57.5 82.5,-76.5 129.5,-76.5 129.5,-57.5 82.5,-57.5"/>
<text text-anchor="middle" x="106" y="-64.5" font-family="Helvetica,sans-Serif" font-size="10.00">Square</text>
</a>
</g>
</g>
<!-- Node1&#45;&gt;Node3 -->
<g id="edge2" class="edge"><title>Node1&#45;&gt;Node3</title>
<path fill="none" stroke="midnightblue" d="M54.2185,-67C63.5329,-67 73.5626,-67 82.2282,-67"/>
<polygon fill="midnightblue" stroke="midnightblue" points="54.1171,-63.5001 44.117,-67 54.117,-70.5001 54.1171,-63.5001"/>
</g>
<!-- Node4 -->
<g id="node4" class="node"><title>Node4</title>
<g id="a_node4"><a xlink:href="classTriangle.html" target="_top" xlink:title="Triangle">
<polygon fill="white" stroke="black" points="80.5,-19.5 80.5,-38.5 131.5,-38.5 131.5,-19.5 80.5,-19.5"/>
<text text-anchor="middle" x="106" y="-26.5" font-family="Helvetica,sans-Serif" font-size="10.00">Triangle</text>
</a>
</g>
</g>
<!-- Node1&#45;&gt;Node4 -->
<g id="edge3" class="edge"><title>Node1&#45;&gt;Node4</title>
<path fill="none" stroke="midnightblue" d="M52.8956,-53.1459C63.3282,-48.3113 74.7983,-42.9959 84.3146,-38.5859"/>
<polygon fill="midnightblue" stroke="midnightblue" points="51.2935,-50.0307 43.6921,-57.411 54.2368,-56.3819 51.2935,-50.0307"/>
</g>
<!-- Node5 -->
<g id="node5" class="node"><title>Node5</title>
<g id="a_node5"><a xlink:href="classEquilateralTriangle.html" target="_top" xlink:title="EquilateralTriangle">
<polygon fill="white" stroke="black" points="168.5,-38.5 168.5,-57.5 265.5,-57.5 265.5,-38.5 168.5,-38.5"/>
<text text-anchor="middle" x="217" y="-45.5" font-family="Helvetica,sans-Serif" font-size="10.00">EquilateralTriangle</text>
</a>
</g>
</g>
<!-- Node4&#45;&gt;Node5 -->
<g id="edge4" class="edge"><title>Node4&#45;&gt;Node5</title>
<path fill="none" stroke="midnightblue" d="M141.601,-35.0313C150.044,-36.5032 159.227,-38.1038 168.166,-39.662"/>
<polygon fill="midnightblue" stroke="midnightblue" points="142.186,-31.5807 131.734,-33.3114 140.984,-38.4767 142.186,-31.5807"/>
</g>
<!-- Node6 -->
<g id="node6" class="node"><title>Node6</title>
<g id="a_node6"><a xlink:href="classRightTriangle.html" target="_top" xlink:title="RightTriangle">
<polygon fill="white" stroke="black" points="180,-0.5 180,-19.5 254,-19.5 254,-0.5 180,-0.5"/>
<text text-anchor="middle" x="217" y="-7.5" font-family="Helvetica,sans-Serif" font-size="10.00">RightTriangle</text>
</a>
</g>
</g>
<!-- Node4&#45;&gt;Node6 -->
<g id="edge5" class="edge"><title>Node4&#45;&gt;Node6</title>
<path fill="none" stroke="midnightblue" d="M141.909,-22.915C154.004,-20.8066 167.584,-18.4394 179.783,-16.3131"/>
<polygon fill="midnightblue" stroke="midnightblue" points="140.984,-19.5233 131.734,-24.6886 142.186,-26.4193 140.984,-19.5233"/>
</g>
</g>
</svg>
