<?xml version="1.0" encoding="UTF-8" standalone="no"?>
<!DOCTYPE svg PUBLIC "-//W3C//DTD SVG 1.1//EN"
 "http://www.w3.org/Graphics/SVG/1.1/DTD/svg11.dtd">
<!-- Generated by graphviz version 2.36.0 (20140111.2315)
 -->
<!-- Title: utilities::printProjectHeading Pages: 1 -->
<svg width="318pt" height="77pt"
 viewBox="0.00 0.00 318.00 77.00" xmlns="http://www.w3.org/2000/svg" xmlns:xlink="http://www.w3.org/1999/xlink">
<g id="graph0" class="graph" transform="scale(1 1) rotate(0) translate(4 73)">
<title>utilities::printProjectHeading</title>
<polygon fill="white" stroke="none" points="-4,4 -4,-73 314,-73 314,4 -4,4"/>
<!-- Node1 -->
<g id="node1" class="node"><title>Node1</title>
<polygon fill="#bfbfbf" stroke="black" points="0.5,-27.5 0.5,-46.5 139.5,-46.5 139.5,-27.5 0.5,-27.5"/>
<text text-anchor="middle" x="70" y="-34.5" font-family="Helvetica,sans-Serif" font-size="10.00">utilities::printProjectHeading</text>
</g>
<!-- Node2 -->
<g id="node2" class="node"><title>Node2</title>
<g id="a_node2"><a xlink:href="namespaceutilities.html#a2ca4bf55e15b157fc1255112ecf60b4b" target="_top" xlink:title="utilities::printHorizontalLine">
<polygon fill="white" stroke="black" points="176,-49.5 176,-68.5 310,-68.5 310,-49.5 176,-49.5"/>
<text text-anchor="middle" x="243" y="-56.5" font-family="Helvetica,sans-Serif" font-size="10.00">utilities::printHorizontalLine</text>
</a>
</g>
</g>
<!-- Node1&#45;&gt;Node2 -->
<g id="edge1" class="edge"><title>Node1&#45;&gt;Node2</title>
<path fill="none" stroke="midnightblue" d="M139.567,-45.8215C148.182,-46.9299 157.036,-48.069 165.76,-49.1914"/>
<polygon fill="midnightblue" stroke="midnightblue" points="165.555,-52.6937 175.919,-50.4984 166.448,-45.7509 165.555,-52.6937"/>
</g>
<!-- Node3 -->
<g id="node3" class="node"><title>Node3</title>
<g id="a_node3"><a xlink:href="namespaceutilities.html#a0364030fce3431e2ec985b20e571ce9a" target="_top" xlink:title="utilities::printCentered\lTitle">
<polygon fill="white" stroke="black" points="187,-0 187,-30 299,-30 299,-0 187,-0"/>
<text text-anchor="start" x="195" y="-18" font-family="Helvetica,sans-Serif" font-size="10.00">utilities::printCentered</text>
<text text-anchor="middle" x="243" y="-7" font-family="Helvetica,sans-Serif" font-size="10.00">Title</text>
</a>
</g>
</g>
<!-- Node1&#45;&gt;Node3 -->
<g id="edge2" class="edge"><title>Node1&#45;&gt;Node3</title>
<path fill="none" stroke="midnightblue" d="M139.567,-28.1785C151.835,-26.6002 164.587,-24.9595 176.759,-23.3936"/>
<polygon fill="midnightblue" stroke="midnightblue" points="177.351,-26.8464 186.822,-22.0989 176.458,-19.9036 177.351,-26.8464"/>
</g>
</g>
</svg>
