<?xml version="1.0" encoding="UTF-8" standalone="no"?>
<!DOCTYPE svg PUBLIC "-//W3C//DTD SVG 1.1//EN"
 "http://www.w3.org/Graphics/SVG/1.1/DTD/svg11.dtd">
<!-- Generated by graphviz version 2.36.0 (20140111.2315)
 -->
<!-- Title: runShapes.cpp Pages: 1 -->
<!--zoomable 308 -->
<svg id="main" version="1.1" xmlns="http://www.w3.org/2000/svg" xmlns:xlink="http://www.w3.org/1999/xlink" xml:space="preserve" onload="init(evt)">
<style type="text/css"><![CDATA[
.edge:hover path { stroke: red; }
.edge:hover polygon { stroke: red; fill: red; }
]]></style>
<script type="text/javascript"><![CDATA[
var edges = document.getElementsByTagName('g');
if (edges && edges.length) {
  for (var i=0;i<edges.length;i++) {
    if (edges[i].id.substr(0,4)=='edge') {
      edges[i].setAttribute('class','edge');
    }
  }
}
]]></script>
        <defs>
                <circle id="rim" cx="0" cy="0" r="7"/>
                <circle id="rim2" cx="0" cy="0" r="3.5"/>
                <g id="zoomPlus">
                        <use xlink:href="#rim" fill="#404040">
                                <set attributeName="fill" to="#808080" begin="zoomplus.mouseover" end="zoomplus.mouseout"/>
                        </use>
                        <path d="M-4,0h8M0,-4v8" fill="none" stroke="white" stroke-width="1.5" pointer-events="none"/>
                </g>
                <g id="zoomMin">
                        <use xlink:href="#rim" fill="#404040">
                                <set attributeName="fill" to="#808080" begin="zoomminus.mouseover" end="zoomminus.mouseout"/>
                        </use>
                        <path d="M-4,0h8" fill="none" stroke="white" stroke-width="1.5" pointer-events="none"/>
                </g>
                <g id="dirArrow">
                        <path fill="none" stroke="white" stroke-width="1.5" d="M0,-3.0v7 M-2.5,-0.5L0,-3.0L2.5,-0.5"/>
                </g>
               <g id="resetDef">
                       <use xlink:href="#rim2" fill="#404040">
                               <set attributeName="fill" to="#808080" begin="reset.mouseover" end="reset.mouseout"/>
                       </use>
               </g>
        </defs>

<script type="text/javascript">
var viewWidth = 1015;
var viewHeight = 308;
var sectionId = 'dynsection-0';
</script>
<script xlink:href="svgpan.js"/>
<svg id="graph" class="graph">
<g id="viewport">
<title>runShapes.cpp</title>
<polygon fill="white" stroke="none" points="-4,4 -4,-304 1010.69,-304 1010.69,4 -4,4"/>
<!-- Node1 -->
<g id="node1" class="node"><title>Node1</title>
<polygon fill="#bfbfbf" stroke="black" points="650,-280.5 650,-299.5 732,-299.5 732,-280.5 650,-280.5"/>
<text text-anchor="middle" x="691" y="-287.5" font-family="Helvetica,sans-Serif" font-size="10.00">runShapes.cpp</text>
</g>
<!-- Node2 -->
<g id="node2" class="node"><title>Node2</title>
<polygon fill="white" stroke="#bfbfbf" points="684,-0.5 684,-19.5 738,-19.5 738,-0.5 684,-0.5"/>
<text text-anchor="middle" x="711" y="-7.5" font-family="Helvetica,sans-Serif" font-size="10.00">iostream</text>
</g>
<!-- Node1&#45;&gt;Node2 -->
<g id="edge1" class="edge"><title>Node1&#45;&gt;Node2</title>
<path fill="none" stroke="midnightblue" d="M732.181,-283.45C817.565,-270.788 1006,-236.347 1006,-179 1006,-179 1006,-179 1006,-121 1006,-90.7745 1008.78,-75.8676 986,-56 951.133,-25.5889 814.858,-15.5007 748.169,-12.3433"/>
<polygon fill="midnightblue" stroke="midnightblue" points="748.236,-8.84289 738.09,-11.894 747.924,-15.8359 748.236,-8.84289"/>
</g>
<!-- Node3 -->
<g id="node3" class="node"><title>Node3</title>
<polygon fill="white" stroke="#bfbfbf" points="0,-56.5 0,-75.5 50,-75.5 50,-56.5 0,-56.5"/>
<text text-anchor="middle" x="25" y="-63.5" font-family="Helvetica,sans-Serif" font-size="10.00">iomanip</text>
</g>
<!-- Node1&#45;&gt;Node3 -->
<g id="edge2" class="edge"><title>Node1&#45;&gt;Node3</title>
<path fill="none" stroke="midnightblue" d="M651.255,-280.476C614.156,-272.214 557.405,-258.788 509,-244 334.575,-190.713 131.046,-110.06 55.3596,-79.41"/>
<polygon fill="midnightblue" stroke="midnightblue" points="56.5345,-76.1096 45.9524,-75.5911 53.9014,-82.5956 56.5345,-76.1096"/>
</g>
<!-- Node4 -->
<g id="node4" class="node"><title>Node4</title>
<g id="a_node4"><a xlink:href="utilities_8h.html" target="_top" xlink:title="utilities.h">
<polygon fill="white" stroke="black" points="225,-112.5 225,-131.5 281,-131.5 281,-112.5 225,-112.5"/>
<text text-anchor="middle" x="253" y="-119.5" font-family="Helvetica,sans-Serif" font-size="10.00">utilities.h</text>
</a>
</g>
</g>
<!-- Node1&#45;&gt;Node4 -->
<g id="edge3" class="edge"><title>Node1&#45;&gt;Node4</title>
<path fill="none" stroke="midnightblue" d="M667.008,-280.439C619.129,-263.299 508.383,-223.377 416,-188 369.589,-170.228 316.142,-148.712 283.469,-135.441"/>
<polygon fill="midnightblue" stroke="midnightblue" points="284.609,-132.126 274.028,-131.6 281.972,-138.61 284.609,-132.126"/>
</g>
<!-- Node10 -->
<g id="node10" class="node"><title>Node10</title>
<g id="a_node10"><a xlink:href="shapeFactory_8h.html" target="_top" xlink:title="shapeFactory.h">
<polygon fill="white" stroke="black" points="649,-224.5 649,-243.5 733,-243.5 733,-224.5 649,-224.5"/>
<text text-anchor="middle" x="691" y="-231.5" font-family="Helvetica,sans-Serif" font-size="10.00">shapeFactory.h</text>
</a>
</g>
</g>
<!-- Node1&#45;&gt;Node10 -->
<g id="edge11" class="edge"><title>Node1&#45;&gt;Node10</title>
<path fill="none" stroke="midnightblue" d="M691,-280.083C691,-273.006 691,-262.861 691,-253.986"/>
<polygon fill="midnightblue" stroke="midnightblue" points="694.5,-253.751 691,-243.751 687.5,-253.751 694.5,-253.751"/>
</g>
<!-- Node17 -->
<g id="node17" class="node"><title>Node17</title>
<g id="a_node17"><a xlink:href="ShapeCollection_8h.html" target="_top" xlink:title="ShapeCollection.h">
<polygon fill="white" stroke="black" points="882,-112.5 882,-131.5 978,-131.5 978,-112.5 882,-112.5"/>
<text text-anchor="middle" x="930" y="-119.5" font-family="Helvetica,sans-Serif" font-size="10.00">ShapeCollection.h</text>
</a>
</g>
</g>
<!-- Node1&#45;&gt;Node17 -->
<g id="edge39" class="edge"><title>Node1&#45;&gt;Node17</title>
<path fill="none" stroke="midnightblue" d="M709.935,-280.457C743.577,-264.803 815.19,-229.306 868,-188 886.514,-173.519 904.718,-153.559 916.56,-139.591"/>
<polygon fill="midnightblue" stroke="midnightblue" points="919.359,-141.699 923.058,-131.77 913.975,-137.226 919.359,-141.699"/>
</g>
<!-- Node4&#45;&gt;Node2 -->
<g id="edge4" class="edge"><title>Node4&#45;&gt;Node2</title>
<path fill="none" stroke="midnightblue" d="M270.863,-112.428C300.664,-98.4801 362.715,-70.9341 418,-56 508.084,-31.6658 617.54,-19.228 673.739,-14.042"/>
<polygon fill="midnightblue" stroke="midnightblue" points="674.274,-17.5081 683.921,-13.1284 673.649,-10.5361 674.274,-17.5081"/>
</g>
<!-- Node4&#45;&gt;Node3 -->
<g id="edge7" class="edge"><title>Node4&#45;&gt;Node3</title>
<path fill="none" stroke="midnightblue" d="M224.985,-114.787C189.056,-106.756 124.585,-92.1389 60.1482,-76.2303"/>
<polygon fill="midnightblue" stroke="midnightblue" points="60.7772,-72.7803 50.2287,-73.7708 59.0925,-79.5746 60.7772,-72.7803"/>
</g>
<!-- Node5 -->
<g id="node5" class="node"><title>Node5</title>
<polygon fill="white" stroke="#bfbfbf" points="132,-56.5 132,-75.5 182,-75.5 182,-56.5 132,-56.5"/>
<text text-anchor="middle" x="157" y="-63.5" font-family="Helvetica,sans-Serif" font-size="10.00">fstream</text>
</g>
<!-- Node4&#45;&gt;Node5 -->
<g id="edge5" class="edge"><title>Node4&#45;&gt;Node5</title>
<path fill="none" stroke="midnightblue" d="M237.576,-112.324C222.46,-103.822 199.185,-90.7288 181.529,-80.7975"/>
<polygon fill="midnightblue" stroke="midnightblue" points="182.817,-77.5066 172.386,-75.6545 179.386,-83.6077 182.817,-77.5066"/>
</g>
<!-- Node6 -->
<g id="node6" class="node"><title>Node6</title>
<polygon fill="white" stroke="#bfbfbf" points="200,-56.5 200,-75.5 252,-75.5 252,-56.5 200,-56.5"/>
<text text-anchor="middle" x="226" y="-63.5" font-family="Helvetica,sans-Serif" font-size="10.00">sstream</text>
</g>
<!-- Node4&#45;&gt;Node6 -->
<g id="edge6" class="edge"><title>Node4&#45;&gt;Node6</title>
<path fill="none" stroke="midnightblue" d="M248.541,-112.083C244.846,-104.691 239.477,-93.9533 234.906,-84.8111"/>
<polygon fill="midnightblue" stroke="midnightblue" points="237.978,-83.1301 230.376,-75.7511 231.717,-86.2606 237.978,-83.1301"/>
</g>
<!-- Node7 -->
<g id="node7" class="node"><title>Node7</title>
<polygon fill="white" stroke="#bfbfbf" points="511.5,-0.5 511.5,-19.5 552.5,-19.5 552.5,-0.5 511.5,-0.5"/>
<text text-anchor="middle" x="532" y="-7.5" font-family="Helvetica,sans-Serif" font-size="10.00">string</text>
</g>
<!-- Node4&#45;&gt;Node7 -->
<g id="edge8" class="edge"><title>Node4&#45;&gt;Node7</title>
<path fill="none" stroke="midnightblue" d="M257.253,-112.207C264.64,-97.9415 281.258,-69.9491 304,-56 366.407,-17.7221 454.893,-11.0991 501.135,-10.4877"/>
<polygon fill="midnightblue" stroke="midnightblue" points="501.422,-13.9866 511.406,-10.4433 501.391,-6.98665 501.422,-13.9866"/>
</g>
<!-- Node8 -->
<g id="node8" class="node"><title>Node8</title>
<polygon fill="white" stroke="#bfbfbf" points="68.5,-56.5 68.5,-75.5 113.5,-75.5 113.5,-56.5 68.5,-56.5"/>
<text text-anchor="middle" x="91" y="-63.5" font-family="Helvetica,sans-Serif" font-size="10.00">cstdlib</text>
</g>
<!-- Node4&#45;&gt;Node8 -->
<g id="edge9" class="edge"><title>Node4&#45;&gt;Node8</title>
<path fill="none" stroke="midnightblue" d="M227.331,-112.444C199.196,-103.065 154,-88.0001 123.434,-77.8112"/>
<polygon fill="midnightblue" stroke="midnightblue" points="124.268,-74.3999 113.674,-74.558 122.054,-81.0407 124.268,-74.3999"/>
</g>
<!-- Node9 -->
<g id="node9" class="node"><title>Node9</title>
<polygon fill="white" stroke="#bfbfbf" points="460,-56.5 460,-75.5 504,-75.5 504,-56.5 460,-56.5"/>
<text text-anchor="middle" x="482" y="-63.5" font-family="Helvetica,sans-Serif" font-size="10.00">cmath</text>
</g>
<!-- Node4&#45;&gt;Node9 -->
<g id="edge10" class="edge"><title>Node4&#45;&gt;Node9</title>
<path fill="none" stroke="midnightblue" d="M281.08,-114.379C323.849,-104.293 405.08,-85.1384 450.048,-74.5346"/>
<polygon fill="midnightblue" stroke="midnightblue" points="450.931,-77.9224 459.86,-72.2207 449.324,-71.1093 450.931,-77.9224"/>
</g>
<!-- Node10&#45;&gt;Node2 -->
<g id="edge12" class="edge"><title>Node10&#45;&gt;Node2</title>
<path fill="none" stroke="midnightblue" d="M714.819,-224.447C748.128,-210.912 806.608,-180.951 825,-132 830.695,-116.842 835.973,-74.4738 823,-56 806.065,-31.884 773.939,-20.6839 748.422,-15.4869"/>
<polygon fill="midnightblue" stroke="midnightblue" points="748.771,-11.9934 738.309,-13.6626 747.528,-18.8823 748.771,-11.9934"/>
</g>
<!-- Node11 -->
<g id="node11" class="node"><title>Node11</title>
<g id="a_node11"><a xlink:href="shape_8h.html" target="_top" xlink:title="shape.h">
<polygon fill="white" stroke="black" points="712.5,-56.5 712.5,-75.5 763.5,-75.5 763.5,-56.5 712.5,-56.5"/>
<text text-anchor="middle" x="738" y="-63.5" font-family="Helvetica,sans-Serif" font-size="10.00">shape.h</text>
</a>
</g>
</g>
<!-- Node10&#45;&gt;Node11 -->
<g id="edge13" class="edge"><title>Node10&#45;&gt;Node11</title>
<path fill="none" stroke="midnightblue" d="M693.664,-224.381C699.022,-206.974 711.408,-166.355 721,-132 725.318,-116.533 729.909,-98.9033 733.229,-85.91"/>
<polygon fill="midnightblue" stroke="midnightblue" points="736.713,-86.41 735.782,-75.8562 729.929,-84.6873 736.713,-86.41"/>
</g>
<!-- Node12 -->
<g id="node12" class="node"><title>Node12</title>
<g id="a_node12"><a xlink:href="triangle_8h.html" target="_top" xlink:title="triangle.h">
<polygon fill="white" stroke="black" points="545,-112.5 545,-131.5 601,-131.5 601,-112.5 545,-112.5"/>
<text text-anchor="middle" x="573" y="-119.5" font-family="Helvetica,sans-Serif" font-size="10.00">triangle.h</text>
</a>
</g>
</g>
<!-- Node10&#45;&gt;Node12 -->
<g id="edge16" class="edge"><title>Node10&#45;&gt;Node12</title>
<path fill="none" stroke="midnightblue" d="M684.507,-224.48C674.437,-211.539 654.113,-186.484 634,-168 621.8,-156.788 606.845,-145.72 594.797,-137.366"/>
<polygon fill="midnightblue" stroke="midnightblue" points="596.48,-134.278 586.243,-131.549 592.544,-140.066 596.48,-134.278"/>
</g>
<!-- Node13 -->
<g id="node13" class="node"><title>Node13</title>
<g id="a_node13"><a xlink:href="rightTriangle_8h.html" target="_top" xlink:title="rightTriangle.h">
<polygon fill="white" stroke="black" points="425,-168.5 425,-187.5 503,-187.5 503,-168.5 425,-168.5"/>
<text text-anchor="middle" x="464" y="-175.5" font-family="Helvetica,sans-Serif" font-size="10.00">rightTriangle.h</text>
</a>
</g>
</g>
<!-- Node10&#45;&gt;Node13 -->
<g id="edge21" class="edge"><title>Node10&#45;&gt;Node13</title>
<path fill="none" stroke="midnightblue" d="M655.031,-224.444C615.681,-215.083 552.513,-200.056 509.686,-189.868"/>
<polygon fill="midnightblue" stroke="midnightblue" points="510.339,-186.426 499.801,-187.516 508.719,-193.236 510.339,-186.426"/>
</g>
<!-- Node14 -->
<g id="node14" class="node"><title>Node14</title>
<g id="a_node14"><a xlink:href="equilateralTriangle_8h.html" target="_top" xlink:title="equilateralTriangle.h">
<polygon fill="white" stroke="black" points="521,-168.5 521,-187.5 625,-187.5 625,-168.5 521,-168.5"/>
<text text-anchor="middle" x="573" y="-175.5" font-family="Helvetica,sans-Serif" font-size="10.00">equilateralTriangle.h</text>
</a>
</g>
</g>
<!-- Node10&#45;&gt;Node14 -->
<g id="edge26" class="edge"><title>Node10&#45;&gt;Node14</title>
<path fill="none" stroke="midnightblue" d="M672.303,-224.444C653.056,-215.636 622.848,-201.812 600.8,-191.722"/>
<polygon fill="midnightblue" stroke="midnightblue" points="602.16,-188.495 591.61,-187.516 599.247,-194.86 602.16,-188.495"/>
</g>
<!-- Node15 -->
<g id="node15" class="node"><title>Node15</title>
<g id="a_node15"><a xlink:href="square_8h.html" target="_top" xlink:title="square.h">
<polygon fill="white" stroke="black" points="658,-112.5 658,-131.5 712,-131.5 712,-112.5 658,-112.5"/>
<text text-anchor="middle" x="685" y="-119.5" font-family="Helvetica,sans-Serif" font-size="10.00">square.h</text>
</a>
</g>
</g>
<!-- Node10&#45;&gt;Node15 -->
<g id="edge31" class="edge"><title>Node10&#45;&gt;Node15</title>
<path fill="none" stroke="midnightblue" d="M690.529,-224.368C689.561,-206.617 687.327,-165.666 686.014,-141.597"/>
<polygon fill="midnightblue" stroke="midnightblue" points="689.508,-141.386 685.469,-131.591 682.519,-141.767 689.508,-141.386"/>
</g>
<!-- Node16 -->
<g id="node16" class="node"><title>Node16</title>
<g id="a_node16"><a xlink:href="circle_8h.html" target="_top" xlink:title="circle.h">
<polygon fill="white" stroke="black" points="768,-112.5 768,-131.5 816,-131.5 816,-112.5 768,-112.5"/>
<text text-anchor="middle" x="792" y="-119.5" font-family="Helvetica,sans-Serif" font-size="10.00">circle.h</text>
</a>
</g>
</g>
<!-- Node10&#45;&gt;Node16 -->
<g id="edge35" class="edge"><title>Node10&#45;&gt;Node16</title>
<path fill="none" stroke="midnightblue" d="M706.656,-224.385C720.341,-216.296 740.137,-203.189 754,-188 766.78,-173.997 777.276,-154.999 783.974,-141.159"/>
<polygon fill="midnightblue" stroke="midnightblue" points="787.305,-142.294 788.33,-131.749 780.953,-139.353 787.305,-142.294"/>
</g>
<!-- Node11&#45;&gt;Node2 -->
<g id="edge14" class="edge"><title>Node11&#45;&gt;Node2</title>
<path fill="none" stroke="midnightblue" d="M733.541,-56.083C729.846,-48.6913 724.477,-37.9533 719.906,-28.8111"/>
<polygon fill="midnightblue" stroke="midnightblue" points="722.978,-27.1301 715.376,-19.7511 716.717,-30.2606 722.978,-27.1301"/>
</g>
<!-- Node11&#45;&gt;Node7 -->
<g id="edge15" class="edge"><title>Node11&#45;&gt;Node7</title>
<path fill="none" stroke="midnightblue" d="M712.326,-58.27C674.326,-48.3087 603.233,-29.6726 562.587,-19.0179"/>
<polygon fill="midnightblue" stroke="midnightblue" points="563.267,-15.578 552.706,-16.4279 561.492,-22.3493 563.267,-15.578"/>
</g>
<!-- Node12&#45;&gt;Node2 -->
<g id="edge17" class="edge"><title>Node12&#45;&gt;Node2</title>
<path fill="none" stroke="midnightblue" d="M579.515,-112.195C589.668,-98.8833 610.359,-73.3495 632,-56 647.604,-43.4906 667.114,-32.3407 682.841,-24.2688"/>
<polygon fill="midnightblue" stroke="midnightblue" points="684.694,-27.2558 692.076,-19.6561 681.566,-20.9935 684.694,-27.2558"/>
</g>
<!-- Node12&#45;&gt;Node7 -->
<g id="edge18" class="edge"><title>Node12&#45;&gt;Node7</title>
<path fill="none" stroke="midnightblue" d="M569.722,-112.38C566.284,-103.328 560.734,-88.6741 556,-76 550.147,-60.329 543.571,-42.5032 538.784,-29.4878"/>
<polygon fill="midnightblue" stroke="midnightblue" points="541.974,-28.0189 535.24,-19.8391 535.403,-30.4327 541.974,-28.0189"/>
</g>
<!-- Node12&#45;&gt;Node9 -->
<g id="edge19" class="edge"><title>Node12&#45;&gt;Node9</title>
<path fill="none" stroke="midnightblue" d="M558.379,-112.324C544.051,-103.822 521.987,-90.7288 505.251,-80.7975"/>
<polygon fill="midnightblue" stroke="midnightblue" points="506.97,-77.7478 496.584,-75.6545 503.398,-83.7677 506.97,-77.7478"/>
</g>
<!-- Node12&#45;&gt;Node11 -->
<g id="edge20" class="edge"><title>Node12&#45;&gt;Node11</title>
<path fill="none" stroke="midnightblue" d="M599.145,-112.444C627.105,-103.293 671.609,-88.7279 702.674,-78.5614"/>
<polygon fill="midnightblue" stroke="midnightblue" points="703.834,-81.8644 712.249,-75.4275 701.657,-75.2116 703.834,-81.8644"/>
</g>
<!-- Node13&#45;&gt;Node2 -->
<g id="edge22" class="edge"><title>Node13&#45;&gt;Node2</title>
<path fill="none" stroke="midnightblue" d="M459.337,-168.452C448.223,-146.794 423.107,-89.135 451,-56 479.016,-22.7191 608.57,-14.0517 673.58,-11.7946"/>
<polygon fill="midnightblue" stroke="midnightblue" points="673.923,-15.2857 683.808,-11.4741 673.703,-8.28911 673.923,-15.2857"/>
</g>
<!-- Node13&#45;&gt;Node7 -->
<g id="edge23" class="edge"><title>Node13&#45;&gt;Node7</title>
<path fill="none" stroke="midnightblue" d="M459.008,-168.33C447.655,-147.353 422.558,-92.8743 445,-56 457.196,-35.9606 481.512,-24.4513 501.343,-18.0979"/>
<polygon fill="midnightblue" stroke="midnightblue" points="502.592,-21.3799 511.217,-15.2276 500.638,-14.6581 502.592,-21.3799"/>
</g>
<!-- Node13&#45;&gt;Node9 -->
<g id="edge24" class="edge"><title>Node13&#45;&gt;Node9</title>
<path fill="none" stroke="midnightblue" d="M465.412,-168.368C468.317,-150.617 475.018,-109.666 478.957,-85.5974"/>
<polygon fill="midnightblue" stroke="midnightblue" points="482.433,-86.0254 480.594,-75.5914 475.525,-84.8949 482.433,-86.0254"/>
</g>
<!-- Node13&#45;&gt;Node12 -->
<g id="edge25" class="edge"><title>Node13&#45;&gt;Node12</title>
<path fill="none" stroke="midnightblue" d="M481.513,-168.324C499.072,-159.625 526.331,-146.12 546.531,-136.113"/>
<polygon fill="midnightblue" stroke="midnightblue" points="548.124,-139.23 555.531,-131.655 545.016,-132.958 548.124,-139.23"/>
</g>
<!-- Node14&#45;&gt;Node2 -->
<g id="edge27" class="edge"><title>Node14&#45;&gt;Node2</title>
<path fill="none" stroke="midnightblue" d="M580.419,-168.075C602.612,-141.38 668.715,-61.865 697.431,-27.3218"/>
<polygon fill="midnightblue" stroke="midnightblue" points="700.176,-29.4954 703.877,-19.5681 694.793,-25.0205 700.176,-29.4954"/>
</g>
<!-- Node14&#45;&gt;Node7 -->
<g id="edge28" class="edge"><title>Node14&#45;&gt;Node7</title>
<path fill="none" stroke="midnightblue" d="M554.48,-168.44C525.885,-154.047 472.083,-121.992 451,-76 438.955,-49.7241 473.76,-30.8673 501.462,-20.4418"/>
<polygon fill="midnightblue" stroke="midnightblue" points="502.984,-23.6161 511.246,-16.9842 500.651,-17.0161 502.984,-23.6161"/>
</g>
<!-- Node14&#45;&gt;Node9 -->
<g id="edge29" class="edge"><title>Node14&#45;&gt;Node9</title>
<path fill="none" stroke="midnightblue" d="M565.859,-168.368C550.709,-150.055 515.131,-107.049 495.536,-83.3624"/>
<polygon fill="midnightblue" stroke="midnightblue" points="498.179,-81.0656 489.107,-75.5914 492.785,-85.5276 498.179,-81.0656"/>
</g>
<!-- Node14&#45;&gt;Node12 -->
<g id="edge30" class="edge"><title>Node14&#45;&gt;Node12</title>
<path fill="none" stroke="midnightblue" d="M573,-168.083C573,-161.006 573,-150.861 573,-141.986"/>
<polygon fill="midnightblue" stroke="midnightblue" points="576.5,-141.751 573,-131.751 569.5,-141.751 576.5,-141.751"/>
</g>
<!-- Node15&#45;&gt;Node2 -->
<g id="edge32" class="edge"><title>Node15&#45;&gt;Node2</title>
<path fill="none" stroke="midnightblue" d="M687.04,-112.368C691.236,-94.617 700.915,-53.6664 706.604,-29.5974"/>
<polygon fill="midnightblue" stroke="midnightblue" points="710.075,-30.1284 708.969,-19.5914 703.263,-28.5182 710.075,-30.1284"/>
</g>
<!-- Node15&#45;&gt;Node7 -->
<g id="edge33" class="edge"><title>Node15&#45;&gt;Node7</title>
<path fill="none" stroke="midnightblue" d="M672.994,-112.368C646.851,-93.5728 584.532,-48.7684 552.215,-25.5334"/>
<polygon fill="midnightblue" stroke="midnightblue" points="554.112,-22.5871 543.95,-19.5914 550.026,-28.2707 554.112,-22.5871"/>
</g>
<!-- Node15&#45;&gt;Node11 -->
<g id="edge34" class="edge"><title>Node15&#45;&gt;Node11</title>
<path fill="none" stroke="midnightblue" d="M693.752,-112.083C701.47,-104.22 712.905,-92.5688 722.217,-83.0813"/>
<polygon fill="midnightblue" stroke="midnightblue" points="724.904,-85.3396 729.411,-75.7511 719.908,-80.4363 724.904,-85.3396"/>
</g>
<!-- Node16&#45;&gt;Node2 -->
<g id="edge36" class="edge"><title>Node16&#45;&gt;Node2</title>
<path fill="none" stroke="midnightblue" d="M797.649,-112.296C805.419,-99.1165 817.235,-73.753 806,-56 793.336,-35.9885 769.101,-24.702 748.28,-18.437"/>
<polygon fill="midnightblue" stroke="midnightblue" points="748.966,-14.9966 738.398,-15.7487 747.128,-21.7511 748.966,-14.9966"/>
</g>
<!-- Node16&#45;&gt;Node7 -->
<g id="edge37" class="edge"><title>Node16&#45;&gt;Node7</title>
<path fill="none" stroke="midnightblue" d="M792.006,-112.359C791.517,-98.3115 788.382,-70.6257 772,-56 741.474,-28.7468 620.498,-17.0064 562.855,-12.8808"/>
<polygon fill="midnightblue" stroke="midnightblue" points="562.755,-9.36591 552.54,-12.1759 562.278,-16.3496 562.755,-9.36591"/>
</g>
<!-- Node16&#45;&gt;Node11 -->
<g id="edge38" class="edge"><title>Node16&#45;&gt;Node11</title>
<path fill="none" stroke="midnightblue" d="M783.083,-112.083C775.22,-104.22 763.569,-92.5688 754.081,-83.0813"/>
<polygon fill="midnightblue" stroke="midnightblue" points="756.297,-80.3473 746.751,-75.7511 751.347,-85.2971 756.297,-80.3473"/>
</g>
<!-- Node17&#45;&gt;Node2 -->
<g id="edge40" class="edge"><title>Node17&#45;&gt;Node2</title>
<path fill="none" stroke="midnightblue" d="M926.04,-112.363C919.148,-98.3232 903.593,-70.6471 882,-56 841.535,-28.5523 785.228,-17.8396 748.456,-13.6627"/>
<polygon fill="midnightblue" stroke="midnightblue" points="748.477,-10.1465 738.172,-12.607 747.762,-17.1099 748.477,-10.1465"/>
</g>
<!-- Node17&#45;&gt;Node11 -->
<g id="edge42" class="edge"><title>Node17&#45;&gt;Node11</title>
<path fill="none" stroke="midnightblue" d="M899.577,-112.444C865.265,-102.793 809.545,-87.122 773.334,-76.9377"/>
<polygon fill="midnightblue" stroke="midnightblue" points="774.246,-73.5586 763.672,-74.2203 772.351,-80.2971 774.246,-73.5586"/>
</g>
<!-- Node18 -->
<g id="node18" class="node"><title>Node18</title>
<polygon fill="white" stroke="#bfbfbf" points="934,-56.5 934,-75.5 978,-75.5 978,-56.5 934,-56.5"/>
<text text-anchor="middle" x="956" y="-63.5" font-family="Helvetica,sans-Serif" font-size="10.00">vector</text>
</g>
<!-- Node17&#45;&gt;Node18 -->
<g id="edge41" class="edge"><title>Node17&#45;&gt;Node18</title>
<path fill="none" stroke="midnightblue" d="M934.293,-112.083C937.852,-104.691 943.022,-93.9533 947.424,-84.8111"/>
<polygon fill="midnightblue" stroke="midnightblue" points="950.602,-86.2795 951.787,-75.7511 944.295,-83.2427 950.602,-86.2795"/>
</g>
</g>
</svg>
        <g id="navigator" transform="translate(0 0)" fill="#404254">
                <rect fill="#f2f5e9" fill-opacity="0.5" stroke="#606060" stroke-width=".5" x="0" y="0" width="60" height="60"/>
                <use id="zoomplus" xlink:href="#zoomPlus" x="17" y="9" onmousedown="handleZoom(evt,'in')"/>
                <use id="zoomminus" xlink:href="#zoomMin" x="42" y="9" onmousedown="handleZoom(evt,'out')"/>
                <use id="reset" xlink:href="#resetDef" x="30" y="36" onmousedown="handleReset()"/>
                <g id="arrowUp" xlink:href="#dirArrow" transform="translate(30 24)" onmousedown="handlePan(0,-1)">
                  <use xlink:href="#rim" fill="#404040">
                        <set attributeName="fill" to="#808080" begin="arrowUp.mouseover" end="arrowUp.mouseout"/>
                  </use>
                  <path fill="none" stroke="white" stroke-width="1.5" d="M0,-3.0v7 M-2.5,-0.5L0,-3.0L2.5,-0.5"/>
                </g>
                <g id="arrowRight" xlink:href="#dirArrow" transform="rotate(90) translate(36 -43)" onmousedown="handlePan(1,0)">
                  <use xlink:href="#rim" fill="#404040">
                        <set attributeName="fill" to="#808080" begin="arrowRight.mouseover" end="arrowRight.mouseout"/>
                  </use>
                  <path fill="none" stroke="white" stroke-width="1.5" d="M0,-3.0v7 M-2.5,-0.5L0,-3.0L2.5,-0.5"/>
                </g>
                <g id="arrowDown" xlink:href="#dirArrow" transform="rotate(180) translate(-30 -48)" onmousedown="handlePan(0,1)">
                  <use xlink:href="#rim" fill="#404040">
                        <set attributeName="fill" to="#808080" begin="arrowDown.mouseover" end="arrowDown.mouseout"/>
                  </use>
                  <path fill="none" stroke="white" stroke-width="1.5" d="M0,-3.0v7 M-2.5,-0.5L0,-3.0L2.5,-0.5"/>
                </g>
                <g id="arrowLeft" xlink:href="#dirArrow" transform="rotate(270) translate(-36 17)" onmousedown="handlePan(-1,0)">
                  <use xlink:href="#rim" fill="#404040">
                        <set attributeName="fill" to="#808080" begin="arrowLeft.mouseover" end="arrowLeft.mouseout"/>
                  </use>
                  <path fill="none" stroke="white" stroke-width="1.5" d="M0,-3.0v7 M-2.5,-0.5L0,-3.0L2.5,-0.5"/>
                </g>
        </g>
        <svg viewBox="0 0 15 15" width="100%" height="30px" preserveAspectRatio="xMaxYMin meet">
         <g id="arrow_out" transform="scale(0.3 0.3)">
          <a xlink:href="runShapes_8cpp__incl_org.svg" target="_base">
           <rect id="button" ry="5" rx="5" y="6" x="6" height="38" width="38"
                fill="#f2f5e9" fill-opacity="0.5" stroke="#606060" stroke-width="1.0"/>
           <path id="arrow"
             d="M 11.500037,31.436501 C 11.940474,20.09759 22.043105,11.32322 32.158766,21.979434 L 37.068811,17.246167 C 37.068811,17.246167 37.088388,32 37.088388,32 L 22.160133,31.978069 C 22.160133,31.978069 26.997745,27.140456 26.997745,27.140456 C 18.528582,18.264221 13.291696,25.230495 11.500037,31.436501 z"
             style="fill:#404040;"/>
          </a>
         </g>
        </svg>
</svg>
