<?xml version="1.0" encoding="UTF-8" standalone="no"?>
<!DOCTYPE svg PUBLIC "-//W3C//DTD SVG 1.1//EN"
 "http://www.w3.org/Graphics/SVG/1.1/DTD/svg11.dtd">
<!-- Generated by graphviz version 2.36.0 (20140111.2315)
 -->
<!-- Title: ShapeCollection.cpp Pages: 1 -->
<svg width="279pt" height="196pt"
 viewBox="0.00 0.00 279.00 196.00" xmlns="http://www.w3.org/2000/svg" xmlns:xlink="http://www.w3.org/1999/xlink">
<g id="graph0" class="graph" transform="scale(1 1) rotate(0) translate(4 192)">
<title>ShapeCollection.cpp</title>
<polygon fill="white" stroke="none" points="-4,4 -4,-192 275,-192 275,4 -4,4"/>
<!-- Node1 -->
<g id="node1" class="node"><title>Node1</title>
<polygon fill="#bfbfbf" stroke="black" points="32.5,-168.5 32.5,-187.5 139.5,-187.5 139.5,-168.5 32.5,-168.5"/>
<text text-anchor="middle" x="86" y="-175.5" font-family="Helvetica,sans-Serif" font-size="10.00">ShapeCollection.cpp</text>
</g>
<!-- Node2 -->
<g id="node2" class="node"><title>Node2</title>
<polygon fill="white" stroke="#bfbfbf" points="0,-112.5 0,-131.5 40,-131.5 40,-112.5 0,-112.5"/>
<text text-anchor="middle" x="20" y="-119.5" font-family="Helvetica,sans-Serif" font-size="10.00">utility</text>
</g>
<!-- Node1&#45;&gt;Node2 -->
<g id="edge1" class="edge"><title>Node1&#45;&gt;Node2</title>
<path fill="none" stroke="midnightblue" d="M75.396,-168.324C65.5438,-160.263 50.6491,-148.077 38.7849,-138.369"/>
<polygon fill="midnightblue" stroke="midnightblue" points="40.7529,-135.457 30.797,-131.834 36.3202,-140.875 40.7529,-135.457"/>
</g>
<!-- Node3 -->
<g id="node3" class="node"><title>Node3</title>
<polygon fill="white" stroke="#bfbfbf" points="58,-112.5 58,-131.5 114,-131.5 114,-112.5 58,-112.5"/>
<text text-anchor="middle" x="86" y="-119.5" font-family="Helvetica,sans-Serif" font-size="10.00">algorithm</text>
</g>
<!-- Node1&#45;&gt;Node3 -->
<g id="edge2" class="edge"><title>Node1&#45;&gt;Node3</title>
<path fill="none" stroke="midnightblue" d="M86,-168.083C86,-161.006 86,-150.861 86,-141.986"/>
<polygon fill="midnightblue" stroke="midnightblue" points="89.5001,-141.751 86,-131.751 82.5001,-141.751 89.5001,-141.751"/>
</g>
<!-- Node4 -->
<g id="node4" class="node"><title>Node4</title>
<g id="a_node4"><a xlink:href="ShapeCollection_8h.html" target="_top" xlink:title="ShapeCollection.h">
<polygon fill="white" stroke="black" points="132,-112.5 132,-131.5 228,-131.5 228,-112.5 132,-112.5"/>
<text text-anchor="middle" x="180" y="-119.5" font-family="Helvetica,sans-Serif" font-size="10.00">ShapeCollection.h</text>
</a>
</g>
</g>
<!-- Node1&#45;&gt;Node4 -->
<g id="edge3" class="edge"><title>Node1&#45;&gt;Node4</title>
<path fill="none" stroke="midnightblue" d="M101.103,-168.324C115.903,-159.822 138.694,-146.729 155.982,-136.797"/>
<polygon fill="midnightblue" stroke="midnightblue" points="158.007,-139.671 164.935,-131.655 154.52,-133.601 158.007,-139.671"/>
</g>
<!-- Node5 -->
<g id="node5" class="node"><title>Node5</title>
<polygon fill="white" stroke="#bfbfbf" points="128,-0.5 128,-19.5 182,-19.5 182,-0.5 128,-0.5"/>
<text text-anchor="middle" x="155" y="-7.5" font-family="Helvetica,sans-Serif" font-size="10.00">iostream</text>
</g>
<!-- Node4&#45;&gt;Node5 -->
<g id="edge4" class="edge"><title>Node4&#45;&gt;Node5</title>
<path fill="none" stroke="midnightblue" d="M171.517,-112.234C163.946,-103.75 153.396,-90.1314 149,-76 144.266,-60.7828 146.543,-42.6701 149.558,-29.4347"/>
<polygon fill="midnightblue" stroke="midnightblue" points="152.976,-30.1954 152.125,-19.6348 146.205,-28.4211 152.976,-30.1954"/>
</g>
<!-- Node6 -->
<g id="node6" class="node"><title>Node6</title>
<polygon fill="white" stroke="#bfbfbf" points="158,-56.5 158,-75.5 202,-75.5 202,-56.5 158,-56.5"/>
<text text-anchor="middle" x="180" y="-63.5" font-family="Helvetica,sans-Serif" font-size="10.00">vector</text>
</g>
<!-- Node4&#45;&gt;Node6 -->
<g id="edge5" class="edge"><title>Node4&#45;&gt;Node6</title>
<path fill="none" stroke="midnightblue" d="M180,-112.083C180,-105.006 180,-94.8611 180,-85.9865"/>
<polygon fill="midnightblue" stroke="midnightblue" points="183.5,-85.751 180,-75.7511 176.5,-85.7511 183.5,-85.751"/>
</g>
<!-- Node7 -->
<g id="node7" class="node"><title>Node7</title>
<g id="a_node7"><a xlink:href="shape_8h.html" target="_top" xlink:title="shape.h">
<polygon fill="white" stroke="black" points="220.5,-56.5 220.5,-75.5 271.5,-75.5 271.5,-56.5 220.5,-56.5"/>
<text text-anchor="middle" x="246" y="-63.5" font-family="Helvetica,sans-Serif" font-size="10.00">shape.h</text>
</a>
</g>
</g>
<!-- Node4&#45;&gt;Node7 -->
<g id="edge6" class="edge"><title>Node4&#45;&gt;Node7</title>
<path fill="none" stroke="midnightblue" d="M190.604,-112.324C200.456,-104.263 215.351,-92.0765 227.215,-82.3695"/>
<polygon fill="midnightblue" stroke="midnightblue" points="229.68,-84.8752 235.203,-75.8339 225.247,-79.4575 229.68,-84.8752"/>
</g>
<!-- Node7&#45;&gt;Node5 -->
<g id="edge7" class="edge"><title>Node7&#45;&gt;Node5</title>
<path fill="none" stroke="midnightblue" d="M231.379,-56.324C217.051,-47.8215 194.987,-34.7288 178.251,-24.7975"/>
<polygon fill="midnightblue" stroke="midnightblue" points="179.97,-21.7478 169.584,-19.6545 176.398,-27.7677 179.97,-21.7478"/>
</g>
<!-- Node8 -->
<g id="node8" class="node"><title>Node8</title>
<polygon fill="white" stroke="#bfbfbf" points="225.5,-0.5 225.5,-19.5 266.5,-19.5 266.5,-0.5 225.5,-0.5"/>
<text text-anchor="middle" x="246" y="-7.5" font-family="Helvetica,sans-Serif" font-size="10.00">string</text>
</g>
<!-- Node7&#45;&gt;Node8 -->
<g id="edge8" class="edge"><title>Node7&#45;&gt;Node8</title>
<path fill="none" stroke="midnightblue" d="M246,-56.083C246,-49.0059 246,-38.8611 246,-29.9865"/>
<polygon fill="midnightblue" stroke="midnightblue" points="249.5,-29.751 246,-19.7511 242.5,-29.7511 249.5,-29.751"/>
</g>
</g>
</svg>
