<?xml version="1.0" encoding="UTF-8" standalone="no"?>
<!DOCTYPE svg PUBLIC "-//W3C//DTD SVG 1.1//EN"
 "http://www.w3.org/Graphics/SVG/1.1/DTD/svg11.dtd">
<!-- Generated by graphviz version 2.36.0 (20140111.2315)
 -->
<!-- Title: main Pages: 1 -->
<svg width="392pt" height="154pt"
 viewBox="0.00 0.00 392.00 154.00" xmlns="http://www.w3.org/2000/svg" xmlns:xlink="http://www.w3.org/1999/xlink">
<g id="graph0" class="graph" transform="scale(1 1) rotate(0) translate(4 150)">
<title>main</title>
<polygon fill="white" stroke="none" points="-4,4 -4,-150 388,-150 388,4 -4,4"/>
<!-- Node1 -->
<g id="node1" class="node"><title>Node1</title>
<polygon fill="#bfbfbf" stroke="black" points="0,-64.5 0,-83.5 38,-83.5 38,-64.5 0,-64.5"/>
<text text-anchor="middle" x="19" y="-71.5" font-family="Helvetica,sans-Serif" font-size="10.00">main</text>
</g>
<!-- Node2 -->
<g id="node2" class="node"><title>Node2</title>
<g id="a_node2"><a xlink:href="namespaceutilities.html#a5a4a24938bfeb46f18a7d7ecf96e7b6b" target="_top" xlink:title="utilities::printProjectHeading">
<polygon fill="white" stroke="black" points="74.5,-83.5 74.5,-102.5 213.5,-102.5 213.5,-83.5 74.5,-83.5"/>
<text text-anchor="middle" x="144" y="-90.5" font-family="Helvetica,sans-Serif" font-size="10.00">utilities::printProjectHeading</text>
</a>
</g>
</g>
<!-- Node1&#45;&gt;Node2 -->
<g id="edge1" class="edge"><title>Node1&#45;&gt;Node2</title>
<path fill="none" stroke="midnightblue" d="M38.1491,-76.8035C47.324,-78.2208 59.1179,-80.0426 71.4665,-81.9501"/>
<polygon fill="midnightblue" stroke="midnightblue" points="71.0322,-85.4245 81.4493,-83.4922 72.1009,-78.5065 71.0322,-85.4245"/>
</g>
<!-- Node3 -->
<g id="node3" class="node"><title>Node3</title>
<g id="a_node3"><a xlink:href="namespaceutilities.html#a2ca4bf55e15b157fc1255112ecf60b4b" target="_top" xlink:title="utilities::printHorizontalLine">
<polygon fill="white" stroke="black" points="250,-126.5 250,-145.5 384,-145.5 384,-126.5 250,-126.5"/>
<text text-anchor="middle" x="317" y="-133.5" font-family="Helvetica,sans-Serif" font-size="10.00">utilities::printHorizontalLine</text>
</a>
</g>
</g>
<!-- Node1&#45;&gt;Node3 -->
<g id="edge7" class="edge"><title>Node1&#45;&gt;Node3</title>
<path fill="none" stroke="midnightblue" d="M30.2181,-83.6671C40.4326,-92.6915 57.0234,-105.687 74,-112 127.015,-131.715 190.818,-137.368 239.599,-138.278"/>
<polygon fill="midnightblue" stroke="midnightblue" points="239.728,-141.78 249.771,-138.404 239.815,-134.78 239.728,-141.78"/>
</g>
<!-- Node5 -->
<g id="node5" class="node"><title>Node5</title>
<g id="a_node5"><a xlink:href="listDriver_8cpp.html#aaf0d160cba824ebb4a3e21ad97fc158f" target="_top" xlink:title="generateList">
<polygon fill="white" stroke="black" points="109,-7.5 109,-26.5 179,-26.5 179,-7.5 109,-7.5"/>
<text text-anchor="middle" x="144" y="-14.5" font-family="Helvetica,sans-Serif" font-size="10.00">generateList</text>
</a>
</g>
</g>
<!-- Node1&#45;&gt;Node5 -->
<g id="edge4" class="edge"><title>Node1&#45;&gt;Node5</title>
<path fill="none" stroke="midnightblue" d="M33.7507,-64.4607C44.3987,-57.3585 59.6968,-47.7624 74,-41 82.5889,-36.9393 92.059,-33.2001 101.159,-29.942"/>
<polygon fill="midnightblue" stroke="midnightblue" points="102.52,-33.1751 110.83,-26.6029 100.235,-26.5584 102.52,-33.1751"/>
</g>
<!-- Node6 -->
<g id="node6" class="node"><title>Node6</title>
<g id="a_node6"><a xlink:href="classLinkedList.html#aac24d4dd7407efda97de9d3c550fa1b8" target="_top" xlink:title="LinkedList::appendNode">
<polygon fill="white" stroke="black" points="256,-38.5 256,-57.5 378,-57.5 378,-38.5 256,-38.5"/>
<text text-anchor="middle" x="317" y="-45.5" font-family="Helvetica,sans-Serif" font-size="10.00">LinkedList::appendNode</text>
</a>
</g>
</g>
<!-- Node1&#45;&gt;Node6 -->
<g id="edge8" class="edge"><title>Node1&#45;&gt;Node6</title>
<path fill="none" stroke="midnightblue" d="M38.0705,-72.4127C78.3649,-68.8734 177.39,-60.1752 245.659,-54.1786"/>
<polygon fill="midnightblue" stroke="midnightblue" points="246.261,-57.6393 255.917,-53.2776 245.649,-50.6661 246.261,-57.6393"/>
</g>
<!-- Node2&#45;&gt;Node3 -->
<g id="edge2" class="edge"><title>Node2&#45;&gt;Node3</title>
<path fill="none" stroke="midnightblue" d="M182.95,-102.543C208.078,-108.862 241.239,-117.201 268.169,-123.972"/>
<polygon fill="midnightblue" stroke="midnightblue" points="267.604,-127.439 278.156,-126.484 269.311,-120.65 267.604,-127.439"/>
</g>
<!-- Node4 -->
<g id="node4" class="node"><title>Node4</title>
<g id="a_node4"><a xlink:href="namespaceutilities.html#a0364030fce3431e2ec985b20e571ce9a" target="_top" xlink:title="utilities::printCentered\lTitle">
<polygon fill="white" stroke="black" points="261,-77 261,-107 373,-107 373,-77 261,-77"/>
<text text-anchor="start" x="269" y="-95" font-family="Helvetica,sans-Serif" font-size="10.00">utilities::printCentered</text>
<text text-anchor="middle" x="317" y="-84" font-family="Helvetica,sans-Serif" font-size="10.00">Title</text>
</a>
</g>
</g>
<!-- Node2&#45;&gt;Node4 -->
<g id="edge3" class="edge"><title>Node2&#45;&gt;Node4</title>
<path fill="none" stroke="midnightblue" d="M213.567,-92.599C225.835,-92.5273 238.587,-92.4527 250.759,-92.3815"/>
<polygon fill="midnightblue" stroke="midnightblue" points="250.843,-95.8812 260.822,-92.3227 250.802,-88.8813 250.843,-95.8812"/>
</g>
<!-- Node5&#45;&gt;Node6 -->
<g id="edge5" class="edge"><title>Node5&#45;&gt;Node6</title>
<path fill="none" stroke="midnightblue" d="M179.193,-23.1988C200.352,-27.0346 228.163,-32.0763 253.181,-36.6118"/>
<polygon fill="midnightblue" stroke="midnightblue" points="252.874,-40.1131 263.338,-38.4531 254.123,-33.2254 252.874,-40.1131"/>
</g>
<!-- Node7 -->
<g id="node7" class="node"><title>Node7</title>
<g id="a_node7"><a xlink:href="listDriver_8cpp.html#a93f8912e6534165aa205d15c1133181e" target="_top" xlink:title="randomInt">
<polygon fill="white" stroke="black" points="287,-0.5 287,-19.5 347,-19.5 347,-0.5 287,-0.5"/>
<text text-anchor="middle" x="317" y="-7.5" font-family="Helvetica,sans-Serif" font-size="10.00">randomInt</text>
</a>
</g>
</g>
<!-- Node5&#45;&gt;Node7 -->
<g id="edge6" class="edge"><title>Node5&#45;&gt;Node7</title>
<path fill="none" stroke="midnightblue" d="M179.193,-15.6003C207.318,-14.449 247.197,-12.8165 276.646,-11.611"/>
<polygon fill="midnightblue" stroke="midnightblue" points="277.135,-15.094 286.983,-11.1878 276.848,-8.09986 277.135,-15.094"/>
</g>
</g>
</svg>
