<?xml version="1.0" encoding="UTF-8" standalone="no"?>
<!DOCTYPE svg PUBLIC "-//W3C//DTD SVG 1.1//EN"
 "http://www.w3.org/Graphics/SVG/1.1/DTD/svg11.dtd">
<!-- Generated by graphviz version 2.36.0 (20140111.2315)
 -->
<!-- Title: generateList Pages: 1 -->
<svg width="236pt" height="66pt"
 viewBox="0.00 0.00 236.00 66.00" xmlns="http://www.w3.org/2000/svg" xmlns:xlink="http://www.w3.org/1999/xlink">
<g id="graph0" class="graph" transform="scale(1 1) rotate(0) translate(4 62)">
<title>generateList</title>
<polygon fill="white" stroke="none" points="-4,4 -4,-62 232,-62 232,4 -4,4"/>
<!-- Node1 -->
<g id="node1" class="node"><title>Node1</title>
<polygon fill="#bfbfbf" stroke="black" points="0,-19.5 0,-38.5 70,-38.5 70,-19.5 0,-19.5"/>
<text text-anchor="middle" x="35" y="-26.5" font-family="Helvetica,sans-Serif" font-size="10.00">generateList</text>
</g>
<!-- Node2 -->
<g id="node2" class="node"><title>Node2</title>
<g id="a_node2"><a xlink:href="classLinkedList.html#aac24d4dd7407efda97de9d3c550fa1b8" target="_top" xlink:title="LinkedList::appendNode">
<polygon fill="white" stroke="black" points="106,-38.5 106,-57.5 228,-57.5 228,-38.5 106,-38.5"/>
<text text-anchor="middle" x="167" y="-45.5" font-family="Helvetica,sans-Serif" font-size="10.00">LinkedList::appendNode</text>
</a>
</g>
</g>
<!-- Node1&#45;&gt;Node2 -->
<g id="edge1" class="edge"><title>Node1&#45;&gt;Node2</title>
<path fill="none" stroke="midnightblue" d="M70.156,-33.992C78.136,-35.1583 86.9235,-36.4427 95.8413,-37.746"/>
<polygon fill="midnightblue" stroke="midnightblue" points="95.528,-41.2374 105.929,-39.2204 96.5404,-34.3109 95.528,-41.2374"/>
</g>
<!-- Node3 -->
<g id="node3" class="node"><title>Node3</title>
<g id="a_node3"><a xlink:href="listDriver_8cpp.html#a93f8912e6534165aa205d15c1133181e" target="_top" xlink:title="randomInt">
<polygon fill="white" stroke="black" points="137,-0.5 137,-19.5 197,-19.5 197,-0.5 137,-0.5"/>
<text text-anchor="middle" x="167" y="-7.5" font-family="Helvetica,sans-Serif" font-size="10.00">randomInt</text>
</a>
</g>
</g>
<!-- Node1&#45;&gt;Node3 -->
<g id="edge2" class="edge"><title>Node1&#45;&gt;Node3</title>
<path fill="none" stroke="midnightblue" d="M70.156,-24.008C87.5936,-21.4594 108.887,-18.3473 126.97,-15.7044"/>
<polygon fill="midnightblue" stroke="midnightblue" points="127.528,-19.1601 136.917,-14.2507 126.515,-12.2337 127.528,-19.1601"/>
</g>
</g>
</svg>
