<?xml version="1.0" encoding="UTF-8" standalone="no"?>
<!DOCTYPE svg PUBLIC "-//W3C//DTD SVG 1.1//EN"
 "http://www.w3.org/Graphics/SVG/1.1/DTD/svg11.dtd">
<!-- Generated by graphviz version 2.36.0 (20140111.2315)
 -->
<!-- Title: utilities::printSeperatedHeading Pages: 1 -->
<svg width="294pt" height="77pt"
 viewBox="0.00 0.00 294.00 77.00" xmlns="http://www.w3.org/2000/svg" xmlns:xlink="http://www.w3.org/1999/xlink">
<g id="graph0" class="graph" transform="scale(1 1) rotate(0) translate(4 73)">
<title>utilities::printSeperatedHeading</title>
<polygon fill="white" stroke="none" points="-4,4 -4,-73 290,-73 290,4 -4,4"/>
<!-- Node1 -->
<g id="node1" class="node"><title>Node1</title>
<polygon fill="#bfbfbf" stroke="black" points="0,-17 0,-47 116,-47 116,-17 0,-17"/>
<text text-anchor="start" x="8" y="-35" font-family="Helvetica,sans-Serif" font-size="10.00">utilities::printSeperated</text>
<text text-anchor="middle" x="58" y="-24" font-family="Helvetica,sans-Serif" font-size="10.00">Heading</text>
</g>
<!-- Node2 -->
<g id="node2" class="node"><title>Node2</title>
<g id="a_node2"><a xlink:href="namespaceutilities.html#a0364030fce3431e2ec985b20e571ce9a" target="_top" xlink:title="utilities::printCentered\lTitle">
<polygon fill="white" stroke="black" points="163,-39 163,-69 275,-69 275,-39 163,-39"/>
<text text-anchor="start" x="171" y="-57" font-family="Helvetica,sans-Serif" font-size="10.00">utilities::printCentered</text>
<text text-anchor="middle" x="219" y="-46" font-family="Helvetica,sans-Serif" font-size="10.00">Title</text>
</a>
</g>
</g>
<!-- Node1&#45;&gt;Node2 -->
<g id="edge1" class="edge"><title>Node1&#45;&gt;Node2</title>
<path fill="none" stroke="midnightblue" d="M116.403,-39.9425C128.217,-41.5771 140.738,-43.3096 152.804,-44.9792"/>
<polygon fill="midnightblue" stroke="midnightblue" points="152.423,-48.4596 162.808,-46.3634 153.382,-41.5257 152.423,-48.4596"/>
</g>
<!-- Node3 -->
<g id="node3" class="node"><title>Node3</title>
<g id="a_node3"><a xlink:href="namespaceutilities.html#a2ca4bf55e15b157fc1255112ecf60b4b" target="_top" xlink:title="utilities::printHorizontalLine">
<polygon fill="white" stroke="black" points="152,-0.5 152,-19.5 286,-19.5 286,-0.5 152,-0.5"/>
<text text-anchor="middle" x="219" y="-7.5" font-family="Helvetica,sans-Serif" font-size="10.00">utilities::printHorizontalLine</text>
</a>
</g>
</g>
<!-- Node1&#45;&gt;Node3 -->
<g id="edge2" class="edge"><title>Node1&#45;&gt;Node3</title>
<path fill="none" stroke="midnightblue" d="M116.403,-24.0575C124.65,-22.9163 133.242,-21.7275 141.784,-20.5456"/>
<polygon fill="midnightblue" stroke="midnightblue" points="142.338,-24.0024 151.764,-19.1647 141.379,-17.0684 142.338,-24.0024"/>
</g>
</g>
</svg>
