<?xml version="1.0" encoding="UTF-8" standalone="no"?>
<!DOCTYPE svg PUBLIC "-//W3C//DTD SVG 1.1//EN"
 "http://www.w3.org/Graphics/SVG/1.1/DTD/svg11.dtd">
<!-- Generated by graphviz version 2.36.0 (20140111.2315)
 -->
<!-- Title: circle.h Pages: 1 -->
<svg width="228pt" height="140pt"
 viewBox="0.00 0.00 228.00 140.00" xmlns="http://www.w3.org/2000/svg" xmlns:xlink="http://www.w3.org/1999/xlink">
<g id="graph0" class="graph" transform="scale(1 1) rotate(0) translate(4 136)">
<title>circle.h</title>
<polygon fill="white" stroke="none" points="-4,4 -4,-136 224,-136 224,4 -4,4"/>
<!-- Node1 -->
<g id="node1" class="node"><title>Node1</title>
<polygon fill="#bfbfbf" stroke="black" points="50,-112.5 50,-131.5 98,-131.5 98,-112.5 50,-112.5"/>
<text text-anchor="middle" x="74" y="-119.5" font-family="Helvetica,sans-Serif" font-size="10.00">circle.h</text>
</g>
<!-- Node2 -->
<g id="node2" class="node"><title>Node2</title>
<g id="a_node2"><a xlink:href="circle_8cpp.html" target="_top" xlink:title="circle.cpp">
<polygon fill="white" stroke="black" points="-0.5,-56.5 -0.5,-75.5 58.5,-75.5 58.5,-56.5 -0.5,-56.5"/>
<text text-anchor="middle" x="29" y="-63.5" font-family="Helvetica,sans-Serif" font-size="10.00">circle.cpp</text>
</a>
</g>
</g>
<!-- Node1&#45;&gt;Node2 -->
<g id="edge1" class="edge"><title>Node1&#45;&gt;Node2</title>
<path fill="none" stroke="midnightblue" d="M59.9533,-104.144C52.1131,-94.7357 42.6705,-83.4046 36.2926,-75.7511"/>
<polygon fill="midnightblue" stroke="midnightblue" points="57.4785,-106.641 66.5692,-112.083 62.8561,-102.16 57.4785,-106.641"/>
</g>
<!-- Node3 -->
<g id="node3" class="node"><title>Node3</title>
<g id="a_node3"><a xlink:href="shapeFactory_8h.html" target="_top" xlink:title="shapeFactory.h">
<polygon fill="white" stroke="black" points="77,-56.5 77,-75.5 161,-75.5 161,-56.5 77,-56.5"/>
<text text-anchor="middle" x="119" y="-63.5" font-family="Helvetica,sans-Serif" font-size="10.00">shapeFactory.h</text>
</a>
</g>
</g>
<!-- Node1&#45;&gt;Node3 -->
<g id="edge2" class="edge"><title>Node1&#45;&gt;Node3</title>
<path fill="none" stroke="midnightblue" d="M88.0467,-104.144C95.8869,-94.7357 105.329,-83.4046 111.707,-75.7511"/>
<polygon fill="midnightblue" stroke="midnightblue" points="85.1439,-102.16 81.4308,-112.083 90.5215,-106.641 85.1439,-102.16"/>
</g>
<!-- Node4 -->
<g id="node4" class="node"><title>Node4</title>
<g id="a_node4"><a xlink:href="runShapes_8cpp.html" target="_top" xlink:title="runShapes.cpp">
<polygon fill="white" stroke="black" points="25,-0.5 25,-19.5 107,-19.5 107,-0.5 25,-0.5"/>
<text text-anchor="middle" x="66" y="-7.5" font-family="Helvetica,sans-Serif" font-size="10.00">runShapes.cpp</text>
</a>
</g>
</g>
<!-- Node3&#45;&gt;Node4 -->
<g id="edge3" class="edge"><title>Node3&#45;&gt;Node4</title>
<path fill="none" stroke="midnightblue" d="M103.019,-48.7175C93.6775,-39.1997 82.2541,-27.5608 74.589,-19.7511"/>
<polygon fill="midnightblue" stroke="midnightblue" points="100.746,-51.3978 110.248,-56.083 105.741,-46.4945 100.746,-51.3978"/>
</g>
<!-- Node5 -->
<g id="node5" class="node"><title>Node5</title>
<g id="a_node5"><a xlink:href="shapeFactory_8cpp.html" target="_top" xlink:title="shapeFactory.cpp">
<polygon fill="white" stroke="black" points="125.5,-0.5 125.5,-19.5 220.5,-19.5 220.5,-0.5 125.5,-0.5"/>
<text text-anchor="middle" x="173" y="-7.5" font-family="Helvetica,sans-Serif" font-size="10.00">shapeFactory.cpp</text>
</a>
</g>
</g>
<!-- Node3&#45;&gt;Node5 -->
<g id="edge4" class="edge"><title>Node3&#45;&gt;Node5</title>
<path fill="none" stroke="midnightblue" d="M134.998,-49.0024C144.567,-39.4329 156.361,-27.6389 164.249,-19.7511"/>
<polygon fill="midnightblue" stroke="midnightblue" points="132.513,-46.537 127.917,-56.083 137.463,-51.4868 132.513,-46.537"/>
</g>
</g>
</svg>
