<?xml version="1.0" encoding="UTF-8" standalone="no"?>
<!DOCTYPE svg PUBLIC "-//W3C//DTD SVG 1.1//EN"
 "http://www.w3.org/Graphics/SVG/1.1/DTD/svg11.dtd">
<!-- Generated by graphviz version 2.36.0 (20140111.2315)
 -->
<!-- Title: Circle Pages: 1 -->
<svg width="104pt" height="426pt"
 viewBox="0.00 0.00 104.00 426.00" xmlns="http://www.w3.org/2000/svg" xmlns:xlink="http://www.w3.org/1999/xlink">
<g id="graph0" class="graph" transform="scale(1 1) rotate(0) translate(4 422)">
<title>Circle</title>
<polygon fill="white" stroke="none" points="-4,4 -4,-422 100,-422 100,4 -4,4"/>
<!-- Node1 -->
<g id="node1" class="node"><title>Node1</title>
<polygon fill="#bfbfbf" stroke="black" points="12,-1 12,-201 84,-201 84,-1 12,-1"/>
<text text-anchor="middle" x="48" y="-189" font-family="Helvetica,sans-Serif" font-size="10.00">Circle</text>
<polyline fill="none" stroke="black" points="12,-182 84,-182 "/>
<text text-anchor="start" x="20" y="-170" font-family="Helvetica,sans-Serif" font-size="10.00">&#45; _radius</text>
<text text-anchor="start" x="20" y="-159" font-family="Helvetica,sans-Serif" font-size="10.00">&#45; PI</text>
<text text-anchor="start" x="20" y="-148" font-family="Helvetica,sans-Serif" font-size="10.00">&#45; TAU</text>
<polyline fill="none" stroke="black" points="12,-141 84,-141 "/>
<text text-anchor="start" x="20" y="-129" font-family="Helvetica,sans-Serif" font-size="10.00">+ Circle()</text>
<text text-anchor="start" x="20" y="-118" font-family="Helvetica,sans-Serif" font-size="10.00">+ Circle()</text>
<text text-anchor="start" x="20" y="-107" font-family="Helvetica,sans-Serif" font-size="10.00">+ Circle()</text>
<text text-anchor="start" x="20" y="-96" font-family="Helvetica,sans-Serif" font-size="10.00">+ ~Circle()</text>
<text text-anchor="start" x="20" y="-85" font-family="Helvetica,sans-Serif" font-size="10.00">+ radius()</text>
<text text-anchor="start" x="20" y="-74" font-family="Helvetica,sans-Serif" font-size="10.00">+ radius()</text>
<text text-anchor="start" x="20" y="-63" font-family="Helvetica,sans-Serif" font-size="10.00">+ diameter()</text>
<text text-anchor="start" x="20" y="-52" font-family="Helvetica,sans-Serif" font-size="10.00">+ area()</text>
<text text-anchor="start" x="20" y="-41" font-family="Helvetica,sans-Serif" font-size="10.00">+ perimeter()</text>
<text text-anchor="start" x="20" y="-30" font-family="Helvetica,sans-Serif" font-size="10.00">+ clone()</text>
<text text-anchor="start" x="20" y="-19" font-family="Helvetica,sans-Serif" font-size="10.00">+ display()</text>
<text text-anchor="start" x="20" y="-8" font-family="Helvetica,sans-Serif" font-size="10.00">+ read()</text>
</g>
<!-- Node2 -->
<g id="node2" class="node"><title>Node2</title>
<g id="a_node2"><a xlink:href="classShape.html" target="_top" xlink:title="{Shape\n|# _name\l# WIDTH_LABEL\l# WIDTH_VALUE\l|+ Shape()\l+ Shape()\l+ ~Shape()\l+ name()\l+ area()\l+ perimeter()\l+ clone()\l+ display()\l+ read()\l# name()\l}">
<polygon fill="white" stroke="black" points="-0.5,-239 -0.5,-417 96.5,-417 96.5,-239 -0.5,-239"/>
<text text-anchor="middle" x="48" y="-405" font-family="Helvetica,sans-Serif" font-size="10.00">Shape</text>
<polyline fill="none" stroke="black" points="-0.5,-398 96.5,-398 "/>
<text text-anchor="start" x="7.5" y="-386" font-family="Helvetica,sans-Serif" font-size="10.00"># _name</text>
<text text-anchor="start" x="7.5" y="-375" font-family="Helvetica,sans-Serif" font-size="10.00"># WIDTH_LABEL</text>
<text text-anchor="start" x="7.5" y="-364" font-family="Helvetica,sans-Serif" font-size="10.00"># WIDTH_VALUE</text>
<polyline fill="none" stroke="black" points="-0.5,-357 96.5,-357 "/>
<text text-anchor="start" x="7.5" y="-345" font-family="Helvetica,sans-Serif" font-size="10.00">+ Shape()</text>
<text text-anchor="start" x="7.5" y="-334" font-family="Helvetica,sans-Serif" font-size="10.00">+ Shape()</text>
<text text-anchor="start" x="7.5" y="-323" font-family="Helvetica,sans-Serif" font-size="10.00">+ ~Shape()</text>
<text text-anchor="start" x="7.5" y="-312" font-family="Helvetica,sans-Serif" font-size="10.00">+ name()</text>
<text text-anchor="start" x="7.5" y="-301" font-family="Helvetica,sans-Serif" font-size="10.00">+ area()</text>
<text text-anchor="start" x="7.5" y="-290" font-family="Helvetica,sans-Serif" font-size="10.00">+ perimeter()</text>
<text text-anchor="start" x="7.5" y="-279" font-family="Helvetica,sans-Serif" font-size="10.00">+ clone()</text>
<text text-anchor="start" x="7.5" y="-268" font-family="Helvetica,sans-Serif" font-size="10.00">+ display()</text>
<text text-anchor="start" x="7.5" y="-257" font-family="Helvetica,sans-Serif" font-size="10.00">+ read()</text>
<text text-anchor="start" x="7.5" y="-246" font-family="Helvetica,sans-Serif" font-size="10.00"># name()</text>
</a>
</g>
</g>
<!-- Node2&#45;&gt;Node1 -->
<g id="edge1" class="edge"><title>Node2&#45;&gt;Node1</title>
<path fill="none" stroke="midnightblue" d="M48,-228.542C48,-219.47 48,-210.274 48,-201.195"/>
<polygon fill="none" stroke="midnightblue" points="44.5001,-228.72 48,-238.72 51.5001,-228.72 44.5001,-228.72"/>
</g>
</g>
</svg>
