<?xml version="1.0" encoding="UTF-8" standalone="no"?>
<!DOCTYPE svg PUBLIC "-//W3C//DTD SVG 1.1//EN"
 "http://www.w3.org/Graphics/SVG/1.1/DTD/svg11.dtd">
<!-- Generated by graphviz version 2.36.0 (20140111.2315)
 -->
<!-- Title: equilateralTriangle.cpp Pages: 1 -->
<svg width="278pt" height="252pt"
 viewBox="0.00 0.00 278.00 252.00" xmlns="http://www.w3.org/2000/svg" xmlns:xlink="http://www.w3.org/1999/xlink">
<g id="graph0" class="graph" transform="scale(1 1) rotate(0) translate(4 248)">
<title>equilateralTriangle.cpp</title>
<polygon fill="white" stroke="none" points="-4,4 -4,-248 274,-248 274,4 -4,4"/>
<!-- Node1 -->
<g id="node1" class="node"><title>Node1</title>
<polygon fill="#bfbfbf" stroke="black" points="15,-224.5 15,-243.5 129,-243.5 129,-224.5 15,-224.5"/>
<text text-anchor="middle" x="72" y="-231.5" font-family="Helvetica,sans-Serif" font-size="10.00">equilateralTriangle.cpp</text>
</g>
<!-- Node2 -->
<g id="node2" class="node"><title>Node2</title>
<polygon fill="white" stroke="#bfbfbf" points="0,-168.5 0,-187.5 50,-187.5 50,-168.5 0,-168.5"/>
<text text-anchor="middle" x="25" y="-175.5" font-family="Helvetica,sans-Serif" font-size="10.00">iomanip</text>
</g>
<!-- Node1&#45;&gt;Node2 -->
<g id="edge1" class="edge"><title>Node1&#45;&gt;Node2</title>
<path fill="none" stroke="midnightblue" d="M64.2389,-224.083C57.4632,-216.298 47.4568,-204.801 39.2449,-195.367"/>
<polygon fill="midnightblue" stroke="midnightblue" points="41.822,-192.996 32.6167,-187.751 36.5419,-197.592 41.822,-192.996"/>
</g>
<!-- Node3 -->
<g id="node3" class="node"><title>Node3</title>
<g id="a_node3"><a xlink:href="equilateralTriangle_8h.html" target="_top" xlink:title="equilateralTriangle.h">
<polygon fill="white" stroke="black" points="68,-168.5 68,-187.5 172,-187.5 172,-168.5 68,-168.5"/>
<text text-anchor="middle" x="120" y="-175.5" font-family="Helvetica,sans-Serif" font-size="10.00">equilateralTriangle.h</text>
</a>
</g>
</g>
<!-- Node1&#45;&gt;Node3 -->
<g id="edge2" class="edge"><title>Node1&#45;&gt;Node3</title>
<path fill="none" stroke="midnightblue" d="M79.9262,-224.083C86.8461,-216.298 97.0654,-204.801 105.452,-195.367"/>
<polygon fill="midnightblue" stroke="midnightblue" points="108.194,-197.55 112.221,-187.751 102.962,-192.9 108.194,-197.55"/>
</g>
<!-- Node4 -->
<g id="node4" class="node"><title>Node4</title>
<polygon fill="white" stroke="#bfbfbf" points="115,-0.5 115,-19.5 169,-19.5 169,-0.5 115,-0.5"/>
<text text-anchor="middle" x="142" y="-7.5" font-family="Helvetica,sans-Serif" font-size="10.00">iostream</text>
</g>
<!-- Node3&#45;&gt;Node4 -->
<g id="edge3" class="edge"><title>Node3&#45;&gt;Node4</title>
<path fill="none" stroke="midnightblue" d="M109.701,-168.251C87.1354,-147.99 37.1771,-96.4873 61,-56 70.6158,-39.6579 88.5478,-28.8249 105.1,-21.8922"/>
<polygon fill="midnightblue" stroke="midnightblue" points="106.526,-25.0941 114.613,-18.249 104.022,-18.5571 106.526,-25.0941"/>
</g>
<!-- Node5 -->
<g id="node5" class="node"><title>Node5</title>
<polygon fill="white" stroke="#bfbfbf" points="229.5,-0.5 229.5,-19.5 270.5,-19.5 270.5,-0.5 229.5,-0.5"/>
<text text-anchor="middle" x="250" y="-7.5" font-family="Helvetica,sans-Serif" font-size="10.00">string</text>
</g>
<!-- Node3&#45;&gt;Node5 -->
<g id="edge4" class="edge"><title>Node3&#45;&gt;Node5</title>
<path fill="none" stroke="midnightblue" d="M140.356,-168.432C170.811,-154.329 227.007,-123.02 249,-76 255.724,-61.6239 255.363,-43.4282 253.671,-29.9472"/>
<polygon fill="midnightblue" stroke="midnightblue" points="257.102,-29.2393 252.064,-19.9194 250.191,-30.3474 257.102,-29.2393"/>
</g>
<!-- Node6 -->
<g id="node6" class="node"><title>Node6</title>
<polygon fill="white" stroke="#bfbfbf" points="70,-56.5 70,-75.5 114,-75.5 114,-56.5 70,-56.5"/>
<text text-anchor="middle" x="92" y="-63.5" font-family="Helvetica,sans-Serif" font-size="10.00">cmath</text>
</g>
<!-- Node3&#45;&gt;Node6 -->
<g id="edge5" class="edge"><title>Node3&#45;&gt;Node6</title>
<path fill="none" stroke="midnightblue" d="M117.803,-168.368C113.284,-150.617 102.861,-109.666 96.7339,-85.5974"/>
<polygon fill="midnightblue" stroke="midnightblue" points="100.046,-84.419 94.1869,-75.5914 93.2619,-86.1458 100.046,-84.419"/>
</g>
<!-- Node7 -->
<g id="node7" class="node"><title>Node7</title>
<g id="a_node7"><a xlink:href="triangle_8h.html" target="_top" xlink:title="triangle.h">
<polygon fill="white" stroke="black" points="120,-112.5 120,-131.5 176,-131.5 176,-112.5 120,-112.5"/>
<text text-anchor="middle" x="148" y="-119.5" font-family="Helvetica,sans-Serif" font-size="10.00">triangle.h</text>
</a>
</g>
</g>
<!-- Node3&#45;&gt;Node7 -->
<g id="edge6" class="edge"><title>Node3&#45;&gt;Node7</title>
<path fill="none" stroke="midnightblue" d="M124.624,-168.083C128.456,-160.691 134.024,-149.953 138.765,-140.811"/>
<polygon fill="midnightblue" stroke="midnightblue" points="141.966,-142.24 143.462,-131.751 135.752,-139.018 141.966,-142.24"/>
</g>
<!-- Node7&#45;&gt;Node4 -->
<g id="edge7" class="edge"><title>Node7&#45;&gt;Node4</title>
<path fill="none" stroke="midnightblue" d="M147.529,-112.368C146.561,-94.617 144.327,-53.6664 143.014,-29.5974"/>
<polygon fill="midnightblue" stroke="midnightblue" points="146.508,-29.3859 142.469,-19.5914 139.519,-29.7672 146.508,-29.3859"/>
</g>
<!-- Node7&#45;&gt;Node5 -->
<g id="edge8" class="edge"><title>Node7&#45;&gt;Node5</title>
<path fill="none" stroke="midnightblue" d="M174.793,-112.359C192.793,-105.262 215.742,-93.4989 230,-76 240.828,-62.7107 245.807,-43.5882 248.089,-29.5233"/>
<polygon fill="midnightblue" stroke="midnightblue" points="251.568,-29.9067 249.4,-19.536 244.628,-28.9951 251.568,-29.9067"/>
</g>
<!-- Node7&#45;&gt;Node6 -->
<g id="edge9" class="edge"><title>Node7&#45;&gt;Node6</title>
<path fill="none" stroke="midnightblue" d="M139.003,-112.324C130.806,-104.42 118.494,-92.5482 108.528,-82.9377"/>
<polygon fill="midnightblue" stroke="midnightblue" points="110.789,-80.2558 101.161,-75.8339 105.93,-85.2947 110.789,-80.2558"/>
</g>
<!-- Node8 -->
<g id="node8" class="node"><title>Node8</title>
<g id="a_node8"><a xlink:href="shape_8h.html" target="_top" xlink:title="shape.h">
<polygon fill="white" stroke="black" points="170.5,-56.5 170.5,-75.5 221.5,-75.5 221.5,-56.5 170.5,-56.5"/>
<text text-anchor="middle" x="196" y="-63.5" font-family="Helvetica,sans-Serif" font-size="10.00">shape.h</text>
</a>
</g>
</g>
<!-- Node7&#45;&gt;Node8 -->
<g id="edge10" class="edge"><title>Node7&#45;&gt;Node8</title>
<path fill="none" stroke="midnightblue" d="M155.926,-112.083C162.846,-104.298 173.065,-92.8015 181.452,-83.3665"/>
<polygon fill="midnightblue" stroke="midnightblue" points="184.194,-85.5505 188.221,-75.7511 178.962,-80.8999 184.194,-85.5505"/>
</g>
<!-- Node8&#45;&gt;Node4 -->
<g id="edge11" class="edge"><title>Node8&#45;&gt;Node4</title>
<path fill="none" stroke="midnightblue" d="M187.083,-56.083C179.22,-48.2195 167.569,-36.5688 158.081,-27.0813"/>
<polygon fill="midnightblue" stroke="midnightblue" points="160.297,-24.3473 150.751,-19.7511 155.347,-29.2971 160.297,-24.3473"/>
</g>
<!-- Node8&#45;&gt;Node5 -->
<g id="edge12" class="edge"><title>Node8&#45;&gt;Node5</title>
<path fill="none" stroke="midnightblue" d="M204.917,-56.083C212.78,-48.2195 224.431,-36.5688 233.919,-27.0813"/>
<polygon fill="midnightblue" stroke="midnightblue" points="236.653,-29.2971 241.249,-19.7511 231.703,-24.3473 236.653,-29.2971"/>
</g>
</g>
</svg>
