<?xml version="1.0" encoding="UTF-8" standalone="no"?>
<!DOCTYPE svg PUBLIC "-//W3C//DTD SVG 1.1//EN"
 "http://www.w3.org/Graphics/SVG/1.1/DTD/svg11.dtd">
<!-- Generated by graphviz version 2.36.0 (20140111.2315)
 -->
<!-- Title: equilateralTriangle.h Pages: 1 -->
<svg width="224pt" height="196pt"
 viewBox="0.00 0.00 223.54 196.00" xmlns="http://www.w3.org/2000/svg" xmlns:xlink="http://www.w3.org/1999/xlink">
<g id="graph0" class="graph" transform="scale(1 1) rotate(0) translate(4 192)">
<title>equilateralTriangle.h</title>
<polygon fill="white" stroke="none" points="-4,4 -4,-192 219.542,-192 219.542,4 -4,4"/>
<!-- Node1 -->
<g id="node1" class="node"><title>Node1</title>
<polygon fill="#bfbfbf" stroke="black" points="13.5425,-168.5 13.5425,-187.5 117.542,-187.5 117.542,-168.5 13.5425,-168.5"/>
<text text-anchor="middle" x="65.5425" y="-175.5" font-family="Helvetica,sans-Serif" font-size="10.00">equilateralTriangle.h</text>
</g>
<!-- Node2 -->
<g id="node2" class="node"><title>Node2</title>
<polygon fill="white" stroke="#bfbfbf" points="60.5425,-0.5 60.5425,-19.5 114.542,-19.5 114.542,-0.5 60.5425,-0.5"/>
<text text-anchor="middle" x="87.5425" y="-7.5" font-family="Helvetica,sans-Serif" font-size="10.00">iostream</text>
</g>
<!-- Node1&#45;&gt;Node2 -->
<g id="edge1" class="edge"><title>Node1&#45;&gt;Node2</title>
<path fill="none" stroke="midnightblue" d="M55.2439,-168.251C32.6779,-147.99 -17.2804,-96.4873 6.54249,-56 16.1582,-39.6579 34.0903,-28.8249 50.6422,-21.8922"/>
<polygon fill="midnightblue" stroke="midnightblue" points="52.0683,-25.0941 60.155,-18.249 49.5646,-18.5571 52.0683,-25.0941"/>
</g>
<!-- Node3 -->
<g id="node3" class="node"><title>Node3</title>
<polygon fill="white" stroke="#bfbfbf" points="175.042,-0.5 175.042,-19.5 216.042,-19.5 216.042,-0.5 175.042,-0.5"/>
<text text-anchor="middle" x="195.542" y="-7.5" font-family="Helvetica,sans-Serif" font-size="10.00">string</text>
</g>
<!-- Node1&#45;&gt;Node3 -->
<g id="edge2" class="edge"><title>Node1&#45;&gt;Node3</title>
<path fill="none" stroke="midnightblue" d="M85.8986,-168.432C116.354,-154.329 172.549,-123.02 194.542,-76 201.267,-61.6239 200.905,-43.4282 199.214,-29.9472"/>
<polygon fill="midnightblue" stroke="midnightblue" points="202.645,-29.2393 197.606,-19.9194 195.733,-30.3474 202.645,-29.2393"/>
</g>
<!-- Node4 -->
<g id="node4" class="node"><title>Node4</title>
<polygon fill="white" stroke="#bfbfbf" points="15.5425,-56.5 15.5425,-75.5 59.5425,-75.5 59.5425,-56.5 15.5425,-56.5"/>
<text text-anchor="middle" x="37.5425" y="-63.5" font-family="Helvetica,sans-Serif" font-size="10.00">cmath</text>
</g>
<!-- Node1&#45;&gt;Node4 -->
<g id="edge3" class="edge"><title>Node1&#45;&gt;Node4</title>
<path fill="none" stroke="midnightblue" d="M63.3454,-168.368C58.8268,-150.617 48.403,-109.666 42.2764,-85.5974"/>
<polygon fill="midnightblue" stroke="midnightblue" points="45.5881,-84.419 39.7294,-75.5914 38.8044,-86.1458 45.5881,-84.419"/>
</g>
<!-- Node5 -->
<g id="node5" class="node"><title>Node5</title>
<g id="a_node5"><a xlink:href="triangle_8h.html" target="_top" xlink:title="triangle.h">
<polygon fill="white" stroke="black" points="65.5425,-112.5 65.5425,-131.5 121.542,-131.5 121.542,-112.5 65.5425,-112.5"/>
<text text-anchor="middle" x="93.5425" y="-119.5" font-family="Helvetica,sans-Serif" font-size="10.00">triangle.h</text>
</a>
</g>
</g>
<!-- Node1&#45;&gt;Node5 -->
<g id="edge4" class="edge"><title>Node1&#45;&gt;Node5</title>
<path fill="none" stroke="midnightblue" d="M70.1661,-168.083C73.9988,-160.691 79.5667,-149.953 84.3071,-140.811"/>
<polygon fill="midnightblue" stroke="midnightblue" points="87.5088,-142.24 89.0049,-131.751 81.2945,-139.018 87.5088,-142.24"/>
</g>
<!-- Node5&#45;&gt;Node2 -->
<g id="edge5" class="edge"><title>Node5&#45;&gt;Node2</title>
<path fill="none" stroke="midnightblue" d="M93.0717,-112.368C92.1034,-94.617 89.8697,-53.6664 88.5569,-29.5974"/>
<polygon fill="midnightblue" stroke="midnightblue" points="92.0507,-29.3859 88.0111,-19.5914 85.0611,-29.7672 92.0507,-29.3859"/>
</g>
<!-- Node5&#45;&gt;Node3 -->
<g id="edge6" class="edge"><title>Node5&#45;&gt;Node3</title>
<path fill="none" stroke="midnightblue" d="M120.336,-112.359C138.335,-105.262 161.285,-93.4989 175.542,-76 186.37,-62.7107 191.349,-43.5882 193.631,-29.5233"/>
<polygon fill="midnightblue" stroke="midnightblue" points="197.111,-29.9067 194.943,-19.536 190.17,-28.9951 197.111,-29.9067"/>
</g>
<!-- Node5&#45;&gt;Node4 -->
<g id="edge7" class="edge"><title>Node5&#45;&gt;Node4</title>
<path fill="none" stroke="midnightblue" d="M84.5451,-112.324C76.348,-104.42 64.0369,-92.5482 54.0705,-82.9377"/>
<polygon fill="midnightblue" stroke="midnightblue" points="56.3315,-80.2558 46.7036,-75.8339 51.4726,-85.2947 56.3315,-80.2558"/>
</g>
<!-- Node6 -->
<g id="node6" class="node"><title>Node6</title>
<g id="a_node6"><a xlink:href="shape_8h.html" target="_top" xlink:title="shape.h">
<polygon fill="white" stroke="black" points="116.042,-56.5 116.042,-75.5 167.042,-75.5 167.042,-56.5 116.042,-56.5"/>
<text text-anchor="middle" x="141.542" y="-63.5" font-family="Helvetica,sans-Serif" font-size="10.00">shape.h</text>
</a>
</g>
</g>
<!-- Node5&#45;&gt;Node6 -->
<g id="edge8" class="edge"><title>Node5&#45;&gt;Node6</title>
<path fill="none" stroke="midnightblue" d="M101.469,-112.083C108.389,-104.298 118.608,-92.8015 126.994,-83.3665"/>
<polygon fill="midnightblue" stroke="midnightblue" points="129.736,-85.5505 133.764,-75.7511 124.504,-80.8999 129.736,-85.5505"/>
</g>
<!-- Node6&#45;&gt;Node2 -->
<g id="edge9" class="edge"><title>Node6&#45;&gt;Node2</title>
<path fill="none" stroke="midnightblue" d="M132.625,-56.083C124.762,-48.2195 113.111,-36.5688 103.624,-27.0813"/>
<polygon fill="midnightblue" stroke="midnightblue" points="105.84,-24.3473 96.2936,-19.7511 100.89,-29.2971 105.84,-24.3473"/>
</g>
<!-- Node6&#45;&gt;Node3 -->
<g id="edge10" class="edge"><title>Node6&#45;&gt;Node3</title>
<path fill="none" stroke="midnightblue" d="M150.459,-56.083C158.323,-48.2195 169.974,-36.5688 179.461,-27.0813"/>
<polygon fill="midnightblue" stroke="midnightblue" points="182.195,-29.2971 186.791,-19.7511 177.245,-24.3473 182.195,-29.2971"/>
</g>
</g>
</svg>
