<?xml version="1.0" encoding="UTF-8" standalone="no"?>
<!DOCTYPE svg PUBLIC "-//W3C//DTD SVG 1.1//EN"
 "http://www.w3.org/Graphics/SVG/1.1/DTD/svg11.dtd">
<!-- Generated by graphviz version 2.36.0 (20140111.2315)
 -->
<!-- Title: rightTriangle.cpp Pages: 1 -->
<svg width="265pt" height="252pt"
 viewBox="0.00 0.00 265.00 252.00" xmlns="http://www.w3.org/2000/svg" xmlns:xlink="http://www.w3.org/1999/xlink">
<g id="graph0" class="graph" transform="scale(1 1) rotate(0) translate(4 248)">
<title>rightTriangle.cpp</title>
<polygon fill="white" stroke="none" points="-4,4 -4,-248 261,-248 261,4 -4,4"/>
<!-- Node1 -->
<g id="node1" class="node"><title>Node1</title>
<polygon fill="#bfbfbf" stroke="black" points="21.5,-224.5 21.5,-243.5 110.5,-243.5 110.5,-224.5 21.5,-224.5"/>
<text text-anchor="middle" x="66" y="-231.5" font-family="Helvetica,sans-Serif" font-size="10.00">rightTriangle.cpp</text>
</g>
<!-- Node2 -->
<g id="node2" class="node"><title>Node2</title>
<polygon fill="white" stroke="#bfbfbf" points="0,-168.5 0,-187.5 50,-187.5 50,-168.5 0,-168.5"/>
<text text-anchor="middle" x="25" y="-175.5" font-family="Helvetica,sans-Serif" font-size="10.00">iomanip</text>
</g>
<!-- Node1&#45;&gt;Node2 -->
<g id="edge1" class="edge"><title>Node1&#45;&gt;Node2</title>
<path fill="none" stroke="midnightblue" d="M59.2297,-224.083C53.4384,-216.455 44.9415,-205.264 37.8625,-195.941"/>
<polygon fill="midnightblue" stroke="midnightblue" points="40.479,-193.599 31.6443,-187.751 34.9039,-197.832 40.479,-193.599"/>
</g>
<!-- Node3 -->
<g id="node3" class="node"><title>Node3</title>
<g id="a_node3"><a xlink:href="rightTriangle_8h.html" target="_top" xlink:title="rightTriangle.h">
<polygon fill="white" stroke="black" points="68,-168.5 68,-187.5 146,-187.5 146,-168.5 68,-168.5"/>
<text text-anchor="middle" x="107" y="-175.5" font-family="Helvetica,sans-Serif" font-size="10.00">rightTriangle.h</text>
</a>
</g>
</g>
<!-- Node1&#45;&gt;Node3 -->
<g id="edge2" class="edge"><title>Node1&#45;&gt;Node3</title>
<path fill="none" stroke="midnightblue" d="M72.7703,-224.083C78.5616,-216.455 87.0585,-205.264 94.1375,-195.941"/>
<polygon fill="midnightblue" stroke="midnightblue" points="97.0961,-197.832 100.356,-187.751 91.521,-193.599 97.0961,-197.832"/>
</g>
<!-- Node4 -->
<g id="node4" class="node"><title>Node4</title>
<polygon fill="white" stroke="#bfbfbf" points="102,-0.5 102,-19.5 156,-19.5 156,-0.5 102,-0.5"/>
<text text-anchor="middle" x="129" y="-7.5" font-family="Helvetica,sans-Serif" font-size="10.00">iostream</text>
</g>
<!-- Node3&#45;&gt;Node4 -->
<g id="edge3" class="edge"><title>Node3&#45;&gt;Node4</title>
<path fill="none" stroke="midnightblue" d="M96.7014,-168.251C74.1354,-147.99 24.1771,-96.4873 48,-56 57.6158,-39.6579 75.5478,-28.8249 92.0997,-21.8922"/>
<polygon fill="midnightblue" stroke="midnightblue" points="93.5258,-25.0941 101.613,-18.249 91.0222,-18.5571 93.5258,-25.0941"/>
</g>
<!-- Node5 -->
<g id="node5" class="node"><title>Node5</title>
<polygon fill="white" stroke="#bfbfbf" points="216.5,-0.5 216.5,-19.5 257.5,-19.5 257.5,-0.5 216.5,-0.5"/>
<text text-anchor="middle" x="237" y="-7.5" font-family="Helvetica,sans-Serif" font-size="10.00">string</text>
</g>
<!-- Node3&#45;&gt;Node5 -->
<g id="edge4" class="edge"><title>Node3&#45;&gt;Node5</title>
<path fill="none" stroke="midnightblue" d="M127.356,-168.432C157.811,-154.329 214.007,-123.02 236,-76 242.724,-61.6239 242.363,-43.4282 240.671,-29.9472"/>
<polygon fill="midnightblue" stroke="midnightblue" points="244.102,-29.2393 239.064,-19.9194 237.191,-30.3474 244.102,-29.2393"/>
</g>
<!-- Node6 -->
<g id="node6" class="node"><title>Node6</title>
<polygon fill="white" stroke="#bfbfbf" points="57,-56.5 57,-75.5 101,-75.5 101,-56.5 57,-56.5"/>
<text text-anchor="middle" x="79" y="-63.5" font-family="Helvetica,sans-Serif" font-size="10.00">cmath</text>
</g>
<!-- Node3&#45;&gt;Node6 -->
<g id="edge5" class="edge"><title>Node3&#45;&gt;Node6</title>
<path fill="none" stroke="midnightblue" d="M104.803,-168.368C100.284,-150.617 89.8605,-109.666 83.7339,-85.5974"/>
<polygon fill="midnightblue" stroke="midnightblue" points="87.0456,-84.419 81.1869,-75.5914 80.2619,-86.1458 87.0456,-84.419"/>
</g>
<!-- Node7 -->
<g id="node7" class="node"><title>Node7</title>
<g id="a_node7"><a xlink:href="triangle_8h.html" target="_top" xlink:title="triangle.h">
<polygon fill="white" stroke="black" points="107,-112.5 107,-131.5 163,-131.5 163,-112.5 107,-112.5"/>
<text text-anchor="middle" x="135" y="-119.5" font-family="Helvetica,sans-Serif" font-size="10.00">triangle.h</text>
</a>
</g>
</g>
<!-- Node3&#45;&gt;Node7 -->
<g id="edge6" class="edge"><title>Node3&#45;&gt;Node7</title>
<path fill="none" stroke="midnightblue" d="M111.624,-168.083C115.456,-160.691 121.024,-149.953 125.765,-140.811"/>
<polygon fill="midnightblue" stroke="midnightblue" points="128.966,-142.24 130.462,-131.751 122.752,-139.018 128.966,-142.24"/>
</g>
<!-- Node7&#45;&gt;Node4 -->
<g id="edge7" class="edge"><title>Node7&#45;&gt;Node4</title>
<path fill="none" stroke="midnightblue" d="M134.529,-112.368C133.561,-94.617 131.327,-53.6664 130.014,-29.5974"/>
<polygon fill="midnightblue" stroke="midnightblue" points="133.508,-29.3859 129.469,-19.5914 126.519,-29.7672 133.508,-29.3859"/>
</g>
<!-- Node7&#45;&gt;Node5 -->
<g id="edge8" class="edge"><title>Node7&#45;&gt;Node5</title>
<path fill="none" stroke="midnightblue" d="M161.793,-112.359C179.793,-105.262 202.742,-93.4989 217,-76 227.828,-62.7107 232.807,-43.5882 235.089,-29.5233"/>
<polygon fill="midnightblue" stroke="midnightblue" points="238.568,-29.9067 236.4,-19.536 231.628,-28.9951 238.568,-29.9067"/>
</g>
<!-- Node7&#45;&gt;Node6 -->
<g id="edge9" class="edge"><title>Node7&#45;&gt;Node6</title>
<path fill="none" stroke="midnightblue" d="M126.003,-112.324C117.806,-104.42 105.494,-92.5482 95.528,-82.9377"/>
<polygon fill="midnightblue" stroke="midnightblue" points="97.789,-80.2558 88.1611,-75.8339 92.9301,-85.2947 97.789,-80.2558"/>
</g>
<!-- Node8 -->
<g id="node8" class="node"><title>Node8</title>
<g id="a_node8"><a xlink:href="shape_8h.html" target="_top" xlink:title="shape.h">
<polygon fill="white" stroke="black" points="157.5,-56.5 157.5,-75.5 208.5,-75.5 208.5,-56.5 157.5,-56.5"/>
<text text-anchor="middle" x="183" y="-63.5" font-family="Helvetica,sans-Serif" font-size="10.00">shape.h</text>
</a>
</g>
</g>
<!-- Node7&#45;&gt;Node8 -->
<g id="edge10" class="edge"><title>Node7&#45;&gt;Node8</title>
<path fill="none" stroke="midnightblue" d="M142.926,-112.083C149.846,-104.298 160.065,-92.8015 168.452,-83.3665"/>
<polygon fill="midnightblue" stroke="midnightblue" points="171.194,-85.5505 175.221,-75.7511 165.962,-80.8999 171.194,-85.5505"/>
</g>
<!-- Node8&#45;&gt;Node4 -->
<g id="edge11" class="edge"><title>Node8&#45;&gt;Node4</title>
<path fill="none" stroke="midnightblue" d="M174.083,-56.083C166.22,-48.2195 154.569,-36.5688 145.081,-27.0813"/>
<polygon fill="midnightblue" stroke="midnightblue" points="147.297,-24.3473 137.751,-19.7511 142.347,-29.2971 147.297,-24.3473"/>
</g>
<!-- Node8&#45;&gt;Node5 -->
<g id="edge12" class="edge"><title>Node8&#45;&gt;Node5</title>
<path fill="none" stroke="midnightblue" d="M191.917,-56.083C199.78,-48.2195 211.431,-36.5688 220.919,-27.0813"/>
<polygon fill="midnightblue" stroke="midnightblue" points="223.653,-29.2971 228.249,-19.7511 218.703,-24.3473 223.653,-29.2971"/>
</g>
</g>
</svg>
