<?xml version="1.0" encoding="UTF-8" standalone="no"?>
<!DOCTYPE svg PUBLIC "-//W3C//DTD SVG 1.1//EN"
 "http://www.w3.org/Graphics/SVG/1.1/DTD/svg11.dtd">
<!-- Generated by graphviz version 2.36.0 (20140111.2315)
 -->
<!-- Title: operator&gt;&gt; Pages: 1 -->
<svg width="356pt" height="66pt"
 viewBox="0.00 0.00 356.00 66.00" xmlns="http://www.w3.org/2000/svg" xmlns:xlink="http://www.w3.org/1999/xlink">
<g id="graph0" class="graph" transform="scale(1 1) rotate(0) translate(4 62)">
<title>operator&gt;&gt;</title>
<polygon fill="white" stroke="none" points="-4,4 -4,-62 352,-62 352,4 -4,4"/>
<!-- Node1 -->
<g id="node1" class="node"><title>Node1</title>
<polygon fill="#bfbfbf" stroke="black" points="0,-19.5 0,-38.5 64,-38.5 64,-19.5 0,-19.5"/>
<text text-anchor="middle" x="32" y="-26.5" font-family="Helvetica,sans-Serif" font-size="10.00">operator&gt;&gt;</text>
</g>
<!-- Node2 -->
<g id="node2" class="node"><title>Node2</title>
<g id="a_node2"><a xlink:href="classShapeFactory.html#afa1a55b6b6f30a734ab70a5d83e72d95" target="_top" xlink:title="ShapeFactory::createShape">
<polygon fill="white" stroke="black" points="100,-38.5 100,-57.5 238,-57.5 238,-38.5 100,-38.5"/>
<text text-anchor="middle" x="169" y="-45.5" font-family="Helvetica,sans-Serif" font-size="10.00">ShapeFactory::createShape</text>
</a>
</g>
</g>
<!-- Node1&#45;&gt;Node2 -->
<g id="edge1" class="edge"><title>Node1&#45;&gt;Node2</title>
<path fill="none" stroke="midnightblue" d="M64.311,-33.4067C72.262,-34.5258 81.1642,-35.7787 90.3221,-37.0676"/>
<polygon fill="midnightblue" stroke="midnightblue" points="89.9367,-40.5477 100.327,-38.4756 90.9124,-33.616 89.9367,-40.5477"/>
</g>
<!-- Node4 -->
<g id="node4" class="node"><title>Node4</title>
<g id="a_node4"><a xlink:href="classShape.html#a7487af3ecc94868c2e74c69c5ca2d504" target="_top" xlink:title="Shape::read">
<polygon fill="white" stroke="black" points="134.5,-0.5 134.5,-19.5 203.5,-19.5 203.5,-0.5 134.5,-0.5"/>
<text text-anchor="middle" x="169" y="-7.5" font-family="Helvetica,sans-Serif" font-size="10.00">Shape::read</text>
</a>
</g>
</g>
<!-- Node1&#45;&gt;Node4 -->
<g id="edge3" class="edge"><title>Node1&#45;&gt;Node4</title>
<path fill="none" stroke="midnightblue" d="M64.311,-24.5933C82.22,-22.0727 104.954,-18.8731 124.569,-16.1126"/>
<polygon fill="midnightblue" stroke="midnightblue" points="125.085,-19.5745 134.499,-14.7149 124.109,-12.6429 125.085,-19.5745"/>
</g>
<!-- Node3 -->
<g id="node3" class="node"><title>Node3</title>
<g id="a_node3"><a xlink:href="classShape.html#a9925268873803b18244ccb79599425fd" target="_top" xlink:title="Shape::clone">
<polygon fill="white" stroke="black" points="274,-38.5 274,-57.5 348,-57.5 348,-38.5 274,-38.5"/>
<text text-anchor="middle" x="311" y="-45.5" font-family="Helvetica,sans-Serif" font-size="10.00">Shape::clone</text>
</a>
</g>
</g>
<!-- Node2&#45;&gt;Node3 -->
<g id="edge2" class="edge"><title>Node2&#45;&gt;Node3</title>
<path fill="none" stroke="midnightblue" d="M238.36,-48C246.949,-48 255.572,-48 263.709,-48"/>
<polygon fill="midnightblue" stroke="midnightblue" points="263.719,-51.5001 273.719,-48 263.719,-44.5001 263.719,-51.5001"/>
</g>
</g>
</svg>
