<?xml version="1.0" encoding="UTF-8" standalone="no"?>
<!DOCTYPE svg PUBLIC "-//W3C//DTD SVG 1.1//EN"
 "http://www.w3.org/Graphics/SVG/1.1/DTD/svg11.dtd">
<!-- Generated by graphviz version 2.36.0 (20140111.2315)
 -->
<!-- Title: ShapeCollection.cpp Pages: 1 -->
<svg width="347pt" height="196pt"
 viewBox="0.00 0.00 347.00 196.00" xmlns="http://www.w3.org/2000/svg" xmlns:xlink="http://www.w3.org/1999/xlink">
<g id="graph0" class="graph" transform="scale(1 1) rotate(0) translate(4 192)">
<title>ShapeCollection.cpp</title>
<polygon fill="white" stroke="none" points="-4,4 -4,-192 343,-192 343,4 -4,4"/>
<!-- Node1 -->
<g id="node1" class="node"><title>Node1</title>
<polygon fill="#bfbfbf" stroke="black" points="67.5,-168.5 67.5,-187.5 174.5,-187.5 174.5,-168.5 67.5,-168.5"/>
<text text-anchor="middle" x="121" y="-175.5" font-family="Helvetica,sans-Serif" font-size="10.00">ShapeCollection.cpp</text>
</g>
<!-- Node2 -->
<g id="node2" class="node"><title>Node2</title>
<polygon fill="white" stroke="#bfbfbf" points="0,-112.5 0,-131.5 40,-131.5 40,-112.5 0,-112.5"/>
<text text-anchor="middle" x="20" y="-119.5" font-family="Helvetica,sans-Serif" font-size="10.00">utility</text>
</g>
<!-- Node1&#45;&gt;Node2 -->
<g id="edge1" class="edge"><title>Node1&#45;&gt;Node2</title>
<path fill="none" stroke="midnightblue" d="M104.773,-168.324C88.649,-159.703 63.6998,-146.364 45.0359,-136.386"/>
<polygon fill="midnightblue" stroke="midnightblue" points="46.6561,-133.283 36.1871,-131.655 43.3556,-139.456 46.6561,-133.283"/>
</g>
<!-- Node3 -->
<g id="node3" class="node"><title>Node3</title>
<polygon fill="white" stroke="#bfbfbf" points="58,-112.5 58,-131.5 114,-131.5 114,-112.5 58,-112.5"/>
<text text-anchor="middle" x="86" y="-119.5" font-family="Helvetica,sans-Serif" font-size="10.00">algorithm</text>
</g>
<!-- Node1&#45;&gt;Node3 -->
<g id="edge2" class="edge"><title>Node1&#45;&gt;Node3</title>
<path fill="none" stroke="midnightblue" d="M115.22,-168.083C110.328,-160.534 103.173,-149.495 97.1674,-140.23"/>
<polygon fill="midnightblue" stroke="midnightblue" points="100.048,-138.239 91.672,-131.751 94.174,-142.046 100.048,-138.239"/>
</g>
<!-- Node4 -->
<g id="node4" class="node"><title>Node4</title>
<polygon fill="white" stroke="#bfbfbf" points="132.5,-112.5 132.5,-131.5 181.5,-131.5 181.5,-112.5 132.5,-112.5"/>
<text text-anchor="middle" x="157" y="-119.5" font-family="Helvetica,sans-Serif" font-size="10.00">cassert</text>
</g>
<!-- Node1&#45;&gt;Node4 -->
<g id="edge3" class="edge"><title>Node1&#45;&gt;Node4</title>
<path fill="none" stroke="midnightblue" d="M126.945,-168.083C131.977,-160.534 139.337,-149.495 145.513,-140.23"/>
<polygon fill="midnightblue" stroke="midnightblue" points="148.531,-142.013 151.166,-131.751 142.707,-138.13 148.531,-142.013"/>
</g>
<!-- Node5 -->
<g id="node5" class="node"><title>Node5</title>
<g id="a_node5"><a xlink:href="ShapeCollection_8h.html" target="_top" xlink:title="ShapeCollection.h">
<polygon fill="white" stroke="black" points="200,-112.5 200,-131.5 296,-131.5 296,-112.5 200,-112.5"/>
<text text-anchor="middle" x="248" y="-119.5" font-family="Helvetica,sans-Serif" font-size="10.00">ShapeCollection.h</text>
</a>
</g>
</g>
<!-- Node1&#45;&gt;Node5 -->
<g id="edge4" class="edge"><title>Node1&#45;&gt;Node5</title>
<path fill="none" stroke="midnightblue" d="M141.124,-168.444C162.024,-159.557 194.935,-145.563 218.716,-135.451"/>
<polygon fill="midnightblue" stroke="midnightblue" points="220.138,-138.65 227.971,-131.516 217.398,-132.208 220.138,-138.65"/>
</g>
<!-- Node6 -->
<g id="node6" class="node"><title>Node6</title>
<polygon fill="white" stroke="#bfbfbf" points="196,-0.5 196,-19.5 250,-19.5 250,-0.5 196,-0.5"/>
<text text-anchor="middle" x="223" y="-7.5" font-family="Helvetica,sans-Serif" font-size="10.00">iostream</text>
</g>
<!-- Node5&#45;&gt;Node6 -->
<g id="edge5" class="edge"><title>Node5&#45;&gt;Node6</title>
<path fill="none" stroke="midnightblue" d="M239.517,-112.234C231.946,-103.75 221.396,-90.1314 217,-76 212.266,-60.7828 214.543,-42.6701 217.558,-29.4347"/>
<polygon fill="midnightblue" stroke="midnightblue" points="220.976,-30.1954 220.125,-19.6348 214.205,-28.4211 220.976,-30.1954"/>
</g>
<!-- Node7 -->
<g id="node7" class="node"><title>Node7</title>
<polygon fill="white" stroke="#bfbfbf" points="226,-56.5 226,-75.5 270,-75.5 270,-56.5 226,-56.5"/>
<text text-anchor="middle" x="248" y="-63.5" font-family="Helvetica,sans-Serif" font-size="10.00">vector</text>
</g>
<!-- Node5&#45;&gt;Node7 -->
<g id="edge6" class="edge"><title>Node5&#45;&gt;Node7</title>
<path fill="none" stroke="midnightblue" d="M248,-112.083C248,-105.006 248,-94.8611 248,-85.9865"/>
<polygon fill="midnightblue" stroke="midnightblue" points="251.5,-85.751 248,-75.7511 244.5,-85.7511 251.5,-85.751"/>
</g>
<!-- Node8 -->
<g id="node8" class="node"><title>Node8</title>
<g id="a_node8"><a xlink:href="shape_8h.html" target="_top" xlink:title="shape.h">
<polygon fill="white" stroke="black" points="288.5,-56.5 288.5,-75.5 339.5,-75.5 339.5,-56.5 288.5,-56.5"/>
<text text-anchor="middle" x="314" y="-63.5" font-family="Helvetica,sans-Serif" font-size="10.00">shape.h</text>
</a>
</g>
</g>
<!-- Node5&#45;&gt;Node8 -->
<g id="edge7" class="edge"><title>Node5&#45;&gt;Node8</title>
<path fill="none" stroke="midnightblue" d="M258.604,-112.324C268.456,-104.263 283.351,-92.0765 295.215,-82.3695"/>
<polygon fill="midnightblue" stroke="midnightblue" points="297.68,-84.8752 303.203,-75.8339 293.247,-79.4575 297.68,-84.8752"/>
</g>
<!-- Node8&#45;&gt;Node6 -->
<g id="edge8" class="edge"><title>Node8&#45;&gt;Node6</title>
<path fill="none" stroke="midnightblue" d="M299.379,-56.324C285.051,-47.8215 262.987,-34.7288 246.251,-24.7975"/>
<polygon fill="midnightblue" stroke="midnightblue" points="247.97,-21.7478 237.584,-19.6545 244.398,-27.7677 247.97,-21.7478"/>
</g>
<!-- Node9 -->
<g id="node9" class="node"><title>Node9</title>
<polygon fill="white" stroke="#bfbfbf" points="293.5,-0.5 293.5,-19.5 334.5,-19.5 334.5,-0.5 293.5,-0.5"/>
<text text-anchor="middle" x="314" y="-7.5" font-family="Helvetica,sans-Serif" font-size="10.00">string</text>
</g>
<!-- Node8&#45;&gt;Node9 -->
<g id="edge9" class="edge"><title>Node8&#45;&gt;Node9</title>
<path fill="none" stroke="midnightblue" d="M314,-56.083C314,-49.0059 314,-38.8611 314,-29.9865"/>
<polygon fill="midnightblue" stroke="midnightblue" points="317.5,-29.751 314,-19.7511 310.5,-29.7511 317.5,-29.751"/>
</g>
</g>
</svg>
