<?xml version="1.0" encoding="UTF-8" standalone="no"?>
<!DOCTYPE svg PUBLIC "-//W3C//DTD SVG 1.1//EN"
 "http://www.w3.org/Graphics/SVG/1.1/DTD/svg11.dtd">
<!-- Generated by graphviz version 2.36.0 (20140111.2315)
 -->
<!-- Title: square.cpp Pages: 1 -->
<svg width="166pt" height="196pt"
 viewBox="0.00 0.00 166.00 196.00" xmlns="http://www.w3.org/2000/svg" xmlns:xlink="http://www.w3.org/1999/xlink">
<g id="graph0" class="graph" transform="scale(1 1) rotate(0) translate(4 192)">
<title>square.cpp</title>
<polygon fill="white" stroke="none" points="-4,4 -4,-192 162,-192 162,4 -4,4"/>
<!-- Node1 -->
<g id="node1" class="node"><title>Node1</title>
<polygon fill="#bfbfbf" stroke="black" points="27.5,-168.5 27.5,-187.5 92.5,-187.5 92.5,-168.5 27.5,-168.5"/>
<text text-anchor="middle" x="60" y="-175.5" font-family="Helvetica,sans-Serif" font-size="10.00">square.cpp</text>
</g>
<!-- Node2 -->
<g id="node2" class="node"><title>Node2</title>
<polygon fill="white" stroke="#bfbfbf" points="0,-112.5 0,-131.5 50,-131.5 50,-112.5 0,-112.5"/>
<text text-anchor="middle" x="25" y="-119.5" font-family="Helvetica,sans-Serif" font-size="10.00">iomanip</text>
</g>
<!-- Node1&#45;&gt;Node2 -->
<g id="edge1" class="edge"><title>Node1&#45;&gt;Node2</title>
<path fill="none" stroke="midnightblue" d="M54.2205,-168.083C49.3276,-160.534 42.1726,-149.495 36.1674,-140.23"/>
<polygon fill="midnightblue" stroke="midnightblue" points="39.048,-138.239 30.672,-131.751 33.174,-142.046 39.048,-138.239"/>
</g>
<!-- Node3 -->
<g id="node3" class="node"><title>Node3</title>
<g id="a_node3"><a xlink:href="square_8h.html" target="_top" xlink:title="square.h">
<polygon fill="white" stroke="black" points="68,-112.5 68,-131.5 122,-131.5 122,-112.5 68,-112.5"/>
<text text-anchor="middle" x="95" y="-119.5" font-family="Helvetica,sans-Serif" font-size="10.00">square.h</text>
</a>
</g>
</g>
<!-- Node1&#45;&gt;Node3 -->
<g id="edge2" class="edge"><title>Node1&#45;&gt;Node3</title>
<path fill="none" stroke="midnightblue" d="M65.7795,-168.083C70.6724,-160.534 77.8274,-149.495 83.8326,-140.23"/>
<polygon fill="midnightblue" stroke="midnightblue" points="86.826,-142.046 89.328,-131.751 80.952,-138.239 86.826,-142.046"/>
</g>
<!-- Node4 -->
<g id="node4" class="node"><title>Node4</title>
<polygon fill="white" stroke="#bfbfbf" points="24,-0.5 24,-19.5 78,-19.5 78,-0.5 24,-0.5"/>
<text text-anchor="middle" x="51" y="-7.5" font-family="Helvetica,sans-Serif" font-size="10.00">iostream</text>
</g>
<!-- Node3&#45;&gt;Node4 -->
<g id="edge3" class="edge"><title>Node3&#45;&gt;Node4</title>
<path fill="none" stroke="midnightblue" d="M85.8985,-112.277C77.6865,-103.824 66.0028,-90.2252 60,-76 53.8337,-61.3874 51.7125,-43.4448 51.0603,-30.1157"/>
<polygon fill="midnightblue" stroke="midnightblue" points="54.551,-29.6983 50.8007,-19.7894 47.5533,-29.8743 54.551,-29.6983"/>
</g>
<!-- Node5 -->
<g id="node5" class="node"><title>Node5</title>
<polygon fill="white" stroke="#bfbfbf" points="117.5,-0.5 117.5,-19.5 158.5,-19.5 158.5,-0.5 117.5,-0.5"/>
<text text-anchor="middle" x="138" y="-7.5" font-family="Helvetica,sans-Serif" font-size="10.00">string</text>
</g>
<!-- Node3&#45;&gt;Node5 -->
<g id="edge4" class="edge"><title>Node3&#45;&gt;Node5</title>
<path fill="none" stroke="midnightblue" d="M103.837,-112.226C111.812,-103.737 123.16,-90.1146 129,-76 135.064,-61.3446 137.194,-43.4058 137.876,-30.089"/>
<polygon fill="midnightblue" stroke="midnightblue" points="141.383,-29.8688 138.164,-19.7748 134.386,-29.673 141.383,-29.8688"/>
</g>
<!-- Node6 -->
<g id="node6" class="node"><title>Node6</title>
<g id="a_node6"><a xlink:href="shape_8h.html" target="_top" xlink:title="shape.h">
<polygon fill="white" stroke="black" points="69.5,-56.5 69.5,-75.5 120.5,-75.5 120.5,-56.5 69.5,-56.5"/>
<text text-anchor="middle" x="95" y="-63.5" font-family="Helvetica,sans-Serif" font-size="10.00">shape.h</text>
</a>
</g>
</g>
<!-- Node3&#45;&gt;Node6 -->
<g id="edge5" class="edge"><title>Node3&#45;&gt;Node6</title>
<path fill="none" stroke="midnightblue" d="M95,-112.083C95,-105.006 95,-94.8611 95,-85.9865"/>
<polygon fill="midnightblue" stroke="midnightblue" points="98.5001,-85.751 95,-75.7511 91.5001,-85.7511 98.5001,-85.751"/>
</g>
<!-- Node6&#45;&gt;Node4 -->
<g id="edge6" class="edge"><title>Node6&#45;&gt;Node4</title>
<path fill="none" stroke="midnightblue" d="M87.7343,-56.083C81.4552,-48.3768 72.2124,-37.0333 64.5692,-27.6531"/>
<polygon fill="midnightblue" stroke="midnightblue" points="67.1606,-25.2926 58.1305,-19.7511 61.7339,-29.7143 67.1606,-25.2926"/>
</g>
<!-- Node6&#45;&gt;Node5 -->
<g id="edge7" class="edge"><title>Node6&#45;&gt;Node5</title>
<path fill="none" stroke="midnightblue" d="M102.101,-56.083C108.237,-48.3768 117.27,-37.0333 124.739,-27.6531"/>
<polygon fill="midnightblue" stroke="midnightblue" points="127.54,-29.7542 131.032,-19.7511 122.064,-25.3936 127.54,-29.7542"/>
</g>
</g>
</svg>
